<svg xmlns="http://www.w3.org/2000/svg" viewBox="0 0 512.001 512.001"><path d="M501.447 342.65c-6.176-7.597-12.769-12.735-12.769-12.735l-92.775-23.325-92.775 23.325s-6.593 5.139-12.769 12.735c-7.801 9.595-.857 23.96 11.508 23.96H489.94c12.364.001 19.306-14.365 11.507-23.96zm-305.702-91.625h120.511v43.261H195.745zM10.553 342.65c6.176-7.597 12.769-12.735 12.769-12.735l92.775-23.325 92.775 23.325s6.593 5.139 12.769 12.735c7.799 9.595.857 23.96-11.508 23.96H22.061c-12.365.001-19.307-14.365-11.508-23.96z" fill="#ea7f49"/><path d="M41.459 342.65c6.176-7.597 12.769-12.735 12.769-12.735l77.322-19.441-15.453-3.885-92.775 23.325s-6.593 5.139-12.769 12.735c-7.8 9.595-.857 23.961 11.508 23.961h30.905c-12.365.001-19.307-14.365-11.507-23.96z" fill="#e8742e"/><path d="M395.901 167.341l-116.099 21.95c0 12.594 1.399 22.225 3.509 30.868l112.593 19.207 112.59-19.207c2.109-8.643 3.509-18.273 3.509-30.868l-116.102-21.95zm-279.802 0l116.099 21.95c0 12.594-1.399 22.225-3.509 30.868l-112.593 19.207L3.509 220.16C1.399 211.516 0 201.886 0 189.291l116.099-21.95z" fill="#596674"/><path d="M34.414 220.16c-2.11-8.643-3.509-18.273-3.509-30.868l100.647-19.028-15.453-2.922L0 189.291c0 12.594 1.399 22.225 3.509 30.868l112.59 19.207 15.453-2.636-97.138-16.57zm279.802 0c-2.109-8.643-3.509-18.273-3.509-30.868l100.647-19.028-15.453-2.922-116.099 21.95c0 12.594 1.399 22.225 3.509 30.868l112.588 19.207 15.453-2.636-97.136-16.571z" fill="#364e66"/><path d="M475.128 145.39h-158.45c-20.365 0-36.872 16.509-36.872 36.872v7.028H512v-7.028c0-20.363-16.509-36.872-36.872-36.872z" fill="#efedee"/><path d="M321.26 342.65c6.176-7.597 12.769-12.735 12.769-12.735l77.322-19.441-15.453-3.885-92.775 23.325s-6.593 5.139-12.769 12.735c-7.8 9.595-.857 23.961 11.508 23.961h30.905c-12.364.001-19.307-14.365-11.507-23.96z" fill="#e8742e"/><path d="M508.491 220.16c-6.513 26.681-19.818 43.956-19.818 109.757H303.127c0-65.8-13.304-83.076-19.818-109.757h225.182z" fill="#fae076"/><path d="M336.503 276.523a7.725 7.725 0 0 1-7.726-7.726v-10.75c0-4.267 3.458-7.726 7.726-7.726s7.726 3.459 7.726 7.726v10.75a7.726 7.726 0 0 1-7.726 7.726zm118.795 0a7.725 7.725 0 0 1-7.726-7.726v-10.75a7.725 7.725 0 0 1 7.726-7.726 7.725 7.725 0 0 1 7.726 7.726v10.75a7.726 7.726 0 0 1-7.726 7.726zm-59.397 5.737c-7.944 0-15.407-3.326-20.478-9.128a7.727 7.727 0 0 1 11.636-10.17c2.135 2.444 5.358 3.845 8.842 3.845s6.707-1.401 8.843-3.845a7.724 7.724 0 0 1 10.901-.732 7.724 7.724 0 0 1 .732 10.902c-5.07 5.801-12.534 9.128-20.476 9.128z" fill="#596674"/><path d="M36.873 145.39h158.449c20.365 0 36.872 16.509 36.872 36.872v7.028H0v-7.028c0-20.363 16.509-36.872 36.873-36.872z" fill="#efedee"/><path d="M67.778 145.391H36.872C16.509 145.391 0 161.899 0 182.263v7.028h30.905v-7.028c0-20.364 16.509-36.872 36.873-36.872z" fill="#d2d2d2"/><path d="M251.509 251.028h-55.766v43.261h45.781c2.174-19.484 6.078-31.672 9.985-43.261z" fill="#e8742e"/><path d="M3.509 220.16c6.513 26.681 19.818 43.956 19.818 109.757h185.547c0-65.8 13.304-83.076 19.818-109.757H3.509z" fill="#fae076"/><path d="M3.509 220.16c6.513 26.681 19.818 43.956 19.818 109.757h30.905c0-65.8-13.304-83.076-19.818-109.757H3.509z" fill="#edbd4e"/><path d="M347.579 145.391h-30.905c-20.365 0-36.872 16.509-36.872 36.872v7.028h30.905v-7.028c0-20.364 16.508-36.872 36.872-36.872z" fill="#d2d2d2"/><path d="M283.31 220.16c6.513 26.681 19.818 43.956 19.818 109.757h30.905c0-65.8-13.304-83.076-19.818-109.757H283.31z" fill="#edbd4e"/><path d="M175.496 276.523a7.725 7.725 0 0 1-7.726-7.726v-10.75c0-4.267 3.458-7.726 7.726-7.726s7.726 3.459 7.726 7.726v10.75a7.725 7.725 0 0 1-7.726 7.726zm-118.794 0a7.725 7.725 0 0 1-7.726-7.726v-10.75c0-4.267 3.458-7.726 7.726-7.726s7.726 3.459 7.726 7.726v10.75a7.725 7.725 0 0 1-7.726 7.726zm59.397 5.737c-7.943 0-15.406-3.326-20.477-9.127a7.725 7.725 0 0 1 .732-10.902 7.725 7.725 0 0 1 10.901.732c2.136 2.444 5.359 3.845 8.843 3.845s6.708-1.401 8.842-3.845a7.724 7.724 0 0 1 10.902-.732 7.725 7.725 0 0 1 .733 10.902c-5.068 5.8-12.532 9.127-20.476 9.127z" fill="#596674"/></svg>