<svg xmlns="http://www.w3.org/2000/svg" viewBox="0 0 512 512"><path d="M378.09 166.543L99.434 405.198l31.82 14.359 31.821-14.359L409.91 198.362zM97.445 78.084h-14.67a8 8 0 0 0-8.001 8.001v35.339h30.674V86.085a8.004 8.004 0 0 0-8.003-8.001zm55.291 0h-14.671a8 8 0 0 0-8.001 8.001v35.339h30.674V86.085a8.003 8.003 0 0 0-8.002-8.001zm110.579 0h-14.671a8 8 0 0 0-8.001 8.001v35.339h30.674V86.085a8.001 8.001 0 0 0-8.002-8.001zm55.29 0h-14.671a8 8 0 0 0-8.001 8.001v35.339h30.674V86.085a8.001 8.001 0 0 0-8.002-8.001zm55.291 0h-14.671a8 8 0 0 0-8.001 8.001v35.339h30.674V86.085a8.004 8.004 0 0 0-8.002-8.001zm55.29 0h-14.671a8 8 0 0 0-8.001 8.001v35.339h30.674V86.085a8.003 8.003 0 0 0-8.002-8.001z" fill="#596674"/><path fill="#364e66" d="M231.941 347.491l81.257-68.088-33.442-28.641-80.735 69.144z"/><path fill="#596674" d="M133.91 166.543l278.656 238.655-31.82 14.359-31.821-14.359L102.09 198.362z"/><path d="M500.205 99.264H477.19L256 121.424 34.81 99.264H11.795C5.281 99.264 0 104.545 0 111.06v32.745c0 34.18 27.71 61.89 61.88 61.89h388.24c34.17 0 61.88-27.71 61.88-61.89V111.06c0-6.515-5.281-11.796-11.795-11.796z" fill="#85cdea"/><g fill="#efedee"><path d="M145.4 99.264H90.11l-27.65 22.16 27.65 22.161h55.29l27.65-22.161z"/><path d="M256 99.264h-55.3l-27.65 22.16 27.65 22.161H256l27.65-22.161zm110.59 0H311.3l-27.65 22.16 27.65 22.161h55.29l27.65-22.161zm55.3 0l-27.65 22.16 27.65 22.161h55.3V99.264z"/></g><path d="M366.59 99.267h55.3v44.318h-55.3zm-110.59 0h55.3v44.318H256zm-110.6 0h55.3v44.318h-55.3zm-110.59 0h55.3v44.318h-55.3z" fill="#d2d2d2"/><path d="M177.551 186.883a7.726 7.726 0 0 1-7.726-7.726v-14.198a7.726 7.726 0 1 1 15.452 0v14.198a7.725 7.725 0 0 1-7.726 7.726zm156.898 0a7.725 7.725 0 0 1-7.726-7.726v-14.198c0-4.267 3.458-7.726 7.726-7.726s7.726 3.459 7.726 7.726v14.198a7.724 7.724 0 0 1-7.726 7.726zM256 194.462c-9.775 0-18.953-4.085-25.179-11.207a7.726 7.726 0 0 1 11.633-10.17c3.291 3.765 8.228 5.925 13.545 5.925s10.253-2.159 13.545-5.925a7.723 7.723 0 0 1 10.901-.732 7.724 7.724 0 0 1 .732 10.902c-6.224 7.122-15.402 11.207-25.177 11.207z" fill="#596674"/><path d="M84.959 405.2h92.593v28.716H84.959zm249.489 0h92.593v28.716h-92.593z" fill="#364e66"/></svg>