<svg xmlns="http://www.w3.org/2000/svg" viewBox="0 0 512 512"><path fill="#f74f50" d="M187.647 266.257l-23.311 23.312.287 24.263 28.528 4.552 23.312-23.311.359-29.176z"/><path d="M326.354 291.14l-21.97 21.97-64.91-64.91 21.97-21.97zm44.164-44.146l-21.97 21.97-64.911-64.912 21.97-21.97zm44.159-44.171l-21.97 21.97-64.91-64.912 21.97-21.97z" fill="#fae076"/><path d="M284.3 249.094l-21.97 21.97-22.854-22.854 21.97-21.97zm20.08 64.023l-22.853-22.852 21.97-21.97 22.852 22.853zm88.325-88.334l-22.853-22.853 21.97-21.97 22.853 22.853zm-20.088-64.021l-21.97 21.97-22.853-22.854 21.97-21.97zm-44.163 44.171l-21.97 21.97-22.853-22.854 21.97-21.97zm20.087 64.022L325.688 246.1l21.97-21.97 22.853 22.854z" fill="#edbd4e"/><path d="M491.593 60.99c27.209 27.209 27.209 71.484 0 98.693L217.06 434.217c-49.592 49.592-130.275 49.592-179.867 0s-49.592-130.275 0-179.867l32.656-32.656c41.919-41.919 103.217-104.384 90.582-155.618l58.906 34.946 34.946 58.906c-51.241-12.642-113.699 48.663-155.618 90.582l-32.656 32.656c-33.7 33.699-33.7 88.536 0 122.235s88.536 33.699 122.235 0l274.533-274.533c11.318-11.318 11.325-29.737 0-41.062-11.318-11.318-29.737-11.31-41.055.007l-205.259 205.26-28.815-28.815 205.259-205.26c27.209-27.21 71.484-27.21 98.686-.008z" fill="#fd6f71"/><path d="M172.811 53.689l-12.383 12.383 93.854 93.854 12.383-12.383c6.391-6.391 6.391-16.753 0-23.144l-70.71-70.71c-6.39-6.391-16.753-6.391-23.144 0z" fill="#fae076"/><path d="M266.666 124.4l-20.604-20.604c6.391 6.391 6.391 16.753 0 23.144l-12.383 12.383 20.604 20.604 12.383-12.383c6.391-6.391 6.391-16.754 0-23.144z" fill="#edbd4e"/><path d="M109.593 322.025c-5.219.927-7.197 7.381-3.449 11.129l43.42 43.42c3.748 3.748 10.203 1.77 11.129-3.449 2.196-12.363 9.606-31.891 32.456-54.741l-28.815-28.815c-22.849 22.849-42.378 30.259-54.741 32.456z" fill="#fae076"/><path d="M177.697 302.931c-22.849 22.849-30.26 42.378-32.456 54.741-.927 5.219-7.381 7.197-11.129 3.449l15.453 15.453c3.748 3.748 10.203 1.77 11.129-3.449 2.196-12.363 9.606-31.892 32.456-54.741l-15.453-15.453z" fill="#edbd4e"/></svg>