<svg xmlns="http://www.w3.org/2000/svg" viewBox="0 0 512 512"><path d="M489.926 453.856h-38.719V130.56c0-21.938-17.847-39.785-39.785-39.785H100.577c-21.937 0-39.784 17.847-39.784 39.785v323.296H22.074V130.56c0-43.287 35.217-78.504 78.503-78.504h310.847c43.287 0 78.504 35.217 78.504 78.504v323.296h-.002z" fill="#ea7f49"/><path d="M193.734 188.726a7.724 7.724 0 0 1-6.761-3.975l-48.399-87.118a7.727 7.727 0 0 1 13.509-7.504l48.399 87.118a7.726 7.726 0 0 1-6.748 11.479zm124.532 0a7.727 7.727 0 0 1-6.748-11.48l48.399-87.118a7.726 7.726 0 1 1 13.508 7.504l-48.399 87.118a7.721 7.721 0 0 1-6.76 3.976z" fill="#596674"/><circle cx="256" cy="293.931" r="166.817" fill="#fae076"/><circle cx="256" cy="293.931" r="129.391" fill="#edbd4e"/><path d="M286.905 413.014c-71.458 0-129.387-57.928-129.387-129.387 0-51.359 29.924-95.728 73.286-116.625-59.396 11.723-104.191 64.091-104.191 126.927 0 71.458 57.928 129.387 129.387 129.387 20.1 0 39.129-4.583 56.1-12.762a129.976 129.976 0 0 1-25.195 2.46z" fill="#d99d2e"/><path d="M190.441 304.422a7.726 7.726 0 0 1-7.726-7.726v-11.865a7.726 7.726 0 1 1 15.452 0v11.865a7.725 7.725 0 0 1-7.726 7.726zm131.118 0a7.726 7.726 0 0 1-7.726-7.726v-11.865a7.726 7.726 0 1 1 15.452 0v11.865a7.727 7.727 0 0 1-7.726 7.726zM256 310.755c-8.535 0-16.553-3.572-21.998-9.8a7.727 7.727 0 0 1 11.633-10.171c2.511 2.871 6.288 4.518 10.365 4.518 4.076 0 7.854-1.646 10.364-4.517 2.809-3.213 7.689-3.541 10.902-.732s3.541 7.689.732 10.902c-5.445 6.229-13.462 9.8-21.998 9.8z" fill="#596674"/><path d="M98.847 52.1a46.96 46.96 0 0 0-.104 2.964v32.703c0 1.026.045 2.042.111 3.052a39.428 39.428 0 0 1 1.723-.043h48.99a46.81 46.81 0 0 0 .107-3.008V55.065c0-1.012-.043-2.013-.107-3.008h-48.991c-.579 0-1.151.031-1.729.043z" fill="#e8742e"/><path d="M145.328 39.386c-8.66 0-15.679 7.02-15.679 15.679v32.703c0 8.66 7.02 15.679 15.679 15.679 8.66 0 15.679-7.02 15.679-15.679V55.065c0-8.659-7.02-15.679-15.679-15.679z" fill="#364e66"/><path d="M370.675 52.057a46.784 46.784 0 0 0-.107 3.008v32.703c0 1.012.044 2.013.107 3.008h40.749c.578 0 1.151.02 1.722.043.066-1.01.111-2.025.111-3.052V55.065c0-.996-.042-1.983-.104-2.964-.577-.012-1.15-.043-1.73-.043h-40.749v-.001z" fill="#e8742e"/><path d="M366.672 39.386c8.66 0 15.679 7.02 15.679 15.679v32.703c0 8.66-7.02 15.679-15.679 15.679-8.66 0-15.679-7.02-15.679-15.679V55.065c0-8.659 7.02-15.679 15.679-15.679zM65.492 435.464H17.376C7.779 435.464 0 443.244 0 452.84v19.774h82.867V452.84c0-9.596-7.779-17.376-17.375-17.376zm381.016 0h48.116c9.596 0 17.376 7.779 17.376 17.376v19.774h-82.867V452.84c0-9.596 7.779-17.376 17.375-17.376z" fill="#364e66"/></svg>