<svg xmlns="http://www.w3.org/2000/svg" viewBox="0 0 512 512"><path d="M458.8 47.545l21.08-21.08c8.111-8.111 21.262-8.111 29.373 0a9.38 9.38 0 0 1 0 13.265l-29.134 29.134-22.721 1.402 1.402-22.721z" fill="#596674"/><path d="M436.449 41.135L391.895 51.42l69.792 69.792 18.433-18.433c9.365-9.365 9.365-24.55 0-33.917l-21.319-21.319a23.988 23.988 0 0 0-22.352-6.408z" fill="#efedee"/><path d="M480.119 68.863L459.515 48.26c9.365 9.365 9.365 24.55 0 33.917l-18.433 18.433 20.604 20.604 18.433-18.433c9.365-9.367 9.365-24.552 0-33.918z" fill="#d2d2d2"/><path d="M154.33 486.762c-16.071 16.071-42.123 16.071-58.194 0l-84.083-84.083c-16.071-16.071-16.071-42.123 0-58.194L331.299 25.238c16.071-16.071 42.123-16.071 58.194 0l84.083 84.083c16.071 16.071 16.071 42.123 0 58.194L246.5 259.685l-92.17 227.077z" fill="#58b78c"/><g fill="#d2d2d2"><path d="M138.289 328.827L102.815 364.3l25.758 61.231 61.231 25.757 35.473-35.473-25.761-61.228zm70.94-70.94l-35.474 35.474 25.761 61.226 61.227 25.762 35.473-35.473-25.756-61.231z"/><path d="M280.175 186.941l-35.473 35.473 25.758 61.231 61.23 25.756 35.474-35.473-25.761-61.227zM351.115 116l-35.474 35.474 25.762 61.227 61.227 25.761 35.473-35.473-25.758-61.231z"/></g><path d="M102.815 364.3l86.988 86.988-35.473 35.473-66.605-66.605c-11.257-11.257-11.257-29.51 0-40.766l15.09-15.09zm70.941-70.943l86.99 86.99-35.465 35.465-86.99-86.99zm70.949-70.946l86.99 86.99-35.473 35.472-86.99-86.99zm70.939-70.941l86.99 86.99-35.466 35.465-86.99-86.99zm91.328-50.56l66.605 66.605-35.473 35.473L351.116 116l15.09-15.09c11.256-11.256 29.509-11.256 40.766 0z" fill="#efedee"/><path d="M169.503 412.613l-18.371 18.371-57.5-57.5 18.37-18.371zm35.461-35.468l-18.37 18.371-57.5-57.5 18.37-18.37zm70.949-70.955l-18.371 18.371-57.5-57.5 18.37-18.37zm35.487-35.468l-18.371 18.371-57.5-57.5 18.371-18.371zm35.47-35.471l-18.372 18.372-57.5-57.5 18.371-18.372zm35.466-35.478l-18.371 18.371-57.5-57.5 18.371-18.37zm35.48-35.467l-18.371 18.371-57.5-57.5 18.371-18.371zM144.968 280.847a7.703 7.703 0 0 1-5.464-2.263L129.1 268.18a7.726 7.726 0 1 1 10.927-10.926l10.404 10.404a7.726 7.726 0 0 1-5.463 13.189zM259.936 165.88a7.703 7.703 0 0 1-5.464-2.263l-10.404-10.404a7.726 7.726 0 1 1 10.927-10.926l10.404 10.404a7.726 7.726 0 0 1-5.463 13.189zm-70.721 71.004c-.729 0-1.461-.025-2.193-.074a7.725 7.725 0 0 1-7.191-8.226 7.707 7.707 0 0 1 8.227-7.191c5.232.347 10.531-1.712 14.483-5.666 3.954-3.953 6.018-9.231 5.665-14.484a7.726 7.726 0 0 1 7.192-8.226c4.234-.298 7.94 2.934 8.226 7.191.651 9.701-3.05 19.341-10.157 26.446-6.569 6.57-15.303 10.23-24.252 10.23z" fill="#596674"/></svg>