<svg xmlns="http://www.w3.org/2000/svg" viewBox="0 0 511.999 511.999"><path d="M56.76 80.332h-21.1c-10.21 0-18.48 8.281-18.48 18.491v12.86h-.002v21.321H56.76l19.785-26.335L56.76 80.332zm132.83 0h-21.1c-10.21 0-18.48 8.281-18.48 18.491v12.86h-.002v21.321h39.583l19.785-25.808-19.786-26.864zm132.832 0h-21.1c-10.21 0-18.48 8.281-18.48 18.491v12.86h-.002v21.321h39.583l19.785-26.336-19.786-26.336zm132.818 0h-21.09c-10.21 0-18.48 8.281-18.48 18.491v34.18h39.57l19.791-26.336-19.791-26.335z" fill="#e8742e"/><path d="M43 376.336h426v30.666H43zm151-214.013h-41.333L132 252.997l20.666 60.449c0 7.487 6.07 13.557 13.557 13.557h14.219c7.487 0 13.557-6.07 13.557-13.557V296.78l20.666-60.449L194 162.323zm82.666 0h-41.333l-20.666 74.006 20.666 43.783c0 7.487 6.07 13.557 13.557 13.557h14.219c7.487 0 13.557-6.07 13.557-13.557v-16.666l20.666-43.783-20.666-57.34zm82.667 0H318l-20.666 57.34L318 246.778c0 7.487 6.07 13.557 13.557 13.557h14.219c7.487 0 13.557-6.07 13.557-13.557v-16.666L380 202.996l-20.667-40.673z" fill="#ea7f49"/><path d="M17.177 152.004h45.156v279.663H17.177zm432.487 0h45.156v279.663h-45.156zM318 162.323l-20.544 57h70.1L380 202.996l-20.667-40.673zm-20.789 57l-20.545-57h-41.332l-15.918 57zm-87.293 0l-15.918-57h-41.333l-12.992 57z" fill="#e8742e"/><path d="M111.333 162.323v167.789c0 7.487 6.07 13.557 13.557 13.557h14.219c7.487 0 13.557-6.07 13.557-13.557V162.323h-41.333zm96.224 148.012h14.219c7.487 0 13.557-6.07 13.557-13.557V162.323H194v134.456c0 7.487 6.069 13.556 13.557 13.556zm82.667-33.333h14.219c7.487 0 13.557-6.07 13.557-13.557V162.322h-41.333v101.123c-.001 7.488 6.069 13.557 13.557 13.557zm69.109-114.679v67.789c0 7.487 6.07 13.557 13.557 13.557h14.219c7.487 0 13.557-6.07 13.557-13.557v-67.789h-41.333z" fill="#fa9f6a"/><path d="M77.85 80.332H56.76v52.67h39.57v-34.18c0-10.209-8.27-18.49-18.48-18.49zm398.49 0c10.21 0 18.48 8.28 18.48 18.49v12.86h.002v21.321H455.24v-52.67h21.1zm-265.66 0h-21.09v52.67h39.57v-34.18c.001-10.209-8.27-18.49-18.48-18.49zm132.832 0h-21.09v52.67h39.57v-34.18c-.001-10.209-8.27-18.49-18.48-18.49zm15.825 81.994h41.331v57h-41.331zm-82.672 0h41.331v57h-41.331zm-82.661 0h41.331v57h-41.331zm-82.672 0h41.331v57h-41.331z" fill="#ea7f49"/><path d="M494.823 111.682H17.177C7.69 111.682 0 119.373 0 128.86v46.285c0 9.487 7.69 17.177 17.177 17.177h477.644c9.487 0 17.177-7.69 17.177-17.177V128.86c.002-9.487-7.688-17.178-17.175-17.178z" fill="#fa9f6a"/><path d="M178.273 162.781a7.5 7.5 0 0 1-7.5-7.5v-14.067a7.5 7.5 0 0 1 15 0v14.067a7.5 7.5 0 0 1-7.5 7.5zm155.454 0a7.5 7.5 0 0 1-7.5-7.5v-14.067a7.5 7.5 0 0 1 15 0v14.067a7.498 7.498 0 0 1-7.5 7.5zM256 170.29c-9.64 0-18.692-4.028-24.831-11.052a7.5 7.5 0 0 1 11.293-9.871c3.291 3.764 8.226 5.924 13.538 5.924 5.312 0 10.247-2.159 13.538-5.924a7.499 7.499 0 0 1 10.582-.711 7.5 7.5 0 0 1 .711 10.583c-6.138 7.023-15.19 11.051-24.831 11.051z" fill="#596674"/></svg>