<svg xmlns="http://www.w3.org/2000/svg" viewBox="0 0 512 512"><path d="M171.039 395.064l-15.924-38.18-38.18-15.924c-9.325 7.587-18.555 14.741-27.679 21.371l.684 37.198 26.553 30.576 33.175-7.363c6.63-9.123 13.782-18.353 21.371-27.678z" fill="#efedee"/><path d="M104.633 506.158c-13.639 13.639-46.821 2.583-74.098-24.693-27.277-27.278-38.332-60.46-24.693-74.098 26.311-7.965 54.328-23.881 83.415-45.034 6.164 11.956 15.014 23.897 25.764 34.647s22.691 19.6 34.647 25.764c-21.154 29.086-37.069 57.103-45.035 83.414z" fill="#596674"/><path d="M424.657 102.279l-16.916-25.12-23.173 2.752c-7.604 7.669-15.609 15.803-24.026 24.348v14.7l33.209 31.139 13.99 1.36c8.545-8.417 16.68-16.422 24.348-24.026l-7.432-25.153z" fill="#efedee"/><path d="M171.039 395.064c-10.444-4.265-21.861-12.206-31.879-22.224-10.026-10.026-17.951-21.443-22.224-31.879 64.708-52.67 133.527-126.157 199.739-192.369 15.755-15.755 30.342-30.584 43.868-44.335 7.612 6.47 15.827 14.008 24.509 22.691 8.682 8.681 16.221 16.897 22.691 24.509-13.751 13.525-28.58 28.114-44.335 43.868-66.213 66.212-139.699 135.032-192.369 199.739z" fill="#596674"/><path d="M434.841 31.521c-7.756 6.823-16.109 14.661-25.12 23.415l16.997 31.549 30.347 15.795c8.754-9.012 16.591-17.364 23.414-25.12V41.157l-45.638-9.636z" fill="#efedee"/><path d="M432.09 127.432c-7.025-8.167-14.733-16.454-22.9-24.621-8.167-8.167-16.454-15.875-24.621-22.9 8.915-8.979 17.275-17.324 25.153-24.976 7.619 6.493 15.875 14.057 24.581 22.763s16.27 16.962 22.763 24.581c-7.644 7.869-15.997 16.237-24.976 25.153zm48.389-50.273C473.68 69.33 466.27 61.388 458.44 53.56c-7.829-7.828-15.771-15.239-23.599-22.039C467.863 2.41 489.926-8.308 505.117 6.883s4.473 37.254-24.638 70.276z" fill="#596674"/><path d="M367.367 144.635l-26.842-26.841c-13.723-13.723-36.052-13.723-49.775 0l-83.158 83.159-.006.006-.006.006-48.961 48.962c-6.648 6.648-10.309 15.487-10.309 24.887 0 9.401 3.661 18.24 10.309 24.887l26.841 26.841a7.704 7.704 0 0 0 5.463 2.263 7.726 7.726 0 0 0 5.463-13.189l-26.841-26.841a19.615 19.615 0 0 1-5.782-13.961 19.62 19.62 0 0 1 5.782-13.961l9.309-9.309 40.802 40.802a7.708 7.708 0 0 0 5.464 2.263 7.726 7.726 0 0 0 5.464-13.189l-40.802-40.802 23.27-23.27 40.802 40.802a7.702 7.702 0 0 0 5.464 2.263 7.726 7.726 0 0 0 5.464-13.189l-40.802-40.802 23.266-23.272 40.802 40.802c1.509 1.508 3.487 2.263 5.464 2.263s3.955-.754 5.464-2.263a7.726 7.726 0 0 0 0-10.926l-40.803-40.803 23.27-23.27 40.802 40.802a7.702 7.702 0 0 0 5.464 2.263 7.726 7.726 0 0 0 5.464-13.189l-40.802-40.803 9.308-9.308c7.7-7.699 20.224-7.698 27.922 0l26.842 26.841a7.727 7.727 0 0 0 10.927 0 7.728 7.728 0 0 0-.003-10.924z" fill="#d2d2d2"/><g fill="#a1a1a1"><circle cx="361.902" cy="150.098" r="15.646"/><circle cx="327.711" cy="184.3" r="15.646"/><circle cx="293.509" cy="218.491" r="15.646"/><circle cx="259.317" cy="252.683" r="15.646"/><circle cx="225.115" cy="286.885" r="15.646"/><circle cx="190.923" cy="321.077" r="15.646"/></g></svg>