<svg xmlns="http://www.w3.org/2000/svg" viewBox="0 0 511.999 511.999"><path d="M188.301 426.101c-9.046 0-16.379-7.333-16.379-16.379V42.112c0-9.046 7.333-16.379 16.379-16.379 9.046 0 16.379 7.333 16.379 16.379v367.611c0 9.045-7.334 16.378-16.379 16.378zm67.699 0c-9.046 0-16.379-7.333-16.379-16.379V42.112c0-9.046 7.333-16.379 16.379-16.379 9.046 0 16.379 7.333 16.379 16.379v367.611c-.001 9.045-7.333 16.378-16.379 16.378zm67.698 0c-9.046 0-16.379-7.333-16.379-16.379V42.112c0-9.046 7.333-16.379 16.379-16.379s16.379 7.333 16.379 16.379v367.611c0 9.045-7.333 16.378-16.379 16.378z" fill="#edbd4e"/><path d="M323.698 426.101c9.046 0 16.379-7.333 16.379-16.379V342.34c-9.64 2.692-20.57 4.807-32.758 6.32v61.062c0 9.046 7.334 16.379 16.379 16.379zm-51.32-16.379v-58.475a516.493 516.493 0 0 1-32.758 0v58.475c0 9.046 7.333 16.379 16.379 16.379 9.047 0 16.379-7.333 16.379-16.379zm-100.456-67.381v67.381c0 9.046 7.333 16.379 16.379 16.379 9.046 0 16.379-7.333 16.379-16.379V348.66c-12.188-1.513-23.117-3.628-32.758-6.319zm-96.091-219.43h360.326v35.669H75.831z" fill="#d99d2e"/><path d="M256 486.266c341.212 0 260.876-258.977 208.292-348.37-37.37-63.528 2.94-70.623 29.395-69.409 11.411.523 18.545-12.341 11.908-21.638-30.614-42.886-145.471-19.67-121.495 73.957C411.707 228.603 505.19 382.412 256 382.412S100.292 228.603 127.899 120.806C151.876 27.18 37.018 3.963 6.404 46.848c-6.636 9.297.498 22.161 11.909 21.638 26.455-1.213 66.764 5.881 29.395 69.409C-4.876 227.288-85.213 486.266 256 486.266z" fill="#fae076"/><path d="M256 465.662C61.912 465.662 4.223 381.868.232 293.155-3.874 389.031 46.922 486.266 256 486.266s259.873-97.235 255.768-193.111c-3.991 88.713-61.68 172.507-255.768 172.507z" fill="#edbd4e"/><path d="M172.34 432.038a7.726 7.726 0 0 1-7.726-7.726v-15.141a7.726 7.726 0 1 1 15.452 0v15.141a7.726 7.726 0 0 1-7.726 7.726zm167.32 0a7.726 7.726 0 0 1-7.726-7.726v-15.141a7.726 7.726 0 1 1 15.452 0v15.141a7.726 7.726 0 0 1-7.726 7.726zM256 440.12c-10.277 0-19.924-4.293-26.465-11.777a7.726 7.726 0 1 1 11.634-10.17c3.607 4.127 9.013 6.494 14.83 6.494s11.224-2.366 14.83-6.494a7.725 7.725 0 0 1 10.902-.732 7.725 7.725 0 0 1 .732 10.902c-6.54 7.485-16.186 11.777-26.463 11.777z" fill="#596674"/></svg>