<svg xmlns="http://www.w3.org/2000/svg" viewBox="0 0 512 512"><path d="M390.577 506.155H60.698c-21.171 0-40.455-10.752-51.585-28.761-11.13-18.01-12.123-40.067-2.655-59.003L195.97 39.367c10.339-20.677 31.124-33.522 54.241-33.522h.001c23.118 0 43.901 12.845 54.239 33.523l164.463 328.924c6.094 12.188 1.154 27.009-11.034 33.104-12.187 6.094-27.009 1.154-33.104-11.034L260.312 61.437c-2.716-5.433-7.495-6.244-10.101-6.244-2.607 0-7.387.811-10.104 6.244L50.595 440.461c-2.45 4.901-.742 8.989.494 10.99 1.236 2.001 4.128 5.357 9.607 5.357h329.878c13.627 0 24.674 11.047 24.674 24.674s-11.044 24.673-24.671 24.673z" fill="#a1a1a1"/><path d="M468.315 88.793L177.791 379.317l36.19 36.19 290.523-290.523c9.994-9.994 9.994-26.196 0-36.19-9.993-9.994-26.196-9.994-36.189-.001z" fill="#d2d2d2"/><path d="M282.875 310.422c-6.267-6.267-13.771-10.944-22.229-13.961l-82.854 82.854 36.19 36.19 82.825-82.823c-2.993-8.453-7.65-15.978-13.932-22.26z" fill="#a1a1a1"/><ellipse transform="rotate(-134.999 190.979 402.328)" cx="190.978" cy="402.326" rx="51.539" ry="99.061" fill="#fae076"/><path d="M154.319 449.935a7.703 7.703 0 0 1-5.463-2.262l-6.927-6.926a7.726 7.726 0 1 1 10.925-10.927l6.927 6.926a7.726 7.726 0 0 1-5.462 13.189zm76.542-76.543a7.702 7.702 0 0 1-5.464-2.263l-6.926-6.927a7.726 7.726 0 0 1 10.927-10.925l6.926 6.927a7.725 7.725 0 0 1-.001 10.926 7.694 7.694 0 0 1-5.462 2.262zm-47.082 47.273c-.544 0-1.089-.019-1.634-.055a7.727 7.727 0 0 1 1.036-15.417c2.738.176 5.538-.916 7.644-3.022 2.105-2.104 3.205-4.89 3.02-7.644a7.726 7.726 0 1 1 15.418-1.035c.484 7.202-2.254 14.348-7.512 19.606-4.86 4.86-11.334 7.567-17.972 7.567z" fill="#596674"/></svg>