<svg xmlns="http://www.w3.org/2000/svg" viewBox="0 0 512 512"><path fill="#fa9f6a" d="M60.126 469.336l54.3-112.777-12.197-21.604-25.413 4.322-53.515 111.148z"/><path fill="#ea7f49" d="M76.816 339.277l-13.41 27.85 37.611 17.282 13.409-27.85-12.197-21.604z"/><path fill="#efedee" d="M90.03 311.831l-13.214 27.446 37.611 17.281 13.214-27.445-11.391-29.764z"/><path d="M170.657 90.716l19.393 134.035c1.487 10.277-5.638 19.812-15.915 21.3s-19.812-5.638-21.3-15.915a19.157 19.157 0 0 1-.181-1.998L147.65 92.8c-.236-6.384 4.748-11.75 11.132-11.986 5.948-.22 11.021 4.149 11.875 9.902zm340.794 1.139L457.407 259.21c-3.189 9.875-13.78 15.296-23.655 12.107-9.875-3.189-15.296-13.78-12.107-23.655.156-.481.345-.988.535-1.448l67.598-162.353c2.454-5.894 9.221-8.682 15.116-6.228 5.584 2.322 8.366 8.563 6.557 14.222zM265.757 32.89l13.32 215.803c.639 10.355-7.237 19.267-17.592 19.906-10.355.639-19.267-7.237-19.906-17.592a20.33 20.33 0 0 1-.035-1.255l1.122-216.211c.033-6.383 5.234-11.53 11.616-11.497 6.11.033 11.089 4.839 11.475 10.846zm125.04 12.122L372.725 260.47c-.867 10.338-9.952 18.016-20.289 17.149-10.339-.867-18.016-9.952-17.149-20.289.034-.403.089-.852.146-1.247l32.421-213.77c.957-6.311 6.849-10.65 13.16-9.693 6.04.916 10.271 6.394 9.783 12.392z" fill="#fa9f6a"/><path d="M144.845 151.739c-6.194 0-11.618-4.536-12.554-10.847-1.028-6.941 3.766-13.403 10.709-14.43l36.655-5.427c6.937-1.029 13.403 3.766 14.43 10.709 1.028 6.941-3.766 13.403-10.709 14.43l-36.655 5.427c-.629.093-1.256.138-1.876.138zm92.549-22.04c-6.812 0-12.449-5.399-12.691-12.26-.246-7.012 5.238-12.899 12.252-13.144l38.31-1.346c7.016-.264 12.898 5.238 13.145 12.252.246 7.013-5.238 12.899-12.252 13.144l-38.311 1.346c-.15.005-.302.008-.453.008zm149.811 12.547c-.583 0-1.172-.04-1.766-.123l-35.353-4.916c-6.951-.966-11.802-7.384-10.835-14.335.967-6.951 7.386-11.799 14.335-10.835l35.353 4.916c6.951.966 11.802 7.384 10.835 14.335-.885 6.357-6.328 10.958-12.569 10.958zm104.34 36.935a12.67 12.67 0 0 1-4.993-1.028l-34.443-14.74c-6.451-2.761-9.444-10.229-6.683-16.681 2.761-6.451 10.23-9.445 16.681-6.683l34.443 14.74c6.451 2.761 9.444 10.229 6.683 16.681-2.064 4.821-6.756 7.711-11.688 7.711z" fill="#efedee"/><path d="M443.689 194.552l-21.509 51.659c-.19.46-.379.966-.535 1.448-3.189 9.875 2.231 20.467 12.107 23.655 9.875 3.188 20.467-2.231 23.655-12.107l18.37-56.885c-10.574-3.917-21.491-6.322-32.088-7.77zm-70.964 65.917l5.61-66.882c-11.258.723-22.525 1.702-33.595 2.67l-.237.021-9.071 59.805c-.059.395-.113.844-.146 1.247-.867 10.338 6.811 19.422 17.149 20.289 10.339.867 19.423-6.811 20.29-17.15zm-111.24 8.131c10.355-.64 18.231-9.552 17.592-19.906l-3.06-49.57c-9.75-.741-17.283-2.327-22.474-4.75a173.255 173.255 0 0 0-11.687-4.94l-.313 60.319c-.001.399.01.852.035 1.255.639 10.355 9.552 18.231 19.907 17.592zm-78.009-89.278c-11.186.35-22.063 2.036-32.443 4.977l1.62 43.84c.026.654.085 1.335.181 1.998 1.487 10.277 11.023 17.402 21.3 15.915s17.402-11.023 15.915-21.3l-6.573-45.43z" fill="#ea7f49"/><path d="M90.03 311.831c-1.017-79.287 74.205-125.03 150.443-89.453s286.163-67.816 270.391 104.7c-15.64 171.07-254.079 179.507-351.89 9.039-6.362-11.088-20.86-14.337-31.332-7.006l-37.612-17.28z" fill="#fd6f71"/><path d="M486.974 243.769c5.416 14.359 7.513 32.836 5.347 56.525-14.576 159.425-222.644 177.598-330.07 41.364 99.747 164.716 333.144 154.614 348.613-14.579 3.873-42.36-5.868-68.078-23.89-83.31z" fill="#f74f50"/><path d="M267.597 354.29a7.726 7.726 0 0 1-7.726-7.726v-13.642a7.726 7.726 0 1 1 15.452 0v13.642a7.726 7.726 0 0 1-7.726 7.726zm150.75 0a7.726 7.726 0 0 1-7.726-7.726v-13.642a7.726 7.726 0 1 1 15.452 0v13.642a7.726 7.726 0 0 1-7.726 7.726zm-75.375 7.281c-9.48 0-18.382-3.963-24.421-10.872a7.726 7.726 0 1 1 11.634-10.17c3.105 3.553 7.766 5.59 12.787 5.59 5.021 0 9.682-2.038 12.788-5.59a7.724 7.724 0 0 1 10.902-.731 7.724 7.724 0 0 1 .731 10.902c-6.04 6.908-14.941 10.871-24.421 10.871z" fill="#596674"/><path d="M65.62 489.956c-2.735 0-5.51-.634-8.112-1.969L9.667 463.421C.927 458.934-2.52 448.21 1.968 439.47c4.487-8.74 15.211-12.185 23.95-7.699l47.843 24.567c8.74 4.487 12.187 15.211 7.699 23.951-3.153 6.139-9.382 9.667-15.84 9.667z" fill="#efedee"/></svg>