<svg xmlns="http://www.w3.org/2000/svg" viewBox="0 0 512 512"><path d="M472.605 14.767H39.395C17.639 14.767 0 32.405 0 54.162v403.676c0 21.756 17.639 39.395 39.395 39.395h433.21c21.756 0 39.395-17.639 39.395-39.395V54.162c0-21.757-17.639-39.395-39.395-39.395z" fill="#596674"/><g fill="#364e66"><path d="M20.604 457.838V54.162c0-21.756 17.639-39.395 39.395-39.395H39.395C17.639 14.767 0 32.405 0 54.162v403.676c0 21.756 17.639 39.395 39.395 39.395h20.604c-21.757 0-39.395-17.638-39.395-39.395z"/><circle cx="198.3" cy="301.977" r="152.086"/></g><circle cx="198.3" cy="301.977" r="86.679" fill="#efedee"/><circle cx="198.3" cy="301.977" r="26.416" fill="#596674"/><path fill="#364e66" d="M398.144 149.881h36.345v304.171h-36.345z"/><path d="M435.299 196.096h-37.971c-9.061 0-16.407 7.345-16.407 16.407v14.625c0 9.061 7.345 16.407 16.407 16.407h37.971c9.061 0 16.407-7.345 16.407-16.407v-14.625c0-9.062-7.346-16.407-16.407-16.407z" fill="#fd6f71"/><path d="M64.799 98.58a7.726 7.726 0 0 1-7.726-7.726V77.472a7.726 7.726 0 1 1 15.452 0v13.382a7.725 7.725 0 0 1-7.726 7.726zm147.878 0a7.726 7.726 0 0 1-7.726-7.726V77.472a7.726 7.726 0 1 1 15.452 0v13.382a7.726 7.726 0 0 1-7.726 7.726zm-73.938 7.142c-9.342 0-18.114-3.905-24.066-10.715a7.727 7.727 0 0 1 11.633-10.171c3.018 3.452 7.55 5.432 12.432 5.432 4.882 0 9.414-1.98 12.432-5.432a7.723 7.723 0 0 1 10.902-.731 7.724 7.724 0 0 1 .731 10.902c-5.952 6.81-14.724 10.715-24.064 10.715z" fill="#efedee"/><circle cx="288.976" cy="89.924" r="21.974" fill="#58b78c"/><circle cx="372.359" cy="89.924" r="21.974" fill="#fd6f71"/><circle cx="455.752" cy="89.924" r="21.974" fill="#efedee"/><g fill="#364e66"><circle cx="46.212" cy="454.063" r="12.089"/><circle cx="465.786" cy="454.063" r="12.089"/></g></svg>