<svg xmlns="http://www.w3.org/2000/svg" viewBox="0 0 512 512"><circle cx="298.454" cy="299.041" r="212.959" fill="#d99d2e"/><circle cx="213.546" cy="212.959" r="212.959" fill="#fae076"/><path d="M244.454 415.609c-117.612 0-212.955-95.343-212.955-212.955 0-88.279 53.717-164.01 130.247-196.295C69.17 29.498.593 113.213.593 212.956c0 117.612 95.343 212.955 212.955 212.955 29.333 0 57.28-5.933 82.709-16.66a213.441 213.441 0 0 1-51.803 6.358z" fill="#edbd4e"/><path d="M142.506 87.308a7.725 7.725 0 0 1-7.726-7.726V66.724a7.725 7.725 0 0 1 7.726-7.726 7.725 7.725 0 0 1 7.726 7.726v12.858a7.727 7.727 0 0 1-7.726 7.726zm142.085 0a7.725 7.725 0 0 1-7.726-7.726V66.724c0-4.267 3.458-7.726 7.726-7.726s7.726 3.459 7.726 7.726v12.858a7.727 7.727 0 0 1-7.726 7.726zm-71.043 6.863c-9.064 0-17.576-3.79-23.351-10.4a7.727 7.727 0 0 1 11.633-10.17c2.842 3.251 7.112 5.116 11.717 5.116s8.875-1.865 11.717-5.116a7.724 7.724 0 0 1 10.901-.732 7.724 7.724 0 0 1 .732 10.902c-5.775 6.61-14.285 10.4-23.349 10.4z" fill="#596674"/><circle cx="213.546" cy="191.974" r="66.045" fill="#d99d2e"/><path d="M213.548 339.34c-16.384 0-31.511-5.018-42.594-14.131-12.047-9.904-18.681-23.898-18.681-39.403 0-60.708 48.495-106.505 50.559-108.426 6.04-5.616 15.392-5.617 21.43 0 2.064 1.92 50.56 47.718 50.56 108.426 0 15.505-6.634 29.498-18.681 39.403-11.082 9.113-26.209 14.131-42.593 14.131zm.033-127.015c-12.006 14.897-29.838 42.279-29.838 73.48 0 15.16 15.451 22.065 29.806 22.065 14.356 0 29.806-6.905 29.806-22.065 0-31.38-17.768-58.642-29.774-73.48z" fill="#fd6f71"/></svg>