<svg xmlns="http://www.w3.org/2000/svg" viewBox="0 0 511.999 511.999"><path d="M341.335 199.967l82.774-82.774c8.091-8.091 8.091-21.21 0-29.301-8.091-8.091-21.21-8.091-29.301 0l-82.774 82.774c-41.635-27.946-98.688-23.543-135.454 13.223L6.068 354.399c-8.091 8.091-8.091 21.21 0 29.301s21.21 8.091 29.301 0l170.509-170.509c25.621-25.621 67.309-25.621 92.93 0 25.621 25.621 25.621 67.309 0 92.929L128.299 476.63c-8.091 8.091-8.091 21.21 0 29.301 8.091 8.091 21.21 8.091 29.301 0l170.51-170.509c36.767-36.766 41.17-93.821 13.225-135.455z" fill="#d2d2d2"/><path d="M394.807 87.891l-43.839 43.839a104.822 104.822 0 0 0 13.193 16.11 105.786 105.786 0 0 0 16.092 13.209l43.856-43.857c8.091-8.091 8.091-21.21 0-29.302-8.092-8.091-21.211-8.091-29.302.001z" fill="#a1a1a1"/><circle cx="438.197" cy="73.802" r="73.802" fill="#efedee"/><path d="M405.408 51.392a7.726 7.726 0 0 1-5.464-13.189l5.694-5.694a7.727 7.727 0 0 1 10.927 10.926l-5.694 5.694a7.7 7.7 0 0 1-5.463 2.263zm62.925 62.925a7.726 7.726 0 0 1-5.464-13.189l5.694-5.694a7.727 7.727 0 0 1 10.927 10.926l-5.694 5.694a7.7 7.7 0 0 1-5.463 2.263zm-24.217-24.062c-5.822 0-11.494-2.369-15.747-6.624-4.603-4.604-6.999-10.865-6.576-17.181a7.723 7.723 0 0 1 8.226-7.192 7.726 7.726 0 0 1 7.192 8.226c-.126 1.868.635 3.77 2.084 5.221 1.449 1.449 3.355 2.211 5.219 2.084a7.71 7.71 0 0 1 8.227 7.192 7.727 7.727 0 0 1-7.191 8.227c-.478.031-.957.047-1.434.047z" fill="#596674"/></svg>