<svg xmlns="http://www.w3.org/2000/svg" viewBox="0 0 512 512"><path d="M184.047 395.422a7.726 7.726 0 0 1-7.726-7.726V70.505a7.726 7.726 0 1 1 15.452 0v317.191a7.727 7.727 0 0 1-7.726 7.726zm33.412 0a7.725 7.725 0 0 1-7.726-7.726V70.505a7.725 7.725 0 0 1 7.726-7.726 7.725 7.725 0 0 1 7.726 7.726v317.191a7.725 7.725 0 0 1-7.726 7.726zm33.414-40.836a7.725 7.725 0 0 1-7.726-7.726V70.505a7.725 7.725 0 0 1 7.726-7.726 7.725 7.725 0 0 1 7.726 7.726V346.86a7.725 7.725 0 0 1-7.726 7.726zm33.412-32.47a7.725 7.725 0 0 1-7.726-7.726V70.505c0-4.267 3.458-7.726 7.726-7.726s7.726 3.459 7.726 7.726V314.39a7.725 7.725 0 0 1-7.726 7.726zm33.414-34.634a7.725 7.725 0 0 1-7.726-7.726V94.331a7.725 7.725 0 0 1 7.726-7.726 7.725 7.725 0 0 1 7.726 7.726v185.425a7.725 7.725 0 0 1-7.726 7.726zm33.413-33.913a7.725 7.725 0 0 1-7.726-7.726V94.331a7.725 7.725 0 0 1 7.726-7.726 7.725 7.725 0 0 1 7.726 7.726v151.512a7.727 7.727 0 0 1-7.726 7.726z" fill="#fae076"/><path d="M481.902 94.619c-84.891 16.17-97.692-5.39-181.236-45.14s-152.952 10.29-152.952 10.29l-21.546 13.29 16.22 37.729s43.744-30.992 111.454-15.496 103.419 60.636 198.416 33.013l29.644-33.686z" fill="#edbd4e"/><path d="M452.257 128.306l29.645-33.687c-30.946 5.895-52.308 6.77-71.013 3.584l-35.814 37.463c21.534 2.915 46.205 1.648 77.182-7.36zM351.112 253.569a7.725 7.725 0 0 0 7.726-7.726V152.65l-15.453 16.164v77.03a7.727 7.727 0 0 0 7.727 7.725zm-33.413 33.913a7.725 7.725 0 0 0 7.726-7.726v-92.157l-15.453 16.164v75.993a7.727 7.727 0 0 0 7.727 7.726zm-25.687-64.932l-15.453 16.164v75.676c0 4.267 3.458 7.726 7.726 7.726s7.726-3.459 7.726-7.726v-91.84zm-48.865 51.113v73.195a7.725 7.725 0 0 0 7.726 7.726 7.725 7.725 0 0 0 7.726-7.726v-89.36l-15.452 16.165zm-33.414 34.951v79.08a7.725 7.725 0 0 0 7.726 7.726 7.725 7.725 0 0 0 7.726-7.726V292.45l-15.452 16.164zm-33.413 34.951v44.13a7.726 7.726 0 1 0 15.452 0v-60.293l-15.452 16.163z" fill="#d99d2e"/><path d="M497.31 92.923l-15.985-10.765a10.738 10.738 0 0 0-13.761 1.487L163.362 401.844l31.391 21.56 77.667-21.56L499.8 108.408c3.805-4.91 2.662-12.015-2.49-15.485z" fill="#fae076"/><path d="M147.715 59.769l-21.546 13.29 16.22 37.729s11.19-7.922 31.001-13.754c.875-26.007 7.683-41.645 13.458-50.333l4.33-6.514c-26.806 7.58-43.463 19.582-43.463 19.582z" fill="#d99d2e"/><path d="M114.041 14.796L66.972 29.593c9.647 14.511 18.723 37.6 18.723 73.111v299.14l29.771 12.127 26.923-12.127v-299.14c0-35.51 9.075-58.599 18.723-73.111l-47.071-14.797z" fill="#fae076"/><g fill="#edbd4e"><path d="M116.6 401.844v-299.14c0-35.51-9.075-58.599-18.723-73.111l31.616-9.939-15.453-4.857-47.068 14.796c9.647 14.511 18.723 37.6 18.723 73.111v299.14l29.771 12.127 14.676-6.611-13.542-5.516z"/><path d="M161.11 0H66.972C58.8 0 52.175 6.625 52.175 14.796S58.8 29.593 66.972 29.593h94.138c8.172 0 14.796-6.624 14.796-14.796S169.282 0 161.11 0z"/></g><path d="M83.081 14.796C83.081 6.625 89.706 0 97.877 0H66.972C58.8 0 52.175 6.625 52.175 14.796S58.8 29.593 66.972 29.593h30.905c-8.171 0-14.796-6.624-14.796-14.797z" fill="#d99d2e"/><path d="M272.42 401.844H85.694c-22.834 0-41.345 18.511-41.345 41.345v34.41l134.709 17.2 134.708-17.2v-34.41c-.001-22.834-18.512-41.345-41.346-41.345z" fill="#edbd4e"/><path d="M75.254 477.6v-34.411c0-22.835 18.511-41.345 41.345-41.345H85.694c-22.835 0-41.345 18.511-41.345 41.345V477.6l134.709 17.2 15.453-1.973L75.254 477.6z" fill="#d99d2e"/><path d="M115.465 449.231a7.726 7.726 0 0 1-7.726-7.726v-11.509a7.726 7.726 0 1 1 15.452 0v11.509a7.725 7.725 0 0 1-7.726 7.726zm127.182 0a7.725 7.725 0 0 1-7.726-7.726v-11.509a7.725 7.725 0 0 1 7.726-7.726 7.725 7.725 0 0 1 7.726 7.726v11.509a7.725 7.725 0 0 1-7.726 7.726zm-63.591 6.144c-8.348 0-16.188-3.494-21.512-9.586a7.726 7.726 0 1 1 11.634-10.17c2.39 2.734 5.989 4.302 9.877 4.302 3.887 0 7.488-1.568 9.877-4.303a7.723 7.723 0 0 1 10.902-.731 7.726 7.726 0 0 1 .732 10.902c-5.322 6.092-13.163 9.586-21.51 9.586z" fill="#596674"/><path d="M313.765 477.6H44.349c-18.999 0-34.4 15.401-34.4 34.4h338.217c-.001-18.999-15.403-34.4-34.401-34.4z" fill="#fae076"/><path d="M75.254 477.6H44.349c-18.999 0-34.4 15.401-34.4 34.4h30.905c-.001-18.999 15.401-34.4 34.4-34.4zm67.134-334.472H85.694c-8.172 0-14.796 6.624-14.796 14.796 0 8.171 6.625 14.796 14.796 14.796h56.694c8.171 0 14.796-6.625 14.796-14.796.001-8.172-6.625-14.796-14.796-14.796z" fill="#edbd4e"/><path d="M101.803 157.925c0-8.172 6.625-14.796 14.796-14.796H85.694c-8.172 0-14.796 6.624-14.796 14.796 0 8.171 6.625 14.796 14.796 14.796H116.6c-8.173 0-14.797-6.625-14.797-14.796z" fill="#d99d2e"/><path d="M142.388 296.792H85.694c-8.172 0-14.796 6.624-14.796 14.797 0 8.172 6.625 14.796 14.796 14.796h56.694c8.171 0 14.796-6.624 14.796-14.796.001-8.173-6.625-14.797-14.796-14.797z" fill="#edbd4e"/><path d="M101.803 311.589c0-8.172 6.625-14.797 14.796-14.797H85.694c-8.172 0-14.796 6.624-14.796 14.797 0 8.172 6.625 14.796 14.796 14.796H116.6c-8.173 0-14.797-6.624-14.797-14.796z" fill="#d99d2e"/></svg>