<svg xmlns="http://www.w3.org/2000/svg" viewBox="0 0 512 512"><circle cx="150.836" cy="361.171" r="150.829" fill="#596674"/><g fill="#364e66"><path d="M257.488 254.514a152.858 152.858 0 0 0-10.799-9.805c48.886 59.252 45.623 147.081-9.804 202.509s-143.257 58.69-202.509 9.805a152.387 152.387 0 0 0 9.804 10.798c58.904 58.904 154.405 58.904 213.308 0s58.903-154.403 0-213.307z"/><path d="M257.488 254.514l-29.138-11.093-24.927 24.927 8.527 31.704 31.704 8.527 24.927-24.928z"/></g><circle cx="150.836" cy="361.171" r="106.665" fill="#efedee"/><path d="M226.255 285.746a108.984 108.984 0 0 0-5.329-4.973c36.603 41.9 34.95 105.592-4.973 145.514s-103.615 41.575-145.514 4.973a108.497 108.497 0 0 0 4.973 5.329c41.654 41.654 109.189 41.654 150.843 0 41.654-41.653 41.654-109.189 0-150.843z" fill="#d2d2d2"/><path d="M268.785 368.894h-22.578a7.726 7.726 0 1 1 0-15.452h22.578a7.726 7.726 0 1 1 0 15.452zm-34.547 83.405a7.7 7.7 0 0 1-5.463-2.263l-15.966-15.966a7.726 7.726 0 0 1 10.926-10.926l15.966 15.966a7.726 7.726 0 0 1-5.463 13.189zm-83.405 34.548a7.726 7.726 0 0 1-7.726-7.726v-22.578a7.726 7.726 0 1 1 15.452 0v22.578a7.726 7.726 0 0 1-7.726 7.726zm-83.404-34.548a7.726 7.726 0 0 1-5.463-13.189l15.966-15.966a7.726 7.726 0 0 1 10.926 10.926l-15.965 15.967a7.71 7.71 0 0 1-5.464 2.262zM55.46 368.894H32.883a7.726 7.726 0 1 1 0-15.452h22.578a7.726 7.726 0 1 1-.001 15.452zm27.934-67.439a7.7 7.7 0 0 1-5.463-2.263l-15.966-15.965a7.726 7.726 0 0 1 10.926-10.926l15.966 15.966a7.726 7.726 0 0 1-5.463 13.188zm67.439-27.934a7.726 7.726 0 0 1-7.726-7.726v-22.578a7.726 7.726 0 1 1 15.452 0v22.578a7.725 7.725 0 0 1-7.726 7.726z" fill="#a1a1a1"/><path d="M125.691 309.307a7.727 7.727 0 0 1-5.463-13.189l7.667-7.667a7.727 7.727 0 0 1 10.927 10.927l-7.667 7.667a7.714 7.714 0 0 1-5.464 2.262zm84.722 84.722a7.726 7.726 0 0 1-5.463-13.189l7.667-7.667a7.726 7.726 0 0 1 10.926 10.926l-7.667 7.667a7.7 7.7 0 0 1-5.463 2.263zm-32.608-32.398c-7.132 0-14.086-2.909-19.31-8.134-5.652-5.651-8.595-13.328-8.075-21.062a7.725 7.725 0 0 1 8.226-7.191 7.725 7.725 0 0 1 7.191 8.226c-.22 3.285 1.086 6.602 3.584 9.101 2.498 2.498 5.813 3.802 9.101 3.584a7.727 7.727 0 1 1 1.035 15.419c-.583.039-1.168.057-1.752.057z" fill="#596674"/><path d="M142.632 395.877l-26.515-26.515c-5.891-5.891-15.44-5.891-21.33 0-5.891 5.891-5.891 15.44 0 21.33l26.515 26.515c5.891 5.891 15.44 5.891 21.33 0 5.889-5.89 5.889-15.44 0-21.33z" fill="#a1a1a1"/><path fill="#596674" d="M378.044 133.949l-33.832-6.388-28.962 28.96 5.631 34.6 34.6 5.631 28.96-28.962z"/><path fill="#364e66" d="M378.044 133.949l-12.252-2.314 4.08 21.587-28.961 28.961-22.07-3.592 2.04 12.53 34.6 5.631 28.96-28.962z"/><path fill="#596674" d="M320.881 191.121l-34.6-5.63-28.961 28.96 7.866 32.365 32.365 7.866 28.96-28.961z"/><path fill="#364e66" d="M320.881 191.121l-12.53-2.039 3.591 22.07-28.961 28.96-20.643-5.017 2.848 11.721 32.365 7.866 28.96-28.961z"/><path fill="#d2d2d2" d="M297.55 254.682l-28.97 28.97-40.23-40.232 28.969-28.97z"/><path fill="#a1a1a1" d="M297.555 254.68l-28.969 28.969-14.568-14.568 28.969-28.97z"/><path fill="#d2d2d2" d="M355.484 196.753l-28.97 28.97-40.23-40.232 28.969-28.969z"/><path fill="#a1a1a1" d="M355.482 196.75l-28.97 28.97-14.567-14.568 28.969-28.97z"/><path fill="#d2d2d2" d="M413.411 138.822l-28.97 28.968-40.229-40.229 28.968-28.97 44.617-4.395z"/><path fill="#a1a1a1" d="M417.797 94.196l-16.157 1.592-2.798 28.464-28.97 28.97 14.569 14.568 28.97-28.968z"/><path d="M484.541 27.461c-5.055-5.055-8.972-11.786-11.91-18.31-4.434-9.844-17.279-12.291-24.914-4.656L388.841 63.37l-15.666 35.218 40.23 40.23 35.218-15.666 58.873-58.873c7.628-7.628 5.2-20.475-4.637-24.905-6.526-2.938-13.26-6.855-18.318-11.913z" fill="#596674"/><path d="M502.859 39.375a86.326 86.326 0 0 1-5.618-2.784c.692 4.569-.644 9.447-4.315 13.118l-58.873 58.873-35.218 15.666 14.569 14.569 35.218-15.666 58.873-58.873c7.629-7.627 5.202-20.473-4.636-24.903z" fill="#364e66"/></svg>