<svg xmlns="http://www.w3.org/2000/svg" viewBox="0 0 512 512"><path d="M107.579 183.597c-7.975-7.975-7.975-20.903 0-28.877 7.975-7.975 20.903-7.975 28.877 0-7.975-7.975-7.975-20.903 0-28.877 7.975-7.975 20.903-7.975 28.877 0-7.975-7.975-7.975-20.903 0-28.877 7.975-7.975 20.903-7.975 28.877 0-7.975-7.975-7.975-20.903 0-28.877s20.903-7.975 28.877 0c-7.975-7.975-7.975-20.903 0-28.877 7.975-7.975 20.903-7.975 28.877 0l126.654 94.171 94.171 126.654c7.975 7.975 7.975 20.903 0 28.877-7.975 7.975-20.903 7.975-28.877 0 7.975 7.975 7.975 20.903 0 28.877s-20.903 7.975-28.877 0c7.975 7.975 7.975 20.903 0 28.877-7.975 7.975-20.903 7.975-28.877 0 7.975 7.975 7.975 20.903 0 28.877-7.975 7.975-20.903 7.975-28.877 0 7.975 7.975 7.975 20.903 0 28.877s-20.903 7.975-28.877 0L201.75 310.25l-94.171-126.653z" fill="#d2d2d2"/><path d="M177.427 291.828C153.541 342.877-52.132 434.84 12.514 499.486s156.608-141.027 207.659-164.913l-42.746-42.745z" fill="#1c9c61"/><path d="M472.79 260.034L378.62 133.38 251.965 39.21c-7.975-7.975-20.903-7.975-28.877 0-.204.204-.379.423-.573.634a48.425 48.425 0 0 0 11.239 17.578l220.823 220.823a48.425 48.425 0 0 0 17.578 11.239c.21-.194.43-.369.634-.573 7.975-7.974 7.975-20.903.001-28.877z" fill="#a1a1a1"/><path d="M505.273 227.551L284.449 6.727c-8.97-8.97-23.513-8.97-32.483 0-8.97 8.97-8.97 23.513 0 32.483L472.79 260.033c8.97 8.97 23.513 8.97 32.483 0 8.969-8.969 8.969-23.512 0-32.482z" fill="#58b78c"/><path d="M125.791 165.386a48.425 48.425 0 0 0-17.578-11.239c-.21.193-.43.369-.634.573-7.975 7.975-7.975 20.903 0 28.877L201.75 310.25l126.654 94.17c7.975 7.975 20.903 7.975 28.877 0 .203-.204.379-.423.573-.634a48.425 48.425 0 0 0-11.239-17.578L125.791 165.386z" fill="#a1a1a1"/><path d="M328.403 404.421L107.579 183.597c-8.97-8.97-23.513-8.97-32.483 0-8.97 8.97-8.97 23.513 0 32.483L295.92 436.903c8.97 8.97 23.513 8.97 32.483 0 8.97-8.97 8.97-23.513 0-32.482z" fill="#58b78c"/><path d="M227.819 164.63a7.726 7.726 0 0 1-5.463-13.189l11.517-11.517a7.726 7.726 0 0 1 10.926 10.926l-11.517 11.517a7.698 7.698 0 0 1-5.463 2.263zm127.277 127.277a7.726 7.726 0 0 1-5.463-13.189L361.15 267.2a7.726 7.726 0 0 1 10.926 10.926l-11.517 11.517a7.699 7.699 0 0 1-5.463 2.264zm-48.986-48.671c-9.686 0-19.145-3.965-26.263-11.083-7.699-7.7-11.709-18.136-11.003-28.638.285-4.258 3.973-7.482 8.226-7.191a7.725 7.725 0 0 1 7.191 8.226c-.407 6.052 1.968 12.13 6.513 16.676s10.624 6.915 16.675 6.512c4.249-.294 7.941 2.933 8.226 7.191a7.725 7.725 0 0 1-7.191 8.226 34.27 34.27 0 0 1-2.374.081z" fill="#596674"/></svg>