<svg xmlns="http://www.w3.org/2000/svg" viewBox="0 0 512 512"><path d="M296.862 213.047a7.702 7.702 0 0 1-5.464-2.263l-56.599-56.6a7.726 7.726 0 1 1 10.927-10.926l56.599 56.6a7.726 7.726 0 0 1-5.463 13.189zm-50.706 42.19a7.703 7.703 0 0 1-5.464-2.263l-45.883-45.882a7.727 7.727 0 0 1 10.927-10.927l45.883 45.882a7.726 7.726 0 0 1 0 10.926 7.696 7.696 0 0 1-5.463 2.264zM378.723 81.472a7.703 7.703 0 0 1-5.464-2.263l-50.567-50.567a7.726 7.726 0 1 1 10.927-10.926l50.567 50.567a7.726 7.726 0 0 1-5.463 13.189zm-38.774 67.944a7.703 7.703 0 0 1-5.464-2.263l-54.964-54.964a7.726 7.726 0 1 1 10.927-10.926l54.964 54.964a7.726 7.726 0 0 1-5.463 13.189z" fill="#596674"/><circle cx="328.154" cy="23.178" r="23.178" fill="#fd6f71"/><path d="M350.158 15.894a23.079 23.079 0 0 1-5.612 9.105c-9.051 9.051-23.727 9.051-32.778 0a23.056 23.056 0 0 1-5.612-9.105c-2.659 8.051-.791 17.27 5.612 23.674 9.051 9.051 23.727 9.051 32.778 0 6.403-6.404 8.27-15.624 5.612-23.674z" fill="#f74f50"/><circle cx="284.98" cy="86.721" r="23.178" fill="#fd6f71"/><path d="M306.986 79.44a23.09 23.09 0 0 1-5.612 9.105c-9.051 9.051-23.727 9.051-32.778 0a23.07 23.07 0 0 1-5.613-9.105c-2.658 8.051-.791 17.269 5.613 23.674 9.051 9.051 23.727 9.051 32.778 0 6.403-6.404 8.27-15.623 5.612-23.674z" fill="#f74f50"/><circle cx="240.259" cy="148.717" r="20.248" fill="#fd6f71"/><path d="M259.145 141.437a20.144 20.144 0 0 1-4.565 7.033c-7.908 7.908-20.728 7.908-28.636 0a20.143 20.143 0 0 1-4.565-7.034c-2.789 7.242-1.276 15.761 4.565 21.603 7.908 7.908 20.728 7.908 28.636 0 5.841-5.842 7.353-14.36 4.565-21.602z" fill="#f74f50"/><circle cx="200.278" cy="201.627" r="20.248" fill="#fd6f71"/><path d="M219.156 194.344a20.15 20.15 0 0 1-4.566 7.034c-7.908 7.908-20.728 7.908-28.636 0a20.165 20.165 0 0 1-4.566-7.033c-2.789 7.242-1.276 15.761 4.566 21.602 7.908 7.908 20.728 7.908 28.636 0 5.843-5.843 7.355-14.361 4.566-21.603z" fill="#f74f50"/><path d="M425.723 87.967l-63.044-30.266c-13.782 18.491-27.991 40.337-43.444 63.275l20.35 53.13 53.13 20.35c22.937-15.453 44.784-29.662 63.275-43.444l-30.267-63.045zm-95.068 151.147l-10.081-45.999-45.999-10.081c-13.83 17.379-33.267 37.838-44.508 48.388l11.782 40.417 40.417 11.782c10.551-11.24 31.01-30.677 48.389-44.507z" fill="#fd6f71"/><path d="M284.358 281.422c3.377-3.513 6.838-6.944 10.331-10.342 9.417-9.138 19.125-17.994 29.184-26.421a351.03 351.03 0 0 1 6.782-5.544l-4.85-22.13c-.322.246-.648.486-.97.732a562.399 562.399 0 0 0-8.748 6.829c-17.379 13.83-37.838 33.267-48.388 44.508a245.804 245.804 0 0 0-7.346 8.181l21.915 6.388a223.05 223.05 0 0 1 2.09-2.201z" fill="#f74f50"/><path d="M282.267 283.622l-52.199-52.199c-14.693 13.782-27.198 22.42-37.541 27.75L205.9 307.79l48.617 13.373c5.33-10.344 13.968-22.848 27.75-37.541z" fill="#fa9f6a"/><path d="M239.948 306.593c-1.734 3.363-3.113 6.495-4.209 9.405l18.778 5.164a110.62 110.62 0 0 1 2.476-4.527c6.925-12.036 15.797-22.91 25.274-33.014l-14.569-14.569c-13.781 14.694-22.42 27.198-27.75 37.541z" fill="#ea7f49"/><path d="M235.143 485.687c-43.278 43.278-124.739 31.996-181.938-25.202s-68.48-138.659-25.202-181.938c15.273-15.273 35.297-23.752 57.343-25.816 22.04-2.057 46.082 2.292 69.399 12.684.22.097.435.2.649.291 2.831 1.16 15.1 4.826 37.133-6.531l61.99 61.99c-11.358 22.032-7.691 34.302-6.531 37.133.09.214.194.429.291.649 20.775 46.625 17.412 96.193-13.134 126.74z" fill="#fd6f71"/><path d="M441.42 136.442c-18.491 13.782-40.337 27.991-63.275 43.444a2300 2300 0 0 0-8.472 5.743l23.041 8.826c9.193-6.185 18.419-12.324 27.612-18.508 12.036-8.096 24.03-16.266 35.662-24.936l-9.013-18.775a445.952 445.952 0 0 1-5.555 4.206z" fill="#f74f50"/><path d="M392.714 194.455c-17.469 11.779-35.579 24.27-53.311 37.83a556.39 556.39 0 0 0-8.748 6.829l-56.08-56.08a568.538 568.538 0 0 0 6.829-8.748c13.56-17.731 26.051-35.842 37.83-53.311l73.48 73.48zM73.919 439.771c-23.18-23.18-38.089-51.412-41.979-79.494-3.472-25.056 2.487-46.726 16.776-61.016s35.959-20.248 61.016-16.777c28.083 3.889 56.314 18.798 79.494 41.979 23.18 23.18 38.089 51.411 41.978 79.494 3.472 25.057-2.487 46.727-16.777 61.016-14.29 14.29-35.958 20.248-61.016 16.776-28.081-3.889-56.312-18.798-79.492-41.978z" fill="#fa9f6a"/><path d="M96.646 331.243a7.726 7.726 0 0 1-5.463-13.19l8.464-8.463a7.727 7.727 0 0 1 10.925 10.927l-8.464 8.463a7.695 7.695 0 0 1-5.462 2.263zm93.526 93.527a7.726 7.726 0 0 1-5.463-13.19l8.464-8.464a7.727 7.727 0 0 1 10.925 10.927l-8.464 8.464a7.7 7.7 0 0 1-5.462 2.263zm-35.996-35.764c-7.66 0-15.132-3.129-20.749-8.744-6.074-6.074-9.238-14.322-8.681-22.629a7.724 7.724 0 0 1 8.226-7.192 7.726 7.726 0 0 1 7.192 8.226c-.259 3.859 1.268 7.747 4.19 10.669 2.922 2.922 6.823 4.447 10.666 4.19 4.252-.285 7.941 2.934 8.227 7.191a7.727 7.727 0 0 1-7.191 8.227 28.79 28.79 0 0 1-1.88.062z" fill="#596674"/><path d="M131.87 417.82l-36-36c-5.503-5.503-14.425-5.503-19.928 0s-5.503 14.425 0 19.928l36 36c5.503 5.503 14.425 5.503 19.928 0s5.503-14.426 0-19.928z" fill="#fd6f71"/><path d="M260.955 428.346c2.219-23.721-3.041-47.768-12.679-69.402-1.662-3.729-1.952-7.986-1.718-12.015.359-6.175 2.281-14.751 7.96-25.768l-14.569-14.569c-11.359 22.032-7.692 34.303-6.532 37.134.09.214.194.429.291.649 20.776 46.627 17.413 96.196-13.133 126.742-41.425 41.426-117.828 32.857-174.445-18.098 2.522 2.269 4.67 5.06 7.076 7.466 16.052 16.052 34.928 29.401 55.724 38.576 13.092 5.777 26.962 9.9 41.159 11.791 32.669 4.354 63.568-3.679 85.056-25.165 15.271-15.273 23.748-35.302 25.81-57.341z" fill="#f74f50"/><path d="M330.655 239.114a568.538 568.538 0 0 1 8.748-6.829c17.732-13.56 35.842-26.051 53.311-37.83l-14.569-14.569c-17.469 11.779-35.579 24.27-53.311 37.83a562.399 562.399 0 0 0-8.748 6.829l14.569 14.569z" fill="#ea7f49"/><path d="M455.989 151.011l-93.31-93.31C400.938 6.31 435.82-19.292 484.401 29.289s22.978 83.463-28.412 121.722z" fill="#fa9f6a"/><path d="M510.296 78.122c-.226-14.994-8.051-30.989-25.895-48.834a146.375 146.375 0 0 0-7.536-7.031c38.776 44.713 13.247 77.934-35.445 114.184l14.569 14.569c10.306-7.672 20.399-15.73 29.517-24.802 12.859-12.792 25.077-29.069 24.79-48.086z" fill="#ea7f49"/><circle cx="448.5" cy="65.19" r="19.204" fill="#596674"/></svg>