<svg xmlns="http://www.w3.org/2000/svg" viewBox="0 0 512.001 512.001"><path d="M101.181 443.996v55.269c0 7.034 5.702 12.736 12.736 12.736h76c7.034 0 12.736-5.702 12.736-12.736v-55.269H101.181z" fill="#596674"/><path d="M132.086 499.265v-55.269h-30.905v55.269c0 7.034 5.702 12.736 12.735 12.736h30.905c-7.033-.001-12.735-5.703-12.735-12.736z" fill="#364e66"/><path d="M441.377 443.996v55.269c0 7.034-5.702 12.736-12.736 12.736h-76c-7.034 0-12.736-5.702-12.736-12.736v-55.269h101.472z" fill="#596674"/><path d="M370.812 499.265v-55.269h-30.905v55.269c0 7.034 5.702 12.736 12.736 12.736h30.905c-7.035-.001-12.736-5.703-12.736-12.736z" fill="#364e66"/><path d="M480.924 426.722L391.965 31.688C387.793 13.162 371.337 0 352.346 0H190.212c-18.99 0-35.445 13.162-39.618 31.688l-88.96 395.033c-5.708 25.346 13.566 49.443 39.547 49.443h340.197c25.98 0 45.253-24.097 39.546-49.442z" fill="#85cdea"/><path d="M82.238 426.722l88.959-395.033C175.369 13.162 191.824 0 210.816 0h-20.604c-18.99 0-35.445 13.162-39.618 31.688l-88.96 395.033c-5.708 25.347 13.566 49.443 39.547 49.443h20.604c-25.981 0-45.254-24.096-39.547-49.442z" fill="#4fb6e0"/><path d="M180.361 403.347a7.725 7.725 0 0 1-7.726-7.726v-16.455a7.725 7.725 0 0 1 7.726-7.726 7.725 7.725 0 0 1 7.726 7.726v16.455a7.725 7.725 0 0 1-7.726 7.726zm181.837 0a7.725 7.725 0 0 1-7.726-7.726v-16.455a7.725 7.725 0 0 1 7.726-7.726 7.725 7.725 0 0 1 7.726 7.726v16.455a7.727 7.727 0 0 1-7.726 7.726zm-90.919 8.782c-10.975 0-21.273-4.581-28.257-12.569a7.726 7.726 0 1 1 11.633-10.17c4.049 4.631 10.107 7.286 16.623 7.286 6.516 0 12.575-2.656 16.622-7.286a7.725 7.725 0 0 1 10.902-.732 7.725 7.725 0 0 1 .733 10.902c-6.981 7.988-17.28 12.569-28.256 12.569zm79.243-369.237h-56.799l-22.444 195.19 22.444 83.682h119.604zm-101.686 0h-56.8l-62.804 278.872h119.604l22.443-83.682z" fill="#596674"/><path fill="#364e66" d="M192.036 42.892l-62.804 278.872h30.905l62.805-278.872z"/><path d="M293.723 321.764L71.186 77.297c-9.225-9.225-24.183-9.225-33.409 0s-9.225 24.184 0 33.409l211.058 211.058h44.888z" fill="#d2d2d2"/><path fill="#efedee" d="M248.83 42.892h44.886v278.87H248.83z"/><path fill="#a1a1a1" d="M63.73 136.657l42.547 42.548 30.193-30.192-35.704-39.222z"/><path d="M96.869 73.019l-63.368 63.368c-5.92 5.92-3.889 15.962 3.867 19.115l34.769 14.135 57.984-57.984-14.135-34.769c-3.155-7.753-13.196-9.784-19.117-3.865z" fill="#596674"/></svg>