<svg xmlns="http://www.w3.org/2000/svg" viewBox="0 0 512 512"><path d="M62.581 327.047l-34.59 34.591 39.625 82.746 82.746 39.625 34.591-34.59-32.811-96.177zM361.638 27.991l-34.591 34.59 26.195 89.561 96.177 32.811 34.59-34.591-39.625-82.746z" fill="#fae076"/><path d="M27.983 115.781L396.22 484.018c14.262 14.262 37.39 14.262 51.652 0l36.146-36.146c14.262-14.262 14.262-37.39 0-51.652L115.781 27.983c-14.262-14.262-37.39-14.262-51.652 0L27.983 64.129c-14.262 14.261-14.262 37.39 0 51.652zm.008 245.857l122.371 122.371-17.295 17.295c-14.262 14.262-37.39 14.262-51.652 0l-70.719-70.719c-14.262-14.262-14.262-37.39 0-51.652l17.295-17.295z" fill="#fd6f71"/><path fill="#f74f50" d="M216.861 129.054L382.937 295.13l-87.798 87.798-166.076-166.075z"/><path d="M327.04 62.582l122.369 122.37L184.95 449.408 62.58 327.04zm103.545-51.886l70.719 70.719c14.262 14.262 14.262 37.39 0 51.652l-17.295 17.295L361.638 27.991l17.295-17.295c14.261-14.261 37.391-14.261 51.652 0z" fill="#fd6f71"/><path d="M199.932 324.735a7.701 7.701 0 0 1-5.463-2.263l-10.595-10.594a7.727 7.727 0 0 1 10.927-10.927l10.594 10.594a7.726 7.726 0 0 1-5.463 13.19zm117.076-117.077a7.703 7.703 0 0 1-5.464-2.263L300.95 194.8a7.727 7.727 0 0 1 10.927-10.927l10.594 10.594a7.727 7.727 0 0 1 0 10.927 7.696 7.696 0 0 1-5.463 2.264zm-72.017 72.306c-.741 0-1.482-.025-2.225-.075-4.258-.286-7.477-3.969-7.191-8.227s3.997-7.474 8.227-7.191c5.383.363 10.803-1.755 14.86-5.81 4.054-4.054 6.171-9.469 5.809-14.858a7.727 7.727 0 0 1 15.418-1.036c.661 9.838-3.094 19.614-10.301 26.822-6.664 6.663-15.524 10.375-24.597 10.375z" fill="#596674"/></svg>