<svg xmlns="http://www.w3.org/2000/svg" viewBox="0 0 511.986 511.986"><path d="M278.319 256.825l-8 8c-3.5 3.5-3.5 9.2 0 12.7l108.6 108.6 20.7-20.7-108.6-108.6c-3.5-3.5-9.2-3.5-12.7 0z" fill="#85cdea"/><path d="M347.119 313.025c3.6 13.5 3.5 27.8-.1 41.3l31.9 31.9 20.7-20.7-52.5-52.5z" fill="#4fb6e0"/><path d="M239.919 295.225l-8 8c-3.5 3.5-3.5 9.2 0 12.7l126.6 126.6 20.7-20.7-126.6-126.6c-3.5-3.5-9.2-3.5-12.7 0z" fill="#85cdea"/><path d="M379.219 421.825l-43.3-43.3c-2.7 4-5.8 7.8-9.4 11.3-3.5 3.5-7.3 6.6-11.3 9.4l43.3 43.3 20.7-20.7z" fill="#4fb6e0"/><path d="M201.519 333.625l-8 8c-3.5 3.5-3.5 9.2 0 12.7l108.6 108.7 20.7-20.7-108.6-108.7c-3.5-3.5-9.2-3.5-12.7 0z" fill="#85cdea"/><path d="M322.819 442.325l-31.9-31.9c-6.7 1.8-13.7 2.8-20.9 2.8-7 0-13.8-.9-20.4-2.6l52.5 52.5 20.7-20.8z" fill="#4fb6e0"/><path d="M88.119 427.525l-20.2 10.5 13.9 18c11 1.1 24.4 5.9 39.7 12.2l18.9-12.1-12.1-19.4-40.2-9.2z" fill="#85cdea"/><g fill="#4fb6e0"><path d="M386.519 274.625c-2.4 2.4-5.5 3.9-9.1 4.2-28.5 2.4-68.8 25.8-102.4 59.5-33.3 33.3-56 71.8-59.3 100.6-.9 8-8.2 13.8-16.2 12.9s-13.8-8.2-12.9-16.2c4.1-35.6 29.4-79.7 67.7-118 39.5-39.5 84.6-64.9 120.7-67.9 8.1-.7 15.1 5.3 15.8 13.3.3 4.5-1.4 8.6-4.3 11.6z"/><path d="M323.419 30.325s8.3 64.8 49.7 106.2 170.6 172.9 21.8 321.7c-97.4 97.4-204.6 38.2-273.3 10l6.9-31.5 68.2 15.5 66.8 1 76.6-14.5 42.1-53.1 7.6-71.1-38.8-78.6-42.8-22.1-19.3 6.9c-41.4-41.4-106.2-49.7-106.2-49.7l60.9-83.5 79.8-57.2z"/></g><path d="M368.819 432.225c-54.5 54.5-143.1 54.5-197.5 0s-54.5-143.1 0-197.5c54.5-54.5 143.1-54.5 197.5 0s54.5 143 0 197.5zm-173.4-173.4c-41.1 41.1-41.1 108.1 0 149.2s108.1 41.1 149.2 0 41.1-108.1 0-149.2c-41.1-41.2-108-41.2-149.2 0zm108.7-254.1l-147.1 147c-6.2 6.2-6.2 16.3 0 22.5s16.3 6.2 22.5 0l147.1-147c6.2-6.2 6.2-16.3 0-22.5-6.3-6.3-16.3-6.3-22.5 0z" fill="#85cdea"/><path d="M75.819 407.025c-9.7-2.8-19.7 3.2-21.9 13.1l-6.2 28.5c-2 9 3.4 17.9 12.2 20.5 9.7 2.8 19.7-3.2 21.9-13.1l6.2-28.5c2-9-3.3-18-12.2-20.5z" fill="#4fb6e0"/></svg>