<svg xmlns="http://www.w3.org/2000/svg" viewBox="0 0 512 512"><path d="M451.212 497.231h21.393c21.756 0 39.395-17.639 39.395-39.395V54.16c0-21.756-17.639-39.395-39.395-39.395H39.395C17.639 14.765 0 32.403 0 54.16v403.676c0 21.756 17.639 39.395 39.395 39.395H161.87l144.67-108.746 144.672 108.746z" fill="#d2d2d2"/><path d="M28.845 457.836V54.16c0-21.756 17.639-39.395 39.395-39.395H39.395C17.639 14.765 0 32.403 0 54.16v403.676c0 21.756 17.639 39.395 39.395 39.395H68.24c-21.756 0-39.395-17.638-39.395-39.395z" fill="#a1a1a1"/><circle cx="95.364" cy="216.985" r="26.152" fill="#fd6f71"/><circle cx="202.461" cy="216.985" r="26.152" fill="#58b78c"/><circle cx="309.549" cy="216.985" r="26.152" fill="#d99d2e"/><circle cx="416.636" cy="216.985" r="26.152" fill="#4fb6e0"/><g fill="#d2d2d2"><path d="M277.607 279.739h-57.868l-28.934 108.746 28.934 108.746h57.868l28.934-108.746z"/><path d="M393.344 279.739h-57.869l-28.934 108.746 28.934 108.746h57.869l28.933-108.746z"/></g><path d="M451.212 309.7v187.531h-57.868V279.739h27.896c16.558 0 29.972 13.413 29.972 29.961zm-173.609-29.956h57.865v217.492h-57.865zm-57.864-.005v217.493H161.87V309.7c0-16.548 13.413-29.961 29.961-29.961h27.908z" fill="#efedee"/><path d="M205.31 279.739v118.093a7.348 7.348 0 0 0 7.348 7.348h14.162a7.348 7.348 0 0 0 7.348-7.348V279.739H205.31zm57.867 0v118.093a7.348 7.348 0 0 0 7.348 7.348h14.162a7.348 7.348 0 0 0 7.348-7.348V279.739h-28.858zm57.869 0v118.093a7.348 7.348 0 0 0 7.348 7.348h14.162a7.348 7.348 0 0 0 7.348-7.348V279.739h-28.858zm57.868 0v118.093a7.348 7.348 0 0 0 7.348 7.348h14.162a7.348 7.348 0 0 0 7.348-7.348V279.739h-28.858zm-317.175.005h38.395v181.837H61.739z" fill="#596674"/><path fill="#364e66" d="M61.739 330.851h38.395v35.263H61.739z"/><path d="M104.109 315.394H57.761c-6.892 0-12.48 5.587-12.48 12.48 0 6.892 5.588 12.48 12.48 12.48h46.348c6.892 0 12.48-5.587 12.48-12.48 0-6.893-5.588-12.48-12.48-12.48z" fill="#efedee"/><path d="M145.06 60.22H62.092c-9.284 0-16.81 7.527-16.81 16.81v60.391c0 9.284 7.527 16.81 16.81 16.81h82.968c9.284 0 16.811-7.527 16.811-16.81v-60.39c-.001-9.284-7.527-16.811-16.811-16.811z" fill="#58b78c"/><path d="M76.187 137.423V77.031c0-9.284 7.527-16.81 16.81-16.81H62.092c-9.284 0-16.81 7.527-16.81 16.81v60.392c0 9.284 7.527 16.811 16.81 16.811h30.905c-9.283 0-16.81-7.527-16.81-16.811z" fill="#1c9c61"/><path d="M240.414 118.483a7.726 7.726 0 0 1-7.726-7.726V95.613a7.726 7.726 0 1 1 15.452 0v15.145a7.725 7.725 0 0 1-7.726 7.725zm167.359 0a7.726 7.726 0 0 1-7.726-7.726V95.613a7.726 7.726 0 1 1 15.452 0v15.145a7.725 7.725 0 0 1-7.726 7.725zm-83.679 8.084c-10.279 0-19.927-4.293-26.471-11.779a7.726 7.726 0 1 1 11.634-10.17c3.609 4.128 9.015 6.496 14.836 6.496 5.82 0 11.227-2.367 14.837-6.496a7.725 7.725 0 0 1 10.902-.731 7.724 7.724 0 0 1 .731 10.902c-6.543 7.485-16.191 11.778-26.469 11.778z" fill="#596674"/></svg>