<svg xmlns="http://www.w3.org/2000/svg" viewBox="0 0 512.001 512.001"><path d="M453.899 7.464H58.101C26.013 7.464 0 33.476 0 65.564v380.871c0 32.088 26.013 58.101 58.101 58.101H453.9c32.088 0 58.101-26.013 58.101-58.101V65.564c-.001-32.088-26.014-58.1-58.102-58.1z" fill="#efedee"/><path d="M28.845 446.436V65.564c0-32.088 26.013-58.1 58.101-58.1H58.101C26.013 7.464 0 33.476 0 65.564v380.871c0 32.088 26.013 58.101 58.101 58.101h28.845c-32.088.001-58.101-26.011-58.101-58.1z" fill="#d2d2d2"/><path d="M250.307 54.936H79.306c-15.584 0-28.217 12.633-28.217 28.217v47.945c0 15.584 12.633 28.217 28.217 28.217h171c15.584 0 28.217-12.633 28.217-28.217V83.153c.001-15.584-12.632-28.217-28.216-28.217z" fill="#58b78c"/><path d="M71.693 131.097V83.153c0-15.584 12.633-28.217 28.217-28.217H79.306c-15.584 0-28.217 12.633-28.217 28.217v47.945c0 15.584 12.633 28.217 28.217 28.217H99.91c-15.584-.001-28.217-12.634-28.217-28.218z" fill="#1c9c61"/><path d="M90.394 117.991a7.725 7.725 0 0 1-7.726-7.726V96.797a7.725 7.725 0 0 1 7.726-7.726 7.725 7.725 0 0 1 7.726 7.726v13.468a7.725 7.725 0 0 1-7.726 7.726zm148.825 0a7.725 7.725 0 0 1-7.726-7.726V96.797a7.725 7.725 0 0 1 7.726-7.726 7.725 7.725 0 0 1 7.726 7.726v13.468a7.725 7.725 0 0 1-7.726 7.726zm-74.412 7.189c-9.388 0-18.202-3.925-24.185-10.767a7.727 7.727 0 0 1 11.636-10.17c3.046 3.485 7.619 5.485 12.549 5.485 4.927 0 9.502-2 12.55-5.485a7.725 7.725 0 0 1 10.902-.731 7.725 7.725 0 0 1 .731 10.902c-5.981 6.841-14.797 10.766-24.183 10.766z" fill="#596674"/><path d="M99.355 191.725H58.859c-7.072 0-12.805 5.733-12.805 12.805v40.495c0 7.072 5.733 12.805 12.805 12.805h40.495c7.072 0 12.805-5.733 12.805-12.805V204.53c.001-7.071-5.732-12.805-12.804-12.805z" fill="#85cdea"/><path d="M217.284 191.725h-40.495c-7.072 0-12.805 5.733-12.805 12.805v40.495c0 7.072 5.733 12.805 12.805 12.805h40.495c7.072 0 12.805-5.733 12.805-12.805V204.53c0-7.071-5.733-12.805-12.805-12.805z" fill="#fd6f71"/><path d="M335.212 191.725h-40.495c-7.072 0-12.805 5.733-12.805 12.805v40.495c0 7.072 5.733 12.805 12.805 12.805h40.495c7.072 0 12.805-5.733 12.805-12.805V204.53c0-7.071-5.733-12.805-12.805-12.805z" fill="#edbd4e"/><path d="M453.141 191.725h-40.495c-7.072 0-12.805 5.733-12.805 12.805v40.495c0 7.072 5.733 12.805 12.805 12.805h40.495c7.072 0 12.805-5.733 12.805-12.805V204.53c0-7.071-5.733-12.805-12.805-12.805z" fill="#fa9f6a"/><path d="M99.355 291.342H58.859c-7.072 0-12.805 5.733-12.805 12.805v40.495c0 7.072 5.733 12.805 12.805 12.805h40.495c7.072 0 12.805-5.733 12.805-12.805v-40.495c.001-7.071-5.732-12.805-12.804-12.805z" fill="#edbd4e"/><path d="M217.284 291.342h-40.495c-7.072 0-12.805 5.733-12.805 12.805v40.495c0 7.072 5.733 12.805 12.805 12.805h40.495c7.072 0 12.805-5.733 12.805-12.805v-40.495c0-7.071-5.733-12.805-12.805-12.805z" fill="#fa9f6a"/><path d="M335.212 291.342h-40.495c-7.072 0-12.805 5.733-12.805 12.805v40.495c0 7.072 5.733 12.805 12.805 12.805h40.495c7.072 0 12.805-5.733 12.805-12.805v-40.495c0-7.071-5.733-12.805-12.805-12.805z" fill="#58b78c"/><path d="M453.141 291.342h-40.495c-7.072 0-12.805 5.733-12.805 12.805v40.495c0 7.072 5.733 12.805 12.805 12.805h40.495c7.072 0 12.805-5.733 12.805-12.805v-40.495c0-7.071-5.733-12.805-12.805-12.805z" fill="#85cdea"/><path d="M99.355 390.959H58.859c-7.072 0-12.805 5.733-12.805 12.805v40.495c0 7.072 5.733 12.805 12.805 12.805h40.495c7.072 0 12.805-5.733 12.805-12.805v-40.495c.001-7.072-5.732-12.805-12.804-12.805z" fill="#fd6f71"/><path d="M217.284 390.959h-40.495c-7.072 0-12.805 5.733-12.805 12.805v40.495c0 7.072 5.733 12.805 12.805 12.805h40.495c7.072 0 12.805-5.733 12.805-12.805v-40.495c0-7.072-5.733-12.805-12.805-12.805z" fill="#edbd4e"/><path d="M335.212 390.959h-40.495c-7.072 0-12.805 5.733-12.805 12.805v40.495c0 7.072 5.733 12.805 12.805 12.805h40.495c7.072 0 12.805-5.733 12.805-12.805v-40.495c0-7.072-5.733-12.805-12.805-12.805z" fill="#85cdea"/><path d="M453.141 390.959h-40.495c-7.072 0-12.805 5.733-12.805 12.805v40.495c0 7.072 5.733 12.805 12.805 12.805h40.495c7.072 0 12.805-5.733 12.805-12.805v-40.495c0-7.072-5.733-12.805-12.805-12.805z" fill="#58b78c"/><circle cx="344.431" cy="107.129" r="28.444" fill="#596674"/><circle cx="437.497" cy="107.129" r="28.444" fill="#58b78c"/></svg>