<svg xmlns="http://www.w3.org/2000/svg" viewBox="0 0 511.999 511.999"><path d="M152.598 442.528l-69.886 57.871c-10.032 8.307-22.409 12.117-34.572 11.542-12.173-.566-24.133-5.517-33.348-14.732-18.431-18.431-19.803-47.858-3.189-67.921l57.871-69.887 83.124 83.127z" fill="#85cdea"/><path d="M129.302 461.818l23.296-19.29-21.853-21.853-69.887 57.871c-10.032 8.307-22.409 12.117-34.573 11.543a50.498 50.498 0 0 1-20.704-5.516 50.525 50.525 0 0 0 3.78 6.205c10.281 14.459 27.966 22.583 45.625 21.024a50.309 50.309 0 0 0 27.725-11.403l46.591-38.581z" fill="#4fb6e0"/><path d="M369.989 262.536L152.598 442.528c-16.224-9.309-32.181-21.444-46.931-36.194s-26.887-30.707-36.194-46.931L249.464 142.01l120.525 120.526z" fill="#596674"/><path d="M126.092 424.526c8.647 6.839 17.535 12.855 26.506 18.001l217.391-179.992-21.853-21.853-217.392 179.992-4.652 3.852z" fill="#364e66"/><path d="M491.353 207.993c32.876-52.481 26.489-122.529-19.163-168.182s-115.703-52.04-168.183-19.164v62.416l60.734 68.706 92.895 65.911 33.717-9.687z" fill="#596674"/><path d="M472.189 39.811a137.985 137.985 0 0 0-9.025-8.256c34.815 50.985 35.936 118.077 3.35 170.094l-22.4 6.437 13.523 9.595 33.716-9.688c32.876-52.48 26.489-122.529-19.164-168.182z" fill="#364e66"/><path d="M372.131 57.385a7.726 7.726 0 0 1-5.463-13.19l8.164-8.163a7.727 7.727 0 0 1 10.925 10.927l-8.164 8.163a7.695 7.695 0 0 1-5.462 2.263zm90.21 90.21a7.727 7.727 0 0 1-5.464-13.19l8.163-8.163a7.727 7.727 0 0 1 10.927 10.927l-8.163 8.163a7.7 7.7 0 0 1-5.463 2.263zm-34.719-34.497c-7.461 0-14.739-3.046-20.206-8.513-5.915-5.916-8.996-13.949-8.453-22.04a7.726 7.726 0 1 1 15.418 1.036c-.244 3.642 1.199 7.315 3.961 10.077 2.763 2.762 6.452 4.204 10.076 3.961a7.727 7.727 0 0 1 1.036 15.418c-.611.041-1.223.061-1.832.061z" fill="#efedee"/><path d="M249.989 262.011c-8.351-8.351-21.89-8.351-30.241 0l-16.115 16.115c-8.351 8.351-8.351 21.89 0 30.241 8.351 8.351 21.89 8.351 30.241 0l16.115-16.115c8.351-8.351 8.351-21.89 0-30.241zm17.346-207.648c-40.04 53.247-35.836 129.204 12.63 177.671 48.466 48.466 124.423 52.67 177.671 12.63L267.335 54.363z" fill="#85cdea"/><path d="M267.335 54.363l175.732 175.733c-50.554 38.015-121.576 36.142-170.109-5.623a137.583 137.583 0 0 0 7.007 7.562c48.466 48.466 124.423 52.67 177.671 12.63L267.335 54.363z" fill="#4fb6e0"/><path d="M345.018 166.981c-37.133-37.133-65.457-79.35-80.465-119.742a143.14 143.14 0 0 1 10.776-12.063 142.37 142.37 0 0 1 26.86-21.095l-.008.006c.894 3.534 1.956 7.17 3.188 10.898 11.914 36.063 37.519 74.968 72.098 109.547s73.484 60.184 109.547 72.098a159.608 159.608 0 0 0 10.898 3.188l.006-.008a142.297 142.297 0 0 1-21.095 26.86 143.335 143.335 0 0 1-12.063 10.776c-40.391-15.009-82.609-43.332-119.742-80.465z" fill="#d2d2d2"/><path d="M497.919 209.809l-.007.008a159.206 159.206 0 0 1-10.898-3.188c-6.212-2.052-12.508-4.52-18.852-7.361a143.427 143.427 0 0 1-20.586 25.998 144.488 144.488 0 0 1-10.842 9.782c9.383 4.796 18.753 8.951 28.027 12.396a143.14 143.14 0 0 0 12.063-10.776 142.195 142.195 0 0 0 21.095-26.859z" fill="#a1a1a1"/></svg>