<svg xmlns="http://www.w3.org/2000/svg" viewBox="0 0 512 512"><ellipse cx="256" cy="471.596" rx="41.152" ry="40.404" fill="#edbd4e"/><path d="M235.452 471.592c0-18.823 13.108-34.641 30.85-39.131A41.959 41.959 0 0 0 256 431.185c-22.728 0-41.152 18.091-41.152 40.408S233.273 512 256 512c3.557 0 7.009-.444 10.302-1.277-17.742-4.491-30.85-20.307-30.85-39.131z" fill="#d99d2e"/><path d="M284.597 201.275C288.062 111.721 339.626 0 256 0s-32.062 111.721-28.596 201.275h57.193z" fill="#fa9f6a"/><path d="M266.302.654C263.117.23 259.697 0 256 0c-83.626 0-32.062 111.721-28.596 201.274h20.604C244.695 115.681 197.457 9.846 266.302.654z" fill="#ea7f49"/><ellipse cx="256" cy="229.39" rx="47.928" ry="35.036" fill="#fae076"/><path d="M228.675 229.391c0-16.764 16.109-30.769 37.626-34.216a65.093 65.093 0 0 0-10.302-.82c-26.469 0-47.928 15.687-47.928 35.036s21.458 35.036 47.928 35.036c3.538 0 6.983-.288 10.302-.82-21.516-3.445-37.626-17.451-37.626-34.216z" fill="#edbd4e"/><path d="M375.707 398.649c-22.846 11.84-62.283 26.089-119.707 26.089s-96.861-14.249-119.707-26.089c7.794-15.608 13.684-32.069 16.837-49.75 5.166-28.945 6.078-60.409 23.164-85.556 20.595-30.313 44.345-41.885 79.705-41.885s59.11 11.572 79.705 41.885c17.086 25.147 17.997 56.611 23.164 85.556 3.155 17.682 9.045 34.143 16.839 49.75z" fill="#fd6f71"/><path d="M196.128 373.445a7.726 7.726 0 0 1-7.726-7.726v-10.835a7.726 7.726 0 1 1 15.452 0v10.835a7.726 7.726 0 0 1-7.726 7.726zm119.744 0a7.726 7.726 0 0 1-7.726-7.726v-10.835a7.726 7.726 0 1 1 15.452 0v10.835a7.727 7.727 0 0 1-7.726 7.726zM256 379.229c-7.989 0-15.496-3.346-20.594-9.18a7.726 7.726 0 1 1 11.634-10.17c2.164 2.477 5.43 3.896 8.959 3.896s6.795-1.421 8.959-3.896a7.725 7.725 0 0 1 10.902-.732 7.725 7.725 0 0 1 .732 10.902c-5.096 5.834-12.603 9.18-20.592 9.18z" fill="#596674"/><path d="M399.783 437.629S354.169 479.276 256 479.276s-143.783-41.647-143.783-41.647c9.103-12.524 17.313-25.435 24.076-38.98 22.846 11.84 62.283 26.089 119.707 26.089s96.861-14.249 119.707-26.089c6.762 13.546 14.973 26.456 24.076 38.98z" fill="#fae076"/><path d="M112.29 437.695c.091.081.269.238.534.463a66.152 66.152 0 0 0 3.773 2.964l.079.059c4.257 3.163 8.761 5.993 13.365 8.622 8.764-12.324 16.696-25.011 23.316-38.271a228.314 228.314 0 0 0 2.064-4.256c-7.32-2.862-13.698-5.81-19.126-8.624-5.917 11.852-12.943 23.219-20.706 34.265a347.812 347.812 0 0 1-3.371 4.715c-.001-.003.023.02.072.063z" fill="#edbd4e"/><path d="M155.42 407.273c7.29-15.385 12.821-31.555 15.9-48.82 5.511-30.881 6.485-64.449 24.713-91.277 20.584-30.297 44.123-43.045 78.007-44.539-1.489.066-2.966-.382-4.44-.53-4.503-.45-9.036-.646-13.561-.647h-.038c-17.68 0-32.458 2.894-45.39 9.576-.809.417-1.609.85-2.403 1.297-11.911 6.713-22.258 16.804-31.913 31.014-17.074 25.131-18.003 56.627-23.164 85.555-3.086 17.303-8.995 34.043-16.837 49.748 5.428 2.813 11.805 5.761 19.126 8.623z" fill="#f74f50"/></svg>