<svg xmlns="http://www.w3.org/2000/svg" viewBox="0 0 512 512"><path d="M98.503 413.497L33.3 386.557 6.547 413.31c-8.729 8.729-8.729 22.881 0 31.61l60.533 60.533c8.729 8.729 22.881 8.729 31.61 0l26.753-26.753-26.94-65.203z" fill="#fa9f6a"/><path d="M29.211 435.974l26.753-26.753 49.165 20.314-6.626-16.038-65.203-26.94L6.547 413.31c-8.729 8.729-8.729 22.881 0 31.61l22.664 22.664c-8.729-8.729-8.729-22.882 0-31.61zm439.966 55.29a22.025 22.025 0 0 1-15.619-6.469L27.205 58.44c-8.626-8.626-8.626-22.609 0-31.235s22.609-8.626 31.235 0l426.355 426.354c8.625 8.626 8.625 22.61 0 31.236a22.023 22.023 0 0 1-15.618 6.469z" fill="#ea7f49"/><path d="M147.593 116.358c-9.063 11.937-17.762 24.107-26.093 36.378l237.89 237.89 1.106-.716-.026-.129 11.986-8.429a827.17 827.17 0 0 0 21.536-15.676l1.665-1.254-248.064-248.064z" fill="#e8742e"/><path d="M195.363 447.887a1217.141 1217.141 0 0 0 24.043-11.768l-.702-24.651 32.202 8.253c7.73-4.155 15.423-8.41 23.06-12.752l1.691-22.259 28.452 4.502a1038.475 1038.475 0 0 0 21.974-13.837l-5.967-29.916 34.564 10.614a785.064 785.064 0 0 0 20.724-15.087l-7.706-31.655 34.404 10.454a565.861 565.861 0 0 0 19.108-16.703l-3.51-27.459 27.686 3.736c70.966-75.012 96.314-157.472 20.521-233.265-157.738-157.74-344.369 122.597-432.608 340.463l92.144 92.143a1257.853 1257.853 0 0 0 37.1-15.735l1.292-22.657 31.528 7.579z" fill="#ea7f49"/><path d="M56.993 410.251C142.946 198.033 322.253-73.442 477.276 58.41a207.904 207.904 0 0 0-11.369-12.318C308.169-111.645 121.538 168.691 33.299 386.557l92.144 92.143-68.45-68.449z" fill="#e8742e"/><path d="M334.653 79.299a7.727 7.727 0 0 1-5.463-13.19l9.572-9.571a7.727 7.727 0 0 1 10.926 10.927l-9.572 9.571a7.7 7.7 0 0 1-5.463 2.263zm105.774 105.774a7.727 7.727 0 0 1-5.463-13.19l9.572-9.571a7.727 7.727 0 0 1 10.926 10.927l-9.572 9.571a7.704 7.704 0 0 1-5.463 2.263zm-40.711-40.448c-8.395 0-16.588-3.432-22.75-9.593-6.663-6.663-10.135-15.706-9.524-24.809a7.724 7.724 0 0 1 8.227-7.192 7.726 7.726 0 0 1 7.192 8.226c-.312 4.654 1.522 9.338 5.032 12.847 3.511 3.511 8.194 5.344 12.847 5.032a7.725 7.725 0 0 1 8.227 7.191 7.726 7.726 0 0 1-7.191 8.227c-.687.048-1.374.071-2.06.071z" fill="#596674"/><path d="M195.363 447.887a1263.351 1263.351 0 0 1-32.821 15.079l-48.649-48.649c-6.614-6.614-6.614-17.343 0-23.958 6.614-6.614 17.336-6.607 23.95.008l57.52 57.52zM421.21 303.08L262.035 143.906c-6.607-6.607-6.607-17.336.008-23.95 6.614-6.614 17.336-6.607 23.941 0l159.401 159.401c-7.558 7.997-15.64 15.906-24.175 23.723zm-19.108 16.704c-8.566 7.176-17.491 14.243-26.698 21.201L232.409 197.99a16.894 16.894 0 0 1-4.958-11.971 16.947 16.947 0 0 1 4.966-11.979c6.614-6.614 17.328-6.614 23.941 0l145.744 145.744zm-47.423 36.287a879.008 879.008 0 0 1-28.596 19.304L202.782 252.073c-6.614-6.614-6.614-17.343 0-23.958 6.614-6.614 17.336-6.607 23.95.008l127.947 127.948zm-50.57 33.141a1104.546 1104.546 0 0 1-30.142 17.757l-100.82-100.82c-3.303-3.303-4.951-7.637-4.958-11.971a16.943 16.943 0 0 1 4.967-11.979c6.614-6.614 17.336-6.607 23.941 0l107.012 107.013zm-53.201 30.509a1193.03 1193.03 0 0 1-31.501 16.398l-75.886-75.886a16.874 16.874 0 0 1-4.958-11.971 16.9 16.9 0 0 1 4.966-11.979c6.614-6.614 17.328-6.614 23.941 0l83.438 83.438z" fill="#fa9f6a"/></svg>