<svg xmlns="http://www.w3.org/2000/svg" viewBox="0 0 512 512"><path d="M196.376 149.574V67.415c0-9.52 7.746-17.266 17.266-17.266h81.678c9.52 0 17.265 7.746 17.265 17.266v82.159l36.354-25.967V67.415c0-29.614-24.006-53.62-53.619-53.62h-81.678c-29.614 0-53.62 24.006-53.62 53.62v56.191l36.354 25.968z" fill="#d2d2d2"/><path d="M196.376 92.701h-36.354v30.905l36.354 25.967zm152.561 0h-36.353v56.872l36.353-25.967z" fill="#a1a1a1"/><path d="M454.129 450.485l-66.458-295.439c-3.851-18.322-20.011-31.439-38.733-31.439H160.022c-18.721 0-34.883 13.117-38.733 31.439L54.831 450.485c-5.169 24.597 13.599 47.72 38.733 47.72h321.832c25.134 0 43.903-23.124 38.733-47.72z" fill="#d2d2d2"/><path d="M171.283 207.77a7.725 7.725 0 0 1-7.726-7.726v-15.057c0-4.267 3.458-7.726 7.726-7.726s7.726 3.459 7.726 7.726v15.057a7.726 7.726 0 0 1-7.726 7.726zm166.393 0a7.725 7.725 0 0 1-7.726-7.726v-15.057c0-4.267 3.458-7.726 7.726-7.726s7.726 3.459 7.726 7.726v15.057a7.726 7.726 0 0 1-7.726 7.726zm-83.196 8.037c-10.233 0-19.837-4.274-26.351-11.727a7.726 7.726 0 1 1 11.633-10.17c3.58 4.095 8.944 6.444 14.717 6.444s11.138-2.349 14.717-6.444a7.725 7.725 0 0 1 10.902-.732 7.725 7.725 0 0 1 .731 10.902c-6.512 7.453-16.117 11.727-26.349 11.727zM15.594 446.928c-5.771 0-11.318-3.219-14.016-8.757-3.77-7.736-.556-17.061 7.178-20.831l458.058-223.265c7.735-3.77 17.06-.557 20.831 7.178 3.77 7.735.556 17.062-7.178 20.832L22.41 445.35a15.522 15.522 0 0 1-6.816 1.578z" fill="#596674"/><path d="M466.815 194.076l-60.654 29.563a69.048 69.048 0 0 0 13.678 27.998l60.628-29.552c7.735-3.77 10.949-13.097 7.178-20.832-3.77-7.735-13.096-10.947-20.83-7.177z" fill="#364e66"/><circle cx="473.636" cy="208.086" r="38.354" fill="#d2d2d2"/><path d="M501.22 181.435c.311 1.969.478 3.986.478 6.042 0 21.185-17.173 38.359-38.359 38.359-10.829 0-20.604-4.495-27.579-11.713 2.899 18.314 18.752 32.317 37.881 32.317 21.185 0 38.359-17.174 38.359-38.359 0-10.355-4.111-19.745-10.78-26.646z" fill="#a1a1a1"/></svg>