<svg xmlns="http://www.w3.org/2000/svg" viewBox="0 0 512 512"><path d="M175.078 130.112c-3.28 2.356-6.901 5.108-10.788 8.18-7.887 6.232-18.649 7.396-27.715 3.053l-70.008-33.533a35.334 35.334 0 0 0-47.129 47.129l30.275 63.204a26.48 26.48 0 0 1-4.712 29.706l-.098.103C-93.443 393.2 118.799 605.443 264.046 467.096c23.235-22.13 92.827-95.347 117.84-130.174C571.462 72.967 497.991 14.009 497.991 14.009s-58.959-73.472-322.913 116.103z" fill="#85cdea"/><path d="M501.142 17.543c4.16 41.189-12.859 125.99-129.557 288.474-25.014 34.827-94.605 108.043-117.84 130.173-91.929 87.562-210.695 34.683-250.426-52.762C26.097 487.991 161.7 564.579 264.046 467.095c23.235-22.13 92.827-95.347 117.84-130.173C546.044 108.358 512.964 33.506 501.142 17.543z" fill="#4fb6e0"/><g fill="#596674"><circle cx="112.661" cy="305.458" r="24.693"/><circle cx="189.388" cy="382.186" r="24.693"/><circle cx="112.661" cy="382.186" r="24.693"/><circle cx="189.388" cy="305.458" r="24.693"/><circle cx="268.846" cy="132.409" r="24.693"/><circle cx="358.193" cy="129.771" r="24.693"/><circle cx="435.91" cy="86.978" r="24.693"/><path d="M267.076 337.02a7.7 7.7 0 0 1-5.463-2.263l-11.119-11.118a7.727 7.727 0 0 1 10.926-10.927l11.119 11.118a7.727 7.727 0 0 1-5.463 13.19zM389.94 214.154a7.7 7.7 0 0 1-5.463-2.263l-11.118-11.118a7.726 7.726 0 0 1 10.926-10.926l11.118 11.118a7.726 7.726 0 0 1-5.463 13.189zm-75.576 75.881c-.77 0-1.539-.026-2.31-.077-4.258-.286-7.477-3.969-7.191-8.227s3.956-7.478 8.227-7.191c5.773.389 11.557-1.876 15.889-6.209 4.333-4.333 6.595-10.125 6.208-15.889a7.727 7.727 0 1 1 15.417-1.035c.686 10.214-3.213 20.366-10.698 27.851-6.921 6.921-16.122 10.777-25.542 10.777z"/></g></svg>