<svg xmlns="http://www.w3.org/2000/svg" viewBox="0 0 512 512"><path d="M219.15 248.276c25.155 24.52 52.104 65.257 52.104 127.232 0 40.686-16.612 69.856-38.208 90.57-54.205 51.985-140.632 51.985-194.837 0C16.612 445.365 0 416.195 0 375.509c0-61.976 26.949-102.711 52.104-127.233H219.15zm-60.932-10.814a14.84 14.84 0 0 1-11.709-5.693c-19.354-24.678-29.585-54.335-29.585-85.763 0-76.686 62.389-139.074 139.074-139.074 76.687 0 139.074 62.389 139.074 139.074 0 29.3-9.008 57.329-26.05 81.054-4.789 6.669-14.078 8.193-20.748 3.402-6.668-4.79-8.191-14.079-3.402-20.749 13.388-18.639 20.466-40.669 20.466-63.707 0-60.29-49.05-109.34-109.34-109.34s-109.34 49.05-109.34 109.34c0 24.71 8.038 48.021 23.248 67.413 5.067 6.46 3.937 15.806-2.524 20.874a14.806 14.806 0 0 1-9.164 3.169z" fill="#ea7f49"/><path d="M239.648 459.285c18.287-20.161 31.606-47.35 31.606-83.776 0-43.968-13.567-77.235-30.432-101.616-14.7 25.91-25.832 59.44-25.832 101.616.002 31.439 8.283 59.493 24.658 83.776z" fill="#e8742e"/><path d="M459.895 248.276C485.051 272.798 512 313.533 512 375.509c0 40.686-16.612 69.856-38.208 90.57-54.205 51.985-140.632 51.985-194.837 0-21.597-20.715-38.208-49.883-38.208-90.57 0-61.976 26.949-102.711 52.104-127.233h167.044z" fill="#fa9f6a"/><path d="M306.073 368.846a7.726 7.726 0 0 1-7.726-7.726v-12.723a7.726 7.726 0 1 1 15.452 0v12.723a7.726 7.726 0 0 1-7.726 7.726zm140.6 0a7.726 7.726 0 0 1-7.726-7.726v-12.723a7.726 7.726 0 1 1 15.452 0v12.723a7.726 7.726 0 0 1-7.726 7.726zm-70.3 6.792c-8.991 0-17.436-3.761-23.168-10.318a7.726 7.726 0 0 1 11.633-10.17c2.798 3.2 7.001 5.036 11.534 5.036s8.737-1.835 11.534-5.036a7.725 7.725 0 0 1 10.902-.732 7.725 7.725 0 0 1 .732 10.902c-5.731 6.557-14.175 10.318-23.167 10.318z" fill="#596674"/><path d="M394.891 138.827c-1.023.509-2.039 1.016-3.038 1.517-4.999 2.507-12.506 6.272-15.481 6.641-2.184-.271-6.809-2.373-11.093-4.463.036 1.158.061 2.318.061 3.483 0 23.038-7.077 45.067-20.466 63.707-4.79 6.668-3.268 15.959 3.402 20.749s15.959 3.268 20.748-3.402c17.042-23.726 26.05-51.754 26.05-81.054 0-2.406-.061-4.799-.183-7.178z" fill="#e8742e"/><path d="M459.895 248.276c-36.92 39.635-83.523 47.109-83.523 47.109s-46.603-7.473-83.523-47.109c22.043-21.488 42.698-30.537 42.698-30.537s-46.504-33.619-31.141-54.671c18.683-25.601 49.13 9.684 71.966 9.684 22.836 0 53.283-35.285 71.966-9.684 15.363 21.052-31.141 54.671-31.141 54.671s20.656 9.05 42.698 30.537z" fill="#ea7f49"/><path d="M376.373 207.326c-12.205 0-23.095-2.969-29.131-7.942a7.728 7.728 0 0 1 9.825-11.928c2.582 2.127 9.725 4.416 19.307 4.416 9.58 0 16.723-2.289 19.307-4.416a7.727 7.727 0 0 1 9.822 11.93c-6.039 4.972-16.929 7.94-29.13 7.94zM65.327 368.846a7.726 7.726 0 0 1-7.726-7.726v-12.723a7.726 7.726 0 1 1 15.452 0v12.723a7.726 7.726 0 0 1-7.726 7.726zm140.6 0a7.726 7.726 0 0 1-7.726-7.726v-12.723a7.726 7.726 0 1 1 15.452 0v12.723a7.726 7.726 0 0 1-7.726 7.726zm-70.3 6.792c-8.992 0-17.437-3.761-23.169-10.318a7.726 7.726 0 1 1 11.634-10.17c2.797 3.2 7.001 5.036 11.534 5.036s8.736-1.835 11.533-5.036c2.809-3.213 7.689-3.541 10.902-.732s3.541 7.689.732 10.902c-5.73 6.557-14.174 10.318-23.166 10.318z" fill="#596674"/><path d="M158.218 237.462a14.8 14.8 0 0 0 9.164-3.169c6.46-5.067 7.59-14.413 2.524-20.874-15.209-19.392-23.248-42.703-23.248-67.413 0-1.166.025-2.326.061-3.483-4.283 2.09-8.91 4.192-11.093 4.463-2.975-.369-10.482-4.133-15.481-6.641a717.891 717.891 0 0 0-3.038-1.517 140.125 140.125 0 0 0-.183 7.179c0 31.428 10.231 61.084 29.585 85.763a14.847 14.847 0 0 0 11.709 5.692z" fill="#e8742e"/><path d="M219.15 248.276c-36.92 39.635-83.523 47.109-83.523 47.109s-46.603-7.473-83.523-47.109c22.043-21.488 42.698-30.537 42.698-30.537s-46.504-33.619-31.141-54.671c18.683-25.601 49.13 9.684 71.966 9.684s53.283-35.285 71.966-9.684c15.363 21.052-31.141 54.671-31.141 54.671s20.656 9.05 42.698 30.537z" fill="#fa9f6a"/><path d="M135.626 207.326c-12.204 0-23.094-2.969-29.131-7.941a7.728 7.728 0 0 1-1.052-10.876 7.726 7.726 0 0 1 10.876-1.052c2.583 2.127 9.726 4.416 19.308 4.416 9.581 0 16.724-2.289 19.308-4.416a7.727 7.727 0 0 1 9.822 11.93c-6.039 4.971-16.928 7.939-29.131 7.939z" fill="#596674"/></svg>