<svg xmlns="http://www.w3.org/2000/svg" viewBox="0 0 512.001 512.001"><path d="M299.141 251.284l-38.424-38.424S110.681 177.229 4.639 283.587c-6.768 6.789-6.042 17.974 1.601 23.76 23.2 17.566 70.682 54.726 107.184 91.229s73.663 83.984 91.229 107.184c5.787 7.643 16.972 8.369 23.76 1.601 106.36-106.041 70.728-256.077 70.728-256.077z" fill="#fa9f6a"/><path d="M299.141 251.284l-16.483-16.483c0 .001 35.631 150.037-70.727 256.078-4.271 4.259-10.281 5.544-15.593 4.014 3.103 4.016 5.901 7.678 8.316 10.867 5.787 7.643 16.971 8.37 23.76 1.601 106.359-106.041 70.727-256.077 70.727-256.077zM391.19 123.05l-35.14-5.515-27.67 27.661 3.921 33.043 34.504 5.382 27.661-27.66z" fill="#ea7f49"/><path fill="#e8742e" d="M426.329 85.671l-4.193 42.619-27.67 27.671-38.416-38.426 27.661-27.67z"/><path fill="#ea7f49" d="M336.079 183.621l-35.36-10.755-27.671 27.661 5.383 33.043 33.043 5.382 27.661-27.67z"/><path fill="#e8742e" d="M339.135 211.282l-38.416-38.416 27.661-27.67 38.425 38.425z"/><path fill="#ea7f49" d="M245.388 228.197l-27.671 27.661 3.731 34.696 34.695 3.728 27.661-27.669v-38.318z"/><path d="M283.804 266.613l-38.416-38.416 27.66-27.67 38.426 38.425zm-27.661 27.669l-27.66 27.662-38.426-38.416 27.66-27.67z" fill="#e8742e"/><circle cx="193.809" cy="318.193" r="39.088" fill="#596674"/><path d="M508.176 50.715c-4.778-6.323-11.823-14.659-22.026-24.862-10.203-10.203-18.539-17.248-24.862-22.026-7.816-5.906-18.85-4.855-25.505 2.333-47.396 51.196-52.07 83.707-52.07 83.707l38.424 38.424s32.513-4.675 83.707-52.071c7.186-6.655 8.237-17.689 2.332-25.505z" fill="#fa9f6a"/><path d="M100.954 335.931a7.726 7.726 0 0 1-5.463-13.19l7.497-7.497a7.727 7.727 0 0 1 10.925 10.927l-7.497 7.497a7.695 7.695 0 0 1-5.462 2.263zm82.843 82.844a7.726 7.726 0 0 1-5.463-13.19l7.497-7.497a7.727 7.727 0 0 1 10.925 10.927l-7.497 7.497a7.695 7.695 0 0 1-5.462 2.263zm-31.884-31.679c-7.019 0-13.862-2.864-19.002-8.005-5.561-5.561-8.458-13.116-7.946-20.728a7.727 7.727 0 0 1 15.418 1.038c-.213 3.162 1.047 6.356 3.454 8.765 2.408 2.409 5.597 3.666 8.766 3.455a7.722 7.722 0 0 1 8.227 7.192 7.727 7.727 0 0 1-7.191 8.227c-.577.036-1.153.056-1.726.056z" fill="#596674"/><g fill="#e8742e"><circle cx="449.613" cy="29.134" r="7.62"/><circle cx="432.718" cy="54.515" r="7.62"/><circle cx="415.813" cy="79.891" r="7.62"/></g></svg>