<svg xmlns="http://www.w3.org/2000/svg" viewBox="0 0 512 512"><path d="M62.957 302.531a7.61 7.61 0 0 1-7.611-7.612v-97.261a7.612 7.612 0 0 1 15.223 0v97.261a7.611 7.611 0 0 1-7.612 7.612zm96.522 0a7.611 7.611 0 0 1-7.612-7.612v-97.261a7.61 7.61 0 0 1 7.612-7.611 7.61 7.61 0 0 1 7.611 7.611v97.261a7.611 7.611 0 0 1-7.611 7.612zm96.521 0a7.61 7.61 0 0 1-7.611-7.612v-97.261a7.61 7.61 0 1 1 15.222 0v97.261a7.61 7.61 0 0 1-7.611 7.612zm96.521 0a7.61 7.61 0 0 1-7.611-7.612v-97.261a7.61 7.61 0 0 1 7.611-7.611 7.611 7.611 0 0 1 7.612 7.611v97.261a7.612 7.612 0 0 1-7.612 7.612zm96.522 0a7.61 7.61 0 0 1-7.611-7.612v-97.261a7.612 7.612 0 0 1 15.223 0v97.261a7.613 7.613 0 0 1-7.612 7.612zm12.973-143.19a7.58 7.58 0 0 1-4.356-1.375L256 16.901 54.34 157.965a7.612 7.612 0 0 1-8.725-12.474L251.637 1.375a7.61 7.61 0 0 1 8.726 0l206.023 144.117a7.61 7.61 0 0 1-4.37 13.849z" fill="#596674"/><path d="M474.38 132.705H37.62c-11.369 0-20.585 9.217-20.585 20.586v40.144c0 11.369 9.216 20.585 20.585 20.585h436.761c11.369 0 20.585-9.216 20.585-20.585v-40.144c-.001-11.37-9.217-20.586-20.586-20.586z" fill="#ea7f49"/><path d="M47.48 193.435v-40.144c0-11.369 9.216-20.586 20.585-20.586H37.619c-11.369 0-20.585 9.217-20.585 20.586v40.144c0 11.369 9.216 20.585 20.585 20.585h30.446c-11.369 0-20.585-9.216-20.585-20.585z" fill="#e8742e"/><path d="M165.931 184.773a7.61 7.61 0 0 1-7.611-7.611v-16.301a7.61 7.61 0 1 1 15.222 0v16.301a7.609 7.609 0 0 1-7.611 7.611zm180.137 0a7.61 7.61 0 0 1-7.611-7.611v-16.301a7.612 7.612 0 0 1 15.223 0v16.301a7.61 7.61 0 0 1-7.612 7.611zM256 193.475c-10.86 0-21.051-4.533-27.961-12.437-2.768-3.165-2.444-7.974.722-10.74s7.974-2.444 10.739.722c4.018 4.596 10.032 7.233 16.5 7.233s12.482-2.637 16.5-7.233a7.61 7.61 0 1 1 11.461 10.018c-6.91 7.903-17.101 12.437-27.961 12.437z" fill="#596674"/><path d="M82.53 260.232H43.385c-6.837 0-12.379 5.542-12.379 12.379V499.62c0 6.837 5.542 12.379 12.379 12.379H82.53c6.837 0 12.379-5.542 12.379-12.379V272.611c0-6.837-5.542-12.379-12.379-12.379z" fill="#fae076"/><path d="M127.527 464.673c0 6.837 5.542 12.379 12.379 12.379h39.144c6.837 0 12.379-5.542 12.379-12.379V272.611c0-6.837-5.542-12.379-12.379-12.379h-39.144c-6.837 0-12.379 5.542-12.379 12.379v192.062z" fill="#edbd4e"/><path d="M224.048 429.726c0 6.837 5.542 12.379 12.379 12.379h39.144c6.837 0 12.379-5.542 12.379-12.379V272.611c0-6.837-5.542-12.379-12.379-12.379h-39.144c-6.837 0-12.379 5.542-12.379 12.379v157.115z" fill="#fae076"/><path d="M320.57 394.778c0 6.837 5.542 12.379 12.379 12.379h39.144c6.837 0 12.379-5.542 12.379-12.379V272.611c0-6.837-5.542-12.379-12.379-12.379h-39.144c-6.837 0-12.379 5.542-12.379 12.379v122.167z" fill="#edbd4e"/><path d="M468.614 260.232H429.47c-6.837 0-12.379 5.542-12.379 12.379v87.221c0 6.837 5.542 12.379 12.379 12.379h39.144c6.837 0 12.379-5.542 12.379-12.379v-87.221c.002-6.837-5.542-12.379-12.379-12.379z" fill="#fae076"/><g fill="#596674"><circle cx="62.952" cy="294.921" r="9.985"/><circle cx="159.476" cy="294.921" r="9.985"/><circle cx="256" cy="294.921" r="9.985"/><circle cx="352.524" cy="294.921" r="9.985"/><circle cx="449.037" cy="294.921" r="9.985"/></g></svg>