<svg xmlns="http://www.w3.org/2000/svg" viewBox="0 0 512.002 512.002"><path d="M84.974 8.92C87.73 1.752 95.779-1.826 102.944.931l284.872 109.523c6.023 2.316 12.474 3.535 18.909 3.04 5.79-.445 11.733 1.644 16.028 6.286 6.854 7.408 6.952 19.09.213 26.602-7.639 8.517-20.747 8.783-28.729.801l-.054-.054c-4.442-4.476-9.636-8.134-15.523-10.398L92.964 26.891c-7.169-2.756-10.745-10.802-7.99-17.971z" fill="#edbd4e"/><g fill="#f74f50"><path d="M91.846 303.972l-62.833-42.286v224.945h113zm328.31 0l-50.168 182.659h113.001V261.686z"/><path d="M349.099 351.343l-93.098-91.62-93.099 91.62-20.889 135.288h227.975z"/></g><path fill="#fae076" d="M482.989 230.678v31.008L369.988 486.631 256.001 259.723 142.013 486.631l-113-224.945v-31.008z"/><path fill="#efedee" d="M29.011 183.084h453.98v76.635H29.011z"/><path d="M189.161 231.947a7.725 7.725 0 0 1-7.726-7.726v-12.097c0-4.267 3.458-7.726 7.726-7.726s7.726 3.459 7.726 7.726v12.097a7.725 7.725 0 0 1-7.726 7.726zm133.68 0a7.725 7.725 0 0 1-7.726-7.726v-12.097a7.725 7.725 0 0 1 7.726-7.726 7.725 7.725 0 0 1 7.726 7.726v12.097a7.726 7.726 0 0 1-7.726 7.726zm-66.84 6.457c-8.659 0-16.792-3.623-22.314-9.94a7.725 7.725 0 0 1 .732-10.902 7.725 7.725 0 0 1 10.901.732c2.588 2.96 6.48 4.657 10.68 4.657 4.2 0 8.092-1.698 10.68-4.657a7.724 7.724 0 0 1 10.901-.732 7.724 7.724 0 0 1 .732 10.902c-5.52 6.317-13.654 9.94-22.312 9.94z" fill="#596674"/><path d="M149.495 166.426h-14.962a8.56 8.56 0 0 0-8.56 8.56v92.83a8.56 8.56 0 0 0 8.56 8.56h14.962a8.56 8.56 0 0 0 8.56-8.56v-92.83a8.561 8.561 0 0 0-8.56-8.56zm0 294.84h-14.962a8.56 8.56 0 0 0-8.56 8.56v33.616a8.56 8.56 0 0 0 8.56 8.56h14.962a8.56 8.56 0 0 0 8.56-8.56v-33.617a8.56 8.56 0 0 0-8.56-8.559zM36.494 166.426H21.532a8.56 8.56 0 0 0-8.56 8.56v92.83a8.56 8.56 0 0 0 8.56 8.56h14.962a8.56 8.56 0 0 0 8.56-8.56v-92.83a8.561 8.561 0 0 0-8.56-8.56zm0 294.84H21.532a8.56 8.56 0 0 0-8.56 8.56v33.616a8.56 8.56 0 0 0 8.56 8.56h14.962a8.56 8.56 0 0 0 8.56-8.56v-33.617a8.56 8.56 0 0 0-8.56-8.559zm326.013-294.84h14.962a8.56 8.56 0 0 1 8.56 8.56v92.83a8.56 8.56 0 0 1-8.56 8.56h-14.962a8.56 8.56 0 0 1-8.56-8.56v-92.83a8.56 8.56 0 0 1 8.56-8.56zm0 294.84h14.962a8.56 8.56 0 0 1 8.56 8.56v33.616a8.56 8.56 0 0 1-8.56 8.56h-14.962a8.56 8.56 0 0 1-8.56-8.56v-33.617a8.56 8.56 0 0 1 8.56-8.559zm113.001-294.84h14.962a8.56 8.56 0 0 1 8.56 8.56v92.83a8.56 8.56 0 0 1-8.56 8.56h-14.962a8.56 8.56 0 0 1-8.56-8.56v-92.83a8.56 8.56 0 0 1 8.56-8.56zm0 294.84h14.962a8.56 8.56 0 0 1 8.56 8.56v33.616a8.56 8.56 0 0 1-8.56 8.56h-14.962a8.56 8.56 0 0 1-8.56-8.56v-33.617a8.56 8.56 0 0 1 8.56-8.559z" fill="#d2d2d2"/><path d="M427.027 8.92c-2.756-7.169-10.805-10.746-17.97-7.99L124.185 110.454c-6.023 2.316-12.474 3.535-18.909 3.04-5.79-.445-11.733 1.644-16.028 6.286-6.854 7.408-6.952 19.09-.213 26.602 7.639 8.517 20.747 8.783 28.729.801l.054-.054c4.442-4.476 9.636-8.134 15.523-10.398l285.696-109.84c7.169-2.756 10.746-10.802 7.99-17.971z" fill="#fae076"/></svg>