<svg xmlns="http://www.w3.org/2000/svg" viewBox="0 0 511.999 511.999"><path fill="#efedee" d="M205.831 310.443L87.953 261.572l-47.221 18.272 111.343 120.744 161.506 30.572.086-26.644z"/><path d="M240.775 508.724c12.506 6.96 28.288 2.464 35.248-10.043l37.347-67.11L40.732 279.846l-37.347 67.11c-6.96 12.506-2.463 28.288 10.043 35.248l138.648 18.383 88.699 108.137z" fill="#fd6f71"/><path fill="#d2d2d2" d="M240.253 433.225l5.332-9.578-32.477-18.074-34.193 19.474-3.093 47.527 32.475 18.073 42.185-24.463z"/><g fill="#efedee"><path d="M261.771 87.755l48.87 117.877 94.074 107.837 26.643-.087-31.304-147.179L280.042 40.534z"/><path d="M197.88 134.255l-53.197 10.23-10.229 53.197 71.377 112.761 131.048 62.043 26.726-9.079 9.079-26.726-62.043-131.049zm80.188 307.48l-37.288 67-32.478-18.075 37.288-67z"/></g><path fill="#d2d2d2" d="M148.149 369.423l-32.476 26.337-4.81 40.663 32.476 18.073 37.286-32.883v-34.117z"/><path fill="#efedee" d="M213.113 405.585l-37.288 67-32.487-18.08 37.288-67z"/><path fill="#d2d2d2" d="M115.673 351.35l-32.477-18.074-34.885 24.463-2.401 42.538 32.476 18.073 34.881-13.834-5.141-39.606z"/><path d="M148.153 369.433l-37.288 67-32.479-18.075 37.288-67zm-64.947-36.146l-37.288 67-32.487-18.08 37.288-67z" fill="#efedee"/><path d="M69.06 382.263l-20.062-11.165 24.157-43.407 20.062 11.165zm32.48 18.071L81.48 389.17l24.157-43.406 20.062 11.164zm64.951 36.15l-20.061-11.165 24.157-43.407 20.062 11.165zm32.469 18.076l-20.06-11.165 24.157-43.407 20.062 11.165zm32.484 18.073l-20.062-11.165 24.158-43.406 20.061 11.165z" fill="#596674"/><path d="M382.512 13.364l-.001-.006C375.573.839 359.8-3.685 347.281 3.253l-67.175 37.23 151.251 272.901 67.175-37.231c12.519-6.938 17.042-22.711 10.104-35.23l-.005-.004L382.512 13.364z" fill="#fd6f71"/><g fill="#efedee"><circle cx="473.1" cy="242.545" r="12.102"/><circle cx="420.097" cy="227.339" r="12.102"/><circle cx="442.473" cy="187.276" r="12.102"/><circle cx="389.47" cy="172.07" r="12.102"/><circle cx="411.835" cy="132.006" r="12.102"/><circle cx="358.832" cy="116.801" r="12.102"/><circle cx="381.208" cy="76.737" r="12.102"/><circle cx="328.205" cy="61.532" r="12.102"/></g><path d="M336.879 372.486l-4.475 22.122-18.737 9.908L87.953 261.572l-1.58-42.408 48.081-21.482zM261.771 87.755l142.944 225.714-9.909 18.737-22.122 4.475L197.88 134.255l21.482-48.08z" fill="#d2d2d2"/><path d="M146.561 264.38a7.7 7.7 0 0 1-5.463-2.263l-9.98-9.98a7.727 7.727 0 0 1 10.926-10.927l9.98 9.98a7.727 7.727 0 0 1-5.463 13.19zm110.291-110.292a7.7 7.7 0 0 1-5.463-2.263l-9.98-9.98a7.727 7.727 0 0 1 10.926-10.927l9.98 9.98a7.727 7.727 0 0 1-5.463 13.19zm-67.843 68.117c-.708 0-1.417-.024-2.126-.071a7.726 7.726 0 0 1-7.191-8.227 7.723 7.723 0 0 1 8.226-7.191c4.956.333 9.924-1.615 13.652-5.344s5.675-8.704 5.344-13.651a7.727 7.727 0 0 1 15.418-1.036c.632 9.396-2.952 18.732-9.834 25.613-6.362 6.362-14.823 9.906-23.489 9.907z" fill="#596674"/></svg>