<svg xmlns="http://www.w3.org/2000/svg" viewBox="0 0 511.999 511.999"><g fill="#edbd4e"><ellipse cx="256" cy="44.905" rx="47.625" ry="44.905"/><ellipse transform="rotate(-45.001 405.257 106.73)" cx="405.256" cy="106.725" rx="44.904" ry="47.625"/><ellipse cx="467.094" cy="256" rx="44.905" ry="47.625"/><ellipse transform="rotate(45.001 405.288 405.26)" cx="405.281" cy="405.263" rx="44.904" ry="47.625"/><ellipse cx="256" cy="467.094" rx="47.625" ry="44.905"/><ellipse transform="rotate(134.999 106.721 405.276)" cx="106.72" cy="405.275" rx="44.904" ry="47.625"/><ellipse cx="44.905" cy="256" rx="44.905" ry="47.625"/><ellipse transform="rotate(-134.999 106.738 106.738)" cx="106.737" cy="106.737" rx="44.904" ry="47.625"/></g><circle cx="256" cy="256" r="222.416" fill="#fae076"/><circle cx="256" cy="256" r="175.43" fill="#fa9f6a"/><circle cx="256" cy="256" r="141.454" fill="#efedee"/><path d="M140.306 256c0-73.778 56.488-134.353 128.572-140.86a143.128 143.128 0 0 0-12.877-.589c-78.121 0-141.449 63.329-141.449 141.449S177.879 397.449 256 397.449c4.342 0 8.635-.207 12.877-.589-72.084-6.507-128.571-67.082-128.571-140.86z" fill="#d2d2d2"/><path d="M171.012 267.312a7.725 7.725 0 0 1-7.726-7.726v-15.382c0-4.267 3.458-7.726 7.726-7.726s7.726 3.459 7.726 7.726v15.382a7.725 7.725 0 0 1-7.726 7.726zm169.976 0a7.725 7.725 0 0 1-7.726-7.726v-15.382c0-4.267 3.458-7.726 7.726-7.726s7.726 3.459 7.726 7.726v15.382a7.725 7.725 0 0 1-7.726 7.726zM256 275.522c-10.405 0-20.17-4.345-26.794-11.922a7.726 7.726 0 1 1 11.633-10.171c3.689 4.22 9.214 6.64 15.16 6.64s11.471-2.42 15.159-6.639a7.724 7.724 0 0 1 10.901-.732 7.724 7.724 0 0 1 .732 10.902c-6.62 7.577-16.385 11.922-26.791 11.922z" fill="#596674"/></svg>