<svg xmlns="http://www.w3.org/2000/svg" viewBox="0 0 512 512"><g fill="#edbd4e"><path d="M187.115 214.402L152.746 9.909l-.148.127v-.127H83.861L49.344 252.506l34.517 189.67c0 10.116 8.201 18.318 18.318 18.318h32.103c10.116 0 18.318-8.201 18.318-18.318v-41.913l.148.315 34.367-186.176z"/><path d="M324.885 172.805L290.517 9.909l-.148.126v-.126h-68.737l-34.517 204.493 34.517 144.579c0 10.116 8.201 18.318 18.318 18.318h32.102c10.116 0 18.318-8.201 18.318-18.318v-41.485l.148-.112 34.367-144.579zm137.771-41.597L428.287 9.909l-.148.113v-.113h-68.737l-34.517 162.895 34.517 102.981c0 10.116 8.201 18.318 18.318 18.318h32.102c10.116 0 18.318-8.201 18.318-18.318v-41.322c.047-.092.106-.185.148-.276 4.178-8.969 34.368-102.979 34.368-102.979z"/></g><path d="M14.975 9.909v473.864c0 10.116 8.201 18.318 18.318 18.318h32.103c10.116 0 18.318-8.201 18.318-18.318V9.909H14.975zm156.089 408.986h32.103c10.116 0 18.318-8.201 18.318-18.318V9.909h-68.737v390.669c-.002 10.117 8.199 18.317 18.316 18.317zm137.77-83.194h32.103c10.116 0 18.318-8.201 18.318-18.318V9.909h-68.737v307.474c-.001 10.117 8.199 18.318 18.316 18.318zM428.287 9.909v224.28c0 10.116 8.201 18.318 18.318 18.318h32.103c10.116 0 18.318-8.201 18.318-18.318V9.909h-68.739z" fill="#fae076"/><path d="M491.794 75.467H20.206C9.047 75.467 0 84.513 0 95.673v73.398c0 11.16 9.047 20.206 20.206 20.206h471.588c11.159 0 20.206-9.046 20.206-20.206V95.673c0-11.16-9.046-20.206-20.206-20.206z" fill="#ea7f49"/><path d="M41.207 169.071V95.673c0-11.16 9.046-20.206 20.206-20.206H20.206C9.046 75.467 0 84.513 0 95.673v73.399c0 11.16 9.046 20.206 20.206 20.206h41.207c-11.16-.001-20.206-9.047-20.206-20.207z" fill="#e8742e"/><path d="M165.757 141.177a7.725 7.725 0 0 1-7.726-7.726v-16.332a7.725 7.725 0 0 1 7.726-7.726 7.725 7.725 0 0 1 7.726 7.726v16.332a7.725 7.725 0 0 1-7.726 7.726zm180.487 0a7.725 7.725 0 0 1-7.726-7.726v-16.332a7.725 7.725 0 0 1 7.726-7.726 7.725 7.725 0 0 1 7.726 7.726v16.332a7.726 7.726 0 0 1-7.726 7.726zM256 149.895c-10.911 0-21.149-4.554-28.091-12.496a7.726 7.726 0 1 1 11.633-10.17c4.007 4.584 10.006 7.213 16.457 7.213 6.452 0 12.449-2.629 16.455-7.212a7.725 7.725 0 0 1 10.902-.732 7.725 7.725 0 0 1 .733 10.902c-6.939 7.94-17.178 12.495-28.089 12.495z" fill="#596674"/><path fill="#edbd4e" d="M14.975 189.275h68.734v31.723H14.975z"/><path fill="#d99d2e" d="M83.857 189.275h68.734v31.723H83.857z"/><path fill="#edbd4e" d="M152.745 189.275h68.734v31.723h-68.734z"/><path fill="#d99d2e" d="M221.633 189.275h68.734v31.723h-68.734z"/><path fill="#edbd4e" d="M290.521 189.275h68.734v31.723h-68.734z"/><path fill="#d99d2e" d="M359.399 189.275h68.734v31.723h-68.734z"/><path fill="#edbd4e" d="M428.287 189.275h68.734v31.723h-68.734z"/></svg>