<svg xmlns="http://www.w3.org/2000/svg" viewBox="0 0 512 512"><path d="M388.647 487.381c-6.856-7.441-14.388-11.715-14.388-11.715L256 445.843l-118.26 29.823s-7.532 4.275-14.388 11.715C114.687 496.786 121.311 512 134.1 512h243.799c12.788 0 19.413-15.215 10.748-24.619z" fill="#e8742e"/><path d="M54.776 259.469c10.772 69.59 34.407 147.574 82.965 216.197H374.26c48.558-68.622 72.194-146.607 82.965-216.197H54.776zm-6.479-35.748l1.592 15.425h407.335l6.479-15.425-1.592-3.476-26.665-180.597H76.554L54.776 165.619z" fill="#fa9f6a"/><path d="M76.554 39.648L52.522 62.497s-11.199 67.788-2.632 157.748l72.426-157.748-45.762-22.849z" fill="#e8742e"/><path d="M459.478 62.497l-24.032-22.849-45.762 22.849 72.426 157.748c8.567-89.959-2.632-157.748-2.632-157.748zm-270.32-22.849l-66.843 22.849 66.843 161.224L256 62.497z" fill="#ea7f49"/><path fill="#e8742e" d="M322.842 39.648l66.843 22.849-66.843 161.224L256 62.497z"/><path d="M430.159 0H81.841C56.488 0 35.935 20.553 35.935 45.906c0 9.162 7.428 16.59 16.59 16.59h406.951c9.162 0 16.59-7.428 16.59-16.59C476.065 20.553 455.513 0 430.159 0z" fill="#efedee"/><path d="M87.444 45.906C87.444 20.553 107.996 0 133.35 0H81.841C56.488 0 35.935 20.553 35.935 45.906c0 9.162 7.428 16.59 16.59 16.59h51.509c-9.163 0-16.59-7.428-16.59-16.59z" fill="#d2d2d2"/><path d="M150.595 342.654a7.726 7.726 0 0 1-7.726-7.726V315.85a7.726 7.726 0 1 1 15.452 0v19.077a7.726 7.726 0 0 1-7.726 7.727zm210.81 0a7.726 7.726 0 0 1-7.726-7.726V315.85a7.726 7.726 0 1 1 15.452 0v19.077a7.726 7.726 0 0 1-7.726 7.727zM256 352.837c-12.369 0-23.972-5.158-31.833-14.152a7.726 7.726 0 1 1 11.634-10.17c4.926 5.636 12.288 8.869 20.198 8.869s15.271-3.233 20.198-8.869a7.725 7.725 0 0 1 10.902-.732 7.725 7.725 0 0 1 .732 10.902c-7.86 8.994-19.462 14.152-31.831 14.152z" fill="#596674"/><path d="M60.351 290.373H451.65a631.85 631.85 0 0 0 5.575-30.905H54.776a629.255 629.255 0 0 0 5.575 30.905z" fill="#ea7f49"/><path d="M463.703 223.721H48.297c-9.871 0-17.874 8.002-17.874 17.874 0 9.871 8.002 17.874 17.874 17.874h415.406c9.871 0 17.874-8.002 17.874-17.874 0-9.872-8.003-17.874-17.874-17.874z" fill="#efedee"/></svg>