<svg xmlns="http://www.w3.org/2000/svg" viewBox="0 0 511.999 511.999"><path d="M117.818 451.829L69.687 499.96c-6.652 6.652-17.436 6.652-24.087 0l-22.424-22.424 37.904-37.904 56.738 12.197z" fill="#a1a1a1"/><path d="M6.128 436.402c-6.652 6.652-6.652 17.436 0 24.087l17.048 17.048c6.652 6.652 17.436 6.652 24.087 0l48.131-48.131-41.135-41.135-48.131 48.131z" fill="#d2d2d2"/><path d="M451.829 117.818l48.131-48.131c6.652-6.652 6.652-17.436 0-24.087l-22.424-22.424-37.904 37.904 12.197 56.738z" fill="#a1a1a1"/><g fill="#d2d2d2"><path d="M436.402 6.128c6.652-6.652 17.436-6.652 24.087 0l17.048 17.048c6.652 6.652 6.652 17.436 0 24.087l-48.131 48.131-41.135-41.135 48.131-48.131z"/><path d="M498.561 120.011c17.918 17.918 17.918 46.969 0 64.887L184.898 498.561c-17.918 17.918-46.969 17.918-64.887 0l-46.886-46.886 378.55-378.55 46.886 46.886z"/></g><path d="M173.23 441.125l-12.739 12.739a6.703 6.703 0 0 0 0 9.48l12.739 12.739a6.703 6.703 0 0 0 9.48 0l12.739-12.739a6.703 6.703 0 0 0 0-9.48l-12.739-12.739a6.705 6.705 0 0 0-9.48 0zm40.09-40.09l-12.739 12.739a6.703 6.703 0 0 0 0 9.48l12.739 12.739a6.703 6.703 0 0 0 9.48 0l12.739-12.739a6.703 6.703 0 0 0 0-9.48L222.8 401.035a6.703 6.703 0 0 0-9.48 0zm40.091-40.091l-12.739 12.739a6.703 6.703 0 0 0 0 9.48l12.739 12.739a6.703 6.703 0 0 0 9.48 0l12.739-12.739a6.703 6.703 0 0 0 0-9.48l-12.739-12.739a6.705 6.705 0 0 0-9.48 0zm40.09-40.09l-12.739 12.739a6.703 6.703 0 0 0 0 9.48l12.739 12.739a6.703 6.703 0 0 0 9.48 0l12.739-12.739a6.703 6.703 0 0 0 0-9.48l-12.739-12.739a6.702 6.702 0 0 0-9.48 0zm40.091-40.092l-12.739 12.739a6.703 6.703 0 0 0 0 9.48l12.739 12.739a6.703 6.703 0 0 0 9.48 0l12.739-12.739a6.703 6.703 0 0 0 0-9.48l-12.739-12.739a6.705 6.705 0 0 0-9.48 0zm40.09-40.09l-12.739 12.739a6.703 6.703 0 0 0 0 9.48l12.739 12.739a6.703 6.703 0 0 0 9.48 0l12.739-12.739a6.703 6.703 0 0 0 0-9.48l-12.739-12.739a6.703 6.703 0 0 0-9.48 0zm40.091-40.091l-12.739 12.739a6.703 6.703 0 0 0 0 9.48l12.739 12.739a6.703 6.703 0 0 0 9.48 0l12.739-12.739a6.703 6.703 0 0 0 0-9.48l-12.739-12.739a6.703 6.703 0 0 0-9.48 0zm40.092-40.09l-12.739 12.739a6.703 6.703 0 0 0 0 9.48l12.739 12.739a6.703 6.703 0 0 0 9.48 0l12.739-12.739a6.703 6.703 0 0 0 0-9.48l-12.739-12.739a6.703 6.703 0 0 0-9.48 0z" fill="#596674"/><path d="M327.102 13.438L13.438 327.102c-17.918 17.918-17.918 46.969 0 64.887l59.688 59.688c17.918 17.918 46.969 17.918 64.887 0l313.663-313.663c17.918-17.918 17.918-46.969 0-64.887l-59.688-59.688c-17.917-17.918-46.968-17.918-64.886-.001z" fill="#fd6f71"/><path d="M176.181 374.504l198.322-198.322c25.929-25.929 25.929-68.118 0-94.046l-58.049-58.05L24.085 316.454l58.05 58.05c25.929 25.928 68.118 25.928 94.046 0z" fill="#f74f50"/><path d="M244.261 45.939L45.939 244.262c-13.901 13.901-13.901 36.439 0 50.34l58.05 58.05c13.901 13.901 36.439 13.901 50.34 0L352.65 154.329c13.901-13.901 13.901-36.439 0-50.34L294.6 45.938c-13.9-13.9-36.438-13.9-50.339.001z" fill="#fd6f71"/><path d="M160.679 252.721a7.727 7.727 0 0 1-10.927 0l-8.329-8.329a7.727 7.727 0 0 1 10.927-10.927l8.329 8.329a7.725 7.725 0 0 1 0 10.927zm92.042-92.042a7.727 7.727 0 0 1-10.927 0l-8.329-8.329a7.727 7.727 0 0 1 10.927-10.927l8.329 8.329a7.73 7.73 0 0 1 0 10.927zm-41.575 50.467c-6.004 6.004-14.156 9.13-22.365 8.578a7.726 7.726 0 0 1-7.191-8.227 7.725 7.725 0 0 1 8.227-7.191c3.76.252 7.552-1.237 10.403-4.088s4.34-6.642 4.088-10.403a7.727 7.727 0 0 1 15.419-1.034c.548 8.21-2.578 16.361-8.581 22.365z" fill="#596674"/></svg>