<svg xmlns="http://www.w3.org/2000/svg" viewBox="0 0 511.999 511.999"><path d="M425.312 256.036l-42.328-72.887v-14.582c0-10.317-8.364-18.681-18.681-18.681H317.01c-10.317 0-18.681 8.364-18.681 18.681L256 256.037l42.328 87.47c0 10.317 8.364 18.681 18.681 18.681h47.293c10.317 0 18.681-8.364 18.681-18.681v-14.582l42.329-72.889z" fill="#fa9f6a"/><path d="M213.671 153.984v-14.582c0-10.317-8.364-18.681-18.681-18.681h-47.294c-10.317 0-18.681 8.364-18.681 18.681L86.687 255.634l42.328 117.035c0 10.317 8.364 18.681 18.681 18.681h47.293c10.317 0 18.681-8.364 18.681-18.681v-14.582l42.328-102.052-42.327-102.051z" fill="#58b78c"/><path d="M110.334 105.738H63.041c-10.317 0-18.681 8.364-18.681 18.681V386.85c0 10.317 8.364 18.681 18.681 18.681h47.293c10.317 0 18.681-8.364 18.681-18.681V124.419c0-10.317-8.364-18.681-18.681-18.681z" fill="#85cdea"/><path d="M64.964 386.85V124.419c0-10.317 8.364-18.681 18.681-18.681H63.041c-10.317 0-18.681 8.364-18.681 18.681V386.85c0 10.317 8.364 18.681 18.681 18.681h20.604c-10.318.001-18.681-8.363-18.681-18.681z" fill="#4fb6e0"/><path d="M149.989 120.721h-2.291c-10.317 0-18.681 8.364-18.681 18.681v233.267c0 10.317 8.364 18.681 18.681 18.681h2.491a18.7 18.7 0 0 1-.569-4.501v-262.43a18.694 18.694 0 0 1 .369-3.698z" fill="#1c9c61"/><path d="M279.646 135.303h-47.293c-10.317 0-18.681 8.364-18.681 18.681v204.104c0 10.317 8.364 18.681 18.681 18.681h47.293c10.317 0 18.681-8.364 18.681-18.681V153.984c.001-10.317-8.363-18.681-18.681-18.681z" fill="#fae076"/><path d="M234.275 358.088V153.984c0-10.317 8.364-18.681 18.681-18.681h-20.604c-10.317 0-18.681 8.364-18.681 18.681v204.104c0 10.317 8.364 18.681 18.681 18.681h20.604c-10.317 0-18.681-8.364-18.681-18.681z" fill="#edbd4e"/><path d="M317.009 362.187h2.388a18.714 18.714 0 0 1-.466-4.099V153.984c0-1.41.169-2.778.466-4.099h-2.388c-10.317 0-18.681 8.364-18.681 18.681v174.939c0 10.318 8.364 18.682 18.681 18.682z" fill="#ea7f49"/><path d="M448.958 164.466h-47.293c-10.317 0-18.681 8.364-18.681 18.681v145.775c0 10.317 8.364 18.681 18.681 18.681h47.293c10.317 0 18.681-8.364 18.681-18.681V183.149c.001-10.319-8.363-18.683-18.681-18.683z" fill="#fd6f71"/><path d="M403.587 328.923V183.149c0-10.317 8.364-18.681 18.681-18.681h-20.604c-10.317 0-18.681 8.364-18.681 18.681v145.775c0 10.317 8.364 18.681 18.681 18.681h20.604c-10.317 0-18.681-8.364-18.681-18.682z" fill="#f74f50"/><g fill="#efedee"><circle cx="86.689" cy="146.78" r="9.115"/><circle cx="171.339" cy="159.019" r="9.115"/><circle cx="255.999" cy="171.257" r="9.115"/><circle cx="340.66" cy="183.496" r="9.115"/><circle cx="425.31" cy="195.734" r="9.115"/><circle cx="86.689" cy="365.292" r="9.115"/><circle cx="171.339" cy="353.053" r="9.115"/><circle cx="255.999" cy="340.815" r="9.115"/><circle cx="340.66" cy="328.576" r="9.115"/><circle cx="425.31" cy="316.327" r="9.115"/></g><path d="M352.21 39.867H94.58c-10.293 0-18.636 8.343-18.636 18.636s8.343 18.636 18.636 18.636h257.631V39.867h-.001zm0 432.266H94.58c-10.293 0-18.636-8.343-18.636-18.636s8.343-18.636 18.636-18.636h257.631v37.272h-.001z" fill="#fa9f6a"/><path d="M293.295 58.503c0 6.406.743 12.637 2.103 18.636h56.812V39.867h-56.812a84.114 84.114 0 0 0-2.103 18.636z" fill="#ea7f49"/><circle cx="377.551" cy="58.503" r="58.503" fill="#fae076"/><path d="M293.295 453.497c0 6.406.743 12.637 2.103 18.636h56.812V434.86h-56.812a84.196 84.196 0 0 0-2.103 18.637z" fill="#ea7f49"/><circle cx="377.551" cy="453.496" r="58.503" fill="#fae076"/><path d="M382.642 29.554h-6.636c-4.268 0-7.726-3.459-7.726-7.726s3.458-7.726 7.726-7.726h6.636c4.268 0 7.726 3.459 7.726 7.726s-3.458 7.726-7.726 7.726zm0 73.351h-6.636a7.725 7.725 0 0 1-7.726-7.726 7.725 7.725 0 0 1 7.726-7.726h6.636a7.726 7.726 0 1 1 0 15.452zm-6.178-27.623a7.694 7.694 0 0 1-5.082-1.909c-4.225-3.692-6.647-9.112-6.647-14.87s2.423-11.177 6.647-14.87a7.726 7.726 0 1 1 10.169 11.635c-.866.757-1.363 1.936-1.363 3.235 0 1.298.497 2.478 1.363 3.235a7.725 7.725 0 0 1-5.087 13.544zm6.178 422.617h-6.636c-4.268 0-7.726-3.459-7.726-7.726s3.458-7.726 7.726-7.726h6.636c4.268 0 7.726 3.459 7.726 7.726s-3.458 7.726-7.726 7.726zm0-73.351h-6.636a7.725 7.725 0 0 1-7.726-7.726 7.725 7.725 0 0 1 7.726-7.726h6.636a7.725 7.725 0 0 1 7.726 7.726 7.725 7.725 0 0 1-7.726 7.726zm-6.178 45.728a7.694 7.694 0 0 1-5.082-1.909c-4.225-3.692-6.647-9.112-6.647-14.87 0-5.758 2.423-11.177 6.647-14.87a7.726 7.726 0 1 1 10.169 11.635c-.866.757-1.363 1.936-1.363 3.235s.497 2.478 1.363 3.235a7.725 7.725 0 0 1-5.087 13.544z" fill="#596674"/></svg>