<svg xmlns="http://www.w3.org/2000/svg" viewBox="0 0 512.002 512.002"><path d="M147.587 103.141c29.511 17.166 56.168 45.818 73.258 80.92l.284 38.123-20.464 41.982-32.066 26.159-37.604 18.195-32.533-2.077c-35.101-17.091-63.754-43.748-80.92-73.258l5.281-36.739 24.893-51.897 44.952-40.7 29.941 2.093 24.978-2.801zm216.828 0c-29.511 17.166-56.168 45.818-73.258 80.92l-.284 38.123 20.464 41.982 32.066 26.159 37.604 18.195 32.533-2.077c35.101-17.091 63.754-43.748 80.92-73.258l-5.281-36.739-24.893-51.897-44.952-40.7-29.941 2.093-24.978-2.801z" fill="#fae076"/><path d="M120.315 284.591c-35.101-17.091-63.754-43.748-80.92-73.258-4.802-8.254-8.694-16.73-11.586-25.283l-4.987 10.397-5.28 36.74c6.973 11.988 15.843 23.506 26.27 34.103 15.24 15.488 33.807 29.008 54.649 39.155l32.533 2.077 23.067-11.161a196.589 196.589 0 0 1-33.746-12.77z" fill="#edbd4e"/><path d="M17.542 233.186a19.104 19.104 0 0 0 9.921-5.263c3.464-3.465 5.61-8.249 5.61-13.537s2.14-10.066 5.604-13.53c3.464-3.465 8.249-5.61 13.538-5.61s10.072-2.146 13.537-5.61a19.061 19.061 0 0 0 5.604-13.53 19.091 19.091 0 0 1 5.61-13.538 19.083 19.083 0 0 1 13.538-5.61c5.289 0 10.066-2.14 13.53-5.604 3.465-3.465 5.61-8.249 5.61-13.537s2.146-10.072 5.61-13.538a19.055 19.055 0 0 1 13.53-5.604 19.087 19.087 0 0 0 13.537-5.61 19.09 19.09 0 0 0 5.263-9.921c-41.016-23.862-87.54-25.54-121.562 8.483s-32.342 80.543-8.48 121.559z" fill="#fd6f71"/><path d="M160.681 179.685a7.702 7.702 0 0 1-5.464-2.263l-6.725-6.726a7.726 7.726 0 0 1 10.927-10.927l6.725 6.726a7.726 7.726 0 0 1-.001 10.927 7.7 7.7 0 0 1-5.462 2.263zm-74.322 74.323a7.702 7.702 0 0 1-5.464-2.263l-6.725-6.726a7.726 7.726 0 0 1 10.927-10.927l6.725 6.726a7.726 7.726 0 0 1-.001 10.927 7.695 7.695 0 0 1-5.462 2.263zm28.605-28.422c-.534 0-1.066-.018-1.602-.054a7.726 7.726 0 1 1 1.036-15.418c2.599.175 5.25-.87 7.247-2.868 1.999-1.998 3.044-4.641 2.869-7.25a7.728 7.728 0 0 1 7.193-8.226c4.228-.284 7.94 2.934 8.225 7.193.473 7.058-2.211 14.06-7.361 19.21-4.759 4.762-11.1 7.413-17.607 7.413z" fill="#596674"/><path d="M200.559 262.045c72.423 59.795 163.943 129.431 134.63 158.744-29.313 29.313-98.949-62.208-158.744-134.63l24.114-24.114zm90.314-39.861l9.059 18.585a196.362 196.362 0 0 1 13.078-34.855c17.091-35.101 43.748-63.754 73.258-80.92 12.778-7.434 26.091-12.701 39.393-15.417l-6.327-5.729-29.941 2.093-24.978-2.801c-7.377 4.292-14.577 9.302-21.493 14.95-9.763 7.972-18.67 16.969-26.65 26.721a201.185 201.185 0 0 0-25.116 39.249l-.283 38.124z" fill="#edbd4e"/><path d="M494.46 233.186a19.104 19.104 0 0 1-9.921-5.263c-3.465-3.465-5.61-8.249-5.61-13.537s-2.14-10.066-5.604-13.53a19.083 19.083 0 0 0-13.538-5.61c-5.289 0-10.072-2.146-13.537-5.61s-5.604-8.242-5.604-13.53a19.091 19.091 0 0 0-5.61-13.538c-3.465-3.465-8.249-5.61-13.538-5.61s-10.066-2.14-13.53-5.604-5.61-8.249-5.61-13.537-2.146-10.072-5.61-13.538a19.061 19.061 0 0 0-13.53-5.604 19.087 19.087 0 0 1-13.537-5.61 19.09 19.09 0 0 1-5.263-9.921c41.016-23.862 87.54-25.54 121.562 8.483s32.342 80.543 8.48 121.559z" fill="#fd6f71"/><path d="M351.319 179.685a7.7 7.7 0 0 1-5.463-2.263 7.726 7.726 0 0 1-.001-10.927l6.725-6.726a7.726 7.726 0 0 1 10.926 0 7.726 7.726 0 0 1 .001 10.927l-6.725 6.726a7.704 7.704 0 0 1-5.463 2.263zm74.325 74.323a7.7 7.7 0 0 1-5.463-2.263 7.726 7.726 0 0 1-.001-10.927l6.725-6.726a7.726 7.726 0 0 1 10.926 0 7.726 7.726 0 0 1 .001 10.927l-6.725 6.726a7.7 7.7 0 0 1-5.463 2.263zm-28.606-28.422c-6.507 0-12.849-2.652-17.611-7.413-5.151-5.151-7.833-12.154-7.36-19.212.286-4.259 4.005-7.476 8.227-7.191a7.726 7.726 0 0 1 7.191 8.227c-.176 2.608.871 5.251 2.868 7.248 1.998 1.999 4.656 3.044 7.248 2.868a7.727 7.727 0 0 1 1.036 15.419 23.08 23.08 0 0 1-1.599.054z" fill="#596674"/><path d="M311.443 262.045C239.02 321.84 147.5 391.476 176.813 420.789c29.313 29.313 98.949-62.208 158.744-134.63l-24.114-24.114z" fill="#fae076"/><path d="M98.462 306.444c17.696 8.621 37.021 14.806 57.348 17.703 48.324 6.886 89.623-34.414 82.737-82.737-2.897-20.328-9.081-39.652-17.703-57.348a19.238 19.238 0 0 0-4.292 3.232 19.119 19.119 0 0 0-5.61 13.538c0 5.289-2.14 10.066-5.604 13.53s-8.249 5.61-13.537 5.61a19.125 19.125 0 0 0-13.538 5.61 19.103 19.103 0 0 0-5.604 13.53 19.085 19.085 0 0 1-5.61 13.537 19.081 19.081 0 0 1-13.537 5.61c-5.283.006-10.066 2.14-13.53 5.604s-5.604 8.255-5.61 13.538a19.085 19.085 0 0 1-5.61 13.537 19.06 19.06 0 0 1-13.53 5.604 19.125 19.125 0 0 0-13.538 5.61 19.208 19.208 0 0 0-3.232 4.292z" fill="#58b78c"/><path d="M155.817 324.147c11.8 1.681 24.002.478 35.216-3.576a72.712 72.712 0 0 0 13.382-6.466 73.917 73.917 0 0 0 23.223-22.722c-14.111 9.127-31.525 13.539-49.974 10.91-16.556-2.359-32.446-6.9-47.333-13.162-.49.63-1.005 1.241-1.57 1.806a19.06 19.06 0 0 1-13.53 5.604 19.125 19.125 0 0 0-13.538 5.61 19.219 19.219 0 0 0-3.231 4.292c11.06 5.388 22.756 9.824 34.935 13.101a188.34 188.34 0 0 0 22.42 4.603z" fill="#1c9c61"/><path d="M27.462 227.923a19.087 19.087 0 0 0 5.61-13.538c0-3.555.984-6.867 2.67-9.717-17.893-34.69-19.803-72.539 2.098-103.081a93.394 93.394 0 0 0-2.986 2.233c-.059.046-.117.094-.177.14a96.473 96.473 0 0 0-2.737 2.224c-.288.245-.573.502-.86.751-.693.6-1.386 1.2-2.07 1.828a99.735 99.735 0 0 0-2.989 2.859C5.821 131.824-1.793 156.433.349 181.678c.451 5.315 1.334 10.658 2.624 15.994 2.901 12.007 7.857 23.977 14.569 35.513a19.096 19.096 0 0 0 9.92-5.262z" fill="#f74f50"/><path d="M413.54 306.444c-17.696 8.621-37.021 14.806-57.348 17.703-48.324 6.886-89.623-34.414-82.737-82.737 2.897-20.328 9.081-39.652 17.703-57.348a19.238 19.238 0 0 1 4.292 3.232 19.119 19.119 0 0 1 5.61 13.538c0 5.289 2.14 10.066 5.604 13.53s8.249 5.61 13.537 5.61a19.125 19.125 0 0 1 13.538 5.61 19.098 19.098 0 0 1 5.604 13.53 19.085 19.085 0 0 0 5.61 13.537 19.083 19.083 0 0 0 13.537 5.61c5.283.006 10.066 2.14 13.53 5.604s5.604 8.255 5.61 13.538a19.085 19.085 0 0 0 5.61 13.537 19.061 19.061 0 0 0 13.53 5.604 19.125 19.125 0 0 1 13.538 5.61 19.208 19.208 0 0 1 3.232 4.292z" fill="#58b78c"/><path d="M273.453 241.422c-1.413 9.932-.804 20.185 1.869 29.86a72.586 72.586 0 0 0 4.383 11.768c4.34 9.134 10.586 17.312 18.216 23.943a73.887 73.887 0 0 0 8.297 6.243c-9.127-14.111-13.539-31.525-10.91-49.974 2.359-16.556 6.9-32.446 13.161-47.333a19.4 19.4 0 0 1-1.806-1.57 19.06 19.06 0 0 1-5.604-13.53 19.123 19.123 0 0 0-5.61-13.538 19.253 19.253 0 0 0-4.292-3.232 197.093 197.093 0 0 0-10.997 27.687 189.926 189.926 0 0 0-6.707 29.676z" fill="#1c9c61"/><path d="M369.678 113.063a19.083 19.083 0 0 0 13.538 5.61c3.554 0 6.867.984 9.716 2.669 34.69-17.893 72.539-19.803 103.079 2.096a93.394 93.394 0 0 0-2.233-2.986c-.043-.056-.089-.11-.132-.166a98.511 98.511 0 0 0-7.668-8.664c-17.011-17.011-37.148-25.097-58.159-25.948a93.314 93.314 0 0 0-7.916.018c-18.545.816-37.544 7.009-55.488 17.448a19.113 19.113 0 0 0 5.263 9.923z" fill="#f74f50"/></svg>