<svg xmlns="http://www.w3.org/2000/svg" viewBox="0 0 512 512"><path d="M406.647 458.574l28.934-20.595V288.762c0-8.317 6.743-15.059 15.059-15.059s15.059 6.743 15.059 15.059v149.217l28.934 20.595c6.776 4.823 8.358 14.226 3.536 21.001-4.823 6.777-14.226 8.358-21.001 3.537L450.64 464.23l-26.526 18.882a14.993 14.993 0 0 1-8.72 2.791c-4.707 0-9.344-2.2-12.281-6.327-4.824-6.777-3.242-16.179 3.534-21.002z" fill="#d2d2d2"/><path d="M450.638 273.703c8.317 0 15.059 6.743 15.059 15.059v64.297l-30.117 9.934v-74.23c0-8.317 6.742-15.06 15.058-15.06z" fill="#a1a1a1"/><path d="M374.165 72.093l28.613-9.386 52.573 160.264-28.614 9.387zM105.354 458.574L76.42 437.979V288.762c0-8.317-6.743-15.059-15.059-15.059s-15.059 6.743-15.059 15.059v149.217l-28.933 20.595c-6.776 4.823-8.358 14.226-3.536 21.001 4.823 6.777 14.226 8.358 21.001 3.537L61.36 464.23l26.526 18.882a14.993 14.993 0 0 0 8.72 2.791c4.707 0 9.344-2.2 12.281-6.327 4.824-6.777 3.242-16.179-3.533-21.002zM85.257 232.346l-28.613-9.386 52.572-160.265 28.614 9.387z" fill="#d2d2d2"/><path d="M136.829 26.851c-7.903-2.592-16.41 1.713-19.002 9.616L109.222 62.7l28.617 9.387 8.605-26.233c2.592-7.904-1.713-16.411-9.615-19.003zm238.342 0c7.903-2.592 16.41 1.713 19.002 9.616l8.605 26.233-28.617 9.387-8.605-26.233c-2.592-7.904 1.713-16.411 9.615-19.003z" fill="#fae076"/><path d="M165.445 408.291l-27.633 63.033c-3.013 6.873 2.022 14.579 9.527 14.579h18.036c4.13 0 7.869-2.444 9.527-6.225l13.339-30.426-22.796-40.961zm181.11 0l27.633 63.033c3.013 6.873-2.022 14.579-9.527 14.579h-18.035c-4.13 0-7.869-2.444-9.527-6.225l-13.339-30.426 22.795-40.961z" fill="#d2d2d2"/><path d="M61.362 273.703c-8.317 0-15.059 6.743-15.059 15.059v64.297l30.117 9.934v-74.23c0-8.317-6.742-15.06-15.058-15.06z" fill="#a1a1a1"/><path fill="#fd6f71" d="M16.742 279.191l24.836-89.222 70.201 5.39 64.93 39.18-24.837 89.222-75.936-5.813z"/><path d="M70.555 314.425l5.382 3.523 75.936 5.811 24.837-89.221-62.804-37.897c-26.799 31.937-43.051 72.999-43.351 117.784z" fill="#f74f50"/><path d="M176.709 234.539l-135.131-44.57a8.35 8.35 0 0 1-5.314-10.544l5.776-17.512a8.35 8.35 0 0 1 10.544-5.314l135.13 44.57-11.005 33.37z" fill="#efedee"/><path d="M140.866 357.129l-135.13-44.57a8.35 8.35 0 0 1-5.314-10.544l5.776-17.512a8.35 8.35 0 0 1 10.544-5.314l135.13 44.57-11.006 33.37z" fill="#596674"/><path fill="#fd6f71" d="M495.259 279.191l-24.837-89.222-70.201 5.39-64.93 39.18 24.837 89.222 75.936-5.813z"/><path d="M441.445 314.425l-5.382 3.523-75.936 5.811-24.837-89.221 62.804-37.897c26.799 31.937 43.051 72.999 43.351 117.784z" fill="#f74f50"/><path d="M335.291 234.539l135.13-44.57a8.35 8.35 0 0 0 5.314-10.544l-5.776-17.512a8.35 8.35 0 0 0-10.544-5.314l-135.13 44.57 11.006 33.37z" fill="#efedee"/><path d="M371.134 357.129l135.13-44.57a8.35 8.35 0 0 0 5.314-10.544l-5.776-17.512a8.35 8.35 0 0 0-10.544-5.314l-135.13 44.57 11.006 33.37z" fill="#596674"/><path d="M70.539 315.683c0 6.262.316 12.451.925 18.556l69.402 22.891 11.005-33.369-80.418-26.524c-.6 6.068-.914 12.222-.914 18.446z" fill="#364e66"/><path d="M103.43 210.37l73.279 24.169 11.005-33.369-59.622-19.664a186.946 186.946 0 0 0-24.662 28.864z" fill="#d2d2d2"/><path d="M441.462 315.683c0 6.262-.316 12.451-.925 18.556l-69.402 22.891-11.005-33.369 80.418-26.524c.599 6.068.914 12.222.914 18.446z" fill="#364e66"/><path d="M408.57 210.37l-73.279 24.169-11.005-33.369 59.622-19.664a186.946 186.946 0 0 1 24.662 28.864z" fill="#d2d2d2"/><circle cx="256" cy="315.688" r="154.558" fill="#fd6f71"/><circle cx="256" cy="315.688" r="122.592" fill="#efedee"/><path d="M154.012 315.683c0-64.235 49.406-116.923 112.29-122.157a124.477 124.477 0 0 0-10.302-.435c-67.706 0-122.592 54.886-122.592 122.592S188.294 438.274 256 438.274c3.471 0 6.904-.151 10.302-.435-62.883-5.233-112.29-57.92-112.29-122.156z" fill="#d2d2d2"/><path d="M182.484 326.511a7.726 7.726 0 0 1-7.726-7.726V305.48a7.726 7.726 0 1 1 15.452 0v13.305a7.725 7.725 0 0 1-7.726 7.726zm147.032 0a7.726 7.726 0 0 1-7.726-7.726V305.48a7.726 7.726 0 1 1 15.452 0v13.305a7.726 7.726 0 0 1-7.726 7.726zM256 333.613c-9.302 0-18.035-3.889-23.962-10.67a7.726 7.726 0 1 1 11.634-10.17c2.992 3.423 7.485 5.387 12.327 5.387s9.336-1.964 12.328-5.387c2.807-3.213 7.689-3.541 10.902-.732s3.541 7.689.731 10.902c-5.926 6.781-14.658 10.67-23.96 10.67z" fill="#596674"/><path fill="#a1a1a1" d="M95.874 103.385l13.348-40.69 28.613 9.387-13.347 40.69z"/><path d="M185.6 69.79L72.101 32.561c-17.913-5.875-37.196 3.883-43.072 21.795l178.365 58.506c5.875-17.913-3.883-37.197-21.794-43.072z" fill="#edbd4e"/><path fill="#a1a1a1" d="M416.12 103.378l-28.613 9.386-13.347-40.69 28.613-9.386z"/><path d="M326.401 69.79l113.498-37.229c17.913-5.875 37.196 3.883 43.072 21.795l-178.365 58.506c-5.875-17.913 3.883-37.197 21.795-43.072z" fill="#edbd4e"/></svg>