<svg xmlns="http://www.w3.org/2000/svg" viewBox="0 0 512 512"><path fill="#fa9f6a" d="M395.254 82.348l-24.766 24.776 4.811 24.766 29.587 9.632 24.765-24.776 3.761-38.158z"/><path d="M332.385 214.02c53.844 53.844 24.305 124.137-50.638 142.668-2.367.585-4.62 1.628-6.438 3.253-12.857 11.495-7.259 34.654-9.936 49.872-7.551 42.93-43.386 91.288-87.827 100.309-46.778 9.494-93.55-18.507-125.356-50.313-31.805-31.805-59.806-78.577-50.312-125.356 9.02-44.442 57.379-80.276 100.309-87.827 15.219-2.676 38.378 2.921 49.872-9.936 1.626-1.817 2.668-4.07 3.253-6.438 18.531-74.943 88.823-104.482 142.668-50.638l34.405 34.406z" fill="#e8742e"/><path d="M70.403 441.597c-15.464-15.464-27.71-32.587-35.412-49.518-8.502-18.685-11.15-36.351-7.872-52.504 6.748-33.246 46.569-61.787 79.529-67.585 2.585-.454 7.147-.483 11.56-.511 14.936-.095 37.506-.237 53.051-17.624 4.354-4.869 7.402-10.731 9.055-17.423 7.34-29.684 24.557-50.98 46.055-56.964 17.677-4.92 36.641 1.599 53.399 18.358l34.405 34.405c16.759 16.759 23.278 35.723 18.357 53.399-5.984 21.498-27.279 38.715-56.966 46.056-6.681 1.65-12.543 4.696-17.416 9.049-17.392 15.551-17.535 38.121-17.628 53.055-.028 4.412-.057 8.976-.511 11.561-5.797 32.961-34.337 72.781-67.585 79.53-16.152 3.278-33.818.629-52.504-7.872-16.931-7.701-34.053-19.947-49.517-35.412z" fill="#edbd4e"/><path fill="#fa9f6a" d="M323.409 183.028l-27.238-1.587-24.766 24.766v24.281l34.398 10.117 24.766-24.766z"/><path fill="#ea7f49" d="M305.803 240.605l-49.552 49.541-34.397-34.398 49.551-49.541z"/><path fill="#fa9f6a" d="M370.488 140.036l-24.776-8.146-24.765 24.776 2.462 26.362 31.935 8.035 24.766-24.776z"/><path fill="#ea7f49" d="M355.352 191.065l-24.774 24.774-34.397-34.397 24.774-24.774z"/><circle cx="225.208" cy="286.792" r="34.999" fill="#596674"/><path d="M145.012 415.243l-48.256-48.256c-4.321-4.321-11.325-4.321-15.644 0l-9.357 9.357c-4.321 4.321-4.321 11.325 0 15.644l48.256 48.256c4.321 4.321 11.325 4.321 15.644 0l9.357-9.357c4.321-4.32 4.321-11.324 0-15.644z" fill="#ea7f49"/><path d="M109.187 327.28a7.727 7.727 0 0 1-5.464-13.19l7.534-7.535a7.727 7.727 0 0 1 10.927 10.927l-7.534 7.535a7.704 7.704 0 0 1-5.463 2.263zm83.259 83.259a7.727 7.727 0 0 1-5.464-13.19l7.534-7.535a7.727 7.727 0 0 1 10.927 10.927l-7.534 7.535a7.7 7.7 0 0 1-5.463 2.263zm-32.044-31.838c-7.043 0-13.912-2.874-19.071-8.032-5.58-5.58-8.488-13.163-7.975-20.801a7.726 7.726 0 1 1 15.418 1.035c-.214 3.189 1.055 6.412 3.483 8.839 2.428 2.428 5.646 3.697 8.84 3.483a7.719 7.719 0 0 1 8.227 7.192 7.727 7.727 0 0 1-7.191 8.227 27.07 27.07 0 0 1-1.731.057z" fill="#596674"/><path d="M499.735 12.266c-14.118-14.118-34.744-16.381-46.07-5.055l-45.016 45.016-13.398 30.118 34.405 34.405 30.118-13.398 45.016-45.016c11.325-11.326 9.062-31.952-5.055-46.07z" fill="#e8742e"/><path d="M432.687 69.422a7.727 7.727 0 0 1-5.464-13.19l30.447-30.447a7.727 7.727 0 0 1 10.927 10.927L438.15 67.158a7.696 7.696 0 0 1-5.463 2.264zm17.617 17.617a7.727 7.727 0 0 1-5.464-13.19l30.447-30.447a7.727 7.727 0 0 1 10.927 10.927l-30.447 30.447a7.7 7.7 0 0 1-5.463 2.263z" fill="#596674"/><path fill="#ea7f49" d="M404.886 141.522l-24.776 24.765-34.398-34.397 24.776-24.766z"/></svg>