<svg xmlns="http://www.w3.org/2000/svg" viewBox="0 0 512.001 512.001"><path d="M69.06 295.297l-28.815 22.058a11.453 11.453 0 0 0-3.85 12.868l60.811 174.101c2.727 7.81 12.587 10.236 18.633 4.581l291.663-272.89a11.444 11.444 0 0 0 3.24-11.306l-19.387-72.811a11.457 11.457 0 0 1 3.082-11.159L472.78 64.52a11.426 11.426 0 0 0 3.36-9.754l-6.12-44.851c-1.184-8.704-11.33-12.881-18.301-7.548L288.652 127.195l-81.076 123.807L69.06 295.297z" fill="#85cdea"/><path d="M116.9 492.673l-64.488-184.63-12.166 9.314a11.453 11.453 0 0 0-3.85 12.868l60.811 174.101c2.727 7.81 12.587 10.236 18.633 4.581l8.983-8.405c-3.518-1.188-6.545-3.88-7.923-7.829z" fill="#4fb6e0"/><g fill="#efedee"><path d="M142.259 239.261l-36.602 28.015 10.42 53.767 47.018 25.746 36.603-28.015-10.422-53.766z"/><path d="M215.451 183.232l-36.595 28.008 10.42 53.768 47.019 25.745 36.595-28.01-10.418-53.763zm36.603-28.015l10.418 53.763 47.02 25.75 36.598-28.022-57.439-79.512z"/></g><path d="M105.657 267.276l57.438 79.513-36.597 28.021-57.438-79.513zm73.199-56.036l57.439 79.513-36.597 28.021-57.439-79.513zm73.198-56.023l57.438 79.513-36.602 28.013-57.439-79.511z" fill="#d2d2d2"/><path d="M394.585 99.581l-10.062-10.625a6.06 6.06 0 0 0-8.566-.234l-20.595 19.502a6.06 6.06 0 0 0-.234 8.566l10.062 10.625a6.06 6.06 0 0 0 8.566.234l20.595-19.502a6.058 6.058 0 0 0 .234-8.566z" fill="#fd6f71"/><path d="M445.741 53.792L435.68 43.165a6.06 6.06 0 0 0-8.566-.234l-20.595 19.502a6.06 6.06 0 0 0-.234 8.566l10.062 10.625a6.06 6.06 0 0 0 8.566.234l20.595-19.502a6.058 6.058 0 0 0 .233-8.564z" fill="#efedee"/><path d="M174.564 338.01l-40.411-55.941-23.406 16.908 40.88 56.591zm36.601-28.015l-39.663-54.907-23.406 16.908 40.133 55.555zm36.598-28.02l-38.913-53.867-23.405 16.907 39.382 54.517zm36.603-28.014l-38.167-52.834-23.406 16.908 38.635 53.481zm36.601-28.017l-37.419-51.797-23.405 16.907 37.888 52.448zM214.398 374.131a7.713 7.713 0 0 1-5.959-2.802l-7.812-9.445a7.727 7.727 0 0 1 11.909-9.849l7.812 9.445a7.727 7.727 0 0 1-5.95 12.651zm104.374-86.32a7.71 7.71 0 0 1-5.958-2.802l-7.811-9.445a7.727 7.727 0 0 1 11.908-9.849l7.811 9.445a7.727 7.727 0 0 1-5.95 12.651zm-62.247 53.427c-1.538 0-3.078-.123-4.61-.372a7.726 7.726 0 1 1 2.485-15.251c3.958.645 8.125-.551 11.427-3.281 3.303-2.731 5.259-6.598 5.369-10.609a7.695 7.695 0 0 1 7.934-7.512 7.726 7.726 0 0 1 7.512 7.934c-.232 8.468-4.229 16.521-10.967 22.094-5.504 4.551-12.292 6.997-19.15 6.997z" fill="#596674"/><circle cx="169.867" cy="401.555" r="16.817" fill="#fae076"/><circle cx="129.906" cy="445.585" r="16.817" fill="#fd6f71"/></svg>