<svg xmlns="http://www.w3.org/2000/svg" viewBox="0 0 512 512"><path d="M414.106 109.246l-28.142 2.138-23.046 23.048 1.479 24.523 24.523 1.477 23.046-23.046zm-49.709 49.709l-24.525-1.477-23.046 23.046 1.474 24.527 24.528 1.474 23.046-23.046zM318.3 205.051l-24.528-1.474-23.046 23.047 1.479 24.523 24.523 1.477 23.046-23.046z" fill="#596674"/><path d="M271.466 238.896s-47.299-10.999-31.892-59.085-30.345-63.025-69.561 42.484c-18.18 40.689-78.902 1.912-167.282 114.382-7.312 9.306 1.132 22.636 12.659 19.956 40.847-9.502 107.769-18.725 138.912 12.418 31.584 31.584 23.18 53.059-8.566 83.871-31.746 30.813 21.752 27.507 60.457-5.369 55.789-47.385 36.181-92.203 95.472-110.411 63.025-14.472 86.835-37.348 81.233-56.022-5.603-18.675-101.948 39.27-111.432-42.224z" fill="#fd6f71"/><path d="M382.898 281.119c-1.668-5.56-11.379-4.328-24.447-2.007-9.568 13.718-34.315 27.535-77.389 37.425-59.29 18.207-39.683 63.025-95.472 110.411-11.184 9.498-23.598 16.523-34.839 20.975a263.508 263.508 0 0 1-5.015 4.997c-31.746 30.813 21.752 27.507 60.457-5.369 55.789-47.385 36.181-92.203 95.472-110.411 63.025-14.472 86.835-37.347 81.233-56.021z" fill="#f74f50"/><path fill="#596674" d="M272.205 251.147l-24.525-1.477-33.725 33.725 26.001 26.002 33.726-33.727z"/><g fill="#efedee"><circle cx="129.236" cy="293.416" r="14.966"/><circle cx="79.212" cy="307.602" r="12.679"/></g><path d="M296.729 252.622l-23.046 23.045-26-26 23.045-23.046zm46.098-46.09l-23.053 23.053-26-26.001 23.052-23.053zm46.09-46.1l-23.046 23.046-26-26.001 23.045-23.046z" fill="#364e66"/><path d="M253.542 301.623l-31.813-31.813a8.084 8.084 0 0 0-11.434 0l-9.925 9.925a8.084 8.084 0 0 0 0 11.434l31.813 31.813a8.084 8.084 0 0 0 11.434 0l9.925-9.925a8.088 8.088 0 0 0 0-11.434zm-37.717 37.717l-31.813-31.813a8.084 8.084 0 0 0-11.434 0l-9.925 9.925a8.084 8.084 0 0 0 0 11.434l31.813 31.813a8.084 8.084 0 0 0 11.434 0l9.925-9.925a8.086 8.086 0 0 0 0-11.434z" fill="#efedee"/><path d="M493.342 38.544l-73.378 24.95a44.372 44.372 0 0 0-28.093 28.857l-5.907 19.034 26.003 26.003s30.02-.793 41.924-19.7c11.905-18.907 47.619-30.813 47.619-30.813l9.799-30.697c3.52-11.025-7.011-21.359-17.967-17.634z" fill="#fd6f71"/><path d="M499.543 37.868a14.112 14.112 0 0 1-.595 5.947l-9.799 30.697s-35.714 11.905-47.619 30.813c-11.905 18.908-41.924 19.7-41.924 19.7l12.362 12.362s30.02-.793 41.924-19.7c11.905-18.908 47.619-30.813 47.619-30.813l9.799-30.697c2.839-8.895-3.47-17.335-11.767-18.309z" fill="#f74f50"/></svg>