<svg xmlns="http://www.w3.org/2000/svg" viewBox="0 0 512 512"><path d="M481.821 64.697H30.179C13.512 64.697 0 78.209 0 94.878v289.397c0 16.667 13.512 30.179 30.179 30.179h451.642c16.667 0 30.179-13.512 30.179-30.179V94.878c0-16.669-13.512-30.181-30.179-30.181z" fill="#85cdea"/><path d="M26.785 384.275V94.878c0-16.667 13.512-30.179 30.179-30.179H30.179C13.512 64.698 0 78.209 0 94.878v289.397c0 16.667 13.512 30.179 30.179 30.179h26.785c-16.667 0-30.179-13.512-30.179-30.179z" fill="#4fb6e0"/><path d="M170.84 174.282h-56.78l-28.385 136.51 28.385 136.511h56.78l28.385-136.511zm113.55 0h-56.78l-28.385 136.51 28.385 136.511h56.78l28.385-136.511zm113.55 0h-56.78l-28.385 136.51 28.385 136.511h56.78l28.385-136.511z" fill="#d2d2d2"/><g fill="#596674"><path d="M172.005 130.758a7.726 7.726 0 0 1-7.726-7.726V107.83a7.726 7.726 0 1 1 15.452 0v15.201a7.726 7.726 0 0 1-7.726 7.727zm167.991 0a7.726 7.726 0 0 1-7.726-7.726V107.83a7.726 7.726 0 1 1 15.452 0v15.201a7.727 7.727 0 0 1-7.726 7.727zM256 138.873c-10.309 0-19.986-4.306-26.549-11.814a7.726 7.726 0 1 1 11.634-10.17c3.627 4.151 9.064 6.53 14.914 6.53s11.287-2.381 14.914-6.53a7.726 7.726 0 0 1 11.634 10.17c-6.561 7.507-16.238 11.814-26.547 11.814z"/><circle cx="52.4" cy="121.973" r="17.728"/></g><circle cx="111.074" cy="121.973" r="17.728" fill="#fd6f71"/><path d="M466.333 129.7h-60a7.726 7.726 0 1 1 0-15.452h60a7.726 7.726 0 1 1 0 15.452zm0-24.541h-60a7.726 7.726 0 1 1 0-15.452h60a7.726 7.726 0 1 1 0 15.452zm0 49.083h-60a7.726 7.726 0 1 1 0-15.452h60a7.726 7.726 0 1 1 0 15.452z" fill="#596674"/><path d="M96.192 174.282H84.88c-15.241 0-27.59 12.35-27.59 27.59v217.84c0 15.239 12.35 27.59 27.59 27.59h29.18v-127.37l-17.868-145.65z" fill="#efedee"/><path fill="#596674" d="M96.188 174.286h35.736v145.647H96.188z"/><path fill="#efedee" d="M284.39 319.932v127.371h56.77V319.932l-17.848-145.65h-21.045z"/><path d="M323.312 174.286h35.736v145.647h-35.736zm-56.784 0h35.736v145.647h-35.736z" fill="#596674"/><path fill="#efedee" d="M170.84 319.932v127.371h56.77V174.282h-38.902z"/><path fill="#596674" d="M152.972 174.286h35.736v145.647h-35.736z"/><path d="M397.94 319.932v127.371h29.18c15.239 0 27.59-12.35 27.59-27.59v-217.84c0-15.239-12.35-27.59-27.59-27.59h-11.292L397.94 319.932z" fill="#efedee"/><path fill="#596674" d="M380.096 174.286h35.736v145.647h-35.736z"/></svg>