<svg xmlns="http://www.w3.org/2000/svg" viewBox="0 0 511.987 511.987"><path d="M463.9 398.215v106.771a7.002 7.002 0 0 1-7.001 7.001h-22.115a7.002 7.002 0 0 1-7.001-7.001V398.215H463.9zm-416.77 0v106.771a7.002 7.002 0 0 0 7.001 7.001h22.115a7.002 7.002 0 0 0 7.001-7.001V398.215H47.13z" fill="#596674"/><path d="M47.13 398.214h36.118v58.978H47.13zm380.651 0h36.118v58.978h-36.118z" fill="#364e66"/><path d="M18.675 370.143v43.175c0 7.163 5.807 12.97 12.97 12.97h447.742c7.163 0 12.97-5.807 12.97-12.97v-43.175H18.675z" fill="#596674"/><path d="M113.408 323.061h-47.37L42.359 346.6l23.679 23.54h47.37l23.685-23.54zm94.738 0h-47.369L137.093 346.6l23.684 23.54h47.369l23.684-23.54zm94.739 0h-47.37L231.83 346.6l23.685 23.54h47.37l23.047-23.54zm94.739 0h-47.37L325.932 346.6l24.322 23.54h47.37l23.683-23.54zm47.368 0L421.307 346.6l23.685 23.54h47.36v-47.079z" fill="#d2d2d2"/><path d="M424.379 58.021l55.097 158.213c2.832 8.134-1.465 17.024-9.599 19.857a15.58 15.58 0 0 1-5.13.872c-6.451 0-12.486-4.034-14.727-10.471L394.922 68.279l29.457-10.258z" fill="#efedee"/><path d="M450.02 226.492c2.242 6.437 8.276 10.471 14.727 10.471 1.702 0 3.433-.28 5.13-.872 8.134-2.833 12.431-11.723 9.599-19.857l-16.753-48.106h-33.03l20.327 58.364z" fill="#d2d2d2"/><path fill="#596674" d="M46.82 250.116L29.529 212.29 493.918-.017 511.21 37.81z"/><g fill="#364e66"><path d="M126.136 168.128l-96.582 44.158 17.292 37.823 179.309-81.981z"/><path d="M444.511 241.565l-378.076-5.151-47.76 39.559v47.084h473.681v-47.084z"/></g><path d="M492.356 199.034H18.675c-9.879 0-17.888 8.009-17.888 17.888v41.162c0 9.879 8.009 17.888 17.888 17.888h473.682c9.879 0 17.888-8.009 17.888-17.888v-41.161c0-9.88-8.01-17.889-17.889-17.889z" fill="#596674"/><path d="M185.099 248.2a7.725 7.725 0 0 1-7.726-7.726V227.73c0-4.267 3.458-7.726 7.726-7.726s7.726 3.459 7.726 7.726v12.744a7.725 7.725 0 0 1-7.726 7.726zm140.833 0a7.725 7.725 0 0 1-7.726-7.726V227.73a7.725 7.725 0 0 1 7.726-7.726 7.725 7.725 0 0 1 7.726 7.726v12.744a7.725 7.725 0 0 1-7.726 7.726zm-70.417 6.803c-9.003 0-17.458-3.765-23.198-10.331a7.725 7.725 0 0 1 .732-10.902 7.725 7.725 0 0 1 10.901.732c2.805 3.208 7.019 5.048 11.564 5.048 4.543 0 8.758-1.84 11.563-5.048a7.725 7.725 0 0 1 10.902-.732 7.725 7.725 0 0 1 .731 10.902c-5.736 6.566-14.191 10.331-23.195 10.331zm142.113 68.059h47.369v47.078h-47.369zm-94.746 0h47.369v47.078h-47.369zm-94.736 0h47.369v47.078h-47.369zm-94.735 0h47.369v47.078h-47.369zm-94.735 0h47.358v47.078H18.676z" fill="#efedee"/></svg>