<svg xmlns="http://www.w3.org/2000/svg" viewBox="0 0 512 512"><path d="M511.794 13.606C511.672 6.101 505.588.075 498.082.007c-15.065-.136-41.509 1.931-67.564 7.428l-31.913 27.717 35.788 19.729 14.689.343a27.746 27.746 0 0 0 24.172-13.025 27.75 27.75 0 0 1 16.942-12.241l11.054-2.699a13.822 13.822 0 0 0 10.544-13.653z" fill="#596674"/><path d="M435.95 55.951l-5.432-48.517s-67.417-.002-123.711 96.021L153.729 364.569c-7.887 13.453-25.187 17.966-38.641 10.079l-.04-.024c-13.908-8.154-18.138-26.252-9.372-39.783 21.614-33.361 55.4-97.356 51.883-167.022l-69.824 10.235-62.529 41.797c2.301 9.668 8.202 56.486 8.309 59.505.878 24.841-2.057 51.031-8.393 75.632-7.915 30.734-18.715 65.266-8.205 96.696 12.831 38.373 55.977 62.45 95.201 60.167 46.594-2.711 81.114-39.164 102.084-77.935C297.256 280.35 353.592 46.028 435.95 55.951z" fill="#edbd4e"/><path d="M315.42 91.645c-6.932-4.064-9.47-12.914-5.648-20.063 3.917-7.326 13.03-10.09 20.356-6.173l56.229 30.063c7.307 3.919 10.09 13.03 6.173 20.356-3.917 7.326-13.03 10.09-20.356 6.173l-56.229-30.063a14.095 14.095 0 0 1-.525-.293zm-33.971 55.081c-6.991-4.098-9.497-13.04-5.579-20.195 3.99-7.287 13.131-9.96 20.416-5.971l60.411 33.073c7.28 3.997 9.961 13.131 5.971 20.417-3.99 7.288-13.13 9.96-20.416 5.971l-60.411-33.073a13.332 13.332 0 0 1-.392-.222zm-35.201 59.973c-7.06-4.139-9.526-13.188-5.498-20.349 4.074-7.24 13.245-9.807 20.485-5.734l67.033 37.714.236.136c7.06 4.139 9.526 13.188 5.498 20.349-4.074 7.24-13.245 9.807-20.485 5.734l-67.033-37.714a28.543 28.543 0 0 0-.236-.136z" fill="#d99d2e"/><g fill="#fae076"><circle cx="323.034" cy="78.675" r="21.597"/><circle cx="289.058" cy="133.759" r="21.597"/><circle cx="253.857" cy="193.726" r="21.597"/><circle cx="104.172" cy="383.361" r="31.091"/><circle cx="114.288" cy="294.364" r="31.091"/></g><path d="M157.559 167.819l-69.824 10.236-62.529 41.797c1.122 4.713 3.099 18.254 4.844 31.246a46.89 46.89 0 0 0 2.085-.761l124.355-48.889c1.206-10.988 1.644-22.23 1.069-33.629z" fill="#d99d2e"/><path d="M173.553 148.712c-1.562-9.486-11.474-15.116-20.421-11.599L9.779 193.471a15.1 15.1 0 0 0-9.374 16.504c1.562 9.486 11.474 15.116 20.421 11.598l143.352-56.357a15.099 15.099 0 0 0 9.375-16.504z" fill="#fae076"/></svg>