<svg xmlns="http://www.w3.org/2000/svg" viewBox="0 0 512 512"><path d="M340.478 444.791l-26.5 26.5-105.376-105.375 26.5-26.5zm58.051-58.047l-26.501 26.5L266.652 307.87l26.501-26.5zm58.032-58.044l-26.5 26.5-105.376-105.376 26.5-26.5z" fill="#fae076"/><path d="M469.869 209.492c-36.535-36.535-95.983-36.535-132.518 0l-87.867 48.703-54.719 93.883c-36.535 36.535-36.535 95.983 0 132.518 36.536 36.536 95.984 36.536 132.519.001L469.87 342.012c36.535-36.535 36.535-95.983-.001-132.52zm-26.093 106.426L301.189 458.504c-22.147 22.147-58.183 22.147-80.33-.001-22.147-22.147-22.147-58.183 0-80.33l142.586-142.586c22.147-22.147 58.183-22.147 80.33 0 22.148 22.148 22.148 58.185.001 80.331z" fill="#edbd4e"/><path d="M46.758 429.417s-25.39-1.905-46.265 18.971l62.627 62.627c20.876-20.876 18.971-46.265 18.971-46.265l5.54-40.872-40.873 5.539z" fill="#fae076"/><path d="M148.305 279.122c-7.317 7.317-7.317 19.181 0 26.498l26.876 26.876 26.498-26.498-26.876-26.876c-7.317-7.317-19.18-7.317-26.498 0zm58.045-58.044c-7.317 7.317-7.317 19.181 0 26.497l26.876 26.876 26.497-26.498-26.876-26.876c-7.316-7.316-19.18-7.316-26.497.001zm58.044-58.044c-7.317 7.317-7.317 19.181 0 26.498l26.876 26.876 26.497-26.497-26.876-26.876c-7.317-7.318-19.18-7.318-26.497-.001zm122.009-127.31a222.911 222.911 0 0 0 3.349-24.816L390.604 0s44.038 4.027 80.457 40.446 40.446 80.457 40.446 80.457l-10.908.852a222.474 222.474 0 0 0-24.816 3.349l-89.38-89.38z" fill="#edbd4e"/><path d="M386.403 35.724a222.346 222.346 0 0 1-61.113 115.163L93.172 383.004l-5.54 40.872 40.872-5.54 232.117-232.117a222.35 222.35 0 0 1 115.163-61.113c-5.454-15.717-15.613-36.401-34.297-55.085-18.683-18.685-39.367-28.845-55.084-34.297z" fill="#fae076"/><path fill="#edbd4e" d="M46.758 429.415l46.412-46.412 35.33 35.33-46.413 46.411z"/></svg>