<svg xmlns="http://www.w3.org/2000/svg" viewBox="0 0 512.002 512.002"><path d="M220.721 435.043c-12.89-11.949-25.833-33.791 2.78-62.403 28.612-28.612 43.813-22.312 55.762-9.422 7.119 7.679 18.958 8.508 26.908 1.693 27.359-23.455 81.499-71.425 40.984-143.815a146.55 146.55 0 0 0-56.249-56.249c-72.391-40.515-120.36 13.625-143.815 40.984-6.816 7.949-5.985 19.789 1.693 26.908 12.89 11.949 19.19 27.148-9.422 55.762-28.612 28.612-50.454 15.669-62.403 2.78-7.119-7.679-18.958-8.508-26.907-1.693-31.336 26.866-89.094 94.606-10.755 183.12 88.514 78.34 156.254 20.581 183.12-10.755 6.812-7.951 5.983-19.791-1.696-26.91z" fill="#85cdea"/><path d="M347.154 221.095c-7.787-13.914-17.796-26.4-29.529-37.022a146.238 146.238 0 0 1 19.227 26.72c40.515 72.391-13.625 120.36-40.984 143.816-4.285 3.673-9.698 8.113-14.894 10.229 7.195 6.126 17.852 6.369 25.196.073 27.359-23.455 81.499-71.425 40.984-143.816zM212.112 451.649c-26.301 30.677-91.777 86.653-177.563 15.5a227.714 227.714 0 0 0 4.745 5.557c88.513 78.339 156.254 20.581 183.12-10.755 6.296-7.344 6.054-18.001-.072-25.196-2.117 5.197-6.557 10.61-10.23 14.894z" fill="#4fb6e0"/><path d="M391.698 95.829L223.851 257.421l30.729 30.728 161.591-167.847 5.917-30.39zM109.507 429.673c-6.421-1.442-12.522-4.661-17.52-9.659s-8.217-11.1-9.659-17.52c-1.048-4.667-7.156-5.832-9.922-1.931-10.674 15.059-26.017 34.322-46.765 55.069l-.814 16.227c-.433 8.631 6.684 15.747 15.315 15.315l16.227-.814c20.748-20.748 40.01-36.091 55.069-46.765 3.901-2.766 2.735-8.874-1.931-9.922zM446.005 73.721a7.703 7.703 0 0 1-5.464-2.263l-40.242-40.242a7.726 7.726 0 1 1 10.927-10.926l40.242 40.242a7.726 7.726 0 0 1-5.463 13.189z" fill="#596674"/><path d="M415.948 16.661L400.434 4.896a7.243 7.243 0 0 0-9.499.65l-5.379 5.379a7.244 7.244 0 0 0-.65 9.499l11.765 15.515c2.779 3.665 8.156 4.033 11.409.781l8.647-8.647c3.254-3.256 2.887-8.632-.779-11.412z" fill="#4fb6e0"/><path d="M416 103.727a7.702 7.702 0 0 1-5.464-2.263l-40.242-40.243a7.726 7.726 0 1 1 10.927-10.926l40.242 40.243A7.726 7.726 0 0 1 416 103.727z" fill="#596674"/><path d="M385.942 46.666l-15.515-11.765a7.243 7.243 0 0 0-9.499.65l-5.379 5.379a7.244 7.244 0 0 0-.65 9.499l11.765 15.515c2.779 3.665 8.156 4.033 11.409.781l8.647-8.647c3.256-3.256 2.888-8.632-.778-11.412z" fill="#4fb6e0"/><path d="M486.249 113.964a7.703 7.703 0 0 1-5.464-2.263l-40.243-40.243a7.726 7.726 0 1 1 10.927-10.926l40.243 40.243a7.726 7.726 0 0 1-5.463 13.189z" fill="#596674"/><path d="M495.339 96.052l11.765 15.515a7.243 7.243 0 0 1-.65 9.499l-5.379 5.379a7.244 7.244 0 0 1-9.499.65l-15.515-11.765c-3.665-2.779-4.033-8.156-.781-11.409l8.647-8.647c3.256-3.255 8.633-2.887 11.412.778z" fill="#4fb6e0"/><path d="M456.243 143.969a7.703 7.703 0 0 1-5.464-2.263l-40.242-40.242a7.726 7.726 0 1 1 10.927-10.926l40.242 40.242a7.726 7.726 0 0 1-5.463 13.189z" fill="#596674"/><path d="M465.334 126.058l11.765 15.515a7.243 7.243 0 0 1-.65 9.499l-5.379 5.379a7.244 7.244 0 0 1-9.499.65l-15.515-11.765c-3.665-2.779-4.033-8.156-.781-11.409l8.647-8.647c3.256-3.256 8.633-2.888 11.412.778z" fill="#4fb6e0"/><path d="M125.726 397.797a7.702 7.702 0 0 1-5.464-2.263l-8.14-8.142a7.725 7.725 0 0 1 .001-10.926 7.726 7.726 0 0 1 10.926 0l8.14 8.142a7.726 7.726 0 0 1-5.463 13.189zm89.966-89.968a7.702 7.702 0 0 1-5.464-2.263l-8.14-8.142a7.726 7.726 0 0 1 10.927-10.927l8.14 8.142a7.725 7.725 0 0 1-.001 10.926 7.692 7.692 0 0 1-5.462 2.264zm-55.34 55.564c-.609 0-1.22-.021-1.83-.062a7.725 7.725 0 0 1-7.191-8.227c.286-4.258 3.981-7.479 8.227-7.191 3.619.238 7.281-1.194 10.032-3.945 2.752-2.751 4.189-6.408 3.946-10.034a7.726 7.726 0 0 1 7.191-8.226c4.263-.291 7.941 2.933 8.227 7.191.542 8.075-2.533 16.091-8.436 21.995-5.457 5.459-12.72 8.499-20.166 8.499z" fill="#596674"/><path d="M369.441 117.257c.137.14.265.287.404.426l24.472 24.472c.139.139.285.269.427.406l21.429-22.258 5.917-30.391-30.391 5.918-22.258 21.427z" fill="#364e66"/><path d="M431.212 119.413l49.435-68.135-19.926-19.926-68.135 49.435c-4.742 3.735-5.157 10.774-.889 15.042l24.473 24.473c4.269 4.27 11.306 3.853 15.042-.889z" fill="#85cdea"/><path d="M492.698 59.062l15.577-20.974c5.585-7.519 4.815-17.994-1.808-24.617l-7.939-7.939c-6.622-6.622-17.098-7.392-24.617-1.808l-20.974 15.577c-9.256 6.874-10.246 20.366-2.094 28.519l13.336 13.336c8.153 8.152 21.644 7.162 28.519-2.094z" fill="#4fb6e0"/></svg>