<svg xmlns="http://www.w3.org/2000/svg" viewBox="0 0 30 230"><path fill="#FFF" d="M20.3 126.9s.2-.1.3-.1c-.1-.1-.1-.1-.4-.3h-.1c.1.2.1.3.2.4zm1.3-1.6c.1-.1.1-.2.2-.3l-.2-.2c0 .1-.1.2-.1.3l.1.2zm-1.4 1.3h.1c-.1-.1-.2-.1-.3-.2l-.1.1.3.1zm-.1-.2c-.1-.1-.1-.2-.3-.3 0 0-.1.1.3.3zm3.5-4.9l.1-.2c0-.1-.1-.2-.2-.3l-.1.2c.1.1.2.2.2.3zm-3.7 5.1l.1-.1c-.1 0-.2-.1-.4-.2l.3.3zm4.8-5.7l.2-.2c-.1 0-.2-.1-.3-.1l-.2.2s.1 0 .3.1zm.5-3.9h.1c-.1-.1-.2-.1-.3-.2l-.1.1.3.1zm-.1-.2c-.1-.1-.1-.2-.3-.3 0 .1 0 .1.3.3zm.2.6s.2-.1.3-.1c-.1-.1-.1-.1-.4-.3h-.1c.1.1.1.3.2.4zm-4.4 2.2c.1 0 .2-.1.3-.2l-.2-.2c-.1.1-.2.1-.3.2l.2.2zm-.1 10c.1 0 .2-.1.3-.2l-.2-.2c-.1.1-.2.1-.3.2l.2.2zm2.3-13c-.1 0-.3.1-.4.2.2.3.5.5.7.8.1-.1.2-.3.3-.5-.1-.2-.3-.4-.6-.5zm1.8.4l.1-.1c-.1 0-.2-.1-.4-.2l.3.3zm-3.7 55.6l.2-.2c-.1 0-.2-.1-.3-.1l-.2.2c.1 0 .2 0 .3.1zm8.5 32.9l.2-.2c-.1-.1-.1-.2-.2-.3l-.1.2c0 .1 0 .2.1.3zm-7.6 8.2c0-.1.1-.2.1-.3l-.2-.2c-.1.1-.1.2-.2.3l.3.2zm-.5-1c.1-.1.1-.2.2-.3l-.2-.2c0 .1-.1.2-.1.3l.1.2zm.7-98.5l.6-.9c-.1 0-.3-.1-.6-.2-.1.2-.2.5-.2.7-.1.1.1.3.2.4zm-1.6 104.7c-.1 0-.2-.1-.4-.1l-.2.3c.2 0 .4-.1.6-.2zm.7-84.5l-.2-.2c-.2 0-.3.1.2.2zm1.3-1.1c.1-.1.1-.2.2-.3l-.2-.2c0 .1-.1.2-.1.3l.1.2zm-.9 1.4v-.2c-.2 0-.4-.1-.5-.1l.1.2c.2.1.3.1.4.1zm0 .4v-.4c-.1.1-.2.1-.3.2.1.1.2.2.3.2zm-2.3 23.8l.2-.2c-.1-.1-.2-.1-.3-.2l-.2.2c.1.1.2.2.3.2zm1.6-24.2h.5v-.1c-.3-.1-.7-.1-1.2-.2.3.2.5.3.7.3zM19.2 155c.1-.1.2-.1.3-.2l-.2-.1c-.1 0-.2.1-.3.2l.2.1zm2.7-24.9l.2-.2c-.1 0-.2-.1-.3-.1l-.2.2c.1 0 .2 0 .3.1zm2-109.9V20c-.2 0-.4-.1-.5-.1l.1.2c.2.1.3.1.4.1zm-1.3-4.4c.1-.1.2-.3.2-.4 0-.2-.2-.4-.3-.6-.1.1-.2.3-.3.4.2.3.3.4.4.6zm-1.4 23.9l.2-.2c-.1 0-.2-.1-.3-.1l-.2.2c.1 0 .2 0 .3.1zm2.7-19.1v-.4c-.1.1-.2.1-.3.2.1.1.2.2.3.2zM19.5 26l.2-.2c-.1-.1-.2-.1-.3-.2l-.2.2c.1.1.2.2.3.2zm3.6-5.8h.5v-.1c-.3-.1-.7-.1-1.2-.2.4.2.6.3.7.3zm-3.9 1.9c.1-.1.2-.1.3-.2l-.2-.1c-.1 0-.2.1-.3.2l.2.1zm4.2-2.2l-.2-.2c-.1 0-.3.1.2.2zm.5-4.4zm-.1-10.2c0-.1.1-.1.1-.2v-.3l-.3-.3c-.1.1-.1.3-.2.7 0 0 .2 0 .4.1zM-.1 63.1c.1-.1.2-.1.2-.2h.1c0 .1-.1.1-.2.2h-.1v25.7l.2.2c-.1 0-.1.1-.2.1v143.3h19.9c0-.4-.3-.9-.4-1.3.7 0 .7-.6 1-1 .2-.3.3-.5-.2-.5-.8 0-1.6 0-1.7 1.1h-.2c-.5-1.3.6-1.6 1.3-2 .2-.1.3-.2.5-.3-.2-.1-.5-.2-.7-.1h-.1l.1.4c-.1 0-.2-.1-.3-.1 0-.1.1-.2.1-.3-.5 0-.7-.2-.5-.8.2-.6.4-1.1.6-1.7.1-.2.2-.6.2-.6-1-.6-.2-1.2-.1-1.8.1-.3 0-.7 0-1-.1-.5 0-.8.4-1.1.4-.4.9-.9-.2-.9l-.2-.6c-.2 0 .1-.1 0-.2-.2-.2.4-.4.4-.8h-.5c.5-.2.9-.4 1.5-.5 0-.1-.1-.1-.1-.3-.7-1-.7-1.4.1-2.2.1-.2.4-.2.6-.3l.3-.3c-.1-.1-.3-.2-.4-.2-1.2-.3-1.2-.3-.7-1.1.3-.5.3-.4-.6-.9-.4-.2-.7-.9-.6-1.3.2-.7.2-1.3-.1-2-.3-.6-.5-3.4-.5-4.1 0-.5 1.5-1.3 1.2-1.6-.6-.6.5-.8.2-1.2-.8-1-.5-2.1-.7-3.2-.1-.7-.3-1.6-.5-2.1h.1c.5-.5.2-1.7.1-2.4-.2-1.1.6-2.1-.1-3.2-.1-.1.1-.5.2-.6.8-.7.3-1.2-.5-1.9-.7-.6.1-.5.3-.5.8 0 1.1-.3.5-1-.1-.1-.2-.3-.2-.3.2-.5.7-1.4.6-1.5-.6-.6-1.5-1-1.4-1.4.2-.6-.3-1.3.3-1.8.1-.1-.2-.6-.3-1-.2-.4-.2-.8.4-.8.5-.1.4-.3.1-.6-.4-.3-.4-.7.1-.9l.6-.3c-.1-.1-.3-.2-.4-.2-.4-.2-.9-.3-1.3-.4-.1 0-.2-.2-.2-.3.1-.1.3-.2.4-.2.7 0 1.5 0 .7-1.1-.1-.1.1-.5.2-.7.2-.3.9-.5-.2-.8-.7-.2-.5-1.6.2-2.4.2-.2-.7-.6-.8-.8-.4-.8-.4-.7.1-1.2.3-.2.6-.5.9-.8.2-.2.3-.4.4-.5-.2-.1-.4-.1-.7-.2-.3 0-.7.1-1 0-.1 0-.3-.4-.3-.6 0-.1.1-.4.2-.4.3-.1.7 0 1-.1.4-.1.8-.1 1.2-.2-.3-.6-.8-.1-1.2-.3-.3-.1-.5-.2-.7-.4-.1-.1.1-.4.3-.6.2-.2.5-.3.8-.5.2-.1.4-.5.3-.5-.2-.2-.4-.3-.7-.4-.1-.1-.4.1-.5 0-.2-.1-.3-.3-.3-.5s.3-.4.4-.4c.7-.1 1.4 0 .4-.9-.3-.3-.3-.8-.5-1.3.2 0 .3-.1.5-.1h.5c-.1-.2-.1-.5-.2-.6-.6-.5-.9-1.7-.6-2.5.2-.6.3-.9-.4-.9-.5-.1-.5-.3-.1-.5.3-.1.6-.3.8-.5.3-.3.3-.5-.2-.5-.3-.1-.6-.3-.8-.5v-.4c1-.1.6-.4.2-.8.8-.3-.2-1 .3-1.5.2-.2-.3-.9-.4-1.4 0-.4.1-.9.2-1.4.2-.7.2-1.6.1-2.5-.1-.5-.2-1 .6-1v-.4c-.4-.3-.3-.6-.1-1 .2-.3 1.5-.9-.1-1-.1-.8-.3-1.6-.2-2.4 0-.4.5-.7.8-1 .4-.4.4-.3.1-.5-.3-.1-.5-.3-.8-.4-.6-.3-.6-.5-.1-.9.3-.2.5-.4.8-.6.3-.1.9.2.9-.4 0-.2-.3-.4-.5-.6-.4-.2-.9-.3-1.3-.4-.2-.1-.4-.1-.7-.2l.6-.3c.2-.1.5 0 .7 0 1.2-.1.2-.5.1-.8-.2-.4-.3-.9-.5-1.3-.3-.6-.1-.9.6-.9.3 0 .7.1 1-.1.3-.1.5-.4.7-.7-.2-.1-.5-.2-.7-.3h-.7c-.5 0-1 .2-1-.6 0-.6.2-.9.8-.9.2 0 .4-.2.6-.2-.2-.1-.4-.2-.6-.2h-1c-.1 0-.3-.1-.4-.2.1-.1.2-.2.4-.3.7-.1 1.5-.1 2.2-.1.1 0 .2-.2.3-.3l-.2-.2c-.5.4-.8-.9-1.4-.2-.4.4-.7.2-1-.1-.1-.1-.2-.2-.4-.3.1-.1.2-.3.3-.3.4-.1.8 0 1.2-.1.1 0 .3-.2.4-.2-.2-.1-.4-.2-.6-.2-.5-.2-.5-.5-.2-.9.5-.6.5-1-.4-1l-.1-.4c.3-.2.6-.5 1-.5.6-.1 1.3-.1 2-.1l.2-.2c-.1-.1-.2-.3-.2-.3-1.2.4-1.9-.6-2.9-.9-.1 0-.2-.2-.4-.2.1-.1.2-.2.4-.2s.5 0 .7-.1c.4-.1.8-.2 1.3-.3l-1.2-.6c-.2-.1-.4-.2-.7-.3.9-.6-.6-.9-.1-1.3s1.1-.7 1.5.1c-.6 0-.6.5-.4.8.4.4.8.4.9-.3h.5c.1 0 .3-.1.4-.2-.1-.1-.3-.2-.4-.3h-.5c-.5-.2 1.4-1-.2-1-.5 0-1 .1-1.5.1-.1 0-.2-.2-.4-.2.1-.1.2-.2.4-.2.4-.1.7-.2 1.1-.3.2-.1.3-.3.4-.5-.2-.1-.4-.1-.7-.2-.3-.1-.5-.2-.7-.3.2-.2.4-.7.7-.7.6 0 .1-.6-.6-.6v-.3c.1-.1.3-.1.5-.1.4 0 .9 0 .8-.6 0-.2-.5-.3-.7-.4-.2-.1-.5-.1-.7-.1.6-.9-.3-1.1-.7-1.5.2-.1.5-.3.6-.3.5.3 1 .6 1.6.4.3-.1.5-.4.7-.7-.2-.1-.5-.3-.7-.3-.4 0-.8.1-1.2 0-.3 0-1 .3-.8-.3.2-.3-.1-1.3.8-1.2h.7c.2.1.5.6.7.1.2-.5-.1-.7-.7-.7-.2 0-.4.1-.5 0-.3-.3-.6-.7-.8-1.1 0-.1.5-.4.8-.5l.6-.3c.1-.1.3-.2.4-.2-.2-.1-.4-.2-.6-.2-.2 0-.5.1-.7-.1-.2-.1-.2-.4-.2-.6h.5c.3-.1.6-.3.9-.4-.1-.1-.3-.2-.4-.3h-.2c-1.7-.7-1.7-.8-.2-1.9l.3-.3c-.1-.1-.3-.2-.4-.2-.2 0-.4.1-.5 0-.2-.1-.4-.3-.6-.5l.4-.4c.1-.1.3 0 .5 0 .2-.1.5-.2.5-.4s-.1-.5-.3-.6c-.2-.1-.4-.1-.7-.2.2-.1.3-.3.5-.3.2-.1.6 0 .7-.1.2-.2.4-.6.5-.9-.3.1-.6.2-.8.2-.2 0-.3 0-.5-.1.1-.2.1-.6.2-.6.3-.1.6-.1 1-.1v-.5c-.8.1-.7-.1-.4-.7.2-.4-.2-1.1-.3-1.6.7 0 .7-.6 1-1 .2-.3.3-.5-.2-.5-.8 0-1.6 0-1.7 1.1h-.2c-.5-1.3.6-1.6 1.3-2 .2-.1.3-.2.5-.3-.2-.1-.5-.2-.7-.1-.6.1-.9-.1-.7-.8.2-.6.4-1.1.6-1.7.1-.2.2-.6.2-.6-1-.6-.2-1.2-.1-1.8.1-.3 0-.7 0-1-.1-.5 0-.8.4-1.1.4-.4.9-.9-.2-.9l-.2-.6c.2-.2.5-.2.8-.4l.6-.3c-.2-.1-.4-.1-.6-.2-.5-.2-.4-.4 0-.5.1-.1.1-.2-.3-.3 0-.1-.1-.2 0-.4.3.2.6.3.8.5 0-.1-.1-.1-.1-.2-.7-1-.7-1.4.1-2.2.1-.2.4-.2.6-.3l.3-.3c-.1-.1-.3-.2-.4-.2-1.2-.3-1.2-.3-.7-1.1.3-.5.3-.4-.6-.9-.4-.2-.7-.9-.6-1.3.2-.7.2-1.3-.1-2-.3-.6-.5-3.4-.5-4.1 0-.5 1.5-1.3 1.2-1.6-.6-.6.5-.8.2-1.2-.8-1-.5-2.1-.7-3.2-.1-.7-.3-1.6-.5-2.1h.1c.5-.5.2-1.7.1-2.4-.2-1.1.6-2.1-.1-3.2-.1-.1.1-.5.2-.6.8-.7.3-1.2-.5-1.9-.7-.6.1-.5.3-.5.8 0 1.1-.3.5-1-.1-.1-.2-.3-.2-.3.2-.5.7-1.4.6-1.5-.6-.6-1.5-1-1.4-1.4.2-.6-.3-1.3.3-1.8.1-.1-.2-.6-.3-1-.2-.4-.2-.8.4-.8.5-.1.4-.3.1-.6-.4-.3-.4-.7.1-.9l.6-.3c-.1-.1-.3-.2-.4-.2-.4-.2-.9-.3-1.3-.4-.1 0-.2-.2-.2-.3.1-.1.3-.2.4-.2.7 0 1.5 0 .7-1.1-.1-.1.1-.5.2-.7.2-.3.9-.5-.2-.8-.7-.2-.5-1.6.2-2.4.2-.2-.7-.6-.8-.8-.4-.8-.4-.7.1-1.2.3-.2.6-.5.9-.8.2-.2.3-.4.4-.5-.2-.1-.4-.1-.7-.2-.3 0-.7.1-1 0-.1 0-.3-.4-.3-.6 0-.1.1-.4.2-.4.3-.1.7 0 1-.1.4-.1.8-.1 1.2-.2-.3-.6-.8-.1-1.2-.3-.3-.1-.5-.2-.7-.4-.1-.1.1-.4.3-.6.2-.2.5-.3.8-.5.2-.1.4-.5.3-.5-.2-.2-.4-.3-.7-.4-.1-.1-.4.1-.5 0-.5-1.1-.7-1.3-.7-1.5 0-.2.3-.4.4-.4.7-.1 1.4 0 .4-.9-.3-.3-.3-.8-.5-1.3.2 0 .3-.1.5-.1h.5c-.1-.2-.1-.5-.2-.6-.6-.5-.9-1.7-.6-2.5.2-.6.3-.9-.4-.9-.5-.1-.5-.3-.1-.5.3-.1.6-.3.8-.5.3-.3.3-.5-.2-.5-.3-.1-.6-.3-.8-.5v-.4c1-.1.6-.4.2-.8.8-.3-.2-1 .3-1.5.2-.2-.3-.9-.4-1.4 0-.4.1-.9.2-1.4.2-.7.2-1.6.1-2.5-.1-.5-.2-1 .6-1v-.4c-.4-.3-.3-.6-.1-1 .2-.3 1.5-.9-.1-1-.1-.8-.3-1.6-.2-2.4 0-.4.5-.7.8-1 .4-.4.4-.3.1-.5-.3-.1-.5-.3-.8-.4-.6-.3-.6-.5-.1-.9.3-.3.6-.5.8-.7.3-.1.9.2.9-.4 0-.2-.3-.4-.5-.6-.4-.2-.9-.3-1.3-.4-.2-.1-.4-.1-.7-.2l.6-.3c.3-.1.5-.1.8-.1 1.2-.1.2-.5.1-.8-.2-.4-.3-.9-.5-1.3-.3-.6-.1-.9.6-.9.3 0 .7.1 1-.1.3-.1.5-.4.7-.7-.2-.1-.5-.2-.7-.3h-.7c-.5 0-1 .2-1-.6 0-.6.2-.9.8-.9.2 0 .4-.2.6-.2-.2-.1-.4-.2-.6-.2h-1c-.1 0-.3-.1-.4-.2.1-.1.2-.1.3-.2H-.1v65.5zM8.2 232c0 .1 0 .2-.1.3 0-.1.1-.2.1-.3zM3 228.3c0 .1 0 .2-.1.3 0-.1 0-.2.1-.3zm9-.7c0 .1-.1.1-.1.2 0 0 0-.1.1-.2zm-10.5-.5c-.1-.1-.1-.1-.1-.2 0 0 .1.1.1.2zm9-.9c-.1 0-.2.1-.3.1.2-.1.2-.1.3-.1zm-7.7-6.6c.1 0 .1-.1.2-.1-.1 0-.1.1-.2.1zm5.4 3.5c0 .1 0 .2-.1.3 0-.2.1-.2.1-.3zm4.5-.6s-.2.1-.3.1c-.1 0-.2 0-.3.1v-.6c.1-.4.3-.8.5-1.2h.4c-.1.7-.1 1.2-.3 1.6zm-5.3-2.4c-.4.4-.8.7-1.2 1-.1 0-.2-.1-.3-.2l-.2-.1c.2-.5.5-1 .8-1.6l.9.9zm-6.8-2.2c.1 0 .1.1.1.2-.1 0-.1-.1-.1-.2zm18 .6h.2-.4c0-.1-.7-.3-.6-.5l.1-.1c.1.1.3.3.7.6zm-16.4-1.9c0 .1 0 .1 0 0-.1-.1-.1-.1-.1-.2.1.1.1.2.1.2zm8.6-2.9c-.2.3-.4.7-.5 1-.3-.5-.7-1-.7-1.5l.1-.1c.1-.2.4-.4.7-.6 0 .3.2.7.4 1.2zm2-6.1s.2.1.3.3c.1.1.2.3.3.4-.3.1-.7.2-1 .4-.3-.1-.5-.2-.7-.4.5-.3.8-.7 1.1-.7zm-7.5-.3c-.1.2-.3.3-.4.5-.3-.2-.6-.4-.7-.6 0-.1.2-.4.5-.8.3.4.6.6.6.9zm10.5-2c-.1 0-.2.1-.2.1s.1-.1.2-.1zm2.2-1.5c-.1 0-.1.1-.2.1.1 0 .1-.1.2-.1zm-7-.2l.2.2h-.1s-.1-.1-.1-.2zm-.7-3.5c.1 0 .2 0 .3.1-.2 0-.2-.1-.3-.1zm5.4 0c0 .1-.1.1-.2.1.1-.1.2-.1.2-.1zm-15.2.8c.1 0 .2-.1.3-.1-.1.1-.2.1-.3.1zm10.5 1.4c.1 0 .2.1.3.2l-.6.9c-.1 0-.2-.1-.3-.2-.1-.1-.3-.2-.4-.2.3-.4.6-.7.8-.7 0-.1.1-.1.2 0zm-2.7-.6c-.1.4-.2.7-.4.9 0 0-.2-.1-.3-.1-.1 0-.2-.1-.3-.1l.8-.8s.1 0 .2.1zm10.4-.8c-.1 0-.1.1-.2.1s-.2.1-.2.1c-.5-.3-.9-.6-1.4-.9l.9-.9c.3.5.6 1.1.9 1.6zm-12-6.6c-.1 0-.1-.1-.1-.2.1 0 .1.1.1.2zM3 190.4c0 .1-.1.1-.1.2 0-.1 0-.2.1-.2 0-.1 0 0 0 0zm-.1-1.3c-.1-.1-.2-.3-.3-.5.3-.2.5-.4.8-.6 0 0 .1 0 .2.1 0 0 .1 0 .1.1-.3.2-.5.6-.8.9zm14.9-.9c-.3.1-.6.2-.9.2-.2 0-.3-.1-.6-.2.2-.1.5-.2.8-.4.3.2.5.3.7.4zm-2-.7c0 .1-.1.1 0 0-.2 0-.2 0-.3-.1v-.1c.2.1.2.2.3.2zm-3.8-.7c-.1 0-.1-.1-.1-.2 0 .1 0 .1.1.2zm-5.9-1.9c0 .1 0 .2-.1.3 0 .1-.1.1-.1.2-.2-.2-.4-.3-.6-.5-.2-.2-.3-.3-.3-.4 0-.1.1-.2.3-.4.1-.1.3-.2.4-.4.2.4.3.8.4 1.2zm-.6-3.4c.1 0 .1 0 .3.1.1 0 .1.1.2.1-.5.2-.8.3-1.1.5 0-.1-.1-.1-.1-.2s-.1-.2-.1-.2c0-.1.1-.2.1-.2H5c.1-.1.3-.1.5-.1zm11.1-.2c0-.1 0-.1 0 0 0-.1-.1-.1-.1-.2.1 0 .2-.1.3-.1l-.2.3zM12 175c.1.1.2.1.3.2-.6.3-1.1.6-1.6.9 0 0-.1 0-.2-.1l-.1-.1c.6-.3 1.1-.7 1.6-.9zm3.9-8.9c0 .1 0 .2-.1.3 0-.2.1-.3.1-.3zm.1-2.2l-.2.2h-.1c.1-.1.1-.2.3-.2-.1 0 0 0 0 0zm-3-.6c-.1 0-.2 0-.3-.1.1 0 .2 0 .3.1zm1.6-1.7s0 .1-.1.2c0 0 0 .1-.1.1l-.3-.6c.1-.1.2-.3.2-.4.1.3.2.5.3.7zm-3.1-9.6c-.1 0-.2.1-.3.1.1-.1.2-.1.3-.1zm1.5-1.5c-.1 0-.2.1-.3.1.1 0 .2-.1.3-.1zm-9.9-2c0-.1-.1-.2-.1-.2.1 0 .1 0 .1.2.1-.1.1-.1 0 0zm11.6-.8c-.1.3-.2.5-.3.6-.1-.1-.2-.3-.3-.4 0 0 0-.1.1-.2 0 0 .1-.1.1-.2.1.1.3.1.4.2zM5.3 143s.1.1.2.1c-.1.1-.1.3-.2.4-.3-.1-.5-.2-.6-.3.1-.1.3-.2.4-.3 0 0 .1 0 .2.1zm11.5-4.5l-.2.3c-.3-.3-.5-.5-.7-.8.1-.1.2-.1.2-.2l.1-.1c.2.2.4.5.6.8zm-4-.7s-.1 0 0 0v-.1.1zm-.1-.3c-.1-.3-.2-.6-.3-1 .1 0 .2-.1.3-.2.1.4 0 .8 0 1.2zM.9 135.6l.1.1c-.3 0-.5.1-.7.1H.2s0-.1-.1-.1v-.1c.3-.1.5-.1.7-.2 0 .1.1.2.1.2zm8.2-4.3c-.1.1-.3.1-.6.2-.1-.3-.3-.6-.3-.9 0 0 0-.1.1-.2l.1-.1.7 1zm-3.6-.8c-.1 0-.2 0-.3-.1l.1-.1.2.2zm-.9-.9l.1.1c-.1.1-.3.2-.4.3-.2-.1-.3-.2-.5-.4.2-.1.4-.2.6-.2l.2.2zm6.1-2.8c-.1 0-.2 0-.3-.1.2 0 .2 0 .3.1zm-2.3-2.9c-.1 0-.1-.1-.1-.2.1 0 .1.1.1.2zm-3.7-1.6s0 .1 0 0c-.1 0-.1-.1-.1-.2 0 .1 0 .2.1.2zm9-3c-.1 0-.1-.1-.1-.2 0 .1 0 .2.1.2zm-5-.4c-.2.2-.5.4-.8.6 0 0-.1 0-.2-.1 0 0-.1 0-.1-.1l.7-1c.1.2.2.4.4.6zm4.8-1.2c-.2.1-.4.3-.6.4-.3-.1-.5-.2-.7-.3.2-.1.5-.3.7-.3h.1c.1.1.3.1.5.2zm-8.6-2.3c.1.2.3.3.5.5-.5.1-.9.3-1.4.4-.3-.1-.6-.2-1-.4.5-.4.9-.8 1.4-.9.1 0 .3.2.5.4zm-1.2-6.3c-.2.1-.5.3-.7.3h-.1c-.2 0-.4-.1-.6-.1.2-.1.4-.3.6-.4.4.1.6.2.8.2zm-1.5-1.5c.1 0 .1.1.1.2 0 0 0-.1-.1-.2zm6 0s.1 0 .1.1l-.7 1c-.1-.1-.2-.3-.3-.5.2-.2.5-.4.8-.6-.1-.1 0-.1.1 0zm3.2-2.7c-.1 0-.1-.1-.1-.2 0 0 .1.1.1.2zm-3.8-1.6c0 .1 0 .1 0 0-.1 0-.1-.1-.1-.2.1.1.1.2.1.2zm-2.1-3c-.1 0-.2 0-.3-.1.1 0 .2.1.3.1zm6.6-3c-.2.1-.4.2-.6.2 0 0-.1 0-.1-.1l-.1-.1c.1-.1.3-.2.4-.3.1.1.2.2.4.3zm-1.4-.7s-.1.1 0 0c-.2 0-.2 0-.3-.1v-.1c.2.1.2.1.3.2zm-2.9-.2s0 .1-.1.2l-.1.1-.7-1c.1-.1.3-.1.6-.2l.3.9zm7.9-5.3s0 .1.1.1v.1c-.3.1-.5.1-.7.2 0 0-.1-.1-.1-.2l-.1-.1c.3 0 .6-.1.8-.1zM3.2 89.5c.1.3.2.6.3 1-.1 0-.2.1-.3.2v-1.2zm0-.2c-.1 0-.1-.1 0 0 0-.1 0-.1 0 0zm8.1-5.5c-.1.1-.3.2-.4.3 0 0-.1 0-.2-.1 0 0-.1-.1-.2-.1.1-.1.1-.3.2-.4.3.2.4.2.6.3zm-9.5-4.7s0 .1-.1.2c0 0-.1.1-.1.2-.1-.1-.3-.1-.4-.2.1-.3.2-.5.3-.6.1.1.2.3.3.4zm11.1-.3c-.1 0-.1-.1-.1-.2 0 0 .1.1.1.2zm-9.7-2.4c-.1 0-.2.1-.3.1.1-.1.2-.1.3-.1zm1.5-1.5c-.1 0-.2.1-.3.1.1-.1.2-.1.3-.1zm-2.9-9.2c-.1.1-.2.3-.2.4-.1-.2-.2-.4-.2-.6 0 0 0-.1.1-.2l.1-.1c0 .1.1.3.2.5zm1.4-1.9c-.1 0-.2 0-.3-.1.2 0 .2.1.3.1zM.1 60.7c0 .1-.1.1-.1.2 0-.1.1-.2.1-.2zm18.1-5.8c-.1 0-.2 0-.3-.1.2 0 .2 0 .3.1zM5.3 51l.1.1c-.5.3-1 .7-1.5.9-.1-.1-.2-.1-.3-.2.6-.3 1.1-.6 1.6-.9 0 0 .1 0 .1.1zm5.9-6c0 .1.1.2.1.2 0 .1-.1.2-.1.2h-.8s-.1 0-.2-.1c-.1 0-.1-.1-.2-.1.5-.2.8-.3 1.1-.5.1.2.1.2.1.3zm7.2-.2c-.1 0-.2 0-.3-.1.1 0 .2 0 .3.1zm-7.8-2.7c.2.2.3.3.3.4 0 .1-.1.2-.3.4-.1.1-.3.2-.4.4-.1-.4-.3-.8-.4-1.1 0-.1 0-.1.1-.3 0-.1.1-.1.1-.2.2.1.4.3.6.4zm-6.5-1.7c-.1 0-.1-.1-.1-.2 0 0 .1.1.1.2zm-3.7-.8c-.1 0-.2 0-.3-.1l.1-.1c.1 0 .1.1.2.2zm12.9-1.2c-.3.2-.5.4-.8.6 0 0-.1 0-.2-.1 0 0-.1 0-.1-.1.3-.3.5-.6.8-.9.1.2.2.3.3.5zm-.2-2c0 .1 0 .2-.1.3 0-.1 0-.2.1-.3zm-3.8-3.5c-.1 0-.1-.1-.1-.2.1.1.1.1.1.2zm-9.2-6c.1 0 .2-.1.2-.1 0 .1 0 .1-.2.1zm5.5 0c-.1 0-.2 0-.3-.1.2 0 .3 0 .3.1zm9.8-.8c-.1 0-.2.1-.3.1.1-.1.2-.1.3-.1zm-7-1.6c.1 0 .2.1.3.1l-.8.8c-.1 0-.1-.1-.2-.1h-.1c.1-.3.3-.7.5-.9 0 0 .1.1.3.1zm-2.9-.7c.2.1.3.2.5.3-.3.4-.6.7-.8.7 0 0-.2 0-.3-.1-.1 0-.2-.1-.3-.2l.6-.9c.1.1.2.2.3.2zm-.6-.4c-.1-.1-.2-.1-.2-.2h.1c.1 0 .1.1.1.2zM.4 21.6c-.1 0-.1.1-.2.1 0-.1.1-.1.2-.1zm11.3-1.7c0 .1-.2.4-.5.8-.3-.4-.6-.7-.7-.9v-.1c.1-.1.2-.3.4-.4.4.2.7.3.8.6zm-7.6-1.2c-.4.3-.7.7-1 .7 0 0-.2-.1-.3-.3-.1-.1-.2-.3-.3-.4.3-.1.7-.2 1-.4.2.2.4.3.6.4zm13.3-.9s.1.1.2.1c-.1.1-.1.3-.2.4-.3-.1-.5-.2-.6-.3.1-.1.3-.2.4-.3 0 0 .1 0 .2.1zm-.5-4.4c-.1 0-.2.1-.3.1.1-.1.2-.1.3-.1zm-10.5.4l-.1.2c-.1.2-.4.4-.7.6-.2-.4-.3-.8-.5-1.2.2-.3.4-.7.5-1 .4.5.7 1 .8 1.4zm7.4-3.2c-.1-.1-.1-.1-.1-.2.1 0 .1.1.1.2zm1.5-1.5c-.1 0-.1-.1-.1-.2.1 0 .1.1.1.2zm-2.1-1.7c-.1 0-.1.1-.2.1 0 0 .1-.1.2-.1zM3.9 4.7v.2c-.2.3-.3.7-.5 1.1H3c0-.6 0-1.1.2-1.6 0 0 .2-.1.3-.1.1 0 .2 0 .3-.1.1.2.1.4.1.5zm3.9-1c0 .1-.1.1-.1.2 0-.1.1-.2.1-.2 0-.1 0 0 0 0zM5.7.7c-.1 0-.2.1-.3.1.1 0 .1-.1.3-.1zm8.9-.6s0 .1 0 0c-.1-.1-.1-.1-.1-.2 0 .1.1.2.1.2zM4.1-.9c0 .1 0 .2-.1.3 0-.1 0-.2.1-.3zm9-.6c0 .1-.1.1-.1.2 0-.1 0-.2.1-.2zM25.5 114c.2 0 .3-.2.4-.3-.1 0-.3-.1-.7-.2 0 .1-.1.3-.2.4.2 0 .4.2.5.1zm-4.4-99l-.7.7c.2.1.5.3.6.2.2-.2.3-.5.3-.7l-.2-.2zm2.7-6.8s.1 0 .1-.1v-.2c-.1 0-.2.1-.3.2l.2.1zM22.7.4c.1-.1.1-.2.2-.3l-.2-.2c0 .1-.1.2-.1.3l.1.2zm2.6 109c.1 0 .2-.1.3-.2-.1 0-.2.1-.3.2zm-.6-.1c0-.1-.1-.1-.2-.1-.2-.1-.5.2-.7.3l.2.6c.3 0 .5 0 .9-.3l-.3-.3s0-.1.1-.2zm.5.3c.1.1.2.2.3.2 0-.1.1-.2.1-.3l-.1.1-.2-.2-.1.2zm-4.6.2c0 .1-.1.2-.1.3l.2.2c.1-.1.1-.2.2-.3l-.3-.2zm5-.3l.1-.2-.1.2zm-1.3 2.3l.2.2c.5 0 1.1 0 1.4-.5v-.5c-.1 0-.2-.1-.3-.1-.4.2-.8.3-1.2.5 0 .1 0 .3-.1.4zm5.4-39.2l.2-.2c-.1-.1-.1-.2-.2-.3l-.1.2c0 .1 0 .2.1.3zm.4 29.8v-.3c-.1.1-.1.2 0 .3zm-5.3 3.2c.1 0 .2-.1.3-.2l-.2-.2c-.1.1-.2.1-.3.2l.2.2zm-3.2-25.7c.1-.1.1-.2.2-.3l-.2-.2c0 .1-.1.2-.1.3l.1.2zm.5.9c0-.1.1-.2.1-.3l-.2-.2c-.1.1-.1.2-.2.3l.3.2zm5.2 25.3l.1-.2c0-.1-.1-.2-.2-.3l-.2.2c.2.1.3.2.3.3zm-4-.8l.2-.2c-.1-.1-.1-.2-.2-.3l-.1.2c0 .1.1.2.1.3z"/></svg>