<svg xmlns="http://www.w3.org/2000/svg" viewBox="0 0 230 30"><path fill="#FFF" d="M103.1 20.4s.1.2.1.3c.1-.1.1-.1.3-.4v-.1c-.1 0-.3.1-.4.2zm1.7 1.3c.1.1.2.1.3.2l.2-.2c-.1 0-.2-.1-.3-.1l-.2.1zm-1.3-1.4v.1c.1-.1.1-.2.2-.3l-.1-.1-.1.3zm.2-.2c.1-.1.2-.1.3-.3-.1.1-.1 0-.3.3zm4.9 3.6l.2.1c.1 0 .2-.1.3-.2l-.2-.1c-.1 0-.2.1-.3.2zm-5.1-3.7l.1.1c0-.1.1-.2.2-.4l-.3.3zm5.7 4.7l.2.2c0-.1.1-.2.1-.3l-.2-.2c0 .1-.1.2-.1.3zm3.9.6v.1c.1-.1.1-.2.2-.3l-.1-.1-.1.3zm.1-.2c.1-.1.2-.1.3-.3 0 .1-.1 0-.3.3zm-.5.3s.1.2.1.3c.1-.1.1-.1.3-.4v-.1c-.2.1-.3.1-.4.2zm-2.2-4.4c0 .1.1.2.2.3l.2-.2c-.1-.1-.1-.2-.2-.3l-.2.2zm-10.1-.2c0 .1.1.2.2.3l.2-.2c-.1-.1-.1-.2-.2-.3l-.2.2zm13.1 2.4c0-.1-.1-.3-.2-.4-.3.2-.5.5-.8.7.1.1.3.2.5.3.2-.2.4-.4.5-.6zm-.4 1.8l.1.1c0-.1.1-.2.2-.4l-.3.3zm-55.6-3.8l.2.2c0-.1.1-.2.1-.3l-.2-.2c0 .1-.1.2-.1.3zm-32.9 8.6l.2.2c.1-.1.2-.1.3-.2l-.2-.1c-.1-.1-.2 0-.3.1zm-8.2-7.6c.1 0 .2.1.3.1l.2-.2c-.1-.1-.2-.1-.3-.2l-.2.3zm.9-.5c.1.1.2.1.3.2l.2-.2c-.1 0-.2-.1-.3-.1l-.2.1zm98.6.6l.9.6c0-.1.1-.3.2-.6-.2-.1-.5-.2-.7-.2-.2 0-.3.1-.4.2zM11.1 20.7c0-.1.1-.2.1-.4l-.3-.2c.1.3.2.5.2.6zm84.5.7l.2-.2c.1-.1 0-.3-.2.2zm1.2 1.4c.1.1.2.1.3.2l.2-.2c-.1 0-.2-.1-.3-.1l-.2.1zm-1.4-.9h.2c0-.2.1-.4.1-.5l-.2.1c-.1.2-.1.3-.1.4zm-.5 0h.4c-.1-.1-.1-.2-.2-.3 0 .1-.1.2-.2.3zm-23.7-2.3l.2.2c.1-.1.1-.2.2-.3l-.2-.2c-.1.1-.2.2-.2.3zm24.2 1.5v.5h.1c.1-.3.1-.7.2-1.2-.2.4-.3.6-.3.7zm-20.3-1.8c.1.1.1.2.2.3l.1-.2c0-.1-.1-.2-.2-.3l-.1.2zM100 22l.2.2c0-.1.1-.2.1-.3l-.2-.2c0 .1-.1.2-.1.3zm109.9 2h.2c0-.2.1-.4.1-.5l-.2.1c-.1.2-.1.3-.1.4zm4.3-1.3c.1.1.3.2.4.2.2 0 .4-.2.6-.3-.1-.1-.3-.2-.4-.3-.2.2-.4.3-.6.4zm-23.8-1.5l.2.2c0-.1.1-.2.1-.3l-.2-.2c0 .1-.1.2-.1.3zm19 2.8h.4c-.1-.1-.1-.2-.2-.3 0 .1-.1.2-.2.3zm-5.3-4.4l.2.2c.1-.1.1-.2.2-.3l-.2-.2c-.1.1-.2.2-.2.3zm5.7 3.6v.5h.1c.1-.3.1-.7.2-1.2-.1.4-.2.5-.3.7zm-1.8-3.9c.1.1.1.2.2.3l.1-.2c0-.1-.1-.2-.2-.3l-.1.2zm2.1 4.2l.2-.2c0-.1 0-.3-.2.2zm4.4.5s0-.1 0 0c0-.1 0 0 0 0zm10.3-.1c.1 0 .1.1.2.1h.3l.3-.3c-.1-.1-.3-.1-.7-.2 0 0-.1.2-.1.4zM167 0l.2.2v.1c-.1 0-.1-.1-.2-.2-.1 0 0-.1 0-.1h-25.7l-.2.2c0-.1-.1-.1-.1-.2H-2.3v19.9c.4 0 .9-.3 1.3-.4 0 .7.6.7 1 1 .3.2.5.3.5-.2 0-.8 0-1.6-1.1-1.7v-.2c1.3-.5 1.6.6 2 1.3.1.2.2.3.3.5.2-.3.3-.5.3-.8v-.1l-.4.1c0-.1.1-.2.1-.3.1 0 .2.1.3.1 0-.5.2-.7.8-.5.6.2 1.1.4 1.7.6.2.1.6.2.6.2.6-1 1.2-.2 1.8-.1.3.1.7 0 1 0 .5-.1.8 0 1.1.4.4.4.9.9.9-.2l.6-.2c0-.2.1.1.2 0 .2-.2.4.4.8.4v-.5c.2.5.4.9.5 1.5.1 0 .1-.1.3-.1 1-.7 1.4-.7 2.2.1.2.1.2.4.3.6l.3.3c.1-.1.2-.3.2-.4.3-1.2.3-1.2 1.1-.7.5.3.4.3.9-.6.2-.4.9-.7 1.3-.6.7.2 1.3.2 2-.1.6-.3 3.4-.5 4.1-.5.5 0 1.3 1.5 1.6 1.2.6-.6.8.5 1.2.2 1-.8 2.1-.5 3.2-.7.7-.1 1.6-.3 2.1-.5v.1c.5.5 1.7.2 2.4.1 1.1-.2 2.1.6 3.2-.1.1-.1.5.1.6.2.7.8 1.2.3 1.9-.5.6-.7.5.1.5.3 0 .8.3 1.1 1 .5.1-.1.3-.2.3-.2.5.2 1.4.7 1.5.6.6-.6 1-1.5 1.4-1.4.6.2 1.3-.3 1.8.3.1.1.6-.2 1-.3.4-.2.8-.2.8.4.1.5.3.4.6.1.3-.4.7-.4.9.1l.3.6c.1-.1.2-.3.2-.4.2-.4.3-.9.4-1.3 0-.1.2-.2.3-.2.1.1.2.3.2.4 0 .7 0 1.5 1.1.7.1-.1.5.1.7.2.3.2.5.9.8-.2.2-.7 1.6-.5 2.4.2.2.2.6-.7.8-.8.8-.4.7-.4 1.2.1.2.3.5.6.8.9.2.2.4.3.5.4.1-.2.1-.4.2-.7 0-.3-.1-.7 0-1 0-.1.4-.3.6-.3.1 0 .4.1.4.2.1.3 0 .7.1 1 .1.4.1.8.2 1.2.6-.3.1-.8.3-1.2.1-.3.2-.5.4-.7.1-.1.4.1.6.3.2.2.3.5.5.8.1.2.5.4.5.3.2-.2.3-.4.4-.7.1-.1-.1-.4 0-.5.1-.2.3-.3.5-.3s.4.3.4.4c.1.7 0 1.4.9.4.3-.3.8-.3 1.3-.5 0 .2.1.3.1.5v.5c.2-.1.5-.1.6-.2.5-.6 1.7-.9 2.5-.6.6.2.9.3.9-.4.1-.5.3-.5.5-.1.1.3.3.6.5.8.3.3.5.3.5-.2.1-.3.3-.6.5-.8h.4c.1 1 .4.6.8.2.3.8 1-.2 1.5.3.2.2.9-.3 1.4-.4.4 0 .9.1 1.4.2.7.2 1.6.2 2.5.1.5-.1 1-.2 1 .6h.4c.3-.4.6-.3 1-.1.3.2.9 1.5 1-.1.8-.1 1.6-.3 2.4-.2.4 0 .7.5 1 .8.4.4.3.4.5.1.1-.3.3-.5.4-.8.3-.6.5-.6.9-.1.2.3.4.5.6.8.1.3-.2.9.4.9.2 0 .4-.3.6-.5.2-.4.3-.9.4-1.3.1-.2.1-.4.2-.7l.3.6c.1.2 0 .5 0 .7.1 1.2.5.2.8.1.4-.2.9-.3 1.3-.5.6-.3.9-.1.9.6 0 .3-.1.7.1 1 .1.3.4.5.7.7.1-.2.2-.5.3-.7v-.7c0-.5-.2-1 .6-1 .6 0 .9.2.9.8 0 .2.2.4.2.6.1-.2.2-.4.2-.6v-1c0-.1.1-.3.2-.4.1.1.2.2.3.4.1.7.1 1.5.1 2.2 0 .1.2.2.3.3l.2-.2c-.4-.5.9-.8.2-1.4-.4-.4-.2-.7.1-1 .1-.1.2-.2.3-.4.1.1.3.2.3.3.1.4 0 .8.1 1.2 0 .1.2.3.2.4.1-.2.2-.4.2-.6.2-.5.5-.5.9-.2.6.5 1 .5 1-.4l.4-.1c.2.3.5.6.5 1 .1.6.1 1.3.1 2l.2.2c.1-.1.3-.2.3-.2-.4-1.2.6-1.9.9-2.9 0-.1.2-.2.2-.4.1.1.2.2.2.4s0 .5.1.7c.1.4.2.8.3 1.3l.6-1.2c.1-.2.2-.4.3-.7.6.9.9-.6 1.3-.1s.7 1.1-.1 1.5c0-.6-.5-.6-.8-.4-.4.4-.4.8.3.9v.5c0 .1.1.3.2.4.1-.1.2-.3.3-.4v-.5c.2-.5 1 1.4 1-.2 0-.5-.1-1-.1-1.5 0-.1.2-.2.2-.4.1.1.2.2.2.4.1.4.2.7.3 1.1.1.2.3.3.5.4.1-.2.1-.4.2-.7.1-.3.2-.5.3-.7.2.2.7.4.7.7 0 .6.6.1.6-.6h.3c.1.1.1.3.1.5 0 .4 0 .9.6.8.2 0 .3-.5.4-.7.1-.2.1-.5.1-.7.9.6 1.1-.3 1.5-.7.1.2.3.5.3.6-.3.5-.6 1-.4 1.6.1.3.4.5.7.7.1-.2.3-.5.3-.7 0-.4-.1-.8 0-1.2 0-.3-.3-1 .3-.8.3.2 1.3-.1 1.2.8v.7c-.1.2-.6.5-.1.7.5.2.7-.1.7-.7 0-.2-.1-.4 0-.5.3-.3.7-.6 1.1-.8.1 0 .4.5.5.8l.3.6c.1.1.2.3.2.4.1-.2.2-.4.2-.6 0-.2-.1-.5.1-.7.1-.2.4-.2.6-.2v.5c.1.3.3.6.4.9.1-.1.2-.3.3-.4v-.2c.7-1.7.8-1.7 1.9-.2l.3.3c.1-.1.2-.3.2-.4 0-.2-.1-.4 0-.5.1-.2.3-.4.5-.6l.4.4c.1.1 0 .3 0 .5.1.2.2.5.4.5s.5-.1.6-.3c.1-.2.1-.4.2-.7.1.2.3.3.3.5.1.2 0 .6.1.7.2.2.6.4.9.5-.1-.3-.2-.6-.2-.8 0-.2 0-.3.1-.5.2.1.6.1.6.2.1.3.1.6.1 1h.5c-.1-.8.1-.7.7-.4.4.2 1.1-.2 1.6-.3 0 .7.6.7 1 1 .3.2.5.3.5-.2 0-.8 0-1.6-1.1-1.7v-.2c1.3-.5 1.6.6 2 1.3.1.2.2.3.3.5.1-.2.2-.5.1-.7-.1-.6.1-.9.8-.7.6.2 1.1.4 1.7.6.2.1.6.2.6.2.6-1 1.2-.2 1.8-.1.3.1.7 0 1 0 .5-.1.8 0 1.1.4.4.4.9.9.9-.2l.6-.2c.2.2.2.5.4.8l.3.6c.1-.2.1-.4.2-.6.2-.5.4-.4.5 0 .1.1.2.1.3-.3.1 0 .2-.1.4 0-.2.3-.3.6-.5.8.1 0 .1-.1.2-.1 1-.7 1.4-.7 2.2.1.2.1.2.4.3.6l.3.3c.1-.1.2-.3.2-.4.3-1.2.3-1.2 1.1-.7.5.3.4.3.9-.6.2-.4.9-.7 1.3-.6.7.2 1.3.2 2-.1.6-.3 3.4-.5 4.1-.5.5 0 1.3 1.5 1.6 1.2.6-.6.8.5 1.2.2 1-.8 2.1-.5 3.2-.7.7-.1 1.6-.3 2.1-.5v.1c.5.5 1.7.2 2.4.1 1.1-.2 2.1.6 3.2-.1.1-.1.5.1.6.2.7.8 1.2.3 1.9-.5.6-.7.5.1.5.3 0 .8.3 1.1 1 .5.1-.1.3-.2.3-.2.5.2 1.4.7 1.5.6.6-.6 1-1.5 1.4-1.4.6.2 1.3-.3 1.8.3.1.1.6-.2 1-.3.4-.2.8-.2.8.4.1.5.3.4.6.1.3-.4.7-.4.9.1l.3.6c.1-.1.2-.3.2-.4.2-.4.3-.9.4-1.3 0-.1.2-.2.3-.2.1.1.2.3.2.4 0 .7 0 1.5 1.1.7.1-.1.5.1.7.2.3.2.5.9.8-.2.2-.7 1.6-.5 2.4.2.2.2.6-.7.8-.8.8-.4.7-.4 1.2.1.2.3.5.6.8.9.2.2.4.3.5.4.1-.2.1-.4.2-.7 0-.3-.1-.7 0-1 0-.1.4-.3.6-.3.1 0 .4.1.4.2.1.3 0 .7.1 1 .1.4.1.8.2 1.2.6-.3.1-.8.3-1.2.1-.3.2-.5.4-.7.1-.1.4.1.6.3.2.2.3.5.5.8.1.2.5.4.5.3.2-.2.3-.4.4-.7.1-.1-.1-.4 0-.5.1-.2.3-.3.5-.3s.4.3.4.4c.1.7 0 1.4.9.4.3-.3.8-.3 1.3-.5 0 .2.1.3.1.5v.5c.2-.1.5-.1.6-.2.5-.6 1.7-.9 2.5-.6.6.2.9.3.9-.4.1-.5.3-.5.5-.1.1.3.3.6.5.8.3.3.5.3.5-.2.1-.3.3-.6.5-.8h.4c.1 1 .4.6.8.2.3.8 1-.2 1.5.3.2.2.9-.3 1.4-.4.4 0 .9.1 1.4.2.7.2 1.6.2 2.5.1.5-.1 1-.2 1 .6h.4c.3-.4.6-.3 1-.1.3.2.9 1.5 1-.1.8-.1 1.6-.3 2.4-.2.4 0 .7.5 1 .8.4.4.3.4.5.1.1-.3.3-.5.4-.8.3-.6.5-.6.9-.1.2.3.4.5.6.8.1.3-.2.9.4.9.2 0 .4-.3.6-.5.2-.4.3-.9.4-1.3.1-.2.1-.4.2-.7l.3.6c.1.2 0 .5 0 .7.1 1.2.5.2.8.1.4-.2.9-.3 1.3-.5.6-.3.9-.1.9.6 0 .3-.1.7.1 1 .1.3.4.5.7.7.1-.2.2-.5.3-.7v-.7c0-.5-.2-1 .6-1 .6 0 .9.2.9.8 0 .2.2.4.2.6.1-.2.2-.4.2-.6v-1c0-.1.1-.3.2-.4.1.1.1.2.2.3V0H167zM-2 8.3c-.1 0-.2 0-.3-.1.2 0 .3 0 .3.1zM1.7 3s-.1 0-.2-.1c.1 0 .2.1.2.1zm.7 9.1c-.1 0-.1-.1-.2-.1.1-.1.2 0 .2.1.1-.1.1-.1 0 0zM3 1.5c.1-.1.1-.1.2-.1 0 .1-.1.1-.2.1zm.9 9.1c0-.1-.1-.2-.1-.3.1.1.1.2.1.3zm6.6-7.8c0 .1.1.1.1.2-.1 0-.1-.1-.1-.2zM7 8.3c-.1 0-.2 0-.3-.1.1 0 .2 0 .3.1zm.5 4.5s-.1-.2-.1-.3c0-.1 0-.2-.1-.3h.6c.4.1.8.3 1.2.5v.4c-.6-.2-1.1-.2-1.6-.3zm2.4-5.3c-.4-.4-.7-.8-1-1.2 0-.1.1-.2.2-.3l.1-.2c.5.2 1 .5 1.6.8-.3.4-.6.7-.9.9zM12.2.7c0 .1-.1.1-.2.1 0-.1.1-.1.2-.1zm-.6 18v.2-.4c.1 0 .3-.7.5-.6l.1.1c-.1.1-.3.3-.6.7zm1.8-16.4c.1-.1.1-.1.2-.1 0 0-.1.1-.2.1zm3 8.6c-.3-.2-.7-.4-1-.5.5-.3 1-.7 1.5-.7h.1c.2.1.4.4.6.7-.3.1-.7.3-1.2.5zm6.1 2s-.1.2-.3.3c-.1.1-.3.2-.4.3-.1-.3-.2-.7-.4-1 .1-.3.2-.5.4-.7.3.4.6.8.7 1.1zm.3-7.5c-.2-.1-.3-.3-.5-.4.2-.3.4-.6.6-.7.1 0 .4.2.8.5-.4.3-.7.6-.9.6zm1.9 10.4c0-.1-.1-.2-.1-.2.1.1.2.1.1.2zm1.5 2.3c0-.1-.1-.1-.1-.2.1 0 .1.1.1.2zm.2-7l-.2.2v-.1c0-.1.1-.1.2-.1zm3.6-.8c0 .1 0 .2-.1.3 0-.1 0-.2.1-.3zm0 5.5c-.1 0-.1-.1-.1-.2 0 .1.1.1.1.2zM29.1.6c0 .1.1.2.1.3 0-.1-.1-.2-.1-.3zm-1.3 10.5c0 .1-.1.2-.2.3l-.9-.6c0-.1.1-.2.2-.3.1-.1.2-.3.2-.4.4.3.7.6.7.8.1 0 0 .1 0 .2zm.6-2.8c-.4-.1-.7-.2-.9-.4 0 0 .1-.2.1-.3 0-.1.1-.2.1-.3l.8.8c0 .1 0 .2-.1.2zm.7 10.5c0-.1-.1-.1-.1-.2s-.1-.2-.1-.2c.3-.5.6-.9.9-1.4l.9.9c-.5.3-1 .6-1.6.9zm6.7-12c0-.1.1-.1.2-.1-.1 0-.1.1-.2.1zm3.9-3.7c-.1 0-.1-.1-.2-.1.1-.1.2 0 .2.1 0-.1 0-.1 0 0zM41 3c.1-.1.3-.2.5-.3.2.3.4.5.6.8 0 0 0 .1-.1.2 0 0 0 .1-.1.1-.3-.3-.6-.6-.9-.8zm.8 14.9c-.1-.3-.2-.6-.2-.9 0-.2.1-.3.2-.6.1.2.2.5.4.8-.1.2-.2.5-.4.7zm.7-2c0-.1 0-.1 0 0 0-.2 0-.2.1-.3h.1c0 .1-.1.2-.2.3zm.8-3.8c-.1-.1-.1-.1 0 0 0-.1.1-.1.2-.1-.1 0-.2 0-.2.1zm1.9-5.9c-.1 0-.2 0-.3-.1-.1 0-.1-.1-.2-.1.2-.2.3-.4.5-.6.2-.2.3-.3.4-.3.1 0 .2.1.4.3.1.1.2.3.4.4-.5.2-.8.3-1.2.4zm3.4-.7c0 .1 0 .1-.1.3 0 .1-.1.1-.1.2-.2-.5-.3-.8-.5-1.1.1 0 .1-.1.2-.1s.2-.1.2-.1c.1 0 .2.1.2.1V5c.1.2.1.3.1.5zm.2 11.2s.1 0 0 0c.1 0 .1-.1.2-.1 0 .1.1.2.1.3l-.3-.2zm6.3-4.6c-.1.1-.1.2-.2.3-.3-.6-.6-1.1-.9-1.6 0 0 0-.1.1-.2l.1-.1c.3.5.6 1 .9 1.6zM64 16c-.1 0-.2 0-.3-.1.1 0 .2 0 .3.1zm2.1.1c0-.1-.1-.2-.1-.2v-.1c.1.1.2.1.1.3.1-.1.1-.1 0 0zm.7-3.1c0-.1 0-.2.1-.3 0 .2-.1.3-.1.3zm1.7 1.6s-.1 0-.2-.1c0 0-.1 0-.1-.1l.6-.3c.1.1.3.2.4.2-.3.2-.5.3-.7.3zm9.6-3c0-.1-.1-.2-.1-.3 0 .1.1.2.1.3zm1.4 1.5c0-.1-.1-.2-.1-.3.1.1.1.2.1.3zm2.1-9.9c.1 0 .2-.1.2-.1 0 .1-.1.1-.2.1zm.8 11.6c-.3-.1-.5-.2-.6-.3.1-.1.3-.2.4-.3 0 0 .1 0 .2.1 0 0 .1.1.2.1-.1.1-.2.2-.2.4zm4.7-9.5s-.1.1-.1.2c-.1-.1-.3-.1-.4-.2.1-.3.2-.5.3-.6.1.2.2.3.3.4 0 .1-.1.1-.1.2zm4.5 11.5l-.3-.2c.3-.3.5-.5.8-.7.1.1.1.2.2.2l.1.1c-.3.3-.5.5-.8.6zm.7-3.9c0-.1 0-.1 0 0h.1c0-.1-.1 0-.1 0zm.3-.2h-.1c0 .1.1 0 .1 0 .3-.1.6-.2 1-.3 0 .1.1.2.2.3-.5.1-.8.1-1.2 0zM94.4 1l-.1.1c0-.3-.1-.5-.1-.7V.3s.1 0 .1-.1h.1c.1.3.1.5.2.7 0 0-.1 0-.2.1zm4.4 8.2c-.1-.1-.1-.3-.2-.6.3-.1.6-.3.9-.3 0 0 .1 0 .2.1l.1.1-1 .7zm.8-3.7c0-.1 0-.2.1-.3l.1.1-.2.2zm.9-.8l-.1.1c-.1-.1-.2-.3-.3-.4.1-.2.2-.3.4-.5.1.2.2.4.2.6-.1 0-.2.1-.2.2zm2.8 6.1c0-.1 0-.2.1-.3 0 .1 0 .2-.1.3zm2.9-2.3c0-.1.1-.1.2-.1 0 0-.1.1-.2.1zm1.5-3.7c0-.1 0-.1 0 0 0-.1.1-.1.2-.1 0 0-.1 0-.2.1zm3 9c0-.1.1-.1.2-.1 0 0-.1 0-.2.1zm.5-5.1c-.2-.2-.4-.5-.6-.8 0 0 0-.1.1-.2 0 0 0-.1.1-.1l1 .7c-.3.2-.4.3-.6.4zm1.2 4.9c-.1-.2-.3-.4-.4-.6.1-.3.2-.5.3-.7.1.2.3.5.3.7v.1c-.1.1-.2.3-.2.5zm2.3-8.6c-.2.1-.3.3-.5.5-.1-.5-.3-.9-.4-1.4.1-.3.2-.6.4-1 .4.5.8.9.9 1.4-.1.1-.2.3-.4.5zm6.2-1.2c-.1-.2-.3-.5-.3-.7V3c0-.2.1-.4.1-.6.1.2.3.4.4.6 0 .3-.1.6-.2.8zm1.5-1.5c0 .1-.1.1-.2.1.1 0 .1-.1.2-.1zm.1 6s0 .1-.1.1l-1-.7c.1-.1.3-.2.5-.3.2.2.4.5.6.8.1-.1 0 0 0 .1zm2.7 3.1c0-.1.1-.1.2-.1 0 .1-.1.1-.2.1zm1.5-3.7c0-.1.1-.1.2-.1 0 0-.1.1-.2.1zm3-2.2c0-.1 0-.2.1-.3 0 .2 0 .2-.1.3zm3.1 6.6c-.1-.2-.2-.4-.2-.6 0 0 0-.1.1-.1l.1-.1c.1.1.2.3.3.4-.1.2-.2.3-.3.4zm.7-1.3c-.1-.1-.1-.1 0 0 0-.2 0-.2.1-.3h.1c-.1.1-.2.2-.2.3zm.2-3s-.1 0-.2-.1l-.1-.1 1-.7c.1.1.1.3.2.6-.3.1-.6.3-.9.3zm5.2 8s-.1 0-.1.1h-.1c-.1-.3-.1-.5-.2-.7 0 0 .1-.1.2-.1l.1-.1c.1.3.1.5.1.8zm1.7-12.5c-.1 0-.1 0 0 0-.3.1-.6.2-1 .3 0-.1-.1-.2-.2-.3.4-.1.8 0 1.2 0zm.2 0c0-.1 0-.1 0 0 0-.1 0-.1 0 0 .1-.1 0 0 0 0zm5.5 8.1c-.1-.1-.2-.3-.3-.4 0 0 0-.1.1-.2 0 0 .1-.1.1-.2.1.1.3.1.4.2-.2.2-.3.4-.3.6zm4.7-9.6s-.1 0-.2-.1c0 0-.1-.1-.2-.1.1-.1.1-.3.2-.4.3.1.5.2.6.3-.2.2-.3.3-.4.3zm.3 11.1c0-.1.1-.1.2-.1-.1.1-.1.1-.2.1zm2.4-9.6c0-.1-.1-.2-.1-.3 0 .1.1.2.1.3zm1.5 1.5c0-.1-.1-.2-.1-.3 0 .1.1.2.1.3zm9.2-2.9c-.1-.1-.3-.2-.4-.2.2-.1.4-.2.6-.2 0 0 .1 0 .2.1l.1.1c-.2 0-.4.1-.5.2zm1.9 1.4c0-.1 0-.2.1-.3-.1.1-.1.2-.1.3zm3.1-3.1c-.1 0-.1-.1-.2-.1 0 0 .1 0 .2.1zm5.8 18.1c0-.1 0-.2.1-.3 0 .1-.1.2-.1.3zm3.9-12.9l-.1.1c-.3-.5-.7-1-.9-1.5.1-.1.1-.2.2-.3.3.6.6 1.1.9 1.6 0 0-.1 0-.1.1zm6 5.9c-.1 0-.2.1-.2.1-.1 0-.2-.1-.2-.1v-.8s0-.1.1-.2c0-.1.1-.1.1-.2.2.5.3.8.5 1.1-.2 0-.3.1-.3.1zm.2 7.2c0-.1 0-.2.1-.3 0 .1-.1.2-.1.3zm2.7-7.8c-.2.2-.3.3-.4.3-.1 0-.2-.1-.4-.3-.1-.1-.2-.3-.4-.4.4-.1.8-.3 1.1-.4.1 0 .1 0 .3.1.1 0 .1.1.2.1-.1.2-.3.4-.4.6zm1.7-6.6c0-.1.1-.1.2-.1-.1.1-.1.1-.2.1zm.8-3.7c0-.1 0-.2.1-.3l.1.1c-.1.1-.1.2-.2.2zm1.1 13c-.2-.3-.4-.5-.6-.8 0 0 0-.1.1-.2 0 0 0-.1.1-.1.3.3.6.5.9.8-.1.1-.2.2-.5.3zm2.1-.3c-.1 0-.2 0-.3-.1.1 0 .2.1.3.1zm3.5-3.7s-.1 0 0 0c0-.1.1-.1.2-.1-.1 0-.2.1-.2.1zm6-9.2c0 .1.1.2.1.2-.1 0-.1-.1-.1-.2zm0 5.5c0-.1 0-.2.1-.3 0 .1-.1.2-.1.3zm.8 9.8c0-.1-.1-.2-.1-.3.1.1.1.2.1.3zm1.5-7.1c0 .1-.1.2-.1.3l-.8-.8c0-.1.1-.1.1-.2v-.1c.3.1.7.3.9.5 0 .1 0 .2-.1.3zm.7-2.8c-.1.1-.2.3-.2.4-.4-.3-.7-.6-.7-.8 0 0 0-.2.1-.3 0-.1.1-.2.2-.3l.9.6c-.1.1-.2.3-.3.4zm.5-.6c.1-.1.1-.2.2-.2v.1s-.1.1-.2.1zm1.8-4.5c0-.1-.1-.1-.1-.2 0 0 .1.1.1.2zm1.7 11.3c-.1 0-.4-.2-.8-.5.4-.3.7-.6.9-.7h.1c.1.1.3.2.4.4-.2.3-.4.6-.6.8zm1.2-7.6c-.3-.4-.7-.7-.7-1 0 0 .1-.2.3-.3.1-.1.3-.2.4-.3.1.3.2.7.4 1-.2.2-.3.4-.4.6zm.9 13.3s-.1.1-.1.2c-.1-.1-.3-.1-.4-.2.1-.3.2-.5.3-.6.1.1.2.3.3.4 0 0-.1.1-.1.2zm4.4-.5c0-.1-.1-.2-.1-.3 0 .1.1.2.1.3zm-.5-10.5l-.1-.1c-.2-.1-.4-.4-.6-.7.4-.2.8-.3 1.2-.5.3.2.7.4 1 .5-.5.3-1 .7-1.5.8zm3.3 7.4c.1-.1.1-.1.2-.1 0 0-.1.1-.2.1zm1.5 1.5c0-.1.1-.1.2-.1-.1 0-.1.1-.2.1zm1.6-2.2c0-.1-.1-.1-.1-.2.1 0 .1.1.1.2zm2.8-9.3h-.2c-.4-.1-.8-.3-1.2-.5V3c.6 0 1.1 0 1.6.2 0 0 .1.2.1.3 0 .1 0 .2.1.3-.2.1-.3.1-.4.1zm1 4c-.1 0-.1-.1-.2-.1.1 0 .2 0 .2.1zm2.9-2.2c0-.1-.1-.2-.1-.3.1.1.1.2.1.3zm.6 8.9c.1-.1.1-.1.2-.1 0 .1-.1.1-.2.1zm1-10.5c-.1 0-.2 0-.3-.1.2 0 .2.1.3.1zm.7 9.1c-.1 0-.1-.1-.2-.1.1-.1.2 0 .2.1zM116 25.5c0 .2.2.3.3.4 0-.1.1-.3.2-.7-.1 0-.3-.1-.4-.2 0 .3-.1.4-.1.5zm99-4.3l-.7-.7c-.1.2-.3.5-.2.6.2.2.5.3.7.3l.2-.2zm6.8 2.6s0 .1.1.1h.2c0-.1-.1-.2-.2-.3l-.1.2zm7.9-1c.1.1.2.1.3.2l.2-.2c-.1 0-.2-.1-.3-.1l-.2.1zm-109 2.5c0 .1.1.2.2.3-.1-.1-.2-.2-.2-.3zm0-.6c.1 0 .1-.1.1-.2.1-.2-.2-.5-.3-.7l-.6.2c0 .3 0 .5.3.9l.3-.3c.1.1.1.1.2.1zm-.2.6c-.1.1-.2.2-.2.3.1 0 .2.1.3.1l-.1-.1.2-.2-.2-.1zm-.3-4.7c-.1 0-.2-.1-.3-.1l-.2.2c.1.1.2.1.3.2l.2-.3zm.4 5.1l.2.1s0-.1-.2-.1zm-2.3-1.3l-.2.2c0 .5 0 1.1.5 1.4h.4c0-.1.1-.2.1-.3-.2-.4-.3-.8-.5-1.2 0 0-.2-.1-.3-.1zm39.2 5.4l.2.2c.1-.1.2-.1.3-.2l-.2-.1c-.1-.1-.2 0-.3.1zm-29.9.3h.3-.3zm-3.2-5.3c0 .1.1.2.2.3l.2-.2c-.1-.1-.1-.2-.2-.3l-.2.2zm25.8-3.1c.1.1.2.1.3.2l.2-.2c-.1 0-.2-.1-.3-.1l-.2.1zm-.9.5c.1 0 .2.1.3.1l.2-.2c-.1-.1-.2-.1-.3-.2l-.2.3zM124 27.4l.2.1c.1 0 .2-.1.3-.2l-.2-.2c-.1.2-.2.3-.3.3zm.8-4l.2.2c.1-.1.2-.1.3-.2l-.2-.1c-.1 0-.2 0-.3.1z"/></svg>