<svg height="511pt" viewBox="0 0 511 511.9996" width="511pt" xmlns="http://www.w3.org/2000/svg"><path d="M444.465 4.395c-5.856-5.86-15.356-5.86-21.211 0L307.648 120H45.5c-24.812 0-45 20.188-45 45v209.996c0 24.816 20.188 45 45 45h16v77a15 15 0 0 0 25.723 10.492l85.586-87.492H347.5c24.813 0 45-20.184 45-45V204.852L508.105 89.246c5.856-5.86 5.856-15.355 0-21.215zM306.578 248.344l-42.426-42.426L391.434 78.641l42.425 42.425zm-58.406-15.98l31.96 31.96-54.78 22.82zM362.5 374.995c0 8.274-6.73 15-15 15h-181a15.006 15.006 0 0 0-10.723 4.512L91.5 460.215v-55.219c0-8.281-6.715-15-15-15h-31c-8.27 0-15-6.726-15-15V165c0-8.273 6.73-15 15-15h232.145l-45.313 45.312a15.329 15.329 0 0 0-3.312 5.012L187.5 300h-81c-8.285 0-15 6.715-15 15 0 8.281 6.715 14.988 15 14.988h91.004c1.93 0 4-.394 5.894-1.207l108.774-45.304c1.812-.707 3.64-1.938 5.015-3.313l45.313-45.312zm92.57-275.144l-42.425-42.426 21.214-21.211 42.426 42.426zm0 0"/></svg>