<svg xmlns="http://www.w3.org/2000/svg" viewBox="0 0 50 50"><path fill="#FFF" d="M6.6 32.5l-.2-.2c0 .1-.1.2-.1.3l.1.2c.1-.1.1-.2.2-.3zm14.8-20.9s0-.1 0 0c0-.1 0 0 0 0zM6 29.6l-.6-.3c-.3.1-.5.2-.7.4.2.1.4.2.6.2.2 0 .5-.2.7-.3zm21-18c0-.1-.1-.2-.2-.3l-.1.2s0 .1.1.1h.2zm-5.9-1.5c-.1.1-.3.2-.5.3.2.1.4.2.5.2.2 0 .4-.2.6-.2l-.6-.3zM7.3 27.7c-.1 0-.1.1-.2.1-.1.1-.1.2-.2.3.1.1.3.2.4.2v-.6zm0 3.3h-.7c.1.1.1.3.2.3h.5V31zM5.1 11.6c.1-.1.2-.2.4-.3-.1 0-.3-.1-.7-.2 0 .1-.1.2-.2.4.1 0 .1.1.2.1h.3zm11.5-.4l.1-.2c-.1-.1-.3-.2-.1.2zM2.3 20.4c.1.1.1.2.2.3l.3-.3c-.1-.1-.1-.3-.2-.3l-.3.3zm13.9-8.8h.4c-.1-.1-.3-.1-.4-.2v.2zm-11.7 26l.2-.2c-.1 0-.2-.1-.3-.1l-.2.1c.1.1.2.1.3.2zm11.6-26.7c.1.1.2.2.3.4-.1-.2-.3-.6-.6-1 .2.4.3.5.3.6zM2.8 25.2L3 25c-.1 0-.2-.1-.3-.1l-.2.2c.1 0 .2.1.3.1zM27.7 8.6c-.1.1-.1.2-.2.3l.2.1c0-.1.1-.2.1-.3l-.1-.1zm-7.8.4c.3.2.7.2 1 .3L21 9c-.4-.2-.7-.4-1.1-.6 0 .2-.1.5 0 .6zm11.3.3l.1-.2c0-.1-.1-.2-.2-.3L31 9c0 .1.1.2.2.3zm-14.4 2.3c-.1-.2-.2-.3-.2-.4l-.1.1c.1.1.1.2.1.3h.2zm15.9-2.9l.2-.2c-.1 0-.2-.1-.3-.1l-.2.1c.1.1.2.2.3.2zm7.4-3.1c.1.1.3.1.5.3.1-.2.3-.3.4-.6 0-.1-.1-.2-.2-.4l-.7.7zm-16.6-.8l-.2.1c.2 0 .4.1.5.1.1 0 .2-.1.3-.1-.2-.1-.4-.1-.6-.1zm14.6-1.5c0 .1.1.2.2.3l.2-.2c-.1-.1-.1-.2-.2-.3l-.2.2zm9.7-.1l.1-.2c-.1 0-.2-.1-.3-.1l-.2.1c.1.1.2.1.4.2zM1.2 44c.5-.4 1.1-1 .9-1-.4-.1-.4-.1-.9-.3-.1 0-.2-.2-.2-.3.1-.1.3-.2.4-.2.7 0 1.4-.1.6-1.1-.1-.1.2-.3.3-.5.2-.3.9-.5-.2-.7-.7-.2-.5-1.5.2-2.2.2-.2-.7-.5-.8-.7-.4-.7-.4-.7.1-1.1.3-.2.6-.5.9-.7.2-.1.3-.3.4-.5-.2-.1-.4-.1-.7-.1-.3 0-.7.1-1 0-.1 0-.3-.3-.3-.5 0-.1.1-.3.2-.3.3-.1.7 0 1-.1.4 0 .8-.1 1.2-.2-.3-.6-.8-.1-1.2-.2-.3-.1-.5-.2-.7-.4-.1-.1.1-.4.3-.5.2-.2.5-.3.8-.4.2-.1.4-.4.3-.5-.2-.2-.4-.3-.7-.4-.1-.1-.4.1-.5 0-.2-.1-.3-.3-.3-.5 0-.1.3-.4.4-.4.7-.1 1.4 0 .4-.8-.3-.2-.3-.8-.5-1.1.2 0 .3-.1.5-.1h.5c-.1-.2-.1-.5-.2-.6-.6-.5-1-1.5-.6-2.3.2-.5.3-.8-.4-.9-.5 0-.5-.2-.1-.4.3-.1.6-.3.8-.4.3-.3.3-.4-.2-.5-.1 0-.3-.1-.4-.2l-.2-.1-.1-.1-.1-.1c-.1-.1 0-.8 0-.8 1-.1.6-.7.2-1.3.8-.4-.2-1.7.3-2.5.2-.3-.3-1.7-.4-2.6 0-.8.1-1.6.2-2.4.1-1.1.3-2.7.6-4 .2-.7.4-1.6 1.1-1 0 0 .3-.4.3-.5 0-.8.2-1 .7-1.3.4-.2 1.8.1.7-1.1.1-.2.2-.3.4-.5s.4-.5.6-.6c.3-.4.8-.7 1.2-.9.4-.2 1.2-.1 1.8 0 .8.1.7.2.7-.2 0-.3.1-.6.1-.9.1-.6.3-.8 1.3-.5.5.2 1 .3 1.5.5.3.3.2.8 1.3.7.3 0 .6-.3.7-.5.1-.4.1-.8.2-1.2l.1-.6c.3.2.6.3.8.5.2.2.3.4.4.7.7 1.1 1 .2 1.5.1.7-.2 1.6-.2 2.3-.4 1.1-.3 1.7-.1 1.8.5.1.3 0 .6.3.9.3.2.9.4 1.3.6.1-.2.3-.4.4-.7.1-.2-.1-.4-.1-.7-.1-.4-.5-.9 1.1-.9h.8c.2 0 .4.1.5.1.1.1.2.3.2.6 0 .2.2.4.2.6.1-.2.2-.4.2-.5V.9c0-.1.1-.2.2-.4.2.2.4.3.4.4l.1 2c0 .1.2.2.3.3l.2-.2c-.4-.5.9-.7.2-1.3-.4-.3-.2-.6.1-.9l.3-.3c.1.1.3.2.3.3.1.4 0 .7.1 1.1 0 .1.2.2.2.4l.2-.6c.2-.5.5-.5.9-.2.7.4 1.1.5 1.1-.4l.4-.1c.2.3.5.6.5.9.1.6.1 1.2.1 1.8l.2.1c.1-.1.3-.2.3-.2-.4-1.1.6-1.7.9-2.6 0-.1.2-.2.2-.3.1.1.2.2.2.4s0 .4.1.7c.1.4.2.8.3 1.1l.8-1.1.3-.6c.5.8.9-.6 1.3-.2.4.4.7 1-.1 1.3 0-.5-.5-.6-.8-.4-.4.3-.4.7.3.8v.4c0 .1.1.2.2.4.1-.1.2-.2.3-.4v-.4c.2-.4 1 1.3 1-.2 0-.4-.1-.9-.1-1.3 0-.1.2-.2.2-.3.1.1.2.2.2.3.1.3.2.7.4 1 .1.2.3.2.5.4.1-.2.1-.4.2-.6.1-.2.2-.4.3-.7.2.2.7.4.7.6 0 .5.3.2-.2.7-.2.3.5.1.5.8.6-.7.6-.4 1.3-.8.1-.1.3 0 .5 0s.3-.1.5-.1c-.1-.2-.1-.4-.3-.6-.1-.1-.3 0-.5 0l-1.2.3-.1-1h.3c.1.1.1.3.1.4 0 .4 0 .8.6.7.2 0 .3-.4.4-.6.2 0 .2-.2.2-.4.9.5 1.1-.3 1.5-.6.1.2.3.5.3.5-.3.4-.6.9-.4 1.4.1.2.4.4.7.6.1-.2.3-.4.3-.6 0-.4-.1-.8 0-1.1 0-.3-.3-.9.3-.7.3.2 1.2-.6 1.2.3v.6c-.1.2-.3 0 .3.2.5.2.4.3.3-.2 0-.1-.1-.4 0-.4.3-.3.6-.4 1-.6 0 0 2.5-.9 2.6-.6H0V50s.7-5.6 1.2-6zm35-38.3l.2.1c.1 0 .2-.1.3-.2l-.2-.1c-.1.1-.2.2-.3.2zm-5-3.1l-.2.1v.1l.2-.2zm-.5.2s.1.2.1.3c.1 0 .1-.1.3-.4v-.1c-.2.1-.3.1-.4.2zm.8-.5s-.1-.1-.3.2h.1c.1 0 .1-.1.2-.2zm-.5.1l.1.1c0-.1.1-.2.2-.3l-.3.2zm10.1 4.4s-.1-.1-.3.2h.1c.1 0 .2-.1.2-.2zm-.8.5s.1.2.1.3c.1 0 .1-.1.3-.4v-.1c-.1.1-.3.1-.4.2zm4.1-2.2c0-.1.1-.3.2-.6-.2-.1-.5-.2-.7-.2-.1 0-.2.1-.4.2l.9.6zm-3.7 2.1v.1c.1-.1.1-.2.2-.3h-.1l-.1.2zm0-.3l.1.1c0-.1.1-.2.2-.3l-.3.2zM28 7.8c0 .1.1.2.2.3l.2-.2c-.1-.1-.1-.2-.2-.3l-.2.2zm2.3-.7c.1-.2.2-.4.3-.5 0-.1-.1-.3-.2-.3s-.4 0-.4.1c-.1.3-.1.5-.2.8 0 .2.2.7.2.7.7-.1.2-.5.3-.8zm6.7-.7c-.1.1-.1.2-.2.3l.2.1c0-.1.1-.2.1-.3l-.1-.1z"/></svg>