<svg xmlns="http://www.w3.org/2000/svg" viewBox="0 0 512 512"><path d="M467 46H165c-24.813 0-45 20.187-45 45v15h-15c-24.813 0-45 20.187-45 45v15H45c-24.873 0-45 20.265-45 45v210c0 24.815 20.228 45 45 45h300c24.72 0 45-20.128 45-45v-15h17c24.813 0 45-20.187 45-45v-15h15c24.813 0 45-20.187 45-45V91c0-24.813-20.187-45-45-45zM337.35 196L205.656 328.931c-5.873 5.929-15.438 5.929-21.312 0L52.65 196h284.7zM30 414.787V215.764l99.047 99.977L30 414.787zM51.213 436l98.948-98.947 12.871 12.992c17.624 17.789 46.315 17.787 63.937 0l12.871-12.992L338.787 436H51.213zM360 414.788l-99.047-99.047L360 215.764v199.024zM422 361c0 8.271-6.729 15-15 15h-17V211c0-24.728-20.121-45-45-45H90v-15c0-8.271 6.729-15 15-15h302c8.271 0 15 6.729 15 15v210zm60-60c0 8.271-6.729 15-15 15h-15V151c0-24.813-20.187-45-45-45H150V91c0-8.271 6.729-15 15-15h302c8.271 0 15 6.729 15 15v210z"/></svg>