<?xml version="1.0" encoding="iso-8859-1"?>
<!-- Generator: Adobe Illustrator 19.0.0, SVG Export Plug-In . SVG Version: 6.00 Build 0)  -->
<svg version="1.1" id="Capa_1" xmlns="http://www.w3.org/2000/svg" xmlns:xlink="http://www.w3.org/1999/xlink" x="0px" y="0px"
	 viewBox="0 0 512.001 512.001" style="enable-background:new 0 0 512.001 512.001;" xml:space="preserve">
<g>
	<path style="fill:#EA7F49;" d="M501.447,342.65c-6.176-7.597-12.769-12.735-12.769-12.735l-92.775-23.325l-92.775,23.325
		c0,0-6.593,5.139-12.769,12.735c-7.801,9.595-0.857,23.96,11.508,23.96H489.94C502.304,366.611,509.246,352.245,501.447,342.65z"/>
	<rect x="195.745" y="251.025" style="fill:#EA7F49;" width="120.511" height="43.261"/>
	<path style="fill:#EA7F49;" d="M10.553,342.65c6.176-7.597,12.769-12.735,12.769-12.735l92.775-23.325l92.775,23.325
		c0,0,6.593,5.139,12.769,12.735c7.799,9.595,0.857,23.96-11.508,23.96H22.061C9.696,366.611,2.754,352.245,10.553,342.65z"/>
</g>
<path style="fill:#E8742E;" d="M41.459,342.65c6.176-7.597,12.769-12.735,12.769-12.735l77.322-19.441l-15.453-3.885l-92.775,23.325
	c0,0-6.593,5.139-12.769,12.735c-7.8,9.595-0.857,23.961,11.508,23.961h30.905C40.601,366.611,33.659,352.245,41.459,342.65z"/>
<g>
	<path style="fill:#596674;" d="M395.901,167.341l-116.099,21.95c0,12.594,1.399,22.225,3.509,30.868l112.593,19.207l112.59-19.207
		c2.109-8.643,3.509-18.273,3.509-30.868L395.901,167.341z"/>
	<path style="fill:#596674;" d="M116.099,167.341l116.099,21.95c0,12.594-1.399,22.225-3.509,30.868l-112.593,19.207L3.509,220.16
		C1.399,211.516,0,201.886,0,189.291L116.099,167.341z"/>
</g>
<g>
	<path style="fill:#364E66;" d="M34.414,220.16c-2.11-8.643-3.509-18.273-3.509-30.868l100.647-19.028l-15.453-2.922L0,189.291
		c0,12.594,1.399,22.225,3.509,30.868l112.59,19.207l15.453-2.636L34.414,220.16z"/>
	<path style="fill:#364E66;" d="M314.216,220.16c-2.109-8.643-3.509-18.273-3.509-30.868l100.647-19.028l-15.453-2.922
		l-116.099,21.95c0,12.594,1.399,22.225,3.509,30.868l112.588,19.207l15.453-2.636L314.216,220.16z"/>
</g>
<path style="fill:#EFEDEE;" d="M475.128,145.39h-158.45c-20.365,0-36.872,16.509-36.872,36.872v7.028H512v-7.028
	C512,161.899,495.491,145.39,475.128,145.39z"/>
<path style="fill:#E8742E;" d="M321.26,342.65c6.176-7.597,12.769-12.735,12.769-12.735l77.322-19.441l-15.453-3.885l-92.775,23.325
	c0,0-6.593,5.139-12.769,12.735c-7.8,9.595-0.857,23.961,11.508,23.961h30.905C320.403,366.611,313.46,352.245,321.26,342.65z"/>
<path style="fill:#FAE076;" d="M508.491,220.16c-6.513,26.681-19.818,43.956-19.818,109.757H303.127
	c0-65.8-13.304-83.076-19.818-109.757H508.491z"/>
<g>
	<path style="fill:#596674;" d="M336.503,276.523c-4.268,0-7.726-3.459-7.726-7.726v-10.75c0-4.267,3.458-7.726,7.726-7.726
		s7.726,3.459,7.726,7.726v10.75C344.23,273.063,340.77,276.523,336.503,276.523z"/>
	<path style="fill:#596674;" d="M455.298,276.523c-4.268,0-7.726-3.459-7.726-7.726v-10.75c0-4.267,3.458-7.726,7.726-7.726
		c4.268,0,7.726,3.459,7.726,7.726v10.75C463.024,273.063,459.566,276.523,455.298,276.523z"/>
	<path style="fill:#596674;" d="M395.901,282.26c-7.944,0-15.407-3.326-20.478-9.128c-2.808-3.213-2.48-8.093,0.734-10.902
		c3.212-2.808,8.093-2.48,10.902,0.732c2.135,2.444,5.358,3.845,8.842,3.845s6.707-1.401,8.843-3.845
		c2.808-3.213,7.689-3.541,10.901-0.732c3.213,2.809,3.542,7.689,0.732,10.902C411.307,278.933,403.843,282.26,395.901,282.26z"/>
</g>
<path style="fill:#EFEDEE;" d="M36.873,145.39h158.449c20.365,0,36.872,16.509,36.872,36.872v7.028H0v-7.028
	C0,161.899,16.509,145.39,36.873,145.39z"/>
<path style="fill:#D2D2D2;" d="M67.778,145.391H36.872C16.509,145.391,0,161.899,0,182.263v7.028h30.905v-7.028
	C30.905,161.899,47.414,145.391,67.778,145.391z"/>
<path style="fill:#E8742E;" d="M251.509,251.028h-55.766v43.261h45.781C243.698,274.805,247.602,262.617,251.509,251.028z"/>
<path style="fill:#FAE076;" d="M3.509,220.16c6.513,26.681,19.818,43.956,19.818,109.757h185.547
	c0-65.8,13.304-83.076,19.818-109.757H3.509z"/>
<path style="fill:#EDBD4E;" d="M3.509,220.16c6.513,26.681,19.818,43.956,19.818,109.757h30.905
	c0-65.8-13.304-83.076-19.818-109.757H3.509z"/>
<path style="fill:#D2D2D2;" d="M347.579,145.391h-30.905c-20.365,0-36.872,16.509-36.872,36.872v7.028h30.905v-7.028
	C310.707,161.899,327.215,145.391,347.579,145.391z"/>
<path style="fill:#EDBD4E;" d="M283.31,220.16c6.513,26.681,19.818,43.956,19.818,109.757h30.905
	c0-65.8-13.304-83.076-19.818-109.757H283.31z"/>
<g>
	<path style="fill:#596674;" d="M175.496,276.523c-4.268,0-7.726-3.459-7.726-7.726v-10.75c0-4.267,3.458-7.726,7.726-7.726
		s7.726,3.459,7.726,7.726v10.75C183.223,273.063,179.765,276.523,175.496,276.523z"/>
	<path style="fill:#596674;" d="M56.702,276.523c-4.268,0-7.726-3.459-7.726-7.726v-10.75c0-4.267,3.458-7.726,7.726-7.726
		s7.726,3.459,7.726,7.726v10.75C64.429,273.063,60.97,276.523,56.702,276.523z"/>
	<path style="fill:#596674;" d="M116.099,282.26c-7.943,0-15.406-3.326-20.477-9.127c-2.809-3.213-2.481-8.093,0.732-10.902
		c3.211-2.808,8.093-2.481,10.901,0.732c2.136,2.444,5.359,3.845,8.843,3.845s6.708-1.401,8.842-3.845
		c2.81-3.214,7.69-3.542,10.902-0.732c3.213,2.808,3.542,7.689,0.733,10.902C131.507,278.933,124.043,282.26,116.099,282.26z"/>
</g>
<g>
</g>
<g>
</g>
<g>
</g>
<g>
</g>
<g>
</g>
<g>
</g>
<g>
</g>
<g>
</g>
<g>
</g>
<g>
</g>
<g>
</g>
<g>
</g>
<g>
</g>
<g>
</g>
<g>
</g>
</svg>
