<?xml version="1.0" encoding="iso-8859-1"?>
<!-- Generator: Adobe Illustrator 19.0.0, SVG Export Plug-In . SVG Version: 6.00 Build 0)  -->
<svg version="1.1" id="Capa_1" xmlns="http://www.w3.org/2000/svg" xmlns:xlink="http://www.w3.org/1999/xlink" x="0px" y="0px"
	 viewBox="0 0 512 512" style="enable-background:new 0 0 512 512;" xml:space="preserve">
<path style="fill:#A1A1A1;" d="M295.854,414.979c61.156-22.747,65.913-5.76,65.913,8.509c0,14.27-4.756,31.258-65.913,8.51
	L256,423.488L295.854,414.979z"/>
<path style="fill:#596674;" d="M240.676,512V15.324C240.676,6.861,247.537,0,256,0s15.324,6.861,15.324,15.324V512H240.676z"/>
<rect x="240.671" y="54.795" style="fill:#364E66;" width="30.648" height="124.456"/>
<path style="fill:#A1A1A1;" d="M283.126,85.703h-54.25c-25.794,0-46.704,20.911-46.704,46.704v15.941H329.83v-15.941
	C329.83,106.612,308.919,85.703,283.126,85.703z"/>
<path style="fill:#D2D2D2;" d="M502.201,186.354H9.799l0,0c0-34.905,28.295-69.329,63.2-69.329h366.003
	C473.905,117.025,502.201,151.45,502.201,186.354L502.201,186.354z"/>
<path style="fill:#A1A1A1;" d="M114.206,117.024H72.999c-34.905,0-63.2,34.425-63.2,69.329l0,0h41.207l0,0
	C51.006,151.45,79.302,117.024,114.206,117.024z"/>
<rect x="240.671" y="226.362" style="fill:#364E66;" width="30.648" height="124.456"/>
<path style="fill:#A1A1A1;" d="M283.126,319.909h-54.25c-25.794,0-46.704-20.911-46.704-46.704v-15.941H329.83v15.941
	C329.83,299,308.919,319.909,283.126,319.909z"/>
<path style="fill:#D2D2D2;" d="M502.201,219.258H9.799l0,0c0,34.905,28.295,69.329,63.2,69.329h366.003
	C473.905,288.587,502.201,254.162,502.201,219.258L502.201,219.258z"/>
<path style="fill:#A1A1A1;" d="M51.006,219.259L51.006,219.259H9.799l0,0c0,34.904,28.295,69.329,63.2,69.329h41.207
	C79.302,288.587,51.006,254.162,51.006,219.259z"/>
<g>
	<path style="fill:#596674;" d="M176.464,162.772c-4.268,0-7.726-3.459-7.726-7.726v-14.395c0-4.267,3.458-7.726,7.726-7.726
		s7.726,3.459,7.726,7.726v14.395C184.19,159.312,180.731,162.772,176.464,162.772z"/>
	<path style="fill:#596674;" d="M335.537,162.772c-4.268,0-7.726-3.459-7.726-7.726v-14.395c0-4.267,3.458-7.726,7.726-7.726
		c4.268,0,7.726,3.459,7.726,7.726v14.395C343.264,159.312,339.804,162.772,335.537,162.772z"/>
	<path style="fill:#596674;" d="M256,170.455c-9.88,0-19.156-4.129-25.448-11.327c-2.809-3.213-2.481-8.094,0.732-10.902
		c3.211-2.808,8.093-2.481,10.901,0.732c3.358,3.842,8.392,6.044,13.814,6.044c5.422,0,10.455-2.203,13.814-6.044
		c2.808-3.213,7.69-3.541,10.901-0.732c3.213,2.808,3.542,7.689,0.732,10.902C275.155,166.327,265.879,170.455,256,170.455z"/>
</g>
<path style="fill:#D2D2D2;" d="M280.581,399.705H231.42c-8.435,0-15.273,6.838-15.273,15.273v17.02
	c0,8.435,6.838,15.273,15.273,15.273h49.161c8.435,0,15.273-6.838,15.273-15.273v-17.02
	C295.854,406.543,289.016,399.705,280.581,399.705z"/>
<path style="fill:#A1A1A1;" d="M247.052,431.998v-17.02c0-8.435,6.838-15.273,15.273-15.273H231.42
	c-8.435,0-15.273,6.838-15.273,15.273v17.02c0,8.435,6.838,15.273,15.273,15.273h30.905
	C253.889,447.271,247.052,440.433,247.052,431.998z"/>
<g>
</g>
<g>
</g>
<g>
</g>
<g>
</g>
<g>
</g>
<g>
</g>
<g>
</g>
<g>
</g>
<g>
</g>
<g>
</g>
<g>
</g>
<g>
</g>
<g>
</g>
<g>
</g>
<g>
</g>
</svg>
