<?xml version="1.0" encoding="iso-8859-1"?>
<!-- Generator: Adobe Illustrator 19.0.0, SVG Export Plug-In . SVG Version: 6.00 Build 0)  -->
<svg version="1.1" id="Capa_1" xmlns="http://www.w3.org/2000/svg" xmlns:xlink="http://www.w3.org/1999/xlink" x="0px" y="0px"
	 viewBox="0 0 512 512" style="enable-background:new 0 0 512 512;" xml:space="preserve">
<g>
	<polygon style="fill:#596674;" points="378.09,166.543 99.434,405.198 131.254,419.557 163.075,405.198 409.91,198.362 	"/>
	<path style="fill:#596674;" d="M97.445,78.084h-14.67c-4.419,0-8.001,3.582-8.001,8.001v35.339h30.674V86.085
		C105.446,81.666,101.864,78.084,97.445,78.084z"/>
	<path style="fill:#596674;" d="M152.736,78.084h-14.671c-4.419,0-8.001,3.582-8.001,8.001v35.339h30.674V86.085
		C160.737,81.666,157.154,78.084,152.736,78.084z"/>
	<path style="fill:#596674;" d="M263.315,78.084h-14.671c-4.419,0-8.001,3.582-8.001,8.001v35.339h30.674V86.085
		C271.317,81.666,267.735,78.084,263.315,78.084z"/>
	<path style="fill:#596674;" d="M318.605,78.084h-14.671c-4.419,0-8.001,3.582-8.001,8.001v35.339h30.674V86.085
		C326.607,81.666,323.025,78.084,318.605,78.084z"/>
	<path style="fill:#596674;" d="M373.896,78.084h-14.671c-4.419,0-8.001,3.582-8.001,8.001v35.339h30.674V86.085
		C381.896,81.666,378.314,78.084,373.896,78.084z"/>
	<path style="fill:#596674;" d="M429.186,78.084h-14.671c-4.419,0-8.001,3.582-8.001,8.001v35.339h30.674V86.085
		C437.187,81.666,433.604,78.084,429.186,78.084z"/>
</g>
<polygon style="fill:#364E66;" points="231.941,347.491 313.198,279.403 279.756,250.762 199.021,319.906 "/>
<polygon style="fill:#596674;" points="133.91,166.543 412.566,405.198 380.746,419.557 348.925,405.198 102.09,198.362 "/>
<path style="fill:#85CDEA;" d="M500.205,99.264H477.19L256,121.424L34.81,99.264H11.795C5.281,99.264,0,104.545,0,111.06v32.745
	c0,34.18,27.71,61.89,61.88,61.89h388.24c34.17,0,61.88-27.71,61.88-61.89V111.06C512,104.545,506.719,99.264,500.205,99.264z"/>
<g>
	<polygon style="fill:#EFEDEE;" points="145.4,99.264 90.11,99.264 62.46,121.424 90.11,143.585 145.4,143.585 173.05,121.424 	"/>
	<polygon style="fill:#EFEDEE;" points="256,99.264 200.7,99.264 173.05,121.424 200.7,143.585 256,143.585 283.65,121.424 	"/>
	<polygon style="fill:#EFEDEE;" points="366.59,99.264 311.3,99.264 283.65,121.424 311.3,143.585 366.59,143.585 394.24,121.424 	
		"/>
	<polygon style="fill:#EFEDEE;" points="421.89,99.264 394.24,121.424 421.89,143.585 477.19,143.585 477.19,99.264 	"/>
</g>
<g>
	<rect x="366.59" y="99.267" style="fill:#D2D2D2;" width="55.3" height="44.318"/>
	<rect x="256" y="99.267" style="fill:#D2D2D2;" width="55.3" height="44.318"/>
	<rect x="145.4" y="99.267" style="fill:#D2D2D2;" width="55.3" height="44.318"/>
	<rect x="34.81" y="99.267" style="fill:#D2D2D2;" width="55.3" height="44.318"/>
</g>
<g>
	<path style="fill:#596674;" d="M177.551,186.883c-4.267,0-7.726-3.459-7.726-7.726v-14.198c0-4.267,3.459-7.726,7.726-7.726
		s7.726,3.459,7.726,7.726v14.198C185.277,183.425,181.818,186.883,177.551,186.883z"/>
	<path style="fill:#596674;" d="M334.449,186.883c-4.268,0-7.726-3.459-7.726-7.726v-14.198c0-4.267,3.458-7.726,7.726-7.726
		s7.726,3.459,7.726,7.726v14.198C342.176,183.425,338.717,186.883,334.449,186.883z"/>
	<path style="fill:#596674;" d="M256,194.462c-9.775,0-18.953-4.085-25.179-11.207c-2.809-3.213-2.481-8.094,0.732-10.902
		c3.211-2.807,8.093-2.481,10.901,0.732c3.291,3.765,8.228,5.925,13.545,5.925s10.253-2.159,13.545-5.925
		c2.808-3.214,7.689-3.541,10.901-0.732c3.213,2.808,3.542,7.689,0.732,10.902C274.953,190.377,265.775,194.462,256,194.462z"/>
</g>
<g>
	<rect x="84.959" y="405.2" style="fill:#364E66;" width="92.593" height="28.716"/>
	<rect x="334.448" y="405.2" style="fill:#364E66;" width="92.593" height="28.716"/>
</g>
<g>
</g>
<g>
</g>
<g>
</g>
<g>
</g>
<g>
</g>
<g>
</g>
<g>
</g>
<g>
</g>
<g>
</g>
<g>
</g>
<g>
</g>
<g>
</g>
<g>
</g>
<g>
</g>
<g>
</g>
</svg>
