<?xml version="1.0" encoding="iso-8859-1"?>
<!-- Generator: Adobe Illustrator 19.0.0, SVG Export Plug-In . SVG Version: 6.00 Build 0)  -->
<svg version="1.1" id="Capa_1" xmlns="http://www.w3.org/2000/svg" xmlns:xlink="http://www.w3.org/1999/xlink" x="0px" y="0px"
	 viewBox="0 0 512 512" style="enable-background:new 0 0 512 512;" xml:space="preserve">
<polygon style="fill:#F74F50;" points="187.647,266.257 164.336,289.569 164.623,313.832 193.151,318.384 216.463,295.073 
	216.822,265.897 "/>
<g>
	
		<rect x="267.376" y="223.771" transform="matrix(-0.7071 0.7071 -0.7071 -0.7071 673.6442 260.3078)" style="fill:#FAE076;" width="31.07" height="91.799"/>
	
		<rect x="311.538" y="179.625" transform="matrix(-0.7071 0.7071 -0.7071 -0.7071 717.8189 153.7181)" style="fill:#FAE076;" width="31.07" height="91.799"/>
	
		<rect x="355.698" y="135.454" transform="matrix(-0.7071 0.7071 -0.7071 -0.7071 761.9708 47.0881)" style="fill:#FAE076;" width="31.07" height="91.799"/>
</g>
<g>
	
		<rect x="246.35" y="232.493" transform="matrix(-0.7071 0.7071 -0.7071 -0.7071 622.8891 239.2959)" style="fill:#EDBD4E;" width="31.07" height="32.32"/>
	
		<rect x="287.779" y="275.168" transform="matrix(-0.7071 -0.7071 0.7071 -0.7071 313.297 711.1771)" style="fill:#EDBD4E;" width="32.319" height="31.07"/>
	
		<rect x="376.103" y="186.833" transform="matrix(-0.7071 -0.7071 0.7071 -0.7071 526.5382 622.8351)" style="fill:#EDBD4E;" width="32.32" height="31.07"/>
	
		<rect x="334.667" y="144.161" transform="matrix(-0.7071 0.7071 -0.7071 -0.7071 711.1967 26.0551)" style="fill:#EDBD4E;" width="31.07" height="32.32"/>
	
		<rect x="290.503" y="188.332" transform="matrix(-0.7071 0.7071 -0.7071 -0.7071 667.0378 132.6879)" style="fill:#EDBD4E;" width="31.07" height="32.32"/>
	
		<rect x="331.939" y="231.004" transform="matrix(-0.7071 -0.7071 0.7071 -0.7071 419.9126 667.0117)" style="fill:#EDBD4E;" width="32.32" height="31.07"/>
</g>
<path style="fill:#FD6F71;" d="M491.593,60.99c27.209,27.209,27.209,71.484,0,98.693L217.06,434.217
	c-49.592,49.592-130.275,49.592-179.867,0s-49.592-130.275,0-179.867l32.656-32.656c41.919-41.919,103.217-104.384,90.582-155.618
	l58.906,34.946l34.946,58.906c-51.241-12.642-113.699,48.663-155.618,90.582l-32.656,32.656c-33.7,33.699-33.7,88.536,0,122.235
	s88.536,33.699,122.235,0l274.533-274.533c11.318-11.318,11.325-29.737,0-41.062c-11.318-11.318-29.737-11.31-41.055,0.007
	l-205.259,205.26l-28.815-28.815l205.259-205.26C420.116,33.788,464.391,33.788,491.593,60.99z"/>
<path style="fill:#FAE076;" d="M172.811,53.689l-12.383,12.383l93.854,93.854l12.383-12.383c6.391-6.391,6.391-16.753,0-23.144
	l-70.71-70.71C189.565,47.298,179.202,47.298,172.811,53.689z"/>
<path style="fill:#EDBD4E;" d="M266.666,124.4l-20.604-20.604c6.391,6.391,6.391,16.753,0,23.144l-12.383,12.383l20.604,20.604
	l12.383-12.383C273.057,141.153,273.057,130.79,266.666,124.4z"/>
<path style="fill:#FAE076;" d="M109.593,322.025c-5.219,0.927-7.197,7.381-3.449,11.129l43.42,43.42
	c3.748,3.748,10.203,1.77,11.129-3.449c2.196-12.363,9.606-31.891,32.456-54.741l-28.815-28.815
	C141.485,312.418,121.956,319.828,109.593,322.025z"/>
<path style="fill:#EDBD4E;" d="M177.697,302.931c-22.849,22.849-30.26,42.378-32.456,54.741c-0.927,5.219-7.381,7.197-11.129,3.449
	l15.453,15.453c3.748,3.748,10.203,1.77,11.129-3.449c2.196-12.363,9.606-31.892,32.456-54.741L177.697,302.931z"/>
<g>
</g>
<g>
</g>
<g>
</g>
<g>
</g>
<g>
</g>
<g>
</g>
<g>
</g>
<g>
</g>
<g>
</g>
<g>
</g>
<g>
</g>
<g>
</g>
<g>
</g>
<g>
</g>
<g>
</g>
</svg>
