<?xml version="1.0" encoding="iso-8859-1"?>
<!-- Generator: Adobe Illustrator 19.0.0, SVG Export Plug-In . SVG Version: 6.00 Build 0)  -->
<svg version="1.1" id="Capa_1" xmlns="http://www.w3.org/2000/svg" xmlns:xlink="http://www.w3.org/1999/xlink" x="0px" y="0px"
	 viewBox="0 0 512 512" style="enable-background:new 0 0 512 512;" xml:space="preserve">
<path style="fill:#EA7F49;" d="M489.926,453.856h-38.719V130.56c0-21.938-17.847-39.785-39.785-39.785H100.577
	c-21.937,0-39.784,17.847-39.784,39.785v323.296H22.074V130.56c0-43.287,35.217-78.504,78.503-78.504h310.847
	c43.287,0,78.504,35.217,78.504,78.504v323.296H489.926z"/>
<g>
	<path style="fill:#596674;" d="M193.734,188.726c-2.716,0-5.349-1.434-6.761-3.975l-48.399-87.118
		c-2.073-3.73-0.728-8.434,3.002-10.506c3.731-2.073,8.434-0.728,10.507,3.002l48.399,87.118c2.073,3.73,0.728,8.434-3.002,10.506
		C196.291,188.413,195.003,188.726,193.734,188.726z"/>
	<path style="fill:#596674;" d="M318.266,188.726c-1.269,0-2.556-0.313-3.746-0.974c-3.73-2.073-5.074-6.777-3.002-10.506
		l48.399-87.118c2.072-3.729,6.777-5.074,10.506-3.002c3.73,2.073,5.075,6.777,3.002,10.506l-48.399,87.118
		C323.615,187.292,320.981,188.726,318.266,188.726z"/>
</g>
<circle style="fill:#FAE076;" cx="256" cy="293.931" r="166.817"/>
<circle style="fill:#EDBD4E;" cx="256" cy="293.931" r="129.391"/>
<path style="fill:#D99D2E;" d="M286.905,413.014c-71.458,0-129.387-57.928-129.387-129.387c0-51.359,29.924-95.728,73.286-116.625
	c-59.396,11.723-104.191,64.091-104.191,126.927c0,71.458,57.928,129.387,129.387,129.387c20.1,0,39.129-4.583,56.1-12.762
	C303.95,412.163,295.527,413.014,286.905,413.014z"/>
<g>
	<path style="fill:#596674;" d="M190.441,304.422c-4.267,0-7.726-3.459-7.726-7.726v-11.865c0-4.267,3.459-7.726,7.726-7.726
		s7.726,3.459,7.726,7.726v11.865C198.168,300.962,194.709,304.422,190.441,304.422z"/>
	<path style="fill:#596674;" d="M321.559,304.422c-4.267,0-7.726-3.459-7.726-7.726v-11.865c0-4.267,3.459-7.726,7.726-7.726
		s7.726,3.459,7.726,7.726v11.865C329.285,300.962,325.826,304.422,321.559,304.422z"/>
	<path style="fill:#596674;" d="M256,310.755c-8.535,0-16.553-3.572-21.998-9.8c-2.808-3.213-2.481-8.094,0.731-10.902
		c3.213-2.808,8.093-2.482,10.902,0.731c2.511,2.871,6.288,4.518,10.365,4.518c4.076,0,7.854-1.646,10.364-4.517
		c2.809-3.213,7.689-3.541,10.902-0.732s3.541,7.689,0.732,10.902C272.553,307.184,264.536,310.755,256,310.755z"/>
</g>
<path style="fill:#E8742E;" d="M98.847,52.1c-0.062,0.982-0.104,1.968-0.104,2.964v32.703c0,1.026,0.045,2.042,0.111,3.052
	c0.572-0.025,1.146-0.043,1.723-0.043h48.99c0.064-0.996,0.107-1.996,0.107-3.008V55.065c0-1.012-0.043-2.013-0.107-3.008h-48.991
	C99.997,52.057,99.425,52.088,98.847,52.1z"/>
<path style="fill:#364E66;" d="M145.328,39.386L145.328,39.386c-8.66,0-15.679,7.02-15.679,15.679v32.703
	c0,8.66,7.02,15.679,15.679,15.679l0,0c8.66,0,15.679-7.02,15.679-15.679V55.065C161.007,46.406,153.987,39.386,145.328,39.386z"/>
<path style="fill:#E8742E;" d="M370.675,52.057c-0.064,0.995-0.107,1.996-0.107,3.008v32.703c0,1.012,0.044,2.013,0.107,3.008
	h40.749c0.578,0,1.151,0.02,1.722,0.043c0.066-1.01,0.111-2.025,0.111-3.052V55.065c0-0.996-0.042-1.983-0.104-2.964
	c-0.577-0.012-1.15-0.043-1.73-0.043h-40.749V52.057z"/>
<g>
	<path style="fill:#364E66;" d="M366.672,39.386L366.672,39.386c8.66,0,15.679,7.02,15.679,15.679v32.703
		c0,8.66-7.02,15.679-15.679,15.679l0,0c-8.66,0-15.679-7.02-15.679-15.679V55.065C350.993,46.406,358.013,39.386,366.672,39.386z"
		/>
	<path style="fill:#364E66;" d="M65.492,435.464H17.376C7.779,435.464,0,443.244,0,452.84v19.774h82.867V452.84
		C82.867,443.244,75.088,435.464,65.492,435.464z"/>
	<path style="fill:#364E66;" d="M446.508,435.464h48.116c9.596,0,17.376,7.779,17.376,17.376v19.774h-82.867V452.84
		C429.133,443.244,436.912,435.464,446.508,435.464z"/>
</g>
<g>
</g>
<g>
</g>
<g>
</g>
<g>
</g>
<g>
</g>
<g>
</g>
<g>
</g>
<g>
</g>
<g>
</g>
<g>
</g>
<g>
</g>
<g>
</g>
<g>
</g>
<g>
</g>
<g>
</g>
</svg>
