<?xml version="1.0" encoding="iso-8859-1"?>
<!-- Generator: Adobe Illustrator 19.0.0, SVG Export Plug-In . SVG Version: 6.00 Build 0)  -->
<svg version="1.1" id="Capa_1" xmlns="http://www.w3.org/2000/svg" xmlns:xlink="http://www.w3.org/1999/xlink" x="0px" y="0px"
	 viewBox="0 0 512 512" style="enable-background:new 0 0 512 512;" xml:space="preserve">
<path style="fill:#596674;" d="M458.8,47.545l21.08-21.08c8.111-8.111,21.262-8.111,29.373,0l0,0c3.663,3.663,3.663,9.601,0,13.265
	l-29.134,29.134l-22.721,1.402L458.8,47.545z"/>
<path style="fill:#EFEDEE;" d="M436.449,41.135L391.895,51.42l69.792,69.792l18.433-18.433c9.365-9.365,9.365-24.55,0-33.917
	l-21.319-21.319C452.953,41.698,444.506,39.275,436.449,41.135z"/>
<path style="fill:#D2D2D2;" d="M480.119,68.863L459.515,48.26c9.365,9.365,9.365,24.55,0,33.917l-18.433,18.433l20.604,20.604
	l18.433-18.433C489.484,93.414,489.484,78.229,480.119,68.863z"/>
<path style="fill:#58B78C;" d="M154.33,486.762c-16.071,16.071-42.123,16.071-58.194,0l-84.083-84.083
	c-16.071-16.071-16.071-42.123,0-58.194L331.299,25.238c16.071-16.071,42.123-16.071,58.194,0l84.083,84.083
	c16.071,16.071,16.071,42.123,0,58.194l-227.076,92.17L154.33,486.762z"/>
<g>
	<polygon style="fill:#D2D2D2;" points="138.289,328.827 102.815,364.3 128.573,425.531 189.804,451.288 225.277,415.815 
		199.516,354.587 	"/>
	<polygon style="fill:#D2D2D2;" points="209.229,257.887 173.755,293.361 199.516,354.587 260.743,380.349 296.216,344.876 
		270.46,283.645 	"/>
	<polygon style="fill:#D2D2D2;" points="280.175,186.941 244.702,222.414 270.46,283.645 331.69,309.401 367.164,273.928 
		341.403,212.701 	"/>
	<polygon style="fill:#D2D2D2;" points="351.115,116 315.641,151.474 341.403,212.701 402.63,238.462 438.103,202.989 
		412.345,141.758 	"/>
</g>
<g>
	<path style="fill:#EFEDEE;" d="M102.815,364.3l86.988,86.988l-35.473,35.473l-66.605-66.605c-11.257-11.257-11.257-29.51,0-40.766
		L102.815,364.3z"/>
	
		<rect x="138.006" y="329.51" transform="matrix(0.7071 0.7071 -0.7071 0.7071 309.1689 -37.2237)" style="fill:#EFEDEE;" width="123.023" height="50.156"/>
	
		<rect x="208.952" y="258.563" transform="matrix(0.7071 0.7071 -0.7071 0.7071 279.785 -108.1686)" style="fill:#EFEDEE;" width="123.023" height="50.166"/>
	
		<rect x="279.895" y="187.623" transform="matrix(0.7071 0.7071 -0.7071 0.7071 250.3981 -179.1122)" style="fill:#EFEDEE;" width="123.023" height="50.156"/>
	<path style="fill:#EFEDEE;" d="M406.972,100.91l66.605,66.605l-35.473,35.473L351.116,116l15.09-15.09
		C377.462,89.654,395.715,89.654,406.972,100.91z"/>
</g>
<g>
	
		<rect x="118.573" y="352.388" transform="matrix(-0.7071 0.7071 -0.7071 -0.7071 502.5193 577.9434)" style="fill:#596674;" width="25.981" height="81.318"/>
	
		<rect x="154.035" y="316.921" transform="matrix(-0.7071 0.7071 -0.7071 -0.7071 537.9774 492.322)" style="fill:#596674;" width="25.981" height="81.318"/>
	
		<rect x="224.984" y="245.966" transform="matrix(-0.7071 0.7071 -0.7071 -0.7071 608.9216 321.0265)" style="fill:#596674;" width="25.981" height="81.318"/>
	
		<rect x="260.47" y="210.499" transform="matrix(-0.7071 0.7071 -0.7071 -0.7071 644.4222 235.3875)" style="fill:#596674;" width="25.981" height="81.318"/>
	
		<rect x="295.939" y="175.029" transform="matrix(-0.7071 0.7071 -0.7071 -0.7071 679.8907 149.7559)" style="fill:#596674;" width="25.981" height="81.318"/>
	
		<rect x="331.406" y="139.552" transform="matrix(-0.7071 0.7071 -0.7071 -0.7071 715.3505 64.1133)" style="fill:#596674;" width="25.981" height="81.318"/>
	
		<rect x="366.887" y="104.085" transform="matrix(-0.7071 0.7071 -0.7071 -0.7071 750.8405 -21.5213)" style="fill:#596674;" width="25.981" height="81.318"/>
	<path style="fill:#596674;" d="M144.968,280.847c-1.977,0-3.955-0.754-5.464-2.263L129.1,268.18c-3.017-3.017-3.017-7.91,0-10.926
		c3.018-3.017,7.91-3.017,10.927,0l10.404,10.404c3.017,3.017,3.017,7.91,0,10.926C148.923,280.093,146.945,280.847,144.968,280.847
		z"/>
	<path style="fill:#596674;" d="M259.936,165.88c-1.977,0-3.955-0.754-5.464-2.263l-10.404-10.404c-3.017-3.017-3.017-7.91,0-10.926
		c3.018-3.017,7.91-3.017,10.927,0l10.404,10.404c3.017,3.017,3.017,7.91,0,10.926C263.891,165.126,261.913,165.88,259.936,165.88z"
		/>
	<path style="fill:#596674;" d="M189.215,236.884c-0.729,0-1.461-0.025-2.193-0.074c-4.258-0.285-7.477-3.969-7.191-8.226
		c0.285-4.258,3.947-7.485,8.227-7.191c5.232,0.347,10.531-1.712,14.483-5.666c3.954-3.953,6.018-9.231,5.665-14.484
		c-0.285-4.258,2.934-7.941,7.192-8.226c4.234-0.298,7.94,2.934,8.226,7.191c0.651,9.701-3.05,19.341-10.157,26.446
		C206.898,233.224,198.164,236.884,189.215,236.884z"/>
</g>
<g>
</g>
<g>
</g>
<g>
</g>
<g>
</g>
<g>
</g>
<g>
</g>
<g>
</g>
<g>
</g>
<g>
</g>
<g>
</g>
<g>
</g>
<g>
</g>
<g>
</g>
<g>
</g>
<g>
</g>
</svg>
