<?xml version="1.0" encoding="iso-8859-1"?>
<!-- Generator: Adobe Illustrator 19.0.0, SVG Export Plug-In . SVG Version: 6.00 Build 0)  -->
<svg version="1.1" id="Capa_1" xmlns="http://www.w3.org/2000/svg" xmlns:xlink="http://www.w3.org/1999/xlink" x="0px" y="0px"
	 viewBox="0 0 511.999 511.999" style="enable-background:new 0 0 511.999 511.999;" xml:space="preserve">
<g>
	<path style="fill:#E8742E;" d="M56.76,80.332h-21.1c-10.21,0-18.48,8.281-18.48,18.491v12.86h-0.002v21.321H56.76l19.785-26.335
		L56.76,80.332z"/>
	<path style="fill:#E8742E;" d="M189.59,80.332h-21.1c-10.21,0-18.48,8.281-18.48,18.491v12.86h-0.002v21.321h39.583l19.785-25.808
		L189.59,80.332z"/>
	<path style="fill:#E8742E;" d="M322.422,80.332h-21.1c-10.21,0-18.48,8.281-18.48,18.491v12.86h-0.002v21.321h39.583l19.785-26.336
		L322.422,80.332z"/>
	<path style="fill:#E8742E;" d="M455.24,80.332h-21.09c-10.21,0-18.48,8.281-18.48,18.491v12.86v21.32h39.57l19.791-26.336
		L455.24,80.332z"/>
</g>
<g>
	<rect x="43" y="376.336" style="fill:#EA7F49;" width="426" height="30.666"/>
	<path style="fill:#EA7F49;" d="M194,162.323h-41.333L132,252.997l20.666,60.449c0,7.487,6.07,13.557,13.557,13.557h14.219
		c7.487,0,13.557-6.07,13.557-13.557v-16.666l20.666-60.449L194,162.323z"/>
	<path style="fill:#EA7F49;" d="M276.666,162.323h-41.333l-20.666,74.006l20.666,43.783c0,7.487,6.07,13.557,13.557,13.557h14.219
		c7.487,0,13.557-6.07,13.557-13.557v-16.666l20.666-43.783L276.666,162.323z"/>
	<path style="fill:#EA7F49;" d="M359.333,162.323H318l-20.666,57.34L318,246.778c0,7.487,6.07,13.557,13.557,13.557h14.219
		c7.487,0,13.557-6.07,13.557-13.557v-16.666L380,202.996L359.333,162.323z"/>
</g>
<g>
	<rect x="17.177" y="152.004" style="fill:#E8742E;" width="45.156" height="279.663"/>
	<rect x="449.664" y="152.004" style="fill:#E8742E;" width="45.156" height="279.663"/>
	<polygon style="fill:#E8742E;" points="318,162.323 297.456,219.323 367.556,219.323 380,202.996 359.333,162.323 	"/>
	<polygon style="fill:#E8742E;" points="297.211,219.323 276.666,162.323 235.334,162.323 219.416,219.323 	"/>
	<polygon style="fill:#E8742E;" points="209.918,219.323 194,162.323 152.667,162.323 139.675,219.323 	"/>
</g>
<g>
	<path style="fill:#FA9F6A;" d="M111.333,162.323v167.789c0,7.487,6.07,13.557,13.557,13.557h14.219
		c7.487,0,13.557-6.07,13.557-13.557V162.323H111.333z"/>
	<path style="fill:#FA9F6A;" d="M207.557,310.335h14.219c7.487,0,13.557-6.07,13.557-13.557V162.323H194v134.456
		C194,304.266,200.069,310.335,207.557,310.335z"/>
	<path style="fill:#FA9F6A;" d="M290.224,277.002h14.219c7.487,0,13.557-6.07,13.557-13.557V162.322h-41.333v101.123
		C276.666,270.933,282.736,277.002,290.224,277.002z"/>
	<path style="fill:#FA9F6A;" d="M359.333,162.323v67.789c0,7.487,6.07,13.557,13.557,13.557h14.219
		c7.487,0,13.557-6.07,13.557-13.557v-67.789L359.333,162.323L359.333,162.323z"/>
</g>
<g>
	<path style="fill:#EA7F49;" d="M77.85,80.332H56.76v31.35v21.32h39.57v-21.32v-12.86C96.33,88.613,88.06,80.332,77.85,80.332z"/>
	<path style="fill:#EA7F49;" d="M476.34,80.332c10.21,0,18.48,8.28,18.48,18.49v12.86h0.002v21.321H455.24v-21.32l0,0v-31.35H476.34
		z"/>
	<path style="fill:#EA7F49;" d="M210.68,80.332h-21.09v31.35v21.32h39.57v-21.32v-12.86C229.161,88.613,220.89,80.332,210.68,80.332
		z"/>
	<path style="fill:#EA7F49;" d="M343.512,80.332h-21.09v31.35v21.32h39.57v-21.32v-12.86
		C361.991,88.613,353.722,80.332,343.512,80.332z"/>
	<rect x="359.337" y="162.326" style="fill:#EA7F49;" width="41.331" height="57"/>
	<rect x="276.665" y="162.326" style="fill:#EA7F49;" width="41.331" height="57"/>
	<rect x="194.004" y="162.326" style="fill:#EA7F49;" width="41.331" height="57"/>
	<rect x="111.332" y="162.326" style="fill:#EA7F49;" width="41.331" height="57"/>
</g>
<path style="fill:#FA9F6A;" d="M494.823,111.682H17.177C7.69,111.682,0,119.373,0,128.86v46.285c0,9.487,7.69,17.177,17.177,17.177
	h477.644c9.487,0,17.177-7.69,17.177-17.177V128.86C512,119.373,504.31,111.682,494.823,111.682z"/>
<g>
	<path style="fill:#596674;" d="M178.273,162.781c-4.142,0-7.5-3.358-7.5-7.5v-14.067c0-4.142,3.357-7.5,7.5-7.5
		c4.142,0,7.5,3.358,7.5,7.5v14.067C185.773,159.423,182.415,162.781,178.273,162.781z"/>
	<path style="fill:#596674;" d="M333.727,162.781c-4.142,0-7.5-3.358-7.5-7.5v-14.067c0-4.142,3.357-7.5,7.5-7.5
		c4.142,0,7.5,3.358,7.5,7.5v14.067C341.228,159.423,337.871,162.781,333.727,162.781z"/>
	<path style="fill:#596674;" d="M256,170.29c-9.64,0-18.692-4.028-24.831-11.052c-2.727-3.118-2.409-7.856,0.71-10.582
		c3.119-2.725,7.856-2.409,10.583,0.711c3.291,3.764,8.226,5.924,13.538,5.924c5.312,0,10.247-2.159,13.538-5.924
		c2.726-3.119,7.464-3.437,10.582-0.711c3.119,2.726,3.438,7.465,0.711,10.583C274.693,166.262,265.641,170.29,256,170.29z"/>
</g>
<g>
</g>
<g>
</g>
<g>
</g>
<g>
</g>
<g>
</g>
<g>
</g>
<g>
</g>
<g>
</g>
<g>
</g>
<g>
</g>
<g>
</g>
<g>
</g>
<g>
</g>
<g>
</g>
<g>
</g>
</svg>
