<?xml version="1.0" encoding="iso-8859-1"?>
<!-- Generator: Adobe Illustrator 19.0.0, SVG Export Plug-In . SVG Version: 6.00 Build 0)  -->
<svg version="1.1" id="Capa_1" xmlns="http://www.w3.org/2000/svg" xmlns:xlink="http://www.w3.org/1999/xlink" x="0px" y="0px"
	 viewBox="0 0 511.999 511.999" style="enable-background:new 0 0 511.999 511.999;" xml:space="preserve">
<g>
	<path style="fill:#EDBD4E;" d="M188.301,426.101c-9.046,0-16.379-7.333-16.379-16.379V42.112c0-9.046,7.333-16.379,16.379-16.379
		c9.046,0,16.379,7.333,16.379,16.379v367.611C204.68,418.768,197.346,426.101,188.301,426.101z"/>
	<path style="fill:#EDBD4E;" d="M256,426.101c-9.046,0-16.379-7.333-16.379-16.379V42.112c0-9.046,7.333-16.379,16.379-16.379
		c9.046,0,16.379,7.333,16.379,16.379v367.611C272.378,418.768,265.046,426.101,256,426.101z"/>
	<path style="fill:#EDBD4E;" d="M323.698,426.101c-9.046,0-16.379-7.333-16.379-16.379V42.112c0-9.046,7.333-16.379,16.379-16.379
		s16.379,7.333,16.379,16.379v367.611C340.077,418.768,332.744,426.101,323.698,426.101z"/>
</g>
<g>
	<path style="fill:#D99D2E;" d="M323.698,426.101c9.046,0,16.379-7.333,16.379-16.379V342.34c-9.64,2.692-20.57,4.807-32.758,6.32
		v61.062C307.319,418.768,314.653,426.101,323.698,426.101z"/>
	<path style="fill:#D99D2E;" d="M272.378,409.722v-58.475c-5.301,0.168-10.752,0.26-16.379,0.26c-5.627,0-11.078-0.092-16.379-0.26
		v58.475c0,9.046,7.333,16.379,16.379,16.379C265.046,426.101,272.378,418.768,272.378,409.722z"/>
	<path style="fill:#D99D2E;" d="M171.922,342.341v67.381c0,9.046,7.333,16.379,16.379,16.379c9.046,0,16.379-7.333,16.379-16.379
		V348.66C192.492,347.147,181.563,345.032,171.922,342.341z"/>
	<rect x="75.831" y="122.911" style="fill:#D99D2E;" width="360.326" height="35.669"/>
</g>
<path style="fill:#FAE076;" d="M256,486.266c341.212,0,260.876-258.977,208.292-348.37c-37.37-63.528,2.94-70.623,29.395-69.409
	c11.411,0.523,18.545-12.341,11.908-21.638C474.981,3.963,360.124,27.179,384.1,120.806C411.707,228.603,505.19,382.412,256,382.412
	S100.292,228.603,127.899,120.806C151.876,27.18,37.018,3.963,6.404,46.848c-6.636,9.297,0.498,22.161,11.909,21.638
	c26.455-1.213,66.764,5.881,29.395,69.409C-4.876,227.288-85.213,486.266,256,486.266z"/>
<path style="fill:#EDBD4E;" d="M256,465.662c-194.088,0-251.777-83.794-255.768-172.507C-3.874,389.031,46.922,486.266,256,486.266
	s259.873-97.235,255.768-193.111C507.777,381.868,450.088,465.662,256,465.662z"/>
<g>
	<path style="fill:#596674;" d="M172.34,432.038c-4.267,0-7.726-3.459-7.726-7.726v-15.141c0-4.267,3.459-7.726,7.726-7.726
		c4.267,0,7.726,3.459,7.726,7.726v15.141C180.066,428.579,176.607,432.038,172.34,432.038z"/>
	<path style="fill:#596674;" d="M339.66,432.038c-4.267,0-7.726-3.459-7.726-7.726v-15.141c0-4.267,3.459-7.726,7.726-7.726
		s7.726,3.459,7.726,7.726v15.141C347.386,428.579,343.927,432.038,339.66,432.038z"/>
	<path style="fill:#596674;" d="M256,440.12c-10.277,0-19.924-4.293-26.465-11.777c-2.808-3.213-2.481-8.094,0.732-10.902
		s8.093-2.481,10.902,0.732c3.607,4.127,9.013,6.494,14.83,6.494s11.224-2.366,14.83-6.494c2.808-3.213,7.688-3.541,10.902-0.732
		c3.213,2.808,3.541,7.689,0.732,10.902C275.923,435.828,266.277,440.12,256,440.12z"/>
</g>
<g>
</g>
<g>
</g>
<g>
</g>
<g>
</g>
<g>
</g>
<g>
</g>
<g>
</g>
<g>
</g>
<g>
</g>
<g>
</g>
<g>
</g>
<g>
</g>
<g>
</g>
<g>
</g>
<g>
</g>
</svg>
