<?xml version="1.0" encoding="iso-8859-1"?>
<!-- Generator: Adobe Illustrator 19.0.0, SVG Export Plug-In . SVG Version: 6.00 Build 0)  -->
<svg version="1.1" id="Capa_1" xmlns="http://www.w3.org/2000/svg" xmlns:xlink="http://www.w3.org/1999/xlink" x="0px" y="0px"
	 viewBox="0 0 512 512" style="enable-background:new 0 0 512 512;" xml:space="preserve">
<path style="fill:#A1A1A1;" d="M390.577,506.155H60.698c-21.171,0-40.455-10.752-51.585-28.761
	c-11.13-18.01-12.123-40.067-2.655-59.003L195.97,39.367c10.339-20.677,31.124-33.522,54.241-33.522c0.002,0,0,0,0.001,0
	c23.118,0,43.901,12.845,54.239,33.523l164.463,328.924c6.094,12.188,1.154,27.009-11.034,33.104
	c-12.187,6.094-27.009,1.154-33.104-11.034L260.312,61.437c-2.716-5.433-7.495-6.244-10.101-6.244
	c-2.607,0-7.387,0.811-10.104,6.244L50.595,440.461c-2.45,4.901-0.742,8.989,0.494,10.99c1.236,2.001,4.128,5.357,9.607,5.357
	h329.878c13.627,0,24.674,11.047,24.674,24.674S404.204,506.155,390.577,506.155z"/>
<path style="fill:#D2D2D2;" d="M468.315,88.793L177.791,379.317l36.19,36.19l290.523-290.523c9.994-9.994,9.994-26.196,0-36.19
	C494.511,78.8,478.308,78.8,468.315,88.793z"/>
<path style="fill:#A1A1A1;" d="M282.875,310.422c-6.267-6.267-13.771-10.944-22.229-13.961l-82.854,82.854l36.19,36.19
	l82.825-82.823C293.814,324.229,289.157,316.704,282.875,310.422z"/>
<ellipse transform="matrix(-0.7071 -0.7071 0.7071 -0.7071 41.5335 821.8549)" style="fill:#FAE076;" cx="190.978" cy="402.326" rx="51.539" ry="99.061"/>
<g>
	<path style="fill:#596674;" d="M154.319,449.935c-1.977,0-3.955-0.754-5.463-2.262l-6.927-6.926
		c-3.018-3.017-3.018-7.91-0.001-10.927c3.018-3.017,7.911-3.017,10.926,0l6.927,6.926c3.018,3.017,3.018,7.91,0.001,10.927
		C158.274,449.18,156.296,449.935,154.319,449.935z"/>
	<path style="fill:#596674;" d="M230.861,373.392c-1.978,0-3.955-0.754-5.464-2.263l-6.926-6.927
		c-3.017-3.017-3.017-7.91,0.001-10.926c3.017-3.017,7.91-3.016,10.926,0.001l6.926,6.927c3.017,3.017,3.017,7.91-0.001,10.926
		C234.816,372.639,232.838,373.392,230.861,373.392z"/>
	<path style="fill:#596674;" d="M183.779,420.665c-0.544,0-1.089-0.019-1.634-0.055c-4.258-0.285-7.477-3.969-7.191-8.226
		c0.286-4.259,3.969-7.475,8.227-7.191c2.738,0.176,5.538-0.916,7.644-3.022c2.105-2.104,3.205-4.89,3.02-7.644
		c-0.285-4.258,2.934-7.941,7.191-8.226c4.248-0.287,7.941,2.934,8.227,7.191c0.484,7.202-2.254,14.348-7.512,19.606
		C196.891,417.958,190.417,420.665,183.779,420.665z"/>
</g>
<g>
</g>
<g>
</g>
<g>
</g>
<g>
</g>
<g>
</g>
<g>
</g>
<g>
</g>
<g>
</g>
<g>
</g>
<g>
</g>
<g>
</g>
<g>
</g>
<g>
</g>
<g>
</g>
<g>
</g>
</svg>
