<?xml version="1.0" encoding="iso-8859-1"?>
<!-- Generator: Adobe Illustrator 19.0.0, SVG Export Plug-In . SVG Version: 6.00 Build 0)  -->
<svg version="1.1" id="Capa_1" xmlns="http://www.w3.org/2000/svg" xmlns:xlink="http://www.w3.org/1999/xlink" x="0px" y="0px"
	 viewBox="0 0 512 512" style="enable-background:new 0 0 512 512;" xml:space="preserve">
<polygon style="fill:#FA9F6A;" points="60.126,469.336 114.426,356.559 102.229,334.955 76.816,339.277 23.301,450.425 "/>
<polygon style="fill:#EA7F49;" points="76.816,339.277 63.406,367.127 101.017,384.409 114.426,356.559 102.229,334.955 "/>
<polygon style="fill:#EFEDEE;" points="90.03,311.831 76.816,339.277 114.427,356.558 127.641,329.113 116.25,299.349 "/>
<g>
	<path style="fill:#FA9F6A;" d="M170.657,90.716l19.393,134.035c1.487,10.277-5.638,19.812-15.915,21.3s-19.812-5.638-21.3-15.915
		c-0.096-0.662-0.156-1.343-0.181-1.998L147.65,92.8c-0.236-6.384,4.748-11.75,11.132-11.986
		C164.73,80.594,169.803,84.963,170.657,90.716z"/>
	<path style="fill:#FA9F6A;" d="M511.451,91.855L457.407,259.21c-3.189,9.875-13.78,15.296-23.655,12.107
		c-9.875-3.189-15.296-13.78-12.107-23.655c0.156-0.481,0.345-0.988,0.535-1.448l67.598-162.353
		c2.454-5.894,9.221-8.682,15.116-6.228C510.478,79.955,513.26,86.196,511.451,91.855z"/>
	<path style="fill:#FA9F6A;" d="M265.757,32.89l13.32,215.803c0.639,10.355-7.237,19.267-17.592,19.906
		c-10.355,0.639-19.267-7.237-19.906-17.592c-0.025-0.404-0.036-0.856-0.035-1.255l1.122-216.211
		c0.033-6.383,5.234-11.53,11.616-11.497C260.392,22.077,265.371,26.883,265.757,32.89z"/>
	<path style="fill:#FA9F6A;" d="M390.797,45.012L372.725,260.47c-0.867,10.338-9.952,18.016-20.289,17.149
		c-10.339-0.867-18.016-9.952-17.149-20.289c0.034-0.403,0.089-0.852,0.146-1.247l32.421-213.77
		c0.957-6.311,6.849-10.65,13.16-9.693C387.054,33.536,391.285,39.014,390.797,45.012z"/>
</g>
<g>
	<path style="fill:#EFEDEE;" d="M144.845,151.739c-6.194,0-11.618-4.536-12.554-10.847c-1.028-6.941,3.766-13.403,10.709-14.43
		l36.655-5.427c6.937-1.029,13.403,3.766,14.43,10.709c1.028,6.941-3.766,13.403-10.709,14.43l-36.655,5.427
		C146.092,151.694,145.465,151.739,144.845,151.739z"/>
	<path style="fill:#EFEDEE;" d="M237.394,129.699c-6.812,0-12.449-5.399-12.691-12.26c-0.246-7.012,5.238-12.899,12.252-13.144
		l38.31-1.346c7.016-0.264,12.898,5.238,13.145,12.252c0.246,7.013-5.238,12.899-12.252,13.144l-38.311,1.346
		C237.697,129.696,237.545,129.699,237.394,129.699z"/>
	<path style="fill:#EFEDEE;" d="M387.205,142.246c-0.583,0-1.172-0.04-1.766-0.123l-35.353-4.916
		c-6.951-0.966-11.802-7.384-10.835-14.335c0.967-6.951,7.386-11.799,14.335-10.835l35.353,4.916
		c6.951,0.966,11.802,7.384,10.835,14.335C398.889,137.645,393.446,142.246,387.205,142.246z"/>
	<path style="fill:#EFEDEE;" d="M491.545,179.181c-1.668,0-3.364-0.331-4.993-1.028l-34.443-14.74
		c-6.451-2.761-9.444-10.229-6.683-16.681c2.761-6.451,10.23-9.445,16.681-6.683l34.443,14.74
		c6.451,2.761,9.444,10.229,6.683,16.681C501.169,176.291,496.477,179.181,491.545,179.181z"/>
</g>
<g>
	<path style="fill:#EA7F49;" d="M443.689,194.552l-21.509,51.659c-0.19,0.46-0.379,0.966-0.535,1.448
		c-3.189,9.875,2.231,20.467,12.107,23.655c9.875,3.188,20.467-2.231,23.655-12.107l18.37-56.885
		C465.203,198.405,454.286,196,443.689,194.552z"/>
	<path style="fill:#EA7F49;" d="M372.725,260.469l5.61-66.882c-11.258,0.723-22.525,1.702-33.595,2.67
		c-0.079,0.007-0.158,0.013-0.237,0.021l-9.071,59.805c-0.059,0.395-0.113,0.844-0.146,1.247
		c-0.867,10.338,6.811,19.422,17.149,20.289C362.774,278.486,371.858,270.808,372.725,260.469z"/>
	<path style="fill:#EA7F49;" d="M261.485,268.6c10.355-0.64,18.231-9.552,17.592-19.906l-3.06-49.57
		c-9.75-0.741-17.283-2.327-22.474-4.75c-3.878-1.81-7.775-3.452-11.687-4.94l-0.313,60.319c-0.001,0.399,0.01,0.852,0.035,1.255
		C242.217,261.363,251.13,269.239,261.485,268.6z"/>
	<path style="fill:#EA7F49;" d="M183.476,179.322c-11.186,0.35-22.063,2.036-32.443,4.977l1.62,43.84
		c0.026,0.654,0.085,1.335,0.181,1.998c1.487,10.277,11.023,17.402,21.3,15.915s17.402-11.023,15.915-21.3L183.476,179.322z"/>
</g>
<path style="fill:#FD6F71;" d="M90.03,311.831c-1.017-79.287,74.205-125.03,150.443-89.453s286.163-67.816,270.391,104.7
	c-15.64,171.07-254.079,179.507-351.89,9.039c-6.362-11.088-20.86-14.337-31.332-7.006l0,0L90.03,311.831z"/>
<path style="fill:#F74F50;" d="M486.974,243.769c5.416,14.359,7.513,32.836,5.347,56.525
	c-14.576,159.425-222.644,177.598-330.07,41.364c99.747,164.716,333.144,154.614,348.613-14.579
	C514.737,284.719,504.996,259.001,486.974,243.769z"/>
<g>
	<path style="fill:#596674;" d="M267.597,354.29c-4.267,0-7.726-3.459-7.726-7.726v-13.642c0-4.267,3.459-7.726,7.726-7.726
		s7.726,3.459,7.726,7.726v13.642C275.323,350.831,271.864,354.29,267.597,354.29z"/>
	<path style="fill:#596674;" d="M418.347,354.29c-4.267,0-7.726-3.459-7.726-7.726v-13.642c0-4.267,3.459-7.726,7.726-7.726
		c4.267,0,7.726,3.459,7.726,7.726v13.642C426.073,350.831,422.614,354.29,418.347,354.29z"/>
	<path style="fill:#596674;" d="M342.972,361.571c-9.48,0-18.382-3.963-24.421-10.872c-2.808-3.213-2.481-8.094,0.732-10.902
		s8.093-2.48,10.902,0.732c3.105,3.553,7.766,5.59,12.787,5.59c5.021,0,9.682-2.038,12.788-5.59
		c2.808-3.213,7.69-3.541,10.902-0.731c3.213,2.808,3.541,7.689,0.731,10.902C361.353,357.608,352.452,361.571,342.972,361.571z"/>
</g>
<path style="fill:#EFEDEE;" d="M65.62,489.956c-2.735,0-5.51-0.634-8.112-1.969L9.667,463.421
	c-8.74-4.487-12.187-15.211-7.699-23.951c4.487-8.74,15.211-12.185,23.95-7.699l47.843,24.567
	c8.74,4.487,12.187,15.211,7.699,23.951C78.307,486.428,72.078,489.956,65.62,489.956z"/>
<g>
</g>
<g>
</g>
<g>
</g>
<g>
</g>
<g>
</g>
<g>
</g>
<g>
</g>
<g>
</g>
<g>
</g>
<g>
</g>
<g>
</g>
<g>
</g>
<g>
</g>
<g>
</g>
<g>
</g>
</svg>
