<?xml version="1.0" encoding="iso-8859-1"?>
<!-- Generator: Adobe Illustrator 19.0.0, SVG Export Plug-In . SVG Version: 6.00 Build 0)  -->
<svg version="1.1" id="Capa_1" xmlns="http://www.w3.org/2000/svg" xmlns:xlink="http://www.w3.org/1999/xlink" x="0px" y="0px"
	 viewBox="0 0 512 512" style="enable-background:new 0 0 512 512;" xml:space="preserve">
<path style="fill:#596674;" d="M472.605,14.767H39.395C17.639,14.767,0,32.405,0,54.162v403.676
	c0,21.756,17.639,39.395,39.395,39.395h433.21c21.756,0,39.395-17.639,39.395-39.395V54.162
	C512,32.405,494.361,14.767,472.605,14.767z"/>
<g>
	<path style="fill:#364E66;" d="M20.604,457.838V54.162c0-21.756,17.639-39.395,39.395-39.395H39.395
		C17.639,14.767,0,32.405,0,54.162v403.676c0,21.756,17.639,39.395,39.395,39.395h20.604
		C38.242,497.233,20.604,479.595,20.604,457.838z"/>
	<circle style="fill:#364E66;" cx="198.3" cy="301.977" r="152.086"/>
</g>
<circle style="fill:#EFEDEE;" cx="198.3" cy="301.977" r="86.679"/>
<circle style="fill:#596674;" cx="198.3" cy="301.977" r="26.416"/>
<rect x="398.144" y="149.881" style="fill:#364E66;" width="36.345" height="304.171"/>
<path style="fill:#FD6F71;" d="M435.299,196.096h-37.971c-9.061,0-16.407,7.345-16.407,16.407v14.625
	c0,9.061,7.345,16.407,16.407,16.407h37.971c9.061,0,16.407-7.345,16.407-16.407v-14.625
	C451.706,203.441,444.36,196.096,435.299,196.096z"/>
<g>
	<path style="fill:#EFEDEE;" d="M64.799,98.58c-4.267,0-7.726-3.459-7.726-7.726V77.472c0-4.267,3.459-7.726,7.726-7.726
		c4.267,0,7.726,3.459,7.726,7.726v13.382C72.526,95.121,69.066,98.58,64.799,98.58z"/>
	<path style="fill:#EFEDEE;" d="M212.677,98.58c-4.267,0-7.726-3.459-7.726-7.726V77.472c0-4.267,3.459-7.726,7.726-7.726
		s7.726,3.459,7.726,7.726v13.382C220.403,95.121,216.944,98.58,212.677,98.58z"/>
	<path style="fill:#EFEDEE;" d="M138.739,105.722c-9.342,0-18.114-3.905-24.066-10.715c-2.808-3.212-2.481-8.093,0.731-10.902
		c3.212-2.809,8.093-2.481,10.902,0.731c3.018,3.452,7.55,5.432,12.432,5.432c4.882,0,9.414-1.98,12.432-5.432
		c2.808-3.214,7.689-3.541,10.902-0.731c3.213,2.808,3.541,7.689,0.731,10.902C156.851,101.817,148.079,105.722,138.739,105.722z"/>
</g>
<circle style="fill:#58B78C;" cx="288.976" cy="89.924" r="21.974"/>
<circle style="fill:#FD6F71;" cx="372.359" cy="89.924" r="21.974"/>
<circle style="fill:#EFEDEE;" cx="455.752" cy="89.924" r="21.974"/>
<g>
	<circle style="fill:#364E66;" cx="46.212" cy="454.063" r="12.089"/>
	<circle style="fill:#364E66;" cx="465.786" cy="454.063" r="12.089"/>
</g>
<g>
</g>
<g>
</g>
<g>
</g>
<g>
</g>
<g>
</g>
<g>
</g>
<g>
</g>
<g>
</g>
<g>
</g>
<g>
</g>
<g>
</g>
<g>
</g>
<g>
</g>
<g>
</g>
<g>
</g>
</svg>
