<?xml version="1.0" encoding="iso-8859-1"?>
<!-- Generator: Adobe Illustrator 19.0.0, SVG Export Plug-In . SVG Version: 6.00 Build 0)  -->
<svg version="1.1" id="Capa_1" xmlns="http://www.w3.org/2000/svg" xmlns:xlink="http://www.w3.org/1999/xlink" x="0px" y="0px"
	 viewBox="0 0 512 512" style="enable-background:new 0 0 512 512;" xml:space="preserve">
<circle style="fill:#D99D2E;" cx="298.454" cy="299.041" r="212.959"/>
<circle style="fill:#FAE076;" cx="213.546" cy="212.959" r="212.959"/>
<path style="fill:#EDBD4E;" d="M244.454,415.609c-117.612,0-212.955-95.343-212.955-212.955c0-88.279,53.717-164.01,130.247-196.295
	C69.17,29.498,0.593,113.213,0.593,212.956c0,117.612,95.343,212.955,212.955,212.955c29.333,0,57.28-5.933,82.709-16.66
	C279.673,413.395,262.322,415.609,244.454,415.609z"/>
<g>
	<path style="fill:#596674;" d="M142.506,87.308c-4.268,0-7.726-3.459-7.726-7.726V66.724c0-4.267,3.458-7.726,7.726-7.726
		c4.268,0,7.726,3.459,7.726,7.726v12.858C150.232,83.848,146.773,87.308,142.506,87.308z"/>
	<path style="fill:#596674;" d="M284.591,87.308c-4.268,0-7.726-3.459-7.726-7.726V66.724c0-4.267,3.458-7.726,7.726-7.726
		s7.726,3.459,7.726,7.726v12.858C292.317,83.848,288.858,87.308,284.591,87.308z"/>
	<path style="fill:#596674;" d="M213.548,94.171c-9.064,0-17.576-3.79-23.351-10.4c-2.809-3.213-2.481-8.094,0.732-10.902
		c3.212-2.807,8.094-2.48,10.901,0.732c2.842,3.251,7.112,5.116,11.717,5.116c4.605,0,8.875-1.865,11.717-5.116
		c2.808-3.213,7.69-3.541,10.901-0.732c3.213,2.808,3.542,7.689,0.732,10.902C231.122,90.381,222.612,94.171,213.548,94.171z"/>
</g>
<circle style="fill:#D99D2E;" cx="213.546" cy="191.974" r="66.045"/>
<path style="fill:#FD6F71;" d="M213.548,339.34c-16.384,0-31.511-5.018-42.594-14.131c-12.047-9.904-18.681-23.898-18.681-39.403
	c0-60.708,48.495-106.505,50.559-108.426c6.04-5.616,15.392-5.617,21.43,0c2.064,1.92,50.56,47.718,50.56,108.426
	c0,15.505-6.634,29.498-18.681,39.403C245.059,334.322,229.932,339.34,213.548,339.34z M213.581,212.325
	c-12.006,14.897-29.838,42.279-29.838,73.48c0,15.16,15.451,22.065,29.806,22.065c14.356,0,29.806-6.905,29.806-22.065
	C243.355,254.425,225.587,227.163,213.581,212.325z"/>
<g>
</g>
<g>
</g>
<g>
</g>
<g>
</g>
<g>
</g>
<g>
</g>
<g>
</g>
<g>
</g>
<g>
</g>
<g>
</g>
<g>
</g>
<g>
</g>
<g>
</g>
<g>
</g>
<g>
</g>
</svg>
