<?xml version="1.0" encoding="iso-8859-1"?>
<!-- Generator: Adobe Illustrator 19.0.0, SVG Export Plug-In . SVG Version: 6.00 Build 0)  -->
<svg version="1.1" id="Capa_1" xmlns="http://www.w3.org/2000/svg" xmlns:xlink="http://www.w3.org/1999/xlink" x="0px" y="0px"
	 viewBox="0 0 511.999 511.999" style="enable-background:new 0 0 511.999 511.999;" xml:space="preserve">
<path style="fill:#D2D2D2;" d="M341.335,199.967l82.774-82.774c8.091-8.091,8.091-21.21,0-29.301c-8.091-8.091-21.21-8.091-29.301,0
	l-82.774,82.774c-41.635-27.946-98.688-23.543-135.454,13.223L6.068,354.399c-8.091,8.091-8.091,21.21,0,29.301
	s21.21,8.091,29.301,0l170.509-170.509c25.621-25.621,67.309-25.621,92.93,0c25.621,25.621,25.621,67.309,0,92.929L128.299,476.63
	c-8.091,8.091-8.091,21.21,0,29.301c8.091,8.091,21.21,8.091,29.301,0L328.11,335.422
	C364.877,298.656,369.28,241.601,341.335,199.967z"/>
<path style="fill:#A1A1A1;" d="M394.807,87.891l-43.839,43.839c3.783,5.692,8.178,11.095,13.193,16.11
	c4.977,4.977,10.368,9.39,16.092,13.209l43.856-43.857c8.091-8.091,8.091-21.21,0-29.302
	C416.017,79.799,402.898,79.799,394.807,87.891z"/>
<circle style="fill:#EFEDEE;" cx="438.197" cy="73.802" r="73.802"/>
<g>
	<path style="fill:#596674;" d="M405.408,51.392c-1.977,0-3.955-0.754-5.464-2.263c-3.017-3.017-3.017-7.909,0-10.926l5.694-5.694
		c3.018-3.017,7.91-3.017,10.927,0c3.017,3.017,3.017,7.909,0,10.926l-5.694,5.694C409.363,50.638,407.385,51.392,405.408,51.392z"
		/>
	<path style="fill:#596674;" d="M468.333,114.317c-1.977,0-3.955-0.754-5.464-2.263c-3.017-3.017-3.017-7.909,0-10.926l5.694-5.694
		c3.018-3.017,7.91-3.017,10.927,0c3.017,3.017,3.017,7.909,0,10.926l-5.694,5.694C472.288,113.563,470.31,114.317,468.333,114.317z
		"/>
	<path style="fill:#596674;" d="M444.116,90.255c-5.822,0-11.494-2.369-15.747-6.624c-4.603-4.604-6.999-10.865-6.576-17.181
		c0.284-4.258,3.967-7.479,8.226-7.192c4.258,0.285,7.478,3.969,7.192,8.226c-0.126,1.868,0.635,3.77,2.084,5.221
		c1.449,1.449,3.355,2.211,5.219,2.084c4.289-0.284,7.941,2.934,8.227,7.192c0.285,4.258-2.934,7.941-7.191,8.227
		C445.072,90.239,444.593,90.255,444.116,90.255z"/>
</g>
<g>
</g>
<g>
</g>
<g>
</g>
<g>
</g>
<g>
</g>
<g>
</g>
<g>
</g>
<g>
</g>
<g>
</g>
<g>
</g>
<g>
</g>
<g>
</g>
<g>
</g>
<g>
</g>
<g>
</g>
</svg>
