<?xml version="1.0" encoding="iso-8859-1"?>
<!-- Generator: Adobe Illustrator 19.0.0, SVG Export Plug-In . SVG Version: 6.00 Build 0)  -->
<svg version="1.1" id="Capa_1" xmlns="http://www.w3.org/2000/svg" xmlns:xlink="http://www.w3.org/1999/xlink" x="0px" y="0px"
	 viewBox="0 0 512 512" style="enable-background:new 0 0 512 512;" xml:space="preserve">
<g>
	<path style="fill:#FAE076;" d="M184.047,395.422c-4.267,0-7.726-3.459-7.726-7.726V70.505c0-4.267,3.459-7.726,7.726-7.726
		s7.726,3.459,7.726,7.726v317.191C191.773,391.962,188.314,395.422,184.047,395.422z"/>
	<path style="fill:#FAE076;" d="M217.459,395.422c-4.268,0-7.726-3.459-7.726-7.726V70.505c0-4.267,3.458-7.726,7.726-7.726
		c4.268,0,7.726,3.459,7.726,7.726v317.191C225.186,391.962,221.727,395.422,217.459,395.422z"/>
	<path style="fill:#FAE076;" d="M250.873,354.586c-4.268,0-7.726-3.459-7.726-7.726V70.505c0-4.267,3.458-7.726,7.726-7.726
		c4.268,0,7.726,3.459,7.726,7.726V346.86C258.6,351.127,255.14,354.586,250.873,354.586z"/>
	<path style="fill:#FAE076;" d="M284.285,322.116c-4.268,0-7.726-3.459-7.726-7.726V70.505c0-4.267,3.458-7.726,7.726-7.726
		s7.726,3.459,7.726,7.726V314.39C292.012,318.657,288.553,322.116,284.285,322.116z"/>
	<path style="fill:#FAE076;" d="M317.699,287.482c-4.268,0-7.726-3.459-7.726-7.726V94.331c0-4.267,3.458-7.726,7.726-7.726
		c4.268,0,7.726,3.459,7.726,7.726v185.425C325.426,284.023,321.966,287.482,317.699,287.482z"/>
	<path style="fill:#FAE076;" d="M351.112,253.569c-4.268,0-7.726-3.459-7.726-7.726V94.331c0-4.267,3.458-7.726,7.726-7.726
		c4.268,0,7.726,3.459,7.726,7.726v151.512C358.838,250.109,355.379,253.569,351.112,253.569z"/>
</g>
<path style="fill:#EDBD4E;" d="M481.902,94.619c-84.891,16.17-97.692-5.39-181.236-45.14s-152.952,10.29-152.952,10.29
	l-21.546,13.29l16.22,37.729c0,0,43.744-30.992,111.454-15.496s103.419,60.636,198.416,33.013L481.902,94.619z"/>
<g>
	<path style="fill:#D99D2E;" d="M452.257,128.306l29.645-33.687c-30.946,5.895-52.308,6.77-71.013,3.584l-35.814,37.463
		C396.609,138.581,421.28,137.314,452.257,128.306z"/>
	<path style="fill:#D99D2E;" d="M351.112,253.569c4.268,0,7.726-3.459,7.726-7.726v-93.193l-15.453,16.164v77.03
		C343.386,250.109,346.844,253.569,351.112,253.569z"/>
	<path style="fill:#D99D2E;" d="M317.699,287.482c4.268,0,7.726-3.459,7.726-7.726v-92.157l-15.453,16.164v75.993
		C309.973,284.023,313.431,287.482,317.699,287.482z"/>
	<path style="fill:#D99D2E;" d="M292.012,222.55l-15.453,16.164v75.676c0,4.267,3.458,7.726,7.726,7.726s7.726-3.459,7.726-7.726
		V222.55z"/>
	<path style="fill:#D99D2E;" d="M243.147,273.663v73.195c0,4.267,3.458,7.726,7.726,7.726c4.268,0,7.726-3.459,7.726-7.726v-89.36
		L243.147,273.663z"/>
	<path style="fill:#D99D2E;" d="M209.733,308.614v79.08c0,4.267,3.458,7.726,7.726,7.726c4.268,0,7.726-3.459,7.726-7.726V292.45
		L209.733,308.614z"/>
	<path style="fill:#D99D2E;" d="M176.32,343.565v44.13c0,4.267,3.459,7.726,7.726,7.726s7.726-3.459,7.726-7.726v-60.293
		L176.32,343.565z"/>
</g>
<path style="fill:#FAE076;" d="M497.31,92.923l-15.985-10.765c-4.337-2.921-10.148-2.293-13.761,1.487L163.362,401.844l31.391,21.56
	l77.667-21.56L499.8,108.408C503.605,103.498,502.462,96.393,497.31,92.923z"/>
<path style="fill:#D99D2E;" d="M147.715,59.769l-21.546,13.29l16.22,37.729c0,0,11.19-7.922,31.001-13.754
	c0.875-26.007,7.683-41.645,13.458-50.333l4.33-6.514C164.372,47.767,147.715,59.769,147.715,59.769z"/>
<path style="fill:#FAE076;" d="M114.041,14.796L66.972,29.593c9.647,14.511,18.723,37.6,18.723,73.111c0,75.796,0,299.14,0,299.14
	l29.771,12.127l26.923-12.127c0,0,0-223.344,0-299.14c0-35.51,9.075-58.599,18.723-73.111L114.041,14.796z"/>
<g>
	<path style="fill:#EDBD4E;" d="M116.6,401.844c0,0,0-223.344,0-299.14c0-35.51-9.075-58.599-18.723-73.111l31.616-9.939
		l-15.453-4.857L66.972,29.593c9.647,14.511,18.723,37.6,18.723,73.111c0,75.796,0,299.14,0,299.14l29.771,12.127l14.676-6.611
		L116.6,401.844z"/>
	<path style="fill:#EDBD4E;" d="M161.11,0H66.972C58.8,0,52.175,6.625,52.175,14.796S58.8,29.593,66.972,29.593h94.138
		c8.172,0,14.796-6.624,14.796-14.796S169.282,0,161.11,0z"/>
</g>
<path style="fill:#D99D2E;" d="M83.081,14.796C83.081,6.625,89.706,0,97.877,0H66.972C58.8,0,52.175,6.625,52.175,14.796
	S58.8,29.593,66.972,29.593h30.905C89.706,29.593,83.081,22.969,83.081,14.796z"/>
<path style="fill:#EDBD4E;" d="M272.42,401.844H85.694c-22.834,0-41.345,18.511-41.345,41.345v34.41l134.709,17.2l134.708-17.2
	v-34.41C313.765,420.355,295.254,401.844,272.42,401.844z"/>
<path style="fill:#D99D2E;" d="M75.254,477.6v-34.411c0-22.835,18.511-41.345,41.345-41.345H85.694
	c-22.835,0-41.345,18.511-41.345,41.345V477.6l134.709,17.2l15.453-1.973L75.254,477.6z"/>
<g>
	<path style="fill:#596674;" d="M115.465,449.231c-4.267,0-7.726-3.459-7.726-7.726v-11.509c0-4.267,3.459-7.726,7.726-7.726
		s7.726,3.459,7.726,7.726v11.509C123.192,445.772,119.732,449.231,115.465,449.231z"/>
	<path style="fill:#596674;" d="M242.647,449.231c-4.268,0-7.726-3.459-7.726-7.726v-11.509c0-4.267,3.458-7.726,7.726-7.726
		c4.268,0,7.726,3.459,7.726,7.726v11.509C250.374,445.772,246.915,449.231,242.647,449.231z"/>
	<path style="fill:#596674;" d="M179.056,455.375c-8.348,0-16.188-3.494-21.512-9.586c-2.808-3.213-2.481-8.094,0.732-10.902
		c3.212-2.808,8.093-2.481,10.902,0.732c2.39,2.734,5.989,4.302,9.877,4.302c3.887,0,7.488-1.568,9.877-4.303
		c2.808-3.213,7.688-3.542,10.902-0.731c3.212,2.808,3.541,7.689,0.732,10.902C195.244,451.881,187.403,455.375,179.056,455.375z"/>
</g>
<path style="fill:#FAE076;" d="M313.765,477.6H44.349c-18.999,0-34.4,15.401-34.4,34.4l0,0h338.217l0,0
	C348.165,493.001,332.763,477.6,313.765,477.6z"/>
<g>
	<path style="fill:#EDBD4E;" d="M75.254,477.6H44.349c-18.999,0-34.4,15.401-34.4,34.4l0,0h30.905l0,0
		C40.853,493.001,56.255,477.6,75.254,477.6z"/>
	<path style="fill:#EDBD4E;" d="M142.388,143.128H85.694c-8.172,0-14.796,6.624-14.796,14.796l0,0
		c0,8.171,6.625,14.796,14.796,14.796h56.694c8.171,0,14.796-6.625,14.796-14.796l0,0
		C157.185,149.752,150.559,143.128,142.388,143.128z"/>
</g>
<path style="fill:#D99D2E;" d="M101.803,157.925c0-8.172,6.625-14.796,14.796-14.796H85.694c-8.172,0-14.796,6.624-14.796,14.796
	c0,8.171,6.625,14.796,14.796,14.796H116.6C108.427,172.721,101.803,166.096,101.803,157.925z"/>
<path style="fill:#EDBD4E;" d="M142.388,296.792H85.694c-8.172,0-14.796,6.624-14.796,14.797c0,8.172,6.625,14.796,14.796,14.796
	h56.694c8.171,0,14.796-6.624,14.796-14.796C157.185,303.416,150.559,296.792,142.388,296.792z"/>
<path style="fill:#D99D2E;" d="M101.803,311.589c0-8.172,6.625-14.797,14.796-14.797H85.694c-8.172,0-14.796,6.624-14.796,14.797
	c0,8.172,6.625,14.796,14.796,14.796H116.6C108.427,326.385,101.803,319.761,101.803,311.589z"/>
<g>
</g>
<g>
</g>
<g>
</g>
<g>
</g>
<g>
</g>
<g>
</g>
<g>
</g>
<g>
</g>
<g>
</g>
<g>
</g>
<g>
</g>
<g>
</g>
<g>
</g>
<g>
</g>
<g>
</g>
</svg>
