<?xml version="1.0" encoding="iso-8859-1"?>
<!-- Generator: Adobe Illustrator 19.0.0, SVG Export Plug-In . SVG Version: 6.00 Build 0)  -->
<svg version="1.1" id="Capa_1" xmlns="http://www.w3.org/2000/svg" xmlns:xlink="http://www.w3.org/1999/xlink" x="0px" y="0px"
	 viewBox="0 0 512 512" style="enable-background:new 0 0 512 512;" xml:space="preserve">
<circle style="fill:#596674;" cx="150.836" cy="361.171" r="150.829"/>
<g>
	<path style="fill:#364E66;" d="M257.488,254.514c-3.476-3.476-7.084-6.739-10.799-9.805
		c48.886,59.252,45.623,147.081-9.804,202.509s-143.257,58.69-202.509,9.805c3.066,3.716,6.328,7.323,9.804,10.798
		c58.904,58.904,154.405,58.904,213.308,0S316.391,313.418,257.488,254.514z"/>
	<polygon style="fill:#364E66;" points="257.488,254.514 228.35,243.421 203.423,268.348 211.95,300.052 243.654,308.579 
		268.581,283.651 	"/>
</g>
<circle style="fill:#EFEDEE;" cx="150.836" cy="361.171" r="106.665"/>
<path style="fill:#D2D2D2;" d="M226.255,285.746c-1.732-1.732-3.512-3.384-5.329-4.973c36.603,41.9,34.95,105.592-4.973,145.514
	s-103.615,41.575-145.514,4.973c1.588,1.817,3.241,3.597,4.973,5.329c41.654,41.654,109.189,41.654,150.843,0
	C267.909,394.936,267.909,327.4,226.255,285.746z"/>
<g>
	<path style="fill:#A1A1A1;" d="M268.785,368.894h-22.578c-4.267,0-7.726-3.459-7.726-7.726s3.459-7.726,7.726-7.726h22.578
		c4.267,0,7.726,3.459,7.726,7.726S273.052,368.894,268.785,368.894z"/>
	<path style="fill:#A1A1A1;" d="M234.238,452.299c-1.977,0-3.955-0.754-5.463-2.263l-15.966-15.966
		c-3.017-3.017-3.017-7.91,0-10.926c3.017-3.017,7.91-3.017,10.926,0l15.966,15.966c3.017,3.017,3.017,7.91,0,10.926
		C238.193,451.544,236.216,452.299,234.238,452.299z"/>
	<path style="fill:#A1A1A1;" d="M150.833,486.847c-4.267,0-7.726-3.459-7.726-7.726v-22.578c0-4.267,3.459-7.726,7.726-7.726
		c4.267,0,7.726,3.459,7.726,7.726v22.578C158.56,483.387,155.1,486.847,150.833,486.847z"/>
	<path style="fill:#A1A1A1;" d="M67.429,452.299c-1.977,0-3.955-0.754-5.463-2.263c-3.017-3.017-3.017-7.91,0-10.926l15.966-15.966
		c3.017-3.017,7.91-3.018,10.926,0c3.017,3.017,3.017,7.91,0,10.926l-15.965,15.967C71.384,451.544,69.406,452.299,67.429,452.299z"
		/>
	<path style="fill:#A1A1A1;" d="M55.46,368.894H32.883c-4.267,0-7.726-3.459-7.726-7.726s3.459-7.726,7.726-7.726h22.578
		c4.267,0,7.726,3.459,7.726,7.726S59.727,368.894,55.46,368.894z"/>
	<path style="fill:#A1A1A1;" d="M83.394,301.455c-1.977,0-3.955-0.754-5.463-2.263l-15.966-15.965
		c-3.017-3.017-3.017-7.909,0-10.926c3.017-3.017,7.91-3.018,10.926,0l15.966,15.966c3.017,3.017,3.017,7.909,0,10.926
		C87.349,300.701,85.372,301.455,83.394,301.455z"/>
	<path style="fill:#A1A1A1;" d="M150.833,273.521c-4.267,0-7.726-3.459-7.726-7.726v-22.578c0-4.267,3.459-7.726,7.726-7.726
		c4.267,0,7.726,3.459,7.726,7.726v22.578C158.56,270.062,155.1,273.521,150.833,273.521z"/>
</g>
<g>
	<path style="fill:#596674;" d="M125.691,309.307c-1.977,0-3.954-0.754-5.463-2.262c-3.017-3.017-3.017-7.91,0-10.927l7.667-7.667
		c3.018-3.017,7.909-3.017,10.927,0c3.017,3.017,3.017,7.91,0,10.927l-7.667,7.667C129.644,308.552,127.668,309.307,125.691,309.307
		z"/>
	<path style="fill:#596674;" d="M210.413,394.029c-1.977,0-3.955-0.754-5.463-2.263c-3.017-3.017-3.017-7.91,0-10.926l7.667-7.667
		c3.017-3.017,7.91-3.017,10.926,0c3.017,3.017,3.017,7.91,0,10.926l-7.667,7.667C214.368,393.275,212.39,394.029,210.413,394.029z"
		/>
	<path style="fill:#596674;" d="M177.805,361.631c-7.132,0-14.086-2.909-19.31-8.134c-5.652-5.651-8.595-13.328-8.075-21.062
		c0.285-4.258,3.971-7.478,8.226-7.191c4.258,0.285,7.477,3.969,7.191,8.226c-0.22,3.285,1.086,6.602,3.584,9.101
		c2.498,2.498,5.813,3.802,9.101,3.584c4.262-0.277,7.941,2.934,8.227,7.192c0.286,4.258-2.934,7.941-7.192,8.227
		C178.974,361.613,178.389,361.631,177.805,361.631z"/>
</g>
<path style="fill:#A1A1A1;" d="M142.632,395.877l-26.515-26.515c-5.891-5.891-15.44-5.891-21.33,0c-5.891,5.891-5.891,15.44,0,21.33
	l26.515,26.515c5.891,5.891,15.44,5.891,21.33,0C148.521,411.317,148.521,401.767,142.632,395.877z"/>
<polygon style="fill:#596674;" points="378.044,133.949 344.212,127.561 315.25,156.521 320.881,191.121 355.481,196.752 
	384.441,167.79 "/>
<polygon style="fill:#364E66;" points="378.044,133.949 365.792,131.635 369.872,153.222 340.911,182.183 318.841,178.591 
	320.881,191.121 355.481,196.752 384.441,167.79 "/>
<polygon style="fill:#596674;" points="320.881,191.121 286.281,185.491 257.32,214.451 265.186,246.816 297.551,254.682 
	326.511,225.721 "/>
<polygon style="fill:#364E66;" points="320.881,191.121 308.351,189.082 311.942,211.152 282.981,240.112 262.338,235.095 
	265.186,246.816 297.551,254.682 326.511,225.721 "/>
<rect x="242.462" y="220.602" transform="matrix(-0.7071 0.7071 -0.7071 -0.7071 624.9825 239.2248)" style="fill:#D2D2D2;" width="40.969" height="56.896"/>
<rect x="255.298" y="251.578" transform="matrix(-0.7071 0.7071 -0.7071 -0.7071 655.9674 252.0493)" style="fill:#A1A1A1;" width="40.969" height="20.603"/>
<rect x="300.396" y="162.675" transform="matrix(-0.7071 0.7071 -0.7071 -0.7071 682.9216 99.3706)" style="fill:#D2D2D2;" width="40.969" height="56.896"/>
<rect x="313.225" y="193.651" transform="matrix(-0.7071 0.7071 -0.7071 -0.7071 713.8941 112.2001)" style="fill:#A1A1A1;" width="40.969" height="20.603"/>
<polygon style="fill:#D2D2D2;" points="413.411,138.822 384.441,167.79 344.212,127.561 373.18,98.591 417.797,94.196 "/>
<polygon style="fill:#A1A1A1;" points="417.797,94.196 401.64,95.788 398.842,124.252 369.872,153.222 384.441,167.79 
	413.411,138.822 "/>
<path style="fill:#596674;" d="M484.541,27.461c-5.055-5.055-8.972-11.786-11.91-18.31c-4.434-9.844-17.279-12.291-24.914-4.656
	L388.841,63.37l-15.666,35.218l40.23,40.23l35.218-15.666l58.873-58.873c7.628-7.628,5.2-20.475-4.637-24.905
	C496.333,36.436,489.599,32.519,484.541,27.461z"/>
<path style="fill:#364E66;" d="M502.859,39.375c-1.871-0.843-3.756-1.776-5.618-2.784c0.692,4.569-0.644,9.447-4.315,13.118
	l-58.873,58.873l-35.218,15.666l14.569,14.569l35.218-15.666l58.873-58.873C515.124,56.651,512.697,43.805,502.859,39.375z"/>
<g>
</g>
<g>
</g>
<g>
</g>
<g>
</g>
<g>
</g>
<g>
</g>
<g>
</g>
<g>
</g>
<g>
</g>
<g>
</g>
<g>
</g>
<g>
</g>
<g>
</g>
<g>
</g>
<g>
</g>
</svg>
