<?xml version="1.0" encoding="iso-8859-1"?>
<!-- Generator: Adobe Illustrator 19.0.0, SVG Export Plug-In . SVG Version: 6.00 Build 0)  -->
<svg version="1.1" id="Capa_1" xmlns="http://www.w3.org/2000/svg" xmlns:xlink="http://www.w3.org/1999/xlink" x="0px" y="0px"
	 viewBox="0 0 512 512" style="enable-background:new 0 0 512 512;" xml:space="preserve">
<path style="fill:#D2D2D2;" d="M107.579,183.597c-7.975-7.975-7.975-20.903,0-28.877c7.975-7.975,20.903-7.975,28.877,0
	c-7.975-7.975-7.975-20.903,0-28.877c7.975-7.975,20.903-7.975,28.877,0c-7.975-7.975-7.975-20.903,0-28.877
	c7.975-7.975,20.903-7.975,28.877,0c-7.975-7.975-7.975-20.903,0-28.877c7.975-7.974,20.903-7.975,28.877,0
	c-7.975-7.975-7.975-20.903,0-28.877c7.975-7.975,20.903-7.975,28.877,0l126.654,94.171l94.171,126.654
	c7.975,7.975,7.975,20.903,0,28.877c-7.975,7.975-20.903,7.975-28.877,0c7.975,7.975,7.975,20.903,0,28.877
	c-7.975,7.974-20.903,7.975-28.877,0c7.975,7.975,7.975,20.903,0,28.877c-7.975,7.975-20.903,7.975-28.877,0
	c7.975,7.975,7.975,20.903,0,28.877c-7.975,7.975-20.903,7.975-28.877,0c7.975,7.975,7.975,20.903,0,28.877
	c-7.975,7.974-20.903,7.975-28.877,0L201.75,310.25L107.579,183.597z"/>
<path style="fill:#1C9C61;" d="M177.427,291.828C153.541,342.877-52.132,434.84,12.514,499.486s156.608-141.027,207.659-164.913
	L177.427,291.828z"/>
<path style="fill:#A1A1A1;" d="M472.79,260.034l-94.17-126.654L251.965,39.21c-7.975-7.975-20.903-7.975-28.877,0
	c-0.204,0.204-0.379,0.423-0.573,0.634c2.358,6.416,6.097,12.435,11.239,17.578l220.823,220.823
	c5.143,5.143,11.162,8.88,17.578,11.239c0.21-0.194,0.43-0.369,0.634-0.573C480.764,280.937,480.764,268.008,472.79,260.034z"/>
<path style="fill:#58B78C;" d="M505.273,227.551L284.449,6.727c-8.97-8.97-23.513-8.97-32.483,0l0,0
	c-8.97,8.97-8.97,23.513,0,32.483L472.79,260.033c8.97,8.97,23.513,8.97,32.483,0l0,0
	C514.242,251.064,514.242,236.521,505.273,227.551z"/>
<path style="fill:#A1A1A1;" d="M125.791,165.386c-5.143-5.143-11.162-8.88-17.578-11.239c-0.21,0.193-0.43,0.369-0.634,0.573
	c-7.975,7.975-7.975,20.903,0,28.877L201.75,310.25l126.654,94.17c7.975,7.975,20.903,7.975,28.877,0
	c0.203-0.204,0.379-0.423,0.573-0.634c-2.358-6.416-6.097-12.435-11.239-17.578L125.791,165.386z"/>
<path style="fill:#58B78C;" d="M328.403,404.421L107.579,183.597c-8.97-8.97-23.513-8.97-32.483,0l0,0
	c-8.97,8.97-8.97,23.513,0,32.483L295.92,436.903c8.97,8.97,23.513,8.97,32.483,0l0,0
	C337.373,427.933,337.373,413.39,328.403,404.421z"/>
<g>
	<path style="fill:#596674;" d="M227.819,164.63c-1.977,0-3.955-0.754-5.463-2.263c-3.017-3.017-3.017-7.91,0-10.926l11.517-11.517
		c3.017-3.017,7.91-3.017,10.926,0c3.017,3.017,3.017,7.91,0,10.926l-11.517,11.517C231.774,163.876,229.797,164.63,227.819,164.63z
		"/>
	<path style="fill:#596674;" d="M355.096,291.907c-1.977,0-3.955-0.754-5.463-2.263c-3.017-3.017-3.017-7.91,0-10.926L361.15,267.2
		c3.017-3.017,7.91-3.017,10.926,0c3.017,3.017,3.017,7.91,0,10.926l-11.517,11.517
		C359.051,291.152,357.074,291.907,355.096,291.907z"/>
	<path style="fill:#596674;" d="M306.11,243.236c-9.686,0-19.145-3.965-26.263-11.083c-7.699-7.7-11.709-18.136-11.003-28.638
		c0.285-4.258,3.973-7.482,8.226-7.191c4.258,0.285,7.477,3.969,7.191,8.226c-0.407,6.052,1.968,12.13,6.513,16.676
		s10.624,6.915,16.675,6.512c4.249-0.294,7.941,2.933,8.226,7.191c0.286,4.258-2.934,7.941-7.191,8.226
		C307.692,243.21,306.9,243.236,306.11,243.236z"/>
</g>
<g>
</g>
<g>
</g>
<g>
</g>
<g>
</g>
<g>
</g>
<g>
</g>
<g>
</g>
<g>
</g>
<g>
</g>
<g>
</g>
<g>
</g>
<g>
</g>
<g>
</g>
<g>
</g>
<g>
</g>
</svg>
