<?xml version="1.0" encoding="iso-8859-1"?>
<!-- Generator: Adobe Illustrator 19.0.0, SVG Export Plug-In . SVG Version: 6.00 Build 0)  -->
<svg version="1.1" id="Capa_1" xmlns="http://www.w3.org/2000/svg" xmlns:xlink="http://www.w3.org/1999/xlink" x="0px" y="0px"
	 viewBox="0 0 512 512" style="enable-background:new 0 0 512 512;" xml:space="preserve">
<g>
	<path style="fill:#596674;" d="M296.862,213.047c-1.978,0-3.955-0.754-5.464-2.263l-56.599-56.6c-3.017-3.017-3.017-7.909,0-10.926
		c3.019-3.017,7.911-3.016,10.927,0l56.599,56.6c3.017,3.017,3.017,7.91,0,10.926C300.817,212.292,298.839,213.047,296.862,213.047z
		"/>
	<path style="fill:#596674;" d="M246.156,255.237c-1.977,0-3.955-0.754-5.464-2.263l-45.883-45.882
		c-3.017-3.017-3.017-7.91,0-10.927c3.017-3.017,7.909-3.018,10.927,0l45.883,45.882c3.017,3.017,3.017,7.909,0,10.926
		C250.111,254.483,248.133,255.237,246.156,255.237z"/>
	<path style="fill:#596674;" d="M378.723,81.472c-1.977,0-3.955-0.754-5.464-2.263l-50.567-50.567
		c-3.017-3.017-3.017-7.909,0-10.926c3.018-3.017,7.91-3.017,10.927,0l50.567,50.567c3.017,3.017,3.017,7.909,0,10.926
		C382.677,80.718,380.7,81.472,378.723,81.472z"/>
	<path style="fill:#596674;" d="M339.949,149.416c-1.977,0-3.955-0.754-5.464-2.263l-54.964-54.964
		c-3.017-3.017-3.017-7.909,0-10.926c3.018-3.017,7.91-3.017,10.927,0l54.964,54.964c3.017,3.017,3.017,7.909,0,10.926
		C343.904,148.661,341.926,149.416,339.949,149.416z"/>
</g>
<circle style="fill:#FD6F71;" cx="328.154" cy="23.178" r="23.178"/>
<path style="fill:#F74F50;" d="M350.158,15.894c-1.098,3.327-2.966,6.458-5.612,9.105c-9.051,9.051-23.727,9.051-32.778,0
	c-2.648-2.648-4.514-5.777-5.612-9.105c-2.659,8.051-0.791,17.27,5.612,23.674c9.051,9.051,23.727,9.051,32.778,0
	C350.949,33.164,352.816,23.944,350.158,15.894z"/>
<circle style="fill:#FD6F71;" cx="284.98" cy="86.721" r="23.178"/>
<path style="fill:#F74F50;" d="M306.986,79.44c-1.099,3.327-2.966,6.458-5.612,9.105c-9.051,9.051-23.727,9.051-32.778,0
	c-2.648-2.648-4.514-5.777-5.613-9.105c-2.658,8.051-0.791,17.269,5.613,23.674c9.051,9.051,23.727,9.051,32.778,0
	C307.777,96.71,309.644,87.491,306.986,79.44z"/>
<circle style="fill:#FD6F71;" cx="240.259" cy="148.717" r="20.248"/>
<path style="fill:#F74F50;" d="M259.145,141.437c-0.986,2.561-2.499,4.968-4.565,7.033c-7.908,7.908-20.728,7.908-28.636,0
	c-2.067-2.067-3.579-4.472-4.565-7.034c-2.789,7.242-1.276,15.761,4.565,21.603c7.908,7.908,20.728,7.908,28.636,0
	C260.421,157.197,261.933,148.679,259.145,141.437z"/>
<circle style="fill:#FD6F71;" cx="200.278" cy="201.627" r="20.248"/>
<path style="fill:#F74F50;" d="M219.156,194.344c-0.987,2.562-2.499,4.968-4.566,7.034c-7.908,7.908-20.728,7.908-28.636,0
	c-2.067-2.067-3.579-4.472-4.566-7.033c-2.789,7.242-1.276,15.761,4.566,21.602c7.908,7.908,20.728,7.908,28.636,0
	C220.433,210.104,221.945,201.586,219.156,194.344z"/>
<g>
	<path style="fill:#FD6F71;" d="M425.723,87.967l-63.044-30.266c-13.782,18.491-27.991,40.337-43.444,63.275l20.35,53.13
		l53.13,20.35c22.937-15.453,44.784-29.662,63.275-43.444L425.723,87.967z"/>
	<path style="fill:#FD6F71;" d="M330.655,239.114l-10.081-45.999l-45.999-10.081c-13.83,17.379-33.267,37.838-44.508,48.388
		l11.782,40.417l40.417,11.782C292.817,272.381,313.276,252.944,330.655,239.114z"/>
</g>
<path style="fill:#F74F50;" d="M284.358,281.422c3.377-3.513,6.838-6.944,10.331-10.342c9.417-9.138,19.125-17.994,29.184-26.421
	c2.179-1.825,4.505-3.733,6.782-5.544l-4.85-22.13c-0.322,0.246-0.648,0.486-0.97,0.732c-3.017,2.314-5.938,4.584-8.748,6.829
	c-17.379,13.83-37.838,33.267-48.388,44.508c-2.633,2.807-5.076,5.533-7.346,8.181l21.915,6.388
	C282.926,282.92,283.625,282.184,284.358,281.422z"/>
<path style="fill:#FA9F6A;" d="M282.267,283.622l-52.199-52.199c-14.693,13.782-27.198,22.42-37.541,27.75L205.9,307.79
	l48.617,13.373C259.847,310.819,268.485,298.315,282.267,283.622z"/>
<path style="fill:#EA7F49;" d="M239.948,306.593c-1.734,3.363-3.113,6.495-4.209,9.405l18.778,5.164
	c0.754-1.464,1.583-2.976,2.476-4.527c6.925-12.036,15.797-22.91,25.274-33.014l-14.569-14.569
	C253.917,283.746,245.278,296.25,239.948,306.593z"/>
<path style="fill:#FD6F71;" d="M235.143,485.687c-43.278,43.278-124.739,31.996-181.938-25.202s-68.48-138.659-25.202-181.938
	c15.273-15.273,35.297-23.752,57.343-25.816c22.04-2.057,46.082,2.292,69.399,12.684c0.22,0.097,0.435,0.2,0.649,0.291
	c2.831,1.16,15.1,4.826,37.133-6.531l61.99,61.99c-11.358,22.032-7.691,34.302-6.531,37.133c0.09,0.214,0.194,0.429,0.291,0.649
	C269.052,405.572,265.689,455.14,235.143,485.687z"/>
<path style="fill:#F74F50;" d="M441.42,136.442c-18.491,13.782-40.337,27.991-63.275,43.444c-2.807,1.893-5.636,3.812-8.472,5.743
	l23.041,8.826c9.193-6.185,18.419-12.324,27.612-18.508c12.036-8.096,24.03-16.266,35.662-24.936l-9.013-18.775
	C445.158,133.634,443.309,135.035,441.42,136.442z"/>
<g>
	<path style="fill:#FA9F6A;" d="M392.714,194.455c-17.469,11.779-35.579,24.27-53.311,37.83c-3.017,2.313-5.938,4.584-8.748,6.829
		l-56.08-56.08c2.244-2.81,4.515-5.731,6.829-8.748c13.56-17.731,26.051-35.842,37.83-53.311L392.714,194.455z"/>
	<path style="fill:#FA9F6A;" d="M73.919,439.771c-23.18-23.18-38.089-51.412-41.979-79.494
		c-3.472-25.056,2.487-46.726,16.776-61.016s35.959-20.248,61.016-16.777c28.083,3.889,56.314,18.798,79.494,41.979
		c23.18,23.18,38.089,51.411,41.978,79.494c3.472,25.057-2.487,46.727-16.777,61.016c-14.29,14.29-35.958,20.248-61.016,16.776
		C125.33,477.86,97.099,462.951,73.919,439.771z"/>
</g>
<g>
	<path style="fill:#596674;" d="M96.646,331.243c-1.978,0-3.955-0.754-5.464-2.263c-3.017-3.017-3.017-7.91,0.001-10.927
		l8.464-8.463c3.017-3.017,7.91-3.016,10.926,0c3.017,3.017,3.017,7.91-0.001,10.927l-8.464,8.463
		C100.601,330.489,98.623,331.243,96.646,331.243z"/>
	<path style="fill:#596674;" d="M190.172,424.77c-1.978,0-3.955-0.754-5.464-2.263c-3.017-3.017-3.017-7.91,0.001-10.927
		l8.464-8.464c3.017-3.017,7.91-3.016,10.926,0c3.017,3.017,3.017,7.91-0.001,10.927l-8.464,8.464
		C194.127,424.015,192.149,424.77,190.172,424.77z"/>
	<path style="fill:#596674;" d="M154.176,389.006c-7.66,0-15.132-3.129-20.749-8.744c-6.074-6.074-9.238-14.322-8.681-22.629
		c0.284-4.258,3.97-7.48,8.226-7.192c4.258,0.285,7.477,3.968,7.192,8.226c-0.259,3.859,1.268,7.747,4.19,10.669
		c2.922,2.922,6.823,4.447,10.666,4.19c4.252-0.285,7.941,2.934,8.227,7.191c0.285,4.258-2.934,7.941-7.191,8.227
		C155.43,388.985,154.802,389.006,154.176,389.006z"/>
</g>
<path style="fill:#FD6F71;" d="M131.87,417.82l-36-36c-5.503-5.503-14.425-5.503-19.928,0c-5.503,5.503-5.503,14.425,0,19.928l36,36
	c5.503,5.503,14.425,5.503,19.928,0S137.373,423.322,131.87,417.82z"/>
<path style="fill:#F74F50;" d="M260.955,428.346c2.219-23.721-3.041-47.768-12.679-69.402c-1.662-3.729-1.952-7.986-1.718-12.015
	c0.359-6.175,2.281-14.751,7.96-25.768l-14.569-14.569c-11.359,22.032-7.692,34.303-6.532,37.134
	c0.09,0.214,0.194,0.429,0.291,0.649c20.776,46.627,17.413,96.196-13.133,126.742c-41.425,41.426-117.828,32.857-174.445-18.098
	c2.522,2.269,4.67,5.06,7.076,7.466c16.052,16.052,34.928,29.401,55.724,38.576c13.092,5.777,26.962,9.9,41.159,11.791
	c32.669,4.354,63.568-3.679,85.056-25.165C250.416,470.414,258.893,450.385,260.955,428.346z"/>
<path style="fill:#EA7F49;" d="M330.655,239.114L330.655,239.114c2.81-2.244,5.731-4.515,8.748-6.829
	c17.732-13.56,35.842-26.051,53.311-37.83l-14.569-14.569c-17.469,11.779-35.579,24.27-53.311,37.83
	c-3.017,2.314-5.938,4.584-8.748,6.829l0,0L330.655,239.114z"/>
<path style="fill:#FA9F6A;" d="M455.989,151.011l-93.31-93.31C400.938,6.31,435.82-19.292,484.401,29.289
	S507.379,112.752,455.989,151.011z"/>
<path style="fill:#EA7F49;" d="M510.296,78.122c-0.226-14.994-8.051-30.989-25.895-48.834c-2.431-2.431-4.94-4.777-7.536-7.031
	c38.776,44.713,13.247,77.934-35.445,114.184l14.569,14.569c10.306-7.672,20.399-15.73,29.517-24.802
	C498.365,113.416,510.583,97.139,510.296,78.122z"/>
<circle style="fill:#596674;" cx="448.5" cy="65.19" r="19.204"/>
<g>
</g>
<g>
</g>
<g>
</g>
<g>
</g>
<g>
</g>
<g>
</g>
<g>
</g>
<g>
</g>
<g>
</g>
<g>
</g>
<g>
</g>
<g>
</g>
<g>
</g>
<g>
</g>
<g>
</g>
</svg>
