<?xml version="1.0" encoding="iso-8859-1"?>
<!-- Generator: Adobe Illustrator 19.0.0, SVG Export Plug-In . SVG Version: 6.00 Build 0)  -->
<svg version="1.1" id="Capa_1" xmlns="http://www.w3.org/2000/svg" xmlns:xlink="http://www.w3.org/1999/xlink" x="0px" y="0px"
	 viewBox="0 0 512.001 512.001" style="enable-background:new 0 0 512.001 512.001;" xml:space="preserve">
<path style="fill:#596674;" d="M101.181,443.996v55.269c0,7.034,5.702,12.736,12.736,12.736h76c7.034,0,12.736-5.702,12.736-12.736
	v-55.269H101.181z"/>
<path style="fill:#364E66;" d="M132.086,499.265v-55.269h-30.905v55.269c0,7.034,5.702,12.736,12.735,12.736h30.905
	C137.788,512,132.086,506.298,132.086,499.265z"/>
<path style="fill:#596674;" d="M441.377,443.996v55.269c0,7.034-5.702,12.736-12.736,12.736h-76
	c-7.034,0-12.736-5.702-12.736-12.736v-55.269H441.377z"/>
<path style="fill:#364E66;" d="M370.812,499.265v-55.269h-30.905v55.269c0,7.034,5.702,12.736,12.736,12.736h30.905
	C376.513,512,370.812,506.298,370.812,499.265z"/>
<path style="fill:#85CDEA;" d="M480.924,426.722L391.965,31.688C387.793,13.162,371.337,0,352.346,0H190.212
	c-18.99,0-35.445,13.162-39.618,31.688l-88.96,395.033c-5.708,25.346,13.566,49.443,39.547,49.443h340.197
	C467.358,476.164,486.631,452.067,480.924,426.722z"/>
<path style="fill:#4FB6E0;" d="M82.238,426.722l88.959-395.033C175.369,13.162,191.824,0,210.816,0h-20.604
	c-18.99,0-35.445,13.162-39.618,31.688l-88.96,395.033c-5.708,25.347,13.566,49.443,39.547,49.443h20.604
	C95.804,476.164,76.531,452.068,82.238,426.722z"/>
<g>
	<path style="fill:#596674;" d="M180.361,403.347c-4.268,0-7.726-3.459-7.726-7.726v-16.455c0-4.267,3.458-7.726,7.726-7.726
		c4.268,0,7.726,3.459,7.726,7.726v16.455C188.088,399.887,184.63,403.347,180.361,403.347z"/>
	<path style="fill:#596674;" d="M362.198,403.347c-4.268,0-7.726-3.459-7.726-7.726v-16.455c0-4.267,3.458-7.726,7.726-7.726
		c4.268,0,7.726,3.459,7.726,7.726v16.455C369.924,399.887,366.465,403.347,362.198,403.347z"/>
	<path style="fill:#596674;" d="M271.279,412.129c-10.975,0-21.273-4.581-28.257-12.569c-2.809-3.213-2.481-8.094,0.731-10.902
		c3.213-2.808,8.094-2.481,10.902,0.732c4.049,4.631,10.107,7.286,16.623,7.286c6.516,0,12.575-2.656,16.622-7.286
		c2.81-3.214,7.69-3.541,10.902-0.732c3.213,2.808,3.542,7.689,0.733,10.902C292.554,407.548,282.255,412.129,271.279,412.129z"/>
	<polygon style="fill:#596674;" points="350.522,42.892 293.723,42.892 271.279,238.082 293.723,321.764 413.327,321.764 	"/>
	<polygon style="fill:#596674;" points="248.836,42.892 192.036,42.892 129.232,321.764 248.836,321.764 271.279,238.082 	"/>
</g>
<polygon style="fill:#364E66;" points="192.036,42.892 129.232,321.764 160.137,321.764 222.942,42.892 "/>
<path style="fill:#D2D2D2;" d="M293.723,321.764L71.186,77.297c-9.225-9.225-24.183-9.225-33.409,0s-9.225,24.184,0,33.409
	l211.058,211.058H293.723z"/>
<rect x="248.83" y="42.892" style="fill:#EFEDEE;" width="44.886" height="278.87"/>
<polygon style="fill:#A1A1A1;" points="63.73,136.657 106.277,179.205 136.47,149.013 100.766,109.791 "/>
<path style="fill:#596674;" d="M96.869,73.019l-63.368,63.368c-5.92,5.92-3.889,15.962,3.867,19.115l34.769,14.135l57.984-57.984
	l-14.135-34.769C112.831,69.131,102.79,67.1,96.869,73.019z"/>
<g>
</g>
<g>
</g>
<g>
</g>
<g>
</g>
<g>
</g>
<g>
</g>
<g>
</g>
<g>
</g>
<g>
</g>
<g>
</g>
<g>
</g>
<g>
</g>
<g>
</g>
<g>
</g>
<g>
</g>
</svg>
