<?xml version="1.0" encoding="iso-8859-1"?>
<!-- Generator: Adobe Illustrator 19.0.0, SVG Export Plug-In . SVG Version: 6.00 Build 0)  -->
<svg version="1.1" id="Capa_1" xmlns="http://www.w3.org/2000/svg" xmlns:xlink="http://www.w3.org/1999/xlink" x="0px" y="0px"
	 viewBox="0 0 512 512" style="enable-background:new 0 0 512 512;" xml:space="preserve">
<g>
	<polygon style="fill:#FAE076;" points="62.581,327.047 27.991,361.638 67.616,444.384 150.362,484.009 184.953,449.419 
		152.142,353.242 	"/>
	<polygon style="fill:#FAE076;" points="361.638,27.991 327.047,62.581 353.242,152.142 449.419,184.953 484.009,150.362 
		444.384,67.616 	"/>
</g>
<g>
	<path style="fill:#FD6F71;" d="M27.983,115.781L396.22,484.018c14.262,14.262,37.39,14.262,51.652,0l36.146-36.146
		c14.262-14.262,14.262-37.39,0-51.652L115.781,27.983c-14.262-14.262-37.39-14.262-51.652,0L27.983,64.129
		C13.721,78.39,13.721,101.519,27.983,115.781z"/>
	<path style="fill:#FD6F71;" d="M27.991,361.638l122.371,122.371l-17.295,17.295c-14.262,14.262-37.39,14.262-51.652,0
		l-70.719-70.719c-14.262-14.262-14.262-37.39,0-51.652L27.991,361.638z"/>
</g>
<rect x="138.566" y="193.911" transform="matrix(0.7071 0.7071 -0.7071 0.7071 255.9958 -106.0404)" style="fill:#F74F50;" width="234.869" height="124.167"/>
<g>
	
		<rect x="169.466" y="68.997" transform="matrix(0.7071 0.7071 -0.7071 0.7071 255.9979 -106.0353)" style="fill:#FD6F71;" width="173.058" height="374.004"/>
	<path style="fill:#FD6F71;" d="M430.585,10.696l70.719,70.719c14.262,14.262,14.262,37.39,0,51.652l-17.295,17.295L361.638,27.991
		l17.295-17.295C393.194-3.565,416.324-3.565,430.585,10.696z"/>
</g>
<g>
	<path style="fill:#596674;" d="M199.932,324.735c-1.977,0-3.954-0.754-5.463-2.263l-10.595-10.594
		c-3.017-3.017-3.017-7.909,0-10.927c3.018-3.017,7.909-3.017,10.927,0l10.594,10.594c3.018,3.017,3.018,7.909,0.001,10.927
		C203.886,323.98,201.908,324.735,199.932,324.735z"/>
	<path style="fill:#596674;" d="M317.008,207.658c-1.977,0-3.955-0.754-5.464-2.263L300.95,194.8c-3.017-3.017-3.017-7.91,0-10.927
		c3.018-3.017,7.91-3.017,10.927,0l10.594,10.594c3.017,3.017,3.017,7.91,0,10.927C320.963,206.904,318.985,207.658,317.008,207.658
		z"/>
	<path style="fill:#596674;" d="M244.991,279.964c-0.741,0-1.482-0.025-2.225-0.075c-4.258-0.286-7.477-3.969-7.191-8.227
		s3.997-7.474,8.227-7.191c5.383,0.363,10.803-1.755,14.86-5.81c4.054-4.054,6.171-9.469,5.809-14.858
		c-0.285-4.258,2.934-7.941,7.191-8.227c4.253-0.286,7.941,2.934,8.227,7.191c0.661,9.838-3.094,19.614-10.301,26.822
		C262.924,276.252,254.064,279.964,244.991,279.964z"/>
</g>
<g>
</g>
<g>
</g>
<g>
</g>
<g>
</g>
<g>
</g>
<g>
</g>
<g>
</g>
<g>
</g>
<g>
</g>
<g>
</g>
<g>
</g>
<g>
</g>
<g>
</g>
<g>
</g>
<g>
</g>
</svg>
