<?xml version="1.0" encoding="iso-8859-1"?>
<!-- Generator: Adobe Illustrator 19.0.0, SVG Export Plug-In . SVG Version: 6.00 Build 0)  -->
<svg version="1.1" id="Capa_1" xmlns="http://www.w3.org/2000/svg" xmlns:xlink="http://www.w3.org/1999/xlink" x="0px" y="0px"
	 viewBox="0 0 511.986 511.986" style="enable-background:new 0 0 511.986 511.986;" xml:space="preserve">
<path style="fill:#85CDEA;" d="M278.319,256.825l-8,8c-3.5,3.5-3.5,9.2,0,12.7l108.6,108.6l20.7-20.7l-108.6-108.6
	C287.519,253.325,281.819,253.325,278.319,256.825z"/>
<path style="fill:#4FB6E0;" d="M347.119,313.025c3.6,13.5,3.5,27.8-0.1,41.3l31.9,31.9l20.7-20.7L347.119,313.025z"/>
<path style="fill:#85CDEA;" d="M239.919,295.225l-8,8c-3.5,3.5-3.5,9.2,0,12.7l126.6,126.6l20.7-20.7l-126.6-126.6
	C249.119,291.725,243.419,291.725,239.919,295.225z"/>
<path style="fill:#4FB6E0;" d="M379.219,421.825l-43.3-43.3c-2.7,4-5.8,7.8-9.4,11.3c-3.5,3.5-7.3,6.6-11.3,9.4l43.3,43.3
	L379.219,421.825z"/>
<path style="fill:#85CDEA;" d="M201.519,333.625l-8,8c-3.5,3.5-3.5,9.2,0,12.7l108.6,108.7l20.7-20.7l-108.6-108.7
	C210.719,330.125,205.019,330.125,201.519,333.625z"/>
<path style="fill:#4FB6E0;" d="M322.819,442.325l-31.9-31.9c-6.7,1.8-13.7,2.8-20.9,2.8c-7,0-13.8-0.9-20.4-2.6l52.5,52.5
	L322.819,442.325z"/>
<path style="fill:#85CDEA;" d="M88.119,427.525l-20.2,10.5l13.9,18c11,1.1,24.4,5.9,39.7,12.2l18.9-12.1l-12.1-19.4L88.119,427.525z
	"/>
<g>
	<path style="fill:#4FB6E0;" d="M386.519,274.625c-2.4,2.4-5.5,3.9-9.1,4.2c-28.5,2.4-68.8,25.8-102.4,59.5
		c-33.3,33.3-56,71.8-59.3,100.6c-0.9,8-8.2,13.8-16.2,12.9s-13.8-8.2-12.9-16.2c4.1-35.6,29.4-79.7,67.7-118
		c39.5-39.5,84.6-64.9,120.7-67.9c8.1-0.7,15.1,5.3,15.8,13.3C391.119,267.525,389.419,271.625,386.519,274.625z"/>
	<path style="fill:#4FB6E0;" d="M323.419,30.325c0,0,8.3,64.8,49.7,106.2s170.6,172.9,21.8,321.7c-97.4,97.4-204.6,38.2-273.3,10
		l6.9-31.5l68.2,15.5l66.8,1l76.6-14.5l42.1-53.1l7.6-71.1l-38.8-78.6l-42.8-22.1l-19.3,6.9c-41.4-41.4-106.2-49.7-106.2-49.7
		l60.9-83.5L323.419,30.325z"/>
</g>
<g>
	<path style="fill:#85CDEA;" d="M368.819,432.225c-54.5,54.5-143.1,54.5-197.5,0s-54.5-143.1,0-197.5c54.5-54.5,143.1-54.5,197.5,0
		S423.319,377.725,368.819,432.225z M195.419,258.825c-41.1,41.1-41.1,108.1,0,149.2s108.1,41.1,149.2,0s41.1-108.1,0-149.2
		C303.519,217.625,236.619,217.625,195.419,258.825z"/>
	<path style="fill:#85CDEA;" d="M304.119,4.725l-147.1,147c-6.2,6.2-6.2,16.3,0,22.5s16.3,6.2,22.5,0l147.1-147
		c6.2-6.2,6.2-16.3,0-22.5C320.319-1.575,310.319-1.575,304.119,4.725z"/>
</g>
<path style="fill:#4FB6E0;" d="M75.819,407.025c-9.7-2.8-19.7,3.2-21.9,13.1l-6.2,28.5c-2,9,3.4,17.9,12.2,20.5
	c9.7,2.8,19.7-3.2,21.9-13.1l6.2-28.5C90.019,418.525,84.719,409.525,75.819,407.025z"/>
<g>
</g>
<g>
</g>
<g>
</g>
<g>
</g>
<g>
</g>
<g>
</g>
<g>
</g>
<g>
</g>
<g>
</g>
<g>
</g>
<g>
</g>
<g>
</g>
<g>
</g>
<g>
</g>
<g>
</g>
</svg>
