<?xml version="1.0" encoding="iso-8859-1"?>
<!-- Generator: Adobe Illustrator 19.0.0, SVG Export Plug-In . SVG Version: 6.00 Build 0)  -->
<svg version="1.1" id="Capa_1" xmlns="http://www.w3.org/2000/svg" xmlns:xlink="http://www.w3.org/1999/xlink" x="0px" y="0px"
	 viewBox="0 0 512 512" style="enable-background:new 0 0 512 512;" xml:space="preserve">
<path style="fill:#D2D2D2;" d="M451.212,497.231h21.393c21.756,0,39.395-17.639,39.395-39.395V54.16
	c0-21.756-17.639-39.395-39.395-39.395H39.395C17.639,14.765,0,32.403,0,54.16v403.676c0,21.756,17.639,39.395,39.395,39.395H161.87
	l144.67-108.746L451.212,497.231z"/>
<path style="fill:#A1A1A1;" d="M28.845,457.836V54.16c0-21.756,17.639-39.395,39.395-39.395H39.395C17.639,14.765,0,32.403,0,54.16
	v403.676c0,21.756,17.639,39.395,39.395,39.395H68.24C46.484,497.231,28.845,479.593,28.845,457.836z"/>
<circle style="fill:#FD6F71;" cx="95.364" cy="216.985" r="26.152"/>
<circle style="fill:#58B78C;" cx="202.461" cy="216.985" r="26.152"/>
<circle style="fill:#D99D2E;" cx="309.549" cy="216.985" r="26.152"/>
<circle style="fill:#4FB6E0;" cx="416.636" cy="216.985" r="26.152"/>
<g>
	<polygon style="fill:#D2D2D2;" points="277.607,279.739 219.739,279.739 190.805,388.485 219.739,497.231 277.607,497.231 
		306.541,388.485 	"/>
	<polygon style="fill:#D2D2D2;" points="393.344,279.739 335.475,279.739 306.541,388.485 335.475,497.231 393.344,497.231 
		422.277,388.485 	"/>
</g>
<g>
	<path style="fill:#EFEDEE;" d="M451.212,309.7v187.531h-57.868V279.739h27.896C437.798,279.739,451.212,293.152,451.212,309.7z"/>
	<rect x="277.603" y="279.744" style="fill:#EFEDEE;" width="57.865" height="217.492"/>
	<path style="fill:#EFEDEE;" d="M219.739,279.739v217.493H161.87V309.7c0-16.548,13.413-29.961,29.961-29.961H219.739z"/>
</g>
<g>
	<path style="fill:#596674;" d="M205.31,279.739v118.093c0,4.058,3.29,7.348,7.348,7.348h14.162c4.058,0,7.348-3.29,7.348-7.348
		V279.739H205.31z"/>
	<path style="fill:#596674;" d="M263.177,279.739v118.093c0,4.058,3.29,7.348,7.348,7.348h14.162c4.058,0,7.348-3.29,7.348-7.348
		V279.739H263.177z"/>
	<path style="fill:#596674;" d="M321.046,279.739v118.093c0,4.058,3.29,7.348,7.348,7.348h14.162c4.058,0,7.348-3.29,7.348-7.348
		V279.739H321.046z"/>
	<path style="fill:#596674;" d="M378.914,279.739v118.093c0,4.058,3.29,7.348,7.348,7.348h14.162c4.058,0,7.348-3.29,7.348-7.348
		V279.739H378.914z"/>
	<rect x="61.739" y="279.744" style="fill:#596674;" width="38.395" height="181.837"/>
</g>
<rect x="61.739" y="330.851" style="fill:#364E66;" width="38.395" height="35.263"/>
<path style="fill:#EFEDEE;" d="M104.109,315.394H57.761c-6.892,0-12.48,5.587-12.48,12.48c0,6.892,5.588,12.48,12.48,12.48h46.348
	c6.892,0,12.48-5.587,12.48-12.48C116.589,320.981,111.001,315.394,104.109,315.394z"/>
<path style="fill:#58B78C;" d="M145.06,60.22H62.092c-9.284,0-16.81,7.527-16.81,16.81v60.391c0,9.284,7.527,16.81,16.81,16.81
	h82.968c9.284,0,16.811-7.527,16.811-16.81V77.031C161.87,67.747,154.344,60.22,145.06,60.22z"/>
<path style="fill:#1C9C61;" d="M76.187,137.423V77.031c0-9.284,7.527-16.81,16.81-16.81H62.092c-9.284,0-16.81,7.527-16.81,16.81
	v60.392c0,9.284,7.527,16.811,16.81,16.811h30.905C83.714,154.234,76.187,146.707,76.187,137.423z"/>
<g>
	<path style="fill:#596674;" d="M240.414,118.483c-4.267,0-7.726-3.459-7.726-7.726V95.613c0-4.267,3.459-7.726,7.726-7.726
		s7.726,3.459,7.726,7.726v15.145C248.141,115.024,244.681,118.483,240.414,118.483z"/>
	<path style="fill:#596674;" d="M407.773,118.483c-4.267,0-7.726-3.459-7.726-7.726V95.613c0-4.267,3.459-7.726,7.726-7.726
		s7.726,3.459,7.726,7.726v15.145C415.5,115.024,412.04,118.483,407.773,118.483z"/>
	<path style="fill:#596674;" d="M324.094,126.567c-10.279,0-19.927-4.293-26.471-11.779c-2.808-3.213-2.481-8.094,0.732-10.902
		c3.213-2.807,8.094-2.481,10.902,0.732c3.609,4.128,9.015,6.496,14.836,6.496c5.82,0,11.227-2.367,14.837-6.496
		c2.808-3.213,7.689-3.54,10.902-0.731c3.213,2.808,3.541,7.689,0.731,10.902C344.02,122.274,334.372,126.567,324.094,126.567z"/>
</g>
<g>
</g>
<g>
</g>
<g>
</g>
<g>
</g>
<g>
</g>
<g>
</g>
<g>
</g>
<g>
</g>
<g>
</g>
<g>
</g>
<g>
</g>
<g>
</g>
<g>
</g>
<g>
</g>
<g>
</g>
</svg>
