<?xml version="1.0" encoding="iso-8859-1"?>
<!-- Generator: Adobe Illustrator 19.0.0, SVG Export Plug-In . SVG Version: 6.00 Build 0)  -->
<svg version="1.1" id="Capa_1" xmlns="http://www.w3.org/2000/svg" xmlns:xlink="http://www.w3.org/1999/xlink" x="0px" y="0px"
	 viewBox="0 0 512.001 512.001" style="enable-background:new 0 0 512.001 512.001;" xml:space="preserve">
<path style="fill:#EFEDEE;" d="M453.899,7.464H58.101C26.013,7.464,0,33.476,0,65.564v380.871c0,32.088,26.013,58.101,58.101,58.101
	H453.9c32.088,0,58.101-26.013,58.101-58.101V65.564C512,33.476,485.987,7.464,453.899,7.464z"/>
<path style="fill:#D2D2D2;" d="M28.845,446.436V65.564c0-32.088,26.013-58.1,58.101-58.1H58.101C26.013,7.464,0,33.476,0,65.564
	v380.871c0,32.088,26.013,58.101,58.101,58.101h28.845C54.858,504.537,28.845,478.525,28.845,446.436z"/>
<path style="fill:#58B78C;" d="M250.307,54.936H79.306c-15.584,0-28.217,12.633-28.217,28.217v47.945
	c0,15.584,12.633,28.217,28.217,28.217h171c15.584,0,28.217-12.633,28.217-28.217V83.153
	C278.524,67.569,265.891,54.936,250.307,54.936z"/>
<path style="fill:#1C9C61;" d="M71.693,131.097V83.153c0-15.584,12.633-28.217,28.217-28.217H79.306
	c-15.584,0-28.217,12.633-28.217,28.217v47.945c0,15.584,12.633,28.217,28.217,28.217H99.91
	C84.326,159.314,71.693,146.681,71.693,131.097z"/>
<g>
	<path style="fill:#596674;" d="M90.394,117.991c-4.268,0-7.726-3.459-7.726-7.726V96.797c0-4.267,3.458-7.726,7.726-7.726
		c4.268,0,7.726,3.459,7.726,7.726v13.468C98.121,114.532,94.662,117.991,90.394,117.991z"/>
	<path style="fill:#596674;" d="M239.219,117.991c-4.268,0-7.726-3.459-7.726-7.726V96.797c0-4.267,3.458-7.726,7.726-7.726
		c4.268,0,7.726,3.459,7.726,7.726v13.468C246.946,114.532,243.487,117.991,239.219,117.991z"/>
	<path style="fill:#596674;" d="M164.807,125.18c-9.388,0-18.202-3.925-24.185-10.767c-2.808-3.213-2.48-8.094,0.734-10.902
		c3.212-2.808,8.093-2.48,10.902,0.732c3.046,3.485,7.619,5.485,12.549,5.485c4.927,0,9.502-2,12.55-5.485
		c2.808-3.212,7.689-3.541,10.902-0.731c3.212,2.808,3.541,7.689,0.731,10.902C183.009,121.255,174.193,125.18,164.807,125.18z"/>
</g>
<path style="fill:#85CDEA;" d="M99.355,191.725H58.859c-7.072,0-12.805,5.733-12.805,12.805v40.495
	c0,7.072,5.733,12.805,12.805,12.805h40.495c7.072,0,12.805-5.733,12.805-12.805v-40.495
	C112.16,197.459,106.427,191.725,99.355,191.725z"/>
<path style="fill:#FD6F71;" d="M217.284,191.725h-40.495c-7.072,0-12.805,5.733-12.805,12.805v40.495
	c0,7.072,5.733,12.805,12.805,12.805h40.495c7.072,0,12.805-5.733,12.805-12.805v-40.495
	C230.089,197.459,224.356,191.725,217.284,191.725z"/>
<path style="fill:#EDBD4E;" d="M335.212,191.725h-40.495c-7.072,0-12.805,5.733-12.805,12.805v40.495
	c0,7.072,5.733,12.805,12.805,12.805h40.495c7.072,0,12.805-5.733,12.805-12.805v-40.495
	C348.017,197.459,342.284,191.725,335.212,191.725z"/>
<path style="fill:#FA9F6A;" d="M453.141,191.725h-40.495c-7.072,0-12.805,5.733-12.805,12.805v40.495
	c0,7.072,5.733,12.805,12.805,12.805h40.495c7.072,0,12.805-5.733,12.805-12.805v-40.495
	C465.946,197.459,460.213,191.725,453.141,191.725z"/>
<path style="fill:#EDBD4E;" d="M99.355,291.342H58.859c-7.072,0-12.805,5.733-12.805,12.805v40.495
	c0,7.072,5.733,12.805,12.805,12.805h40.495c7.072,0,12.805-5.733,12.805-12.805v-40.495
	C112.16,297.076,106.427,291.342,99.355,291.342z"/>
<path style="fill:#FA9F6A;" d="M217.284,291.342h-40.495c-7.072,0-12.805,5.733-12.805,12.805v40.495
	c0,7.072,5.733,12.805,12.805,12.805h40.495c7.072,0,12.805-5.733,12.805-12.805v-40.495
	C230.089,297.076,224.356,291.342,217.284,291.342z"/>
<path style="fill:#58B78C;" d="M335.212,291.342h-40.495c-7.072,0-12.805,5.733-12.805,12.805v40.495
	c0,7.072,5.733,12.805,12.805,12.805h40.495c7.072,0,12.805-5.733,12.805-12.805v-40.495
	C348.017,297.076,342.284,291.342,335.212,291.342z"/>
<path style="fill:#85CDEA;" d="M453.141,291.342h-40.495c-7.072,0-12.805,5.733-12.805,12.805v40.495
	c0,7.072,5.733,12.805,12.805,12.805h40.495c7.072,0,12.805-5.733,12.805-12.805v-40.495
	C465.946,297.076,460.213,291.342,453.141,291.342z"/>
<path style="fill:#FD6F71;" d="M99.355,390.959H58.859c-7.072,0-12.805,5.733-12.805,12.805v40.495
	c0,7.072,5.733,12.805,12.805,12.805h40.495c7.072,0,12.805-5.733,12.805-12.805v-40.495
	C112.16,396.692,106.427,390.959,99.355,390.959z"/>
<path style="fill:#EDBD4E;" d="M217.284,390.959h-40.495c-7.072,0-12.805,5.733-12.805,12.805v40.495
	c0,7.072,5.733,12.805,12.805,12.805h40.495c7.072,0,12.805-5.733,12.805-12.805v-40.495
	C230.089,396.692,224.356,390.959,217.284,390.959z"/>
<path style="fill:#85CDEA;" d="M335.212,390.959h-40.495c-7.072,0-12.805,5.733-12.805,12.805v40.495
	c0,7.072,5.733,12.805,12.805,12.805h40.495c7.072,0,12.805-5.733,12.805-12.805v-40.495
	C348.017,396.692,342.284,390.959,335.212,390.959z"/>
<path style="fill:#58B78C;" d="M453.141,390.959h-40.495c-7.072,0-12.805,5.733-12.805,12.805v40.495
	c0,7.072,5.733,12.805,12.805,12.805h40.495c7.072,0,12.805-5.733,12.805-12.805v-40.495
	C465.946,396.692,460.213,390.959,453.141,390.959z"/>
<circle style="fill:#596674;" cx="344.431" cy="107.129" r="28.444"/>
<circle style="fill:#58B78C;" cx="437.497" cy="107.129" r="28.444"/>
<g>
</g>
<g>
</g>
<g>
</g>
<g>
</g>
<g>
</g>
<g>
</g>
<g>
</g>
<g>
</g>
<g>
</g>
<g>
</g>
<g>
</g>
<g>
</g>
<g>
</g>
<g>
</g>
<g>
</g>
</svg>
