<?xml version="1.0" encoding="iso-8859-1"?>
<!-- Generator: Adobe Illustrator 19.0.0, SVG Export Plug-In . SVG Version: 6.00 Build 0)  -->
<svg version="1.1" id="Capa_1" xmlns="http://www.w3.org/2000/svg" xmlns:xlink="http://www.w3.org/1999/xlink" x="0px" y="0px"
	 viewBox="0 0 511.999 511.999" style="enable-background:new 0 0 511.999 511.999;" xml:space="preserve">
<path style="fill:#85CDEA;" d="M152.598,442.528l-69.886,57.871c-10.032,8.307-22.409,12.117-34.572,11.542
	c-12.173-0.566-24.133-5.517-33.348-14.732c-18.431-18.431-19.803-47.858-3.189-67.921l57.871-69.887L152.598,442.528z"/>
<path style="fill:#4FB6E0;" d="M129.302,461.818l23.296-19.29l-21.853-21.853l-69.887,57.871
	c-10.032,8.307-22.409,12.117-34.573,11.543c-7.147-0.332-14.218-2.188-20.704-5.516c1.098,2.139,2.362,4.211,3.78,6.205
	c10.281,14.459,27.966,22.583,45.625,21.024c9.875-0.873,19.575-4.653,27.725-11.403L129.302,461.818z"/>
<path style="fill:#596674;" d="M369.989,262.536L152.598,442.528c-16.224-9.309-32.181-21.444-46.931-36.194
	s-26.887-30.707-36.194-46.931L249.464,142.01L369.989,262.536z"/>
<path style="fill:#364E66;" d="M126.092,424.526c8.647,6.839,17.535,12.855,26.506,18.001l217.391-179.992l-21.853-21.853
	L130.744,420.674L126.092,424.526z"/>
<path style="fill:#596674;" d="M491.353,207.993c32.876-52.481,26.489-122.529-19.163-168.182S356.487-12.229,304.007,20.647v62.416
	l60.734,68.706l92.895,65.911L491.353,207.993z"/>
<path style="fill:#364E66;" d="M472.189,39.811c-2.912-2.912-5.926-5.663-9.025-8.256c34.815,50.985,35.936,118.077,3.35,170.094
	l-22.4,6.437l13.523,9.595l33.716-9.688C524.229,155.513,517.842,85.464,472.189,39.811z"/>
<g>
	<path style="fill:#EFEDEE;" d="M372.131,57.385c-1.978,0-3.955-0.754-5.464-2.263c-3.017-3.017-3.017-7.91,0.001-10.927
		l8.164-8.163c3.017-3.017,7.91-3.016,10.926,0c3.017,3.017,3.017,7.91-0.001,10.927l-8.164,8.163
		C376.086,56.631,374.108,57.385,372.131,57.385z"/>
	<path style="fill:#EFEDEE;" d="M462.341,147.595c-1.977,0-3.955-0.754-5.464-2.263c-3.017-3.017-3.017-7.91,0-10.927l8.163-8.163
		c3.018-3.017,7.91-3.017,10.927,0c3.017,3.017,3.017,7.91,0,10.927l-8.163,8.163C466.296,146.841,464.318,147.595,462.341,147.595z
		"/>
	<path style="fill:#EFEDEE;" d="M427.622,113.098c-7.461,0-14.739-3.046-20.206-8.513c-5.915-5.916-8.996-13.949-8.453-22.04
		c0.286-4.258,3.979-7.476,8.227-7.191c4.258,0.286,7.477,3.969,7.191,8.227c-0.244,3.642,1.199,7.315,3.961,10.077
		c2.763,2.762,6.452,4.204,10.076,3.961c4.259-0.288,7.941,2.934,8.227,7.191c0.285,4.258-2.934,7.941-7.191,8.227
		C428.843,113.078,428.231,113.098,427.622,113.098z"/>
</g>
<g>
	<path style="fill:#85CDEA;" d="M249.989,262.011c-8.351-8.351-21.89-8.351-30.241,0l-16.115,16.115
		c-8.351,8.351-8.351,21.89,0,30.241c8.351,8.351,21.89,8.351,30.241,0l16.115-16.115
		C258.34,283.901,258.34,270.362,249.989,262.011z"/>
	<path style="fill:#85CDEA;" d="M267.335,54.363c-40.04,53.247-35.836,129.204,12.63,177.671
		c48.466,48.466,124.423,52.67,177.671,12.63L267.335,54.363z"/>
</g>
<path style="fill:#4FB6E0;" d="M267.335,54.363L267.335,54.363l175.732,175.733c-50.554,38.015-121.576,36.142-170.109-5.623
	c2.224,2.586,4.556,5.11,7.007,7.562c48.466,48.466,124.423,52.67,177.671,12.63L267.335,54.363z"/>
<path style="fill:#D2D2D2;" d="M345.018,166.981c-37.133-37.133-65.457-79.35-80.465-119.742c3.323-4.174,6.915-8.202,10.776-12.063
	c8.26-8.26,17.29-15.291,26.86-21.095l-0.008,0.006c0.894,3.534,1.956,7.17,3.188,10.898
	c11.914,36.063,37.519,74.968,72.098,109.547s73.484,60.184,109.547,72.098c3.727,1.231,7.364,2.294,10.898,3.188l0.006-0.008
	c-5.803,9.57-12.835,18.601-21.095,26.86c-3.86,3.86-7.889,7.452-12.063,10.776C424.369,232.437,382.151,204.114,345.018,166.981z"
	/>
<path style="fill:#A1A1A1;" d="M497.919,209.809l-0.007,0.008c-3.534-0.894-7.17-1.956-10.898-3.188
	c-6.212-2.052-12.508-4.52-18.852-7.361c-5.719,9.246-12.572,17.984-20.586,25.998c-3.481,3.481-7.105,6.733-10.842,9.782
	c9.383,4.796,18.753,8.951,28.027,12.396c4.174-3.323,8.202-6.915,12.063-10.776C485.084,228.41,492.116,219.381,497.919,209.809z"
	/>
<g>
</g>
<g>
</g>
<g>
</g>
<g>
</g>
<g>
</g>
<g>
</g>
<g>
</g>
<g>
</g>
<g>
</g>
<g>
</g>
<g>
</g>
<g>
</g>
<g>
</g>
<g>
</g>
<g>
</g>
</svg>
