<?xml version="1.0" encoding="iso-8859-1"?>
<!-- Generator: Adobe Illustrator 19.0.0, SVG Export Plug-In . SVG Version: 6.00 Build 0)  -->
<svg version="1.1" id="Capa_1" xmlns="http://www.w3.org/2000/svg" xmlns:xlink="http://www.w3.org/1999/xlink" x="0px" y="0px"
	 viewBox="0 0 512 512" style="enable-background:new 0 0 512 512;" xml:space="preserve">
<ellipse style="fill:#EDBD4E;" cx="256" cy="471.596" rx="41.152" ry="40.404"/>
<path style="fill:#D99D2E;" d="M235.452,471.592c0-18.823,13.108-34.641,30.85-39.131c-3.292-0.833-6.745-1.276-10.302-1.276
	c-22.728,0-41.152,18.091-41.152,40.408S233.273,512,256,512c3.557,0,7.009-0.444,10.302-1.277
	C248.56,506.232,235.452,490.416,235.452,471.592z"/>
<path style="fill:#FA9F6A;" d="M284.597,201.275C288.062,111.721,339.626,0,256,0s-32.062,111.721-28.596,201.275H284.597z"/>
<path style="fill:#EA7F49;" d="M266.302,0.654C263.117,0.23,259.697,0,256,0c-83.626,0-32.062,111.721-28.596,201.274h20.604
	C244.695,115.681,197.457,9.846,266.302,0.654z"/>
<ellipse style="fill:#FAE076;" cx="256" cy="229.39" rx="47.928" ry="35.036"/>
<path style="fill:#EDBD4E;" d="M228.675,229.391c0-16.764,16.109-30.769,37.626-34.216c-3.319-0.532-6.764-0.82-10.302-0.82
	c-26.469,0-47.928,15.687-47.928,35.036s21.458,35.036,47.928,35.036c3.538,0,6.983-0.288,10.302-0.82
	C244.785,260.162,228.675,246.156,228.675,229.391z"/>
<path style="fill:#FD6F71;" d="M375.707,398.649c-22.846,11.84-62.283,26.089-119.707,26.089s-96.861-14.249-119.707-26.089
	c7.794-15.608,13.684-32.069,16.837-49.75c5.166-28.945,6.078-60.409,23.164-85.556c20.595-30.313,44.345-41.885,79.705-41.885
	s59.11,11.572,79.705,41.885c17.086,25.147,17.997,56.611,23.164,85.556C362.023,366.581,367.913,383.042,375.707,398.649z"/>
<g>
	<path style="fill:#596674;" d="M196.128,373.445c-4.267,0-7.726-3.459-7.726-7.726v-10.835c0-4.267,3.459-7.726,7.726-7.726
		c4.267,0,7.726,3.459,7.726,7.726v10.835C203.854,369.985,200.396,373.445,196.128,373.445z"/>
	<path style="fill:#596674;" d="M315.872,373.445c-4.267,0-7.726-3.459-7.726-7.726v-10.835c0-4.267,3.459-7.726,7.726-7.726
		c4.267,0,7.726,3.459,7.726,7.726v10.835C323.598,369.985,320.139,373.445,315.872,373.445z"/>
	<path style="fill:#596674;" d="M256,379.229c-7.989,0-15.496-3.346-20.594-9.18c-2.808-3.213-2.481-8.094,0.732-10.902
		c3.213-2.807,8.094-2.481,10.902,0.732c2.164,2.477,5.43,3.896,8.959,3.896s6.795-1.421,8.959-3.896
		c2.808-3.213,7.689-3.541,10.902-0.732c3.213,2.808,3.541,7.689,0.732,10.902C271.496,375.883,263.989,379.229,256,379.229z"/>
</g>
<path style="fill:#FAE076;" d="M399.783,437.629c0,0-45.614,41.647-143.783,41.647s-143.783-41.647-143.783-41.647
	c9.103-12.524,17.313-25.435,24.076-38.98c22.846,11.84,62.283,26.089,119.707,26.089s96.861-14.249,119.707-26.089
	C382.469,412.195,390.68,425.105,399.783,437.629z"/>
<path style="fill:#EDBD4E;" d="M112.29,437.695c0.091,0.081,0.269,0.238,0.534,0.463c1.219,1.033,2.482,2.022,3.773,2.964
	c0.026,0.02,0.053,0.039,0.079,0.059c4.257,3.163,8.761,5.993,13.365,8.622c8.764-12.324,16.696-25.011,23.316-38.271
	c0.705-1.411,1.389-2.832,2.064-4.256c-7.32-2.862-13.698-5.81-19.126-8.624c-5.917,11.852-12.943,23.219-20.706,34.265
	c-1.108,1.578-2.232,3.149-3.371,4.715C112.217,437.629,112.241,437.652,112.29,437.695z"/>
<path style="fill:#F74F50;" d="M155.42,407.273c7.29-15.385,12.821-31.555,15.9-48.82c5.511-30.881,6.485-64.449,24.713-91.277
	c20.584-30.297,44.123-43.045,78.007-44.539c-1.489,0.066-2.966-0.382-4.44-0.53c-4.503-0.45-9.036-0.646-13.561-0.647
	c-0.012,0-0.026,0-0.038,0c-17.68,0-32.458,2.894-45.39,9.576c-0.809,0.417-1.609,0.85-2.403,1.297
	c-11.911,6.713-22.258,16.804-31.913,31.014c-17.074,25.131-18.003,56.627-23.164,85.555c-3.086,17.303-8.995,34.043-16.837,49.748
	C141.722,401.463,148.099,404.411,155.42,407.273z"/>
<g>
</g>
<g>
</g>
<g>
</g>
<g>
</g>
<g>
</g>
<g>
</g>
<g>
</g>
<g>
</g>
<g>
</g>
<g>
</g>
<g>
</g>
<g>
</g>
<g>
</g>
<g>
</g>
<g>
</g>
</svg>
