<?xml version="1.0" encoding="iso-8859-1"?>
<!-- Generator: Adobe Illustrator 19.0.0, SVG Export Plug-In . SVG Version: 6.00 Build 0)  -->
<svg version="1.1" id="Capa_1" xmlns="http://www.w3.org/2000/svg" xmlns:xlink="http://www.w3.org/1999/xlink" x="0px" y="0px"
	 viewBox="0 0 512 512" style="enable-background:new 0 0 512 512;" xml:space="preserve">
<path style="fill:#FA9F6A;" d="M98.503,413.497l-65.203-26.94L6.547,413.31c-8.729,8.729-8.729,22.881,0,31.61l60.533,60.533
	c8.729,8.729,22.881,8.729,31.61,0l26.753-26.753L98.503,413.497z"/>
<g>
	<path style="fill:#EA7F49;" d="M29.211,435.974l26.753-26.753l49.165,20.314l-6.626-16.038l-65.203-26.94L6.547,413.31
		c-8.729,8.729-8.729,22.881,0,31.61l22.664,22.664C20.482,458.855,20.482,444.702,29.211,435.974z"/>
	<path style="fill:#EA7F49;" d="M469.177,491.264c-5.653,0-11.305-2.157-15.619-6.469L27.205,58.44
		c-8.626-8.626-8.626-22.609,0-31.235s22.609-8.626,31.235,0l426.355,426.354c8.625,8.626,8.625,22.61,0,31.236
		C480.482,489.107,474.829,491.264,469.177,491.264z"/>
</g>
<path style="fill:#E8742E;" d="M147.593,116.358c-9.063,11.937-17.762,24.107-26.093,36.378l237.89,237.89l1.106-0.716l-0.026-0.129
	l11.986-8.429c7.175-5.046,14.421-10.32,21.536-15.676l1.665-1.254L147.593,116.358z"/>
<path style="fill:#EA7F49;" d="M195.363,447.887c8.012-3.811,16.032-7.739,24.043-11.768l-0.702-24.651l32.202,8.253
	c7.73-4.155,15.423-8.41,23.06-12.752l1.691-22.259l28.452,4.502c7.418-4.545,14.751-9.159,21.974-13.837l-5.967-29.916
	l34.564,10.614c7.052-4.958,13.962-9.995,20.724-15.087l-7.706-31.655l34.404,10.454c6.591-5.514,12.97-11.081,19.108-16.703
	l-3.51-27.459l27.686,3.736c70.966-75.012,96.314-157.472,20.521-233.265C308.169-111.646,121.538,168.691,33.299,386.557
	l92.144,92.143c12.206-4.943,24.598-10.199,37.1-15.735l1.292-22.657L195.363,447.887z"/>
<path style="fill:#E8742E;" d="M56.993,410.251C142.946,198.033,322.253-73.442,477.276,58.41
	c-3.508-4.124-7.282-8.231-11.369-12.318C308.169-111.645,121.538,168.691,33.299,386.557l92.144,92.143l0,0L56.993,410.251z"/>
<g>
	<path style="fill:#596674;" d="M334.653,79.299c-1.977,0-3.955-0.754-5.463-2.263c-3.017-3.017-3.017-7.91,0-10.927l9.572-9.571
		c3.017-3.016,7.91-3.017,10.926,0c3.017,3.017,3.017,7.91,0,10.927l-9.572,9.571C338.608,78.545,336.63,79.299,334.653,79.299z"/>
	<path style="fill:#596674;" d="M440.427,185.073c-1.977,0-3.955-0.754-5.463-2.263c-3.017-3.017-3.017-7.91,0-10.927l9.572-9.571
		c3.017-3.016,7.91-3.017,10.926,0c3.017,3.017,3.017,7.91,0,10.927l-9.572,9.571C444.382,184.318,442.404,185.073,440.427,185.073z
		"/>
	<path style="fill:#596674;" d="M399.716,144.625c-8.395,0-16.588-3.432-22.75-9.593c-6.663-6.663-10.135-15.706-9.524-24.809
		c0.285-4.258,3.965-7.477,8.227-7.192c4.258,0.285,7.477,3.969,7.192,8.226c-0.312,4.654,1.522,9.338,5.032,12.847
		c3.511,3.511,8.194,5.344,12.847,5.032c4.261-0.285,7.941,2.934,8.227,7.191c0.286,4.258-2.933,7.941-7.191,8.227
		C401.089,144.602,400.402,144.625,399.716,144.625z"/>
</g>
<g>
	<path style="fill:#FA9F6A;" d="M195.363,447.887c-10.98,5.232-21.935,10.269-32.821,15.079l-48.649-48.649
		c-6.614-6.614-6.614-17.343,0-23.958c6.614-6.614,17.336-6.607,23.95,0.008L195.363,447.887z"/>
	<path style="fill:#FA9F6A;" d="M421.21,303.08L262.035,143.906c-6.607-6.607-6.607-17.336,0.008-23.95
		c6.614-6.614,17.336-6.607,23.941,0l159.401,159.401C437.827,287.354,429.745,295.263,421.21,303.08z"/>
	<path style="fill:#FA9F6A;" d="M402.102,319.784c-8.566,7.176-17.491,14.243-26.698,21.201L232.409,197.99
		c-3.303-3.303-4.958-7.645-4.958-11.971c0.008-4.334,1.664-8.675,4.966-11.979c6.614-6.614,17.328-6.614,23.941,0L402.102,319.784z
		"/>
	<path style="fill:#FA9F6A;" d="M354.679,356.071c-9.308,6.559-18.85,12.994-28.596,19.304L202.782,252.073
		c-6.614-6.614-6.614-17.343,0-23.958c6.614-6.614,17.336-6.607,23.95,0.008L354.679,356.071z"/>
	<path style="fill:#FA9F6A;" d="M304.109,389.212c-9.918,6.06-19.975,11.979-30.142,17.757l-100.82-100.82
		c-3.303-3.303-4.951-7.637-4.958-11.971c0.008-4.334,1.664-8.675,4.967-11.979c6.614-6.614,17.336-6.607,23.941,0L304.109,389.212z
		"/>
	<path style="fill:#FA9F6A;" d="M250.908,419.721c-10.448,5.638-20.966,11.112-31.501,16.398l-75.886-75.886
		c-3.311-3.311-4.958-7.645-4.958-11.971c0-4.342,1.664-8.675,4.966-11.979c6.614-6.614,17.328-6.614,23.941,0L250.908,419.721z"/>
</g>
<g>
</g>
<g>
</g>
<g>
</g>
<g>
</g>
<g>
</g>
<g>
</g>
<g>
</g>
<g>
</g>
<g>
</g>
<g>
</g>
<g>
</g>
<g>
</g>
<g>
</g>
<g>
</g>
<g>
</g>
</svg>
