<?xml version="1.0" encoding="iso-8859-1"?>
<!-- Generator: Adobe Illustrator 19.0.0, SVG Export Plug-In . SVG Version: 6.00 Build 0)  -->
<svg version="1.1" id="Capa_1" xmlns="http://www.w3.org/2000/svg" xmlns:xlink="http://www.w3.org/1999/xlink" x="0px" y="0px"
	 viewBox="0 0 512 512" style="enable-background:new 0 0 512 512;" xml:space="preserve">
<g>
	<path style="fill:#FAE076;" d="M433.212,210.153c-6.648,0-12.038,5.39-12.038,12.038v211.721h24.075V222.189
		C445.249,215.542,439.859,210.153,433.212,210.153z"/>
	<path style="fill:#FAE076;" d="M381.648,210.153c-6.648,0-12.038,5.39-12.038,12.038v229.056h24.075V222.189
		C393.686,215.542,388.297,210.153,381.648,210.153z"/>
	<path style="fill:#FAE076;" d="M330.085,210.153c-6.648,0-12.038,5.39-12.038,12.038v213.647h24.075V222.189
		C342.122,215.542,336.733,210.153,330.085,210.153z"/>
</g>
<g>
	<rect x="318.048" y="249.685" style="fill:#EDBD4E;" width="24.075" height="42.943"/>
	<rect x="369.608" y="249.685" style="fill:#EDBD4E;" width="24.075" height="42.943"/>
	<rect x="421.169" y="249.685" style="fill:#EDBD4E;" width="24.075" height="42.943"/>
</g>
<rect x="273.575" y="237.652" style="fill:#D99D2E;" width="216.153" height="24.075"/>
<path style="fill:#EDBD4E;" d="M329.221,416.613l-37.874-38.575l-8.417-74.345l-3.507-65.227l-22.444-15.433
	c0-105.208,68.735-188.666,68.735-188.666L193.506,17.183L61.298,34.367c0,0,40.329,83.458,40.329,188.666v150.813
	c0,76.3,61.853,138.153,138.153,138.153h44.378c42.222,0,76.449-34.228,76.449-76.449l0,0L329.221,416.613z"/>
<path style="fill:#D99D2E;" d="M128.411,373.847V223.033c0-105.208-40.329-188.666-40.329-188.666l118.816-15.442l-13.392-1.741
	L61.298,34.367c0,0,40.329,83.458,40.329,188.666v150.813c0,76.3,61.853,138.153,138.153,138.153h26.785
	C190.264,512,128.411,450.147,128.411,373.847z"/>
<rect x="44.463" style="fill:#FAE076;" width="298.083" height="34.367"/>
<rect x="44.463" style="fill:#EDBD4E;" width="43.618" height="34.367"/>
<path style="fill:#D99D2E;" d="M101.626,253.939v47.759c48.798,5.95,89.634,15.472,126.103,29.278
	c4.132,1.66,28.862,13.758,32.227,15.812l26.307-13.654l-3.333-29.442l-2.22-41.29L101.626,253.939z"/>
<path style="fill:#FAE076;" d="M282.644,256.925c-55.858-21.949-118.726-26.821-178.154-28.64c-19.568-0.6-39.126-0.02-58.684,0.636
	c-7.101,0.238-11.159,0.374-11.159,0.374l-14.481,20.395l14.481,20.395c7.042,0.46,14.086,0.91,21.126,1.405
	c61.686,4.342,123.098,13.434,181.205,35.451c2.476,0.939,29.903,12.854,29.002,14.333L282.644,256.925z"/>
<g>
	<path style="fill:#596674;" d="M128.284,81.93c-4.268,0-7.726-3.459-7.726-7.726V62.4c0-4.267,3.458-7.726,7.726-7.726
		c4.268,0,7.726,3.459,7.726,7.726v11.804C136.011,78.471,132.551,81.93,128.284,81.93z"/>
	<path style="fill:#596674;" d="M258.728,81.93c-4.268,0-7.726-3.459-7.726-7.726V62.4c0-4.267,3.458-7.726,7.726-7.726
		c4.268,0,7.726,3.459,7.726,7.726v11.804C266.454,78.471,262.995,81.93,258.728,81.93z"/>
	<path style="fill:#596674;" d="M193.505,88.231c-8.502,0-16.49-3.558-21.914-9.763c-2.809-3.212-2.481-8.093,0.731-10.902
		c3.213-2.809,8.092-2.482,10.902,0.731c2.49,2.848,6.238,4.481,10.28,4.481c4.044,0,7.791-1.633,10.28-4.48
		c2.808-3.214,7.689-3.541,10.901-0.732c3.213,2.808,3.542,7.689,0.732,10.902C209.996,84.673,202.009,88.231,193.505,88.231z"/>
</g>
<path style="fill:#D99D2E;" d="M381.648,98.365c-68.742,0-124.668,55.926-124.668,124.668v119.411
	c0,68.742,55.926,124.668,124.668,124.668s124.668-55.926,124.668-124.668V223.033C506.316,154.291,450.39,98.365,381.648,98.365z
	 M472.611,342.445c0,50.157-40.805,90.963-90.963,90.963s-90.963-40.806-90.963-90.963V223.033
	c0-50.157,40.805-90.963,90.963-90.963s90.963,40.805,90.963,90.963V342.445z"/>
<path style="fill:#EDBD4E;" d="M65.55,229.294c0-0.322-0.018-0.641-0.025-0.962c-6.574,0.162-13.148,0.369-19.722,0.588
	c-7.101,0.238-11.159,0.374-11.159,0.374l-14.481,20.393l14.481,20.394c7.042,0.46,14.086,0.91,21.126,1.405
	c3.243,0.229,6.484,0.473,9.725,0.728c0.033-0.708,0.054-1.418,0.054-2.134v-40.788H65.55z"/>
<path style="fill:#D99D2E;" d="M20.165,214.812L20.165,214.812c-7.997,0-14.481,6.483-14.481,14.481v40.788
	c0,7.997,6.483,14.481,14.481,14.481l0,0c7.997,0,14.481-6.483,14.481-14.481v-40.788C34.645,221.296,28.162,214.812,20.165,214.812
	z"/>
<g>
</g>
<g>
</g>
<g>
</g>
<g>
</g>
<g>
</g>
<g>
</g>
<g>
</g>
<g>
</g>
<g>
</g>
<g>
</g>
<g>
</g>
<g>
</g>
<g>
</g>
<g>
</g>
<g>
</g>
</svg>
