<?xml version="1.0" encoding="iso-8859-1"?>
<!-- Generator: Adobe Illustrator 19.0.0, SVG Export Plug-In . SVG Version: 6.00 Build 0)  -->
<svg version="1.1" id="Capa_1" xmlns="http://www.w3.org/2000/svg" xmlns:xlink="http://www.w3.org/1999/xlink" x="0px" y="0px"
	 viewBox="0 0 512.001 512.001" style="enable-background:new 0 0 512.001 512.001;" xml:space="preserve">
<path style="fill:#FAE076;" d="M463.81,113.822c18.567-37.979,35.197-61.29,44.445-72.837c4.473-5.586,4.982-13.365,1.301-19.5
	l-2.684-4.472c-2.926-4.877-7.007-8.957-11.883-11.883l-4.472-2.684c-6.136-3.682-13.915-3.173-19.5,1.301
	c-11.547,9.248-34.858,25.878-72.837,44.445c-21.036,10.284-34.51,30.504-43.147,52.082l14.268,42.429l42.429,14.268
	C433.306,148.332,453.526,134.858,463.81,113.822z"/>
<path style="fill:#EDBD4E;" d="M463.81,113.822c18.567-37.979,35.197-61.29,44.445-72.837c4.473-5.586,4.982-13.365,1.301-19.5
	l-2.684-4.472c-2.926-4.876-7.007-8.957-11.883-11.883l-1.678-1.006l1.676,2.794c3.682,6.137,3.173,13.915-1.301,19.5
	c-9.248,11.547-25.878,34.858-44.445,72.837c-10.284,21.036-30.504,34.51-52.082,43.147l-31.527-10.602l3.666,10.902l42.429,14.268
	C433.306,148.332,453.526,134.858,463.81,113.822z"/>
<polygon style="fill:#FAE076;" points="369.299,142.702 326.87,128.434 111.813,343.491 126.081,385.92 168.51,400.188 
	383.567,185.131 "/>
<polygon style="fill:#EDBD4E;" points="369.299,142.702 358.397,139.035 368.997,170.562 153.941,385.618 122.414,375.018 
	126.081,385.92 168.51,400.187 383.567,185.131 "/>
<path style="fill:#FAE076;" d="M140.347,428.349l-14.267-42.429l-42.429-14.267c0,0-14.912,23.994-49.658,35.575l21.308,49.469
	l49.469,21.308C116.354,443.261,140.347,428.349,140.347,428.349z"/>
<g>
	<path style="fill:#EDBD4E;" d="M140.347,428.349l-14.267-42.429l-10.902-3.666l10.602,31.527c0,0-23.994,14.912-35.575,49.657
		l-39.287-16.922l4.385,10.183l49.47,21.308C116.354,443.261,140.347,428.349,140.347,428.349z"/>
	<path style="fill:#EDBD4E;" d="M411.728,156.969l-56.696-56.696c-7.777-7.777-20.385-7.777-28.161,0l0,0
		c-7.777,7.777-7.777,20.385,0,28.161l56.696,56.696c7.777,7.777,20.385,7.777,28.161,0l0,0
		C419.505,177.354,419.505,164.746,411.728,156.969z"/>
</g>
<path style="fill:#D99D2E;" d="M411.728,156.969L397.159,142.4c7.777,7.777,7.777,20.385,0,28.161l0,0
	c-7.777,7.777-20.385,7.777-28.162,0l14.569,14.569c7.777,7.777,20.385,7.777,28.162,0l0,0
	C419.505,177.354,419.505,164.746,411.728,156.969z"/>
<path style="fill:#EDBD4E;" d="M168.51,400.188l-56.696-56.696c-7.777-7.777-20.385-7.777-28.161,0l0,0
	c-7.777,7.777-7.777,20.385,0,28.161l56.696,56.696c7.777,7.777,20.385,7.777,28.161,0l0,0
	C176.286,420.572,176.286,407.964,168.51,400.188z"/>
<path style="fill:#D99D2E;" d="M168.51,400.187l-14.569-14.569c7.777,7.777,7.777,20.385,0,28.161l0,0
	c-7.777,7.777-20.385,7.777-28.161,0l14.569,14.569c7.777,7.777,20.385,7.777,28.161,0l0,0
	C176.286,420.572,176.286,407.964,168.51,400.187z"/>
<path style="fill:#EDBD4E;" d="M104.771,478.006l-70.778-70.778c-7.777-7.777-20.385-7.777-28.161,0l0,0
	c-7.777,7.777-7.777,20.385,0,28.161l70.778,70.778c7.777,7.777,20.385,7.777,28.161,0l0,0
	C112.548,498.391,112.548,485.783,104.771,478.006z"/>
<path style="fill:#D99D2E;" d="M104.772,478.006l-14.569-14.569c7.777,7.777,7.777,20.385,0,28.162s-20.385,7.777-28.161,0
	l14.569,14.569c7.777,7.777,20.385,7.777,28.161,0C112.548,498.391,112.548,485.783,104.772,478.006z"/>
<g>
	<circle style="fill:#596674;" cx="247.687" cy="264.314" r="14.039"/>
	<circle style="fill:#596674;" cx="285.145" cy="226.856" r="14.039"/>
	<circle style="fill:#596674;" cx="322.602" cy="189.399" r="14.039"/>
	<circle style="fill:#596674;" cx="210.23" cy="301.771" r="14.039"/>
	<circle style="fill:#596674;" cx="172.772" cy="339.228" r="14.039"/>
	<circle style="fill:#596674;" cx="90.842" cy="421.159" r="14.039"/>
	<path style="fill:#596674;" d="M454.503,73.052l-15.556-15.556c-3.048-3.048-7.991-3.048-11.04,0L415.69,69.713
		c-7.344,7.344-7.344,19.251,0,26.595c7.344,7.344,19.251,7.344,26.595,0l12.217-12.217
		C457.553,81.043,457.553,76.101,454.503,73.052z"/>
</g>
<g>
</g>
<g>
</g>
<g>
</g>
<g>
</g>
<g>
</g>
<g>
</g>
<g>
</g>
<g>
</g>
<g>
</g>
<g>
</g>
<g>
</g>
<g>
</g>
<g>
</g>
<g>
</g>
<g>
</g>
</svg>
