<?xml version="1.0" encoding="iso-8859-1"?>
<!-- Generator: Adobe Illustrator 19.0.0, SVG Export Plug-In . SVG Version: 6.00 Build 0)  -->
<svg version="1.1" id="Capa_1" xmlns="http://www.w3.org/2000/svg" xmlns:xlink="http://www.w3.org/1999/xlink" x="0px" y="0px"
	 viewBox="0 0 512 512" style="enable-background:new 0 0 512 512;" xml:space="preserve">
<path style="fill:#D2D2D2;" d="M196.376,149.574V67.415c0-9.52,7.746-17.266,17.266-17.266h81.678
	c9.52,0,17.265,7.746,17.265,17.266v82.159l36.354-25.967V67.415c0-29.614-24.006-53.62-53.619-53.62h-81.678
	c-29.614,0-53.62,24.006-53.62,53.62v56.191L196.376,149.574z"/>
<g>
	<polygon style="fill:#A1A1A1;" points="196.376,92.701 160.022,92.701 160.022,123.606 196.376,149.573 	"/>
	<polygon style="fill:#A1A1A1;" points="348.937,92.701 348.937,92.701 312.584,92.701 312.584,149.573 348.937,123.606 	"/>
</g>
<path style="fill:#D2D2D2;" d="M454.129,450.485l-66.458-295.439c-3.851-18.322-20.011-31.439-38.733-31.439H160.022
	c-18.721,0-34.883,13.117-38.733,31.439L54.831,450.485c-5.169,24.597,13.599,47.72,38.733,47.72h321.832
	C440.53,498.205,459.299,475.081,454.129,450.485z"/>
<g>
	<path style="fill:#596674;" d="M171.283,207.77c-4.268,0-7.726-3.459-7.726-7.726v-15.057c0-4.267,3.458-7.726,7.726-7.726
		s7.726,3.459,7.726,7.726v15.057C179.009,204.31,175.551,207.77,171.283,207.77z"/>
	<path style="fill:#596674;" d="M337.676,207.77c-4.268,0-7.726-3.459-7.726-7.726v-15.057c0-4.267,3.458-7.726,7.726-7.726
		s7.726,3.459,7.726,7.726v15.057C345.403,204.31,341.943,207.77,337.676,207.77z"/>
	<path style="fill:#596674;" d="M254.48,215.807c-10.233,0-19.837-4.274-26.351-11.727c-2.809-3.212-2.481-8.093,0.731-10.902
		c3.213-2.807,8.094-2.481,10.902,0.732c3.58,4.095,8.944,6.444,14.717,6.444c5.773,0,11.138-2.349,14.717-6.444
		c2.808-3.213,7.688-3.541,10.902-0.732c3.212,2.808,3.541,7.689,0.731,10.902C274.317,211.533,264.712,215.807,254.48,215.807z"/>
	<path style="fill:#596674;" d="M15.594,446.928c-5.771,0-11.318-3.219-14.016-8.757c-3.77-7.736-0.556-17.061,7.178-20.831
		l458.058-223.265c7.735-3.77,17.06-0.557,20.831,7.178c3.77,7.735,0.556,17.062-7.178,20.832L22.41,445.35
		C20.212,446.421,17.886,446.928,15.594,446.928z"/>
</g>
<path style="fill:#364E66;" d="M466.815,194.076l-60.654,29.563c2.402,10.422,7.153,19.954,13.678,27.998l60.628-29.552
	c7.735-3.77,10.949-13.097,7.178-20.832C483.875,193.518,474.549,190.306,466.815,194.076z"/>
<circle style="fill:#D2D2D2;" cx="473.636" cy="208.086" r="38.354"/>
<path style="fill:#A1A1A1;" d="M501.22,181.435c0.311,1.969,0.478,3.986,0.478,6.042c0,21.185-17.173,38.359-38.359,38.359
	c-10.829,0-20.604-4.495-27.579-11.713c2.899,18.314,18.752,32.317,37.881,32.317c21.185,0,38.359-17.174,38.359-38.359
	C512,197.726,507.889,188.336,501.22,181.435z"/>
<g>
</g>
<g>
</g>
<g>
</g>
<g>
</g>
<g>
</g>
<g>
</g>
<g>
</g>
<g>
</g>
<g>
</g>
<g>
</g>
<g>
</g>
<g>
</g>
<g>
</g>
<g>
</g>
<g>
</g>
</svg>
