<?xml version="1.0" encoding="iso-8859-1"?>
<!-- Generator: Adobe Illustrator 19.0.0, SVG Export Plug-In . SVG Version: 6.00 Build 0)  -->
<svg version="1.1" id="Capa_1" xmlns="http://www.w3.org/2000/svg" xmlns:xlink="http://www.w3.org/1999/xlink" x="0px" y="0px"
	 viewBox="0 0 512 512" style="enable-background:new 0 0 512 512;" xml:space="preserve">
<path style="fill:#85CDEA;" d="M175.078,130.112c-3.28,2.356-6.901,5.108-10.788,8.18c-7.887,6.232-18.649,7.396-27.715,3.053
	l-70.008-33.533c-13.517-6.475-29.649-3.717-40.247,6.882s-13.356,26.73-6.882,40.247l30.275,63.204
	c4.751,9.92,2.876,21.744-4.712,29.706l-0.098,0.103C-93.443,393.2,118.799,605.443,264.046,467.096
	c23.235-22.13,92.827-95.347,117.84-130.174C571.462,72.967,497.991,14.009,497.991,14.009S439.032-59.463,175.078,130.112z"/>
<path style="fill:#4FB6E0;" d="M501.142,17.543c4.16,41.189-12.859,125.99-129.557,288.474
	c-25.014,34.827-94.605,108.043-117.84,130.173c-91.929,87.562-210.695,34.683-250.426-52.762
	C26.097,487.991,161.7,564.579,264.046,467.095c23.235-22.13,92.827-95.347,117.84-130.173
	C546.044,108.358,512.964,33.506,501.142,17.543z"/>
<g>
	<circle style="fill:#596674;" cx="112.661" cy="305.458" r="24.693"/>
	<circle style="fill:#596674;" cx="189.388" cy="382.186" r="24.693"/>
	<circle style="fill:#596674;" cx="112.661" cy="382.186" r="24.693"/>
	<circle style="fill:#596674;" cx="189.388" cy="305.458" r="24.693"/>
	<circle style="fill:#596674;" cx="268.846" cy="132.409" r="24.693"/>
	<circle style="fill:#596674;" cx="358.193" cy="129.771" r="24.693"/>
	<circle style="fill:#596674;" cx="435.91" cy="86.978" r="24.693"/>
	<path style="fill:#596674;" d="M267.076,337.02c-1.977,0-3.955-0.754-5.463-2.263l-11.119-11.118c-3.017-3.017-3.017-7.91,0-10.927
		c3.017-3.017,7.91-3.017,10.926,0l11.119,11.118c3.017,3.017,3.017,7.91,0,10.927C271.031,336.265,269.054,337.02,267.076,337.02z"
		/>
	<path style="fill:#596674;" d="M389.94,214.154c-1.977,0-3.955-0.754-5.463-2.263l-11.118-11.118
		c-3.017-3.017-3.017-7.909,0-10.926c3.017-3.017,7.91-3.017,10.926,0l11.118,11.118c3.017,3.017,3.017,7.909,0,10.926
		C393.895,213.4,391.918,214.154,389.94,214.154z"/>
	<path style="fill:#596674;" d="M314.364,290.035c-0.77,0-1.539-0.026-2.31-0.077c-4.258-0.286-7.477-3.969-7.191-8.227
		s3.956-7.478,8.227-7.191c5.773,0.389,11.557-1.876,15.889-6.209c4.333-4.333,6.595-10.125,6.208-15.889
		c-0.286-4.258,2.934-7.941,7.191-8.227c4.252-0.286,7.941,2.934,8.226,7.192c0.686,10.214-3.213,20.366-10.698,27.851
		C332.985,286.179,323.784,290.035,314.364,290.035z"/>
</g>
<g>
</g>
<g>
</g>
<g>
</g>
<g>
</g>
<g>
</g>
<g>
</g>
<g>
</g>
<g>
</g>
<g>
</g>
<g>
</g>
<g>
</g>
<g>
</g>
<g>
</g>
<g>
</g>
<g>
</g>
</svg>
