<?xml version="1.0" encoding="iso-8859-1"?>
<!-- Generator: Adobe Illustrator 19.0.0, SVG Export Plug-In . SVG Version: 6.00 Build 0)  -->
<svg version="1.1" id="Capa_1" xmlns="http://www.w3.org/2000/svg" xmlns:xlink="http://www.w3.org/1999/xlink" x="0px" y="0px"
	 viewBox="0 0 512 512" style="enable-background:new 0 0 512 512;" xml:space="preserve">
<g>
	<path style="fill:#EA7F49;" d="M219.15,248.276c25.155,24.52,52.104,65.257,52.104,127.232c0,40.686-16.612,69.856-38.208,90.57
		c-54.205,51.985-140.632,51.985-194.837,0C16.612,445.365,0,416.195,0,375.509c0-61.976,26.949-102.711,52.104-127.233
		L219.15,248.276L219.15,248.276z"/>
	<path style="fill:#EA7F49;" d="M158.218,237.462c-4.41,0-8.776-1.953-11.709-5.693c-19.354-24.678-29.585-54.335-29.585-85.763
		c0-76.686,62.389-139.074,139.074-139.074c76.687,0,139.074,62.389,139.074,139.074c0,29.3-9.008,57.329-26.05,81.054
		c-4.789,6.669-14.078,8.193-20.748,3.402c-6.668-4.79-8.191-14.079-3.402-20.749c13.388-18.639,20.466-40.669,20.466-63.707
		c0-60.29-49.05-109.34-109.34-109.34s-109.34,49.05-109.34,109.34c0,24.71,8.038,48.021,23.248,67.413
		c5.067,6.46,3.937,15.806-2.524,20.874C164.662,236.426,161.428,237.462,158.218,237.462z"/>
</g>
<path style="fill:#E8742E;" d="M239.648,459.285c18.287-20.161,31.606-47.35,31.606-83.776c0-43.968-13.567-77.235-30.432-101.616
	c-14.7,25.91-25.832,59.44-25.832,101.616C214.992,406.948,223.273,435.002,239.648,459.285z"/>
<path style="fill:#FA9F6A;" d="M459.895,248.276C485.051,272.798,512,313.533,512,375.509c0,40.686-16.612,69.856-38.208,90.57
	c-54.205,51.985-140.632,51.985-194.837,0c-21.597-20.715-38.208-49.883-38.208-90.57c0-61.976,26.949-102.711,52.104-127.233
	L459.895,248.276L459.895,248.276z"/>
<g>
	<path style="fill:#596674;" d="M306.073,368.846c-4.267,0-7.726-3.459-7.726-7.726v-12.723c0-4.267,3.459-7.726,7.726-7.726
		c4.267,0,7.726,3.459,7.726,7.726v12.723C313.799,365.387,310.34,368.846,306.073,368.846z"/>
	<path style="fill:#596674;" d="M446.673,368.846c-4.267,0-7.726-3.459-7.726-7.726v-12.723c0-4.267,3.459-7.726,7.726-7.726
		c4.267,0,7.726,3.459,7.726,7.726v12.723C454.399,365.387,450.94,368.846,446.673,368.846z"/>
	<path style="fill:#596674;" d="M376.373,375.638c-8.991,0-17.436-3.761-23.168-10.318c-2.808-3.212-2.481-8.093,0.731-10.902
		c3.213-2.808,8.093-2.481,10.902,0.732c2.798,3.2,7.001,5.036,11.534,5.036c4.533,0,8.737-1.835,11.534-5.036
		c2.808-3.213,7.689-3.541,10.902-0.732c3.213,2.808,3.541,7.689,0.732,10.902C393.809,371.877,385.365,375.638,376.373,375.638z"/>
</g>
<path style="fill:#E8742E;" d="M394.891,138.827c-1.023,0.509-2.039,1.016-3.038,1.517c-4.999,2.507-12.506,6.272-15.481,6.641
	c-2.184-0.271-6.809-2.373-11.093-4.463c0.036,1.158,0.061,2.318,0.061,3.483c0,23.038-7.077,45.067-20.466,63.707
	c-4.79,6.668-3.268,15.959,3.402,20.749s15.959,3.268,20.748-3.402c17.042-23.726,26.05-51.754,26.05-81.054
	C395.074,143.599,395.013,141.206,394.891,138.827z"/>
<path style="fill:#EA7F49;" d="M459.895,248.276c-36.92,39.635-83.523,47.109-83.523,47.109s-46.603-7.473-83.523-47.109
	c22.043-21.488,42.698-30.537,42.698-30.537s-46.504-33.619-31.141-54.671c18.683-25.601,49.13,9.684,71.966,9.684
	c22.836,0,53.283-35.285,71.966-9.684c15.363,21.052-31.141,54.671-31.141,54.671S437.853,226.789,459.895,248.276z"/>
<g>
	<path style="fill:#596674;" d="M376.373,207.326c-12.205,0-23.095-2.969-29.131-7.942c-3.293-2.714-3.764-7.582-1.052-10.876
		c2.712-3.294,7.581-3.764,10.877-1.052c2.582,2.127,9.725,4.416,19.307,4.416c9.58,0,16.723-2.289,19.307-4.416
		c3.294-2.712,8.164-2.24,10.876,1.054c2.712,3.295,2.241,8.163-1.054,10.876C399.464,204.358,388.574,207.326,376.373,207.326z"/>
	<path style="fill:#596674;" d="M65.327,368.846c-4.267,0-7.726-3.459-7.726-7.726v-12.723c0-4.267,3.459-7.726,7.726-7.726
		s7.726,3.459,7.726,7.726v12.723C73.053,365.387,69.594,368.846,65.327,368.846z"/>
	<path style="fill:#596674;" d="M205.927,368.846c-4.267,0-7.726-3.459-7.726-7.726v-12.723c0-4.267,3.459-7.726,7.726-7.726
		c4.267,0,7.726,3.459,7.726,7.726v12.723C213.653,365.387,210.194,368.846,205.927,368.846z"/>
	<path style="fill:#596674;" d="M135.627,375.638c-8.992,0-17.437-3.761-23.169-10.318c-2.808-3.213-2.481-8.094,0.732-10.902
		c3.213-2.807,8.093-2.481,10.902,0.732c2.797,3.2,7.001,5.036,11.534,5.036s8.736-1.835,11.533-5.036
		c2.809-3.213,7.689-3.541,10.902-0.732s3.541,7.689,0.732,10.902C153.063,371.877,144.619,375.638,135.627,375.638z"/>
</g>
<path style="fill:#E8742E;" d="M158.218,237.462c3.21,0,6.444-1.035,9.164-3.169c6.46-5.067,7.59-14.413,2.524-20.874
	c-15.209-19.392-23.248-42.703-23.248-67.413c0-1.166,0.025-2.326,0.061-3.483c-4.283,2.09-8.91,4.192-11.093,4.463
	c-2.975-0.369-10.482-4.133-15.481-6.641c-0.999-0.502-2.015-1.009-3.038-1.517c-0.122,2.378-0.183,4.772-0.183,7.179
	c0,31.428,10.231,61.084,29.585,85.763C149.443,235.508,153.808,237.462,158.218,237.462z"/>
<path style="fill:#FA9F6A;" d="M219.15,248.276c-36.92,39.635-83.523,47.109-83.523,47.109s-46.603-7.473-83.523-47.109
	c22.043-21.488,42.698-30.537,42.698-30.537s-46.504-33.619-31.141-54.671c18.683-25.601,49.13,9.684,71.966,9.684
	s53.283-35.285,71.966-9.684c15.363,21.052-31.141,54.671-31.141,54.671S197.108,226.789,219.15,248.276z"/>
<path style="fill:#596674;" d="M135.626,207.326c-12.204,0-23.094-2.969-29.131-7.941c-3.293-2.712-3.764-7.582-1.052-10.876
	c2.712-3.294,7.58-3.765,10.876-1.052c2.583,2.127,9.726,4.416,19.308,4.416c9.581,0,16.724-2.289,19.308-4.416
	c3.295-2.712,8.164-2.24,10.876,1.054c2.712,3.295,2.241,8.163-1.054,10.876C158.718,204.358,147.829,207.326,135.626,207.326z"/>
<g>
</g>
<g>
</g>
<g>
</g>
<g>
</g>
<g>
</g>
<g>
</g>
<g>
</g>
<g>
</g>
<g>
</g>
<g>
</g>
<g>
</g>
<g>
</g>
<g>
</g>
<g>
</g>
<g>
</g>
</svg>
