<?xml version="1.0" encoding="iso-8859-1"?>
<!-- Generator: Adobe Illustrator 19.0.0, SVG Export Plug-In . SVG Version: 6.00 Build 0)  -->
<svg version="1.1" id="Capa_1" xmlns="http://www.w3.org/2000/svg" xmlns:xlink="http://www.w3.org/1999/xlink" x="0px" y="0px"
	 viewBox="0 0 512.001 512.001" style="enable-background:new 0 0 512.001 512.001;" xml:space="preserve">
<path style="fill:#FA9F6A;" d="M299.141,251.284l-38.424-38.424c0,0-150.036-35.631-256.078,70.727
	c-6.768,6.789-6.042,17.974,1.601,23.76c23.2,17.566,70.682,54.726,107.184,91.229s73.663,83.984,91.229,107.184
	c5.787,7.643,16.972,8.369,23.76,1.601C334.773,401.32,299.141,251.284,299.141,251.284z"/>
<g>
	<path style="fill:#EA7F49;" d="M299.141,251.284l-16.483-16.483c0,0.001,35.631,150.037-70.727,256.078
		c-4.271,4.259-10.281,5.544-15.593,4.014c3.103,4.016,5.901,7.678,8.316,10.867c5.787,7.643,16.971,8.37,23.76,1.601
		C334.773,401.32,299.141,251.284,299.141,251.284z"/>
	<polygon style="fill:#EA7F49;" points="391.19,123.05 356.05,117.535 328.38,145.196 332.301,178.239 366.805,183.621 
		394.466,155.961 	"/>
</g>
<polygon style="fill:#E8742E;" points="426.329,85.671 422.136,128.29 394.466,155.961 356.05,117.535 383.711,89.865 "/>
<polygon style="fill:#EA7F49;" points="336.079,183.621 300.719,172.866 273.048,200.527 278.431,233.57 311.474,238.952 
	339.135,211.282 "/>
<polygon style="fill:#E8742E;" points="339.135,211.282 300.719,172.866 328.38,145.196 366.805,183.621 "/>
<polygon style="fill:#EA7F49;" points="245.388,228.197 217.717,255.858 221.448,290.554 256.143,294.282 283.804,266.613 
	283.804,228.295 "/>
<g>
	<polygon style="fill:#E8742E;" points="283.804,266.613 245.388,228.197 273.048,200.527 311.474,238.952 	"/>
	<polygon style="fill:#E8742E;" points="256.143,294.282 228.483,321.944 190.057,283.528 217.717,255.858 	"/>
</g>
<circle style="fill:#596674;" cx="193.809" cy="318.193" r="39.088"/>
<path style="fill:#FA9F6A;" d="M508.176,50.715c-4.778-6.323-11.823-14.659-22.026-24.862
	c-10.203-10.203-18.539-17.248-24.862-22.026c-7.816-5.906-18.85-4.855-25.505,2.333c-47.396,51.196-52.07,83.707-52.07,83.707
	l38.424,38.424c0,0,32.513-4.675,83.707-52.071C513.03,69.565,514.081,58.531,508.176,50.715z"/>
<g>
	<path style="fill:#596674;" d="M100.954,335.931c-1.978,0-3.955-0.754-5.464-2.263c-3.017-3.017-3.017-7.91,0.001-10.927
		l7.497-7.497c3.017-3.017,7.91-3.016,10.926,0c3.017,3.017,3.017,7.91-0.001,10.927l-7.497,7.497
		C104.909,335.177,102.931,335.931,100.954,335.931z"/>
	<path style="fill:#596674;" d="M183.797,418.775c-1.978,0-3.955-0.754-5.464-2.263c-3.017-3.017-3.017-7.91,0.001-10.927
		l7.497-7.497c3.017-3.017,7.91-3.016,10.926,0c3.017,3.017,3.017,7.91-0.001,10.927l-7.497,7.497
		C187.752,418.021,185.774,418.775,183.797,418.775z"/>
	<path style="fill:#596674;" d="M151.913,387.096c-7.019,0-13.862-2.864-19.002-8.005c-5.561-5.561-8.458-13.116-7.946-20.728
		c0.286-4.258,3.97-7.475,8.228-7.19c4.258,0.286,7.477,3.97,7.19,8.228c-0.213,3.162,1.047,6.356,3.454,8.765
		c2.408,2.409,5.597,3.666,8.766,3.455c4.268-0.284,7.941,2.934,8.227,7.192c0.285,4.258-2.934,7.941-7.191,8.227
		C153.062,387.076,152.486,387.096,151.913,387.096z"/>
</g>
<g>
	<circle style="fill:#E8742E;" cx="449.613" cy="29.134" r="7.62"/>
	<circle style="fill:#E8742E;" cx="432.718" cy="54.515" r="7.62"/>
	<circle style="fill:#E8742E;" cx="415.813" cy="79.891" r="7.62"/>
</g>
<g>
</g>
<g>
</g>
<g>
</g>
<g>
</g>
<g>
</g>
<g>
</g>
<g>
</g>
<g>
</g>
<g>
</g>
<g>
</g>
<g>
</g>
<g>
</g>
<g>
</g>
<g>
</g>
<g>
</g>
</svg>
