<?xml version="1.0" encoding="iso-8859-1"?>
<!-- Generator: Adobe Illustrator 19.0.0, SVG Export Plug-In . SVG Version: 6.00 Build 0)  -->
<svg version="1.1" id="Capa_1" xmlns="http://www.w3.org/2000/svg" xmlns:xlink="http://www.w3.org/1999/xlink" x="0px" y="0px"
	 viewBox="0 0 512 512" style="enable-background:new 0 0 512 512;" xml:space="preserve">
<g>
	<path style="fill:#596674;" d="M62.957,302.531c-4.205,0-7.611-3.408-7.611-7.612v-97.261c0-4.204,3.407-7.611,7.611-7.611
		s7.612,3.408,7.612,7.611v97.261C70.568,299.124,67.162,302.531,62.957,302.531z"/>
	<path style="fill:#596674;" d="M159.479,302.531c-4.205,0-7.612-3.408-7.612-7.612v-97.261c0-4.204,3.407-7.611,7.612-7.611
		c4.205,0,7.611,3.408,7.611,7.611v97.261C167.09,299.124,163.682,302.531,159.479,302.531z"/>
	<path style="fill:#596674;" d="M256,302.531c-4.205,0-7.611-3.408-7.611-7.612v-97.261c0-4.204,3.407-7.611,7.611-7.611
		s7.611,3.408,7.611,7.611v97.261C263.611,299.124,260.204,302.531,256,302.531z"/>
	<path style="fill:#596674;" d="M352.521,302.531c-4.205,0-7.611-3.408-7.611-7.612v-97.261c0-4.204,3.407-7.611,7.611-7.611
		c4.205,0,7.612,3.408,7.612,7.611v97.261C360.132,299.124,356.725,302.531,352.521,302.531z"/>
	<path style="fill:#596674;" d="M449.043,302.531c-4.205,0-7.611-3.408-7.611-7.612v-97.261c0-4.204,3.407-7.611,7.611-7.611
		s7.612,3.408,7.612,7.611v97.261C456.654,299.124,453.246,302.531,449.043,302.531z"/>
	<path style="fill:#596674;" d="M462.016,159.341c-1.506,0-3.027-0.446-4.356-1.375L256,16.901L54.34,157.965
		c-3.445,2.41-8.19,1.57-10.599-1.874c-2.409-3.444-1.571-8.19,1.874-10.6L251.637,1.375c2.62-1.833,6.105-1.833,8.726,0
		l206.023,144.117c3.445,2.409,4.284,7.155,1.874,10.6C466.778,158.207,464.416,159.341,462.016,159.341z"/>
</g>
<path style="fill:#EA7F49;" d="M474.38,132.705H37.62c-11.369,0-20.585,9.217-20.585,20.586v40.144
	c0,11.369,9.216,20.585,20.585,20.585h436.761c11.369,0,20.585-9.216,20.585-20.585v-40.144
	C494.965,141.921,485.749,132.705,474.38,132.705z"/>
<path style="fill:#E8742E;" d="M47.48,193.435v-40.144c0-11.369,9.216-20.586,20.585-20.586H37.619
	c-11.369,0-20.585,9.217-20.585,20.586v40.144c0,11.369,9.216,20.585,20.585,20.585h30.446
	C56.696,214.02,47.48,204.804,47.48,193.435z"/>
<g>
	<path style="fill:#596674;" d="M165.931,184.773c-4.205,0-7.611-3.408-7.611-7.611v-16.301c0-4.204,3.407-7.611,7.611-7.611
		s7.611,3.408,7.611,7.611v16.301C173.543,181.366,170.136,184.773,165.931,184.773z"/>
	<path style="fill:#596674;" d="M346.068,184.773c-4.205,0-7.611-3.408-7.611-7.611v-16.301c0-4.204,3.407-7.611,7.611-7.611
		s7.612,3.408,7.612,7.611v16.301C353.68,181.366,350.273,184.773,346.068,184.773z"/>
	<path style="fill:#596674;" d="M256,193.475c-10.86,0-21.051-4.533-27.961-12.437c-2.768-3.165-2.444-7.974,0.722-10.74
		s7.974-2.444,10.739,0.722c4.018,4.596,10.032,7.233,16.5,7.233c6.468,0,12.482-2.637,16.5-7.233
		c2.766-3.165,7.576-3.488,10.739-0.722c3.165,2.767,3.489,7.575,0.722,10.74C277.051,188.941,266.86,193.475,256,193.475z"/>
</g>
<path style="fill:#FAE076;" d="M82.53,260.232H43.385c-6.837,0-12.379,5.542-12.379,12.379V499.62
	c0,6.837,5.542,12.379,12.379,12.379H82.53c6.837,0,12.379-5.542,12.379-12.379V272.611
	C94.909,265.774,89.367,260.232,82.53,260.232z"/>
<path style="fill:#EDBD4E;" d="M127.527,464.673c0,6.837,5.542,12.379,12.379,12.379h39.144c6.837,0,12.379-5.542,12.379-12.379
	V272.611c0-6.837-5.542-12.379-12.379-12.379h-39.144c-6.837,0-12.379,5.542-12.379,12.379V464.673z"/>
<path style="fill:#FAE076;" d="M224.048,429.726c0,6.837,5.542,12.379,12.379,12.379h39.144c6.837,0,12.379-5.542,12.379-12.379
	V272.611c0-6.837-5.542-12.379-12.379-12.379h-39.144c-6.837,0-12.379,5.542-12.379,12.379V429.726z"/>
<path style="fill:#EDBD4E;" d="M320.57,394.778c0,6.837,5.542,12.379,12.379,12.379h39.144c6.837,0,12.379-5.542,12.379-12.379
	V272.611c0-6.837-5.542-12.379-12.379-12.379h-39.144c-6.837,0-12.379,5.542-12.379,12.379L320.57,394.778L320.57,394.778z"/>
<path style="fill:#FAE076;" d="M468.614,260.232H429.47c-6.837,0-12.379,5.542-12.379,12.379v87.221
	c0,6.837,5.542,12.379,12.379,12.379h39.144c6.837,0,12.379-5.542,12.379-12.379v-87.221
	C480.995,265.774,475.451,260.232,468.614,260.232z"/>
<g>
	<circle style="fill:#596674;" cx="62.952" cy="294.921" r="9.985"/>
	<circle style="fill:#596674;" cx="159.476" cy="294.921" r="9.985"/>
	<circle style="fill:#596674;" cx="256" cy="294.921" r="9.985"/>
	<circle style="fill:#596674;" cx="352.524" cy="294.921" r="9.985"/>
	<circle style="fill:#596674;" cx="449.037" cy="294.921" r="9.985"/>
</g>
<g>
</g>
<g>
</g>
<g>
</g>
<g>
</g>
<g>
</g>
<g>
</g>
<g>
</g>
<g>
</g>
<g>
</g>
<g>
</g>
<g>
</g>
<g>
</g>
<g>
</g>
<g>
</g>
<g>
</g>
</svg>
