<?xml version="1.0" encoding="iso-8859-1"?>
<!-- Generator: Adobe Illustrator 19.0.0, SVG Export Plug-In . SVG Version: 6.00 Build 0)  -->
<svg version="1.1" id="Capa_1" xmlns="http://www.w3.org/2000/svg" xmlns:xlink="http://www.w3.org/1999/xlink" x="0px" y="0px"
	 viewBox="0 0 512.002 512.002" style="enable-background:new 0 0 512.002 512.002;" xml:space="preserve">
<path style="fill:#EDBD4E;" d="M84.974,8.92c2.756-7.168,10.805-10.746,17.97-7.989l284.872,109.523
	c6.023,2.316,12.474,3.535,18.909,3.04c5.79-0.445,11.733,1.644,16.028,6.286c6.854,7.408,6.952,19.09,0.213,26.602
	c-7.639,8.517-20.747,8.783-28.729,0.801c-0.018-0.018-0.036-0.036-0.054-0.054c-4.442-4.476-9.636-8.134-15.523-10.398
	L92.964,26.891C85.795,24.135,82.219,16.089,84.974,8.92z"/>
<g>
	<polygon style="fill:#F74F50;" points="91.846,303.972 29.013,261.686 29.013,486.631 142.013,486.631 	"/>
	<polygon style="fill:#F74F50;" points="420.156,303.972 369.988,486.631 482.989,486.631 482.989,261.686 	"/>
	<polygon style="fill:#F74F50;" points="349.099,351.343 256.001,259.723 162.902,351.343 142.013,486.631 369.988,486.631 	"/>
</g>
<polygon style="fill:#FAE076;" points="482.989,230.678 482.989,261.686 369.988,486.631 256.001,259.723 142.013,486.631 
	29.013,261.686 29.013,230.678 "/>
<rect x="29.011" y="183.084" style="fill:#EFEDEE;" width="453.98" height="76.635"/>
<g>
	<path style="fill:#596674;" d="M189.161,231.947c-4.268,0-7.726-3.459-7.726-7.726v-12.097c0-4.267,3.458-7.726,7.726-7.726
		s7.726,3.459,7.726,7.726v12.097C196.887,228.488,193.429,231.947,189.161,231.947z"/>
	<path style="fill:#596674;" d="M322.841,231.947c-4.268,0-7.726-3.459-7.726-7.726v-12.097c0-4.267,3.458-7.726,7.726-7.726
		c4.268,0,7.726,3.459,7.726,7.726v12.097C330.567,228.488,327.108,231.947,322.841,231.947z"/>
	<path style="fill:#596674;" d="M256.001,238.404c-8.659,0-16.792-3.623-22.314-9.94c-2.809-3.213-2.481-8.094,0.732-10.902
		c3.211-2.808,8.093-2.481,10.901,0.732c2.588,2.96,6.48,4.657,10.68,4.657c4.2,0,8.092-1.698,10.68-4.657
		c2.808-3.213,7.689-3.541,10.901-0.732c3.213,2.808,3.542,7.689,0.732,10.902C272.793,234.781,264.659,238.404,256.001,238.404z"/>
</g>
<g>
	<path style="fill:#D2D2D2;" d="M149.495,166.426h-14.962c-4.727,0-8.56,3.832-8.56,8.56v92.83c0,4.727,3.832,8.56,8.56,8.56h14.962
		c4.728,0,8.56-3.832,8.56-8.56v-92.83C158.054,170.259,154.222,166.426,149.495,166.426z"/>
	<path style="fill:#D2D2D2;" d="M149.495,461.266h-14.962c-4.727,0-8.56,3.832-8.56,8.56v33.616c0,4.728,3.832,8.56,8.56,8.56
		h14.962c4.728,0,8.56-3.832,8.56-8.56v-33.617C158.054,465.098,154.222,461.266,149.495,461.266z"/>
	<path style="fill:#D2D2D2;" d="M36.494,166.426H21.532c-4.728,0-8.56,3.832-8.56,8.56v92.83c0,4.727,3.832,8.56,8.56,8.56h14.962
		c4.728,0,8.56-3.832,8.56-8.56v-92.83C45.053,170.259,41.221,166.426,36.494,166.426z"/>
	<path style="fill:#D2D2D2;" d="M36.494,461.266H21.532c-4.728,0-8.56,3.832-8.56,8.56v33.616c0,4.728,3.832,8.56,8.56,8.56h14.962
		c4.728,0,8.56-3.832,8.56-8.56v-33.617C45.053,465.098,41.221,461.266,36.494,461.266z"/>
	<path style="fill:#D2D2D2;" d="M362.507,166.426h14.962c4.727,0,8.56,3.832,8.56,8.56v92.83c0,4.727-3.832,8.56-8.56,8.56h-14.962
		c-4.728,0-8.56-3.832-8.56-8.56v-92.83C353.947,170.259,357.78,166.426,362.507,166.426z"/>
	<path style="fill:#D2D2D2;" d="M362.507,461.266h14.962c4.727,0,8.56,3.832,8.56,8.56v33.616c0,4.728-3.832,8.56-8.56,8.56h-14.962
		c-4.728,0-8.56-3.832-8.56-8.56v-33.617C353.947,465.098,357.78,461.266,362.507,461.266z"/>
	<path style="fill:#D2D2D2;" d="M475.508,166.426h14.962c4.728,0,8.56,3.832,8.56,8.56v92.83c0,4.727-3.832,8.56-8.56,8.56h-14.962
		c-4.727,0-8.56-3.832-8.56-8.56v-92.83C466.949,170.259,470.78,166.426,475.508,166.426z"/>
	<path style="fill:#D2D2D2;" d="M475.508,461.266h14.962c4.728,0,8.56,3.832,8.56,8.56v33.616c0,4.728-3.832,8.56-8.56,8.56h-14.962
		c-4.727,0-8.56-3.832-8.56-8.56v-33.617C466.949,465.098,470.78,461.266,475.508,461.266z"/>
</g>
<path style="fill:#FAE076;" d="M427.027,8.92c-2.756-7.169-10.805-10.746-17.97-7.99L124.185,110.454
	c-6.023,2.316-12.474,3.535-18.909,3.04c-5.79-0.445-11.733,1.644-16.028,6.286c-6.854,7.408-6.952,19.09-0.213,26.602
	c7.639,8.517,20.747,8.783,28.729,0.801c0.018-0.018,0.036-0.036,0.054-0.054c4.442-4.476,9.636-8.134,15.523-10.398L419.037,26.891
	C426.206,24.135,429.783,16.089,427.027,8.92z"/>
<g>
</g>
<g>
</g>
<g>
</g>
<g>
</g>
<g>
</g>
<g>
</g>
<g>
</g>
<g>
</g>
<g>
</g>
<g>
</g>
<g>
</g>
<g>
</g>
<g>
</g>
<g>
</g>
<g>
</g>
</svg>
