<?xml version="1.0" encoding="iso-8859-1"?>
<!-- Generator: Adobe Illustrator 19.0.0, SVG Export Plug-In . SVG Version: 6.00 Build 0)  -->
<svg version="1.1" id="Capa_1" xmlns="http://www.w3.org/2000/svg" xmlns:xlink="http://www.w3.org/1999/xlink" x="0px" y="0px"
	 viewBox="0 0 511.999 511.999" style="enable-background:new 0 0 511.999 511.999;" xml:space="preserve">
<polygon style="fill:#EFEDEE;" points="205.831,310.443 87.953,261.572 40.732,279.844 152.075,400.588 313.581,431.16 
	313.667,404.516 "/>
<path style="fill:#FD6F71;" d="M240.775,508.724c12.506,6.96,28.288,2.464,35.248-10.043l37.347-67.11L40.732,279.846l-37.347,67.11
	c-6.96,12.506-2.463,28.288,10.043,35.248l138.648,18.383L240.775,508.724z"/>
<polygon style="fill:#D2D2D2;" points="240.253,433.225 245.585,423.647 213.108,405.573 178.915,425.047 175.822,472.574 
	208.297,490.647 250.482,466.184 "/>
<g>
	<polygon style="fill:#EFEDEE;" points="261.771,87.755 310.641,205.632 404.715,313.469 431.358,313.382 400.054,166.203 
		280.042,40.534 	"/>
	<polygon style="fill:#EFEDEE;" points="197.88,134.255 144.683,144.485 134.454,197.682 205.831,310.443 336.879,372.486 
		363.605,363.407 372.684,336.681 310.641,205.632 	"/>
	
		<rect x="204.85" y="447.613" transform="matrix(-0.4863 0.8738 -0.8738 -0.4863 768.811 480.4113)" style="fill:#EFEDEE;" width="76.677" height="37.169"/>
</g>
<polygon style="fill:#D2D2D2;" points="148.149,369.423 115.673,395.76 110.863,436.423 143.339,454.496 180.625,421.613 
	180.625,387.496 "/>
<rect x="139.89" y="411.455" transform="matrix(-0.4863 0.8738 -0.8738 -0.4863 640.6706 483.4396)" style="fill:#EFEDEE;" width="76.677" height="37.179"/>
<polygon style="fill:#D2D2D2;" points="115.673,351.35 83.196,333.276 48.311,357.739 45.91,400.277 78.386,418.35 113.267,404.516 
	108.126,364.91 "/>
<g>
	
		<rect x="74.933" y="375.311" transform="matrix(-0.4863 0.8738 -0.8738 -0.4863 512.5394 486.4698)" style="fill:#EFEDEE;" width="76.677" height="37.169"/>
	
		<rect x="9.983" y="339.157" transform="matrix(-0.4863 0.8738 -0.8738 -0.4863 384.4166 489.4958)" style="fill:#EFEDEE;" width="76.677" height="37.179"/>
</g>
<g>
	
		<rect x="59.627" y="330.142" transform="matrix(-0.8738 -0.4863 0.4863 -0.8738 -39.3866 699.7374)" style="fill:#596674;" width="22.959" height="49.676"/>
	
		<rect x="92.108" y="348.214" transform="matrix(-0.8738 -0.4863 0.4863 -0.8738 12.6878 749.3959)" style="fill:#596674;" width="22.959" height="49.676"/>
	
		<rect x="157.06" y="384.364" transform="matrix(-0.8738 -0.4863 0.4863 -0.8738 116.8143 848.7192)" style="fill:#596674;" width="22.959" height="49.676"/>
	
		<rect x="189.529" y="402.441" transform="matrix(-0.8738 -0.4863 0.4863 -0.8738 168.8635 898.3812)" style="fill:#596674;" width="22.959" height="49.676"/>
	
		<rect x="222.011" y="420.514" transform="matrix(-0.8738 -0.4863 0.4863 -0.8738 220.9409 948.0425)" style="fill:#596674;" width="22.959" height="49.676"/>
</g>
<path style="fill:#FD6F71;" d="M382.512,13.364l-0.001-0.006C375.573,0.839,359.8-3.685,347.281,3.253l-67.175,37.23
	l151.251,272.901l67.175-37.231c12.519-6.938,17.042-22.711,10.104-35.23l-0.005-0.004L382.512,13.364z"/>
<g>
	<circle style="fill:#EFEDEE;" cx="473.1" cy="242.545" r="12.102"/>
	<circle style="fill:#EFEDEE;" cx="420.097" cy="227.339" r="12.102"/>
	<circle style="fill:#EFEDEE;" cx="442.473" cy="187.276" r="12.102"/>
	<circle style="fill:#EFEDEE;" cx="389.47" cy="172.07" r="12.102"/>
	<circle style="fill:#EFEDEE;" cx="411.835" cy="132.006" r="12.102"/>
	<circle style="fill:#EFEDEE;" cx="358.832" cy="116.801" r="12.102"/>
	<circle style="fill:#EFEDEE;" cx="381.208" cy="76.737" r="12.102"/>
	<circle style="fill:#EFEDEE;" cx="328.205" cy="61.532" r="12.102"/>
</g>
<g>
	<polygon style="fill:#D2D2D2;" points="336.879,372.486 332.404,394.608 313.667,404.516 87.953,261.572 86.373,219.164 
		134.454,197.682 	"/>
	<polygon style="fill:#D2D2D2;" points="261.771,87.755 404.715,313.469 394.806,332.206 372.684,336.681 197.88,134.255 
		219.362,86.175 	"/>
</g>
<g>
	<path style="fill:#596674;" d="M146.561,264.38c-1.977,0-3.955-0.754-5.463-2.263l-9.98-9.98c-3.017-3.017-3.017-7.91,0-10.927
		c3.017-3.017,7.91-3.017,10.926,0l9.98,9.98c3.017,3.017,3.017,7.91,0,10.927C150.515,263.625,148.538,264.38,146.561,264.38z"/>
	<path style="fill:#596674;" d="M256.852,154.088c-1.977,0-3.955-0.754-5.463-2.263l-9.98-9.98c-3.017-3.017-3.017-7.91,0-10.927
		c3.017-3.017,7.91-3.017,10.926,0l9.98,9.98c3.017,3.017,3.017,7.91,0,10.927C260.806,153.334,258.829,154.088,256.852,154.088z"/>
	<path style="fill:#596674;" d="M189.009,222.205c-0.708,0-1.417-0.024-2.126-0.071c-4.258-0.286-7.477-3.969-7.191-8.227
		c0.285-4.258,3.967-7.478,8.226-7.191c4.956,0.333,9.924-1.615,13.652-5.344s5.675-8.704,5.344-13.651
		c-0.286-4.258,2.933-7.941,7.191-8.227c4.255-0.287,7.941,2.933,8.227,7.191c0.632,9.396-2.952,18.732-9.834,25.613
		C206.136,218.66,197.675,222.204,189.009,222.205z"/>
</g>
<g>
</g>
<g>
</g>
<g>
</g>
<g>
</g>
<g>
</g>
<g>
</g>
<g>
</g>
<g>
</g>
<g>
</g>
<g>
</g>
<g>
</g>
<g>
</g>
<g>
</g>
<g>
</g>
<g>
</g>
</svg>
