<?xml version="1.0" encoding="iso-8859-1"?>
<!-- Generator: Adobe Illustrator 19.0.0, SVG Export Plug-In . SVG Version: 6.00 Build 0)  -->
<svg version="1.1" id="Capa_1" xmlns="http://www.w3.org/2000/svg" xmlns:xlink="http://www.w3.org/1999/xlink" x="0px" y="0px"
	 viewBox="0 0 511.999 511.999" style="enable-background:new 0 0 511.999 511.999;" xml:space="preserve">
<g>
	<ellipse style="fill:#EDBD4E;" cx="256" cy="44.905" rx="47.625" ry="44.905"/>
	
		<ellipse transform="matrix(0.7071 -0.7071 0.7071 0.7071 43.2305 317.8185)" style="fill:#EDBD4E;" cx="405.256" cy="106.725" rx="44.904" ry="47.625"/>
	<ellipse style="fill:#EDBD4E;" cx="467.094" cy="256" rx="44.905" ry="47.625"/>
	
		<ellipse transform="matrix(0.7071 0.7071 -0.7071 0.7071 405.2683 -167.8784)" style="fill:#EDBD4E;" cx="405.281" cy="405.263" rx="44.904" ry="47.625"/>
	<ellipse style="fill:#EDBD4E;" cx="256" cy="467.094" rx="47.625" ry="44.905"/>
	
		<ellipse transform="matrix(-0.7071 0.7071 -0.7071 -0.7071 468.7549 616.3846)" style="fill:#EDBD4E;" cx="106.72" cy="405.275" rx="44.904" ry="47.625"/>
	<ellipse style="fill:#EDBD4E;" cx="44.905" cy="256" rx="44.905" ry="47.625"/>
	
		<ellipse transform="matrix(-0.7071 -0.7071 0.7071 -0.7071 106.7375 257.6862)" style="fill:#EDBD4E;" cx="106.737" cy="106.737" rx="44.904" ry="47.625"/>
</g>
<circle style="fill:#FAE076;" cx="256" cy="256" r="222.416"/>
<circle style="fill:#FA9F6A;" cx="256" cy="256" r="175.43"/>
<circle style="fill:#EFEDEE;" cx="256" cy="256" r="141.454"/>
<path style="fill:#D2D2D2;" d="M140.306,256c0-73.778,56.488-134.353,128.572-140.86c-4.242-0.383-8.535-0.589-12.877-0.589
	c-78.121,0-141.449,63.329-141.449,141.449S177.879,397.449,256,397.449c4.342,0,8.635-0.207,12.877-0.589
	C196.793,390.353,140.306,329.778,140.306,256z"/>
<g>
	<path style="fill:#596674;" d="M171.012,267.312c-4.268,0-7.726-3.459-7.726-7.726v-15.382c0-4.267,3.458-7.726,7.726-7.726
		s7.726,3.459,7.726,7.726v15.382C178.738,263.853,175.28,267.312,171.012,267.312z"/>
	<path style="fill:#596674;" d="M340.988,267.312c-4.268,0-7.726-3.459-7.726-7.726v-15.382c0-4.267,3.458-7.726,7.726-7.726
		s7.726,3.459,7.726,7.726v15.382C348.714,263.853,345.256,267.312,340.988,267.312z"/>
	<path style="fill:#596674;" d="M256,275.522c-10.405,0-20.17-4.345-26.794-11.922c-2.809-3.213-2.481-8.094,0.731-10.902
		c3.213-2.808,8.094-2.482,10.902,0.731c3.689,4.22,9.214,6.64,15.16,6.64c5.946,0,11.471-2.42,15.159-6.639
		c2.808-3.213,7.689-3.541,10.901-0.732c3.213,2.808,3.542,7.689,0.732,10.902C276.171,271.177,266.406,275.522,256,275.522z"/>
</g>
<g>
</g>
<g>
</g>
<g>
</g>
<g>
</g>
<g>
</g>
<g>
</g>
<g>
</g>
<g>
</g>
<g>
</g>
<g>
</g>
<g>
</g>
<g>
</g>
<g>
</g>
<g>
</g>
<g>
</g>
</svg>
