<?xml version="1.0" encoding="iso-8859-1"?>
<!-- Generator: Adobe Illustrator 19.0.0, SVG Export Plug-In . SVG Version: 6.00 Build 0)  -->
<svg version="1.1" id="Capa_1" xmlns="http://www.w3.org/2000/svg" xmlns:xlink="http://www.w3.org/1999/xlink" x="0px" y="0px"
	 viewBox="0 0 512 512" style="enable-background:new 0 0 512 512;" xml:space="preserve">
<g>
	<path style="fill:#EDBD4E;" d="M187.115,214.402L152.746,9.909l-0.148,0.127V9.909H83.861L49.344,252.506l34.517,189.67
		c0,10.116,8.201,18.318,18.318,18.318h32.103c10.116,0,18.318-8.201,18.318-18.318v-41.913l0.148,0.315L187.115,214.402z"/>
	<path style="fill:#EDBD4E;" d="M324.885,172.805L290.517,9.909l-0.148,0.126V9.909h-68.737l-34.517,204.493l34.517,144.579
		c0,10.116,8.201,18.318,18.318,18.318h32.102c10.116,0,18.318-8.201,18.318-18.318v-41.485l0.148-0.112L324.885,172.805z"/>
	<path style="fill:#EDBD4E;" d="M462.656,131.208L428.287,9.909l-0.148,0.113V9.909h-68.737l-34.517,162.895l34.517,102.981
		c0,10.116,8.201,18.318,18.318,18.318h32.102c10.116,0,18.318-8.201,18.318-18.318v-41.322c0.047-0.092,0.106-0.185,0.148-0.276
		C432.466,225.218,462.656,131.208,462.656,131.208z"/>
</g>
<g>
	<path style="fill:#FAE076;" d="M14.975,9.909v473.864c0,10.116,8.201,18.318,18.318,18.318h32.103
		c10.116,0,18.318-8.201,18.318-18.318V9.909H14.975z"/>
	<path style="fill:#FAE076;" d="M171.064,418.895h32.103c10.116,0,18.318-8.201,18.318-18.318V9.909h-68.737v390.669
		C152.746,410.695,160.947,418.895,171.064,418.895z"/>
	<path style="fill:#FAE076;" d="M308.834,335.701h32.103c10.116,0,18.318-8.201,18.318-18.318V9.909h-68.737v307.474
		C290.517,327.5,298.717,335.701,308.834,335.701z"/>
	<path style="fill:#FAE076;" d="M428.287,9.909v224.28c0,10.116,8.201,18.318,18.318,18.318h32.103
		c10.116,0,18.318-8.201,18.318-18.318V9.909H428.287z"/>
</g>
<path style="fill:#EA7F49;" d="M491.794,75.467H20.206C9.047,75.467,0,84.513,0,95.673v73.398c0,11.16,9.047,20.206,20.206,20.206
	h471.588c11.159,0,20.206-9.046,20.206-20.206V95.673C512,84.513,502.954,75.467,491.794,75.467z"/>
<path style="fill:#E8742E;" d="M41.207,169.071V95.673c0-11.16,9.046-20.206,20.206-20.206H20.206C9.046,75.467,0,84.513,0,95.673
	v73.399c0,11.16,9.046,20.206,20.206,20.206h41.207C50.253,189.277,41.207,180.231,41.207,169.071z"/>
<g>
	<path style="fill:#596674;" d="M165.757,141.177c-4.268,0-7.726-3.459-7.726-7.726v-16.332c0-4.267,3.458-7.726,7.726-7.726
		c4.268,0,7.726,3.459,7.726,7.726v16.332C173.484,137.718,170.024,141.177,165.757,141.177z"/>
	<path style="fill:#596674;" d="M346.244,141.177c-4.268,0-7.726-3.459-7.726-7.726v-16.332c0-4.267,3.458-7.726,7.726-7.726
		c4.268,0,7.726,3.459,7.726,7.726v16.332C353.97,137.718,350.511,141.177,346.244,141.177z"/>
	<path style="fill:#596674;" d="M256,149.895c-10.911,0-21.149-4.554-28.091-12.496c-2.809-3.213-2.481-8.094,0.731-10.902
		c3.214-2.808,8.094-2.482,10.902,0.732c4.007,4.584,10.006,7.213,16.457,7.213c6.452,0,12.449-2.629,16.455-7.212
		c2.809-3.213,7.691-3.541,10.902-0.732c3.213,2.808,3.542,7.689,0.733,10.902C277.15,145.34,266.911,149.895,256,149.895z"/>
</g>
<rect x="14.975" y="189.275" style="fill:#EDBD4E;" width="68.734" height="31.723"/>
<rect x="83.857" y="189.275" style="fill:#D99D2E;" width="68.734" height="31.723"/>
<rect x="152.745" y="189.275" style="fill:#EDBD4E;" width="68.734" height="31.723"/>
<rect x="221.633" y="189.275" style="fill:#D99D2E;" width="68.734" height="31.723"/>
<rect x="290.521" y="189.275" style="fill:#EDBD4E;" width="68.734" height="31.723"/>
<rect x="359.399" y="189.275" style="fill:#D99D2E;" width="68.734" height="31.723"/>
<rect x="428.287" y="189.275" style="fill:#EDBD4E;" width="68.734" height="31.723"/>
<g>
</g>
<g>
</g>
<g>
</g>
<g>
</g>
<g>
</g>
<g>
</g>
<g>
</g>
<g>
</g>
<g>
</g>
<g>
</g>
<g>
</g>
<g>
</g>
<g>
</g>
<g>
</g>
<g>
</g>
</svg>
