<?xml version="1.0" encoding="iso-8859-1"?>
<!-- Generator: Adobe Illustrator 19.0.0, SVG Export Plug-In . SVG Version: 6.00 Build 0)  -->
<svg version="1.1" id="Capa_1" xmlns="http://www.w3.org/2000/svg" xmlns:xlink="http://www.w3.org/1999/xlink" x="0px" y="0px"
	 viewBox="0 0 512 512" style="enable-background:new 0 0 512 512;" xml:space="preserve">
<path style="fill:#E8742E;" d="M388.647,487.381c-6.856-7.441-14.388-11.715-14.388-11.715L256,445.843l-118.26,29.823
	c0,0-7.532,4.275-14.388,11.715c-8.665,9.405-2.041,24.619,10.748,24.619h243.799C390.687,512,397.312,496.785,388.647,487.381z"/>
<g>
	<path style="fill:#FA9F6A;" d="M54.776,259.469c10.772,69.59,34.407,147.574,82.965,216.197H374.26
		c48.558-68.622,72.194-146.607,82.965-216.197H54.776z"/>
	<polygon style="fill:#FA9F6A;" points="48.297,223.721 49.889,239.146 457.224,239.146 463.703,223.721 462.111,220.245 
		435.446,39.648 76.554,39.648 54.776,165.619 	"/>
</g>
<path style="fill:#E8742E;" d="M76.554,39.648L52.522,62.497c0,0-11.199,67.788-2.632,157.748l72.426-157.748L76.554,39.648z"/>
<g>
	<path style="fill:#EA7F49;" d="M459.478,62.497l-24.032-22.849l-45.762,22.849l72.426,157.748
		C470.677,130.286,459.478,62.497,459.478,62.497z"/>
	<polygon style="fill:#EA7F49;" points="189.158,39.648 122.315,62.497 189.158,223.721 256,62.497 	"/>
</g>
<polygon style="fill:#E8742E;" points="322.842,39.648 389.685,62.497 322.842,223.721 256,62.497 "/>
<path style="fill:#EFEDEE;" d="M430.159,0H81.841C56.488,0,35.935,20.553,35.935,45.906l0,0c0,9.162,7.428,16.59,16.59,16.59
	h406.951c9.162,0,16.59-7.428,16.59-16.59l0,0C476.065,20.553,455.513,0,430.159,0z"/>
<path style="fill:#D2D2D2;" d="M87.444,45.906L87.444,45.906C87.444,20.553,107.996,0,133.35,0H81.841
	C56.488,0,35.935,20.553,35.935,45.906l0,0c0,9.162,7.428,16.59,16.59,16.59h51.509C94.871,62.496,87.444,55.068,87.444,45.906z"/>
<g>
	<path style="fill:#596674;" d="M150.595,342.654c-4.267,0-7.726-3.459-7.726-7.726V315.85c0-4.267,3.459-7.726,7.726-7.726
		c4.267,0,7.726,3.459,7.726,7.726v19.077C158.321,339.195,154.862,342.654,150.595,342.654z"/>
	<path style="fill:#596674;" d="M361.405,342.654c-4.267,0-7.726-3.459-7.726-7.726V315.85c0-4.267,3.459-7.726,7.726-7.726
		s7.726,3.459,7.726,7.726v19.077C369.131,339.195,365.672,342.654,361.405,342.654z"/>
	<path style="fill:#596674;" d="M256,352.837c-12.369,0-23.972-5.158-31.833-14.152c-2.808-3.213-2.481-8.094,0.732-10.902
		c3.213-2.808,8.093-2.481,10.902,0.732c4.926,5.636,12.288,8.869,20.198,8.869c7.91,0,15.271-3.233,20.198-8.869
		c2.809-3.213,7.689-3.541,10.902-0.732c3.213,2.808,3.541,7.689,0.732,10.902C279.971,347.679,268.369,352.837,256,352.837z"/>
</g>
<path style="fill:#EA7F49;" d="M60.351,290.373H451.65c2.153-10.442,4.005-20.764,5.575-30.905H54.776
	C56.345,269.609,58.197,279.932,60.351,290.373z"/>
<path style="fill:#EFEDEE;" d="M463.703,223.721H48.297c-9.871,0-17.874,8.002-17.874,17.874l0,0
	c0,9.871,8.002,17.874,17.874,17.874h415.406c9.871,0,17.874-8.002,17.874-17.874l0,0
	C481.577,231.723,473.574,223.721,463.703,223.721z"/>
<g>
</g>
<g>
</g>
<g>
</g>
<g>
</g>
<g>
</g>
<g>
</g>
<g>
</g>
<g>
</g>
<g>
</g>
<g>
</g>
<g>
</g>
<g>
</g>
<g>
</g>
<g>
</g>
<g>
</g>
</svg>
