<?xml version="1.0" encoding="iso-8859-1"?>
<!-- Generator: Adobe Illustrator 19.0.0, SVG Export Plug-In . SVG Version: 6.00 Build 0)  -->
<svg version="1.1" id="Capa_1" xmlns="http://www.w3.org/2000/svg" xmlns:xlink="http://www.w3.org/1999/xlink" x="0px" y="0px"
	 viewBox="0 0 511.999 511.999" style="enable-background:new 0 0 511.999 511.999;" xml:space="preserve">
<path style="fill:#A1A1A1;" d="M117.818,451.829L69.687,499.96c-6.652,6.652-17.436,6.652-24.087,0l-22.424-22.424l37.904-37.904
	L117.818,451.829z"/>
<path style="fill:#D2D2D2;" d="M6.128,436.402c-6.652,6.652-6.652,17.436,0,24.087l17.048,17.048c6.652,6.652,17.436,6.652,24.087,0
	l48.131-48.131l-41.135-41.135L6.128,436.402z"/>
<path style="fill:#A1A1A1;" d="M451.829,117.818l48.131-48.131c6.652-6.652,6.652-17.436,0-24.087l-22.424-22.424l-37.904,37.904
	L451.829,117.818z"/>
<g>
	<path style="fill:#D2D2D2;" d="M436.402,6.128c6.652-6.652,17.436-6.652,24.087,0l17.048,17.048c6.652,6.652,6.652,17.436,0,24.087
		l-48.131,48.131l-41.135-41.135L436.402,6.128z"/>
	<path style="fill:#D2D2D2;" d="M498.561,120.011c17.918,17.918,17.918,46.969,0,64.887L184.898,498.561
		c-17.918,17.918-46.969,17.918-64.887,0l-46.886-46.886l378.55-378.55L498.561,120.011z"/>
</g>
<g>
	<path style="fill:#596674;" d="M173.23,441.125l-12.739,12.739c-2.618,2.618-2.618,6.862,0,9.48l12.739,12.739
		c2.618,2.618,6.862,2.618,9.48,0l12.739-12.739c2.618-2.618,2.618-6.862,0-9.48l-12.739-12.739
		C180.092,438.508,175.848,438.508,173.23,441.125z"/>
	<path style="fill:#596674;" d="M213.32,401.035l-12.739,12.739c-2.618,2.618-2.618,6.862,0,9.48l12.739,12.739
		c2.618,2.618,6.862,2.618,9.48,0l12.739-12.739c2.618-2.618,2.618-6.862,0-9.48L222.8,401.035
		C220.182,398.417,215.938,398.417,213.32,401.035z"/>
	<path style="fill:#596674;" d="M253.411,360.944l-12.739,12.739c-2.618,2.618-2.618,6.862,0,9.48l12.739,12.739
		c2.618,2.618,6.862,2.618,9.48,0l12.739-12.739c2.618-2.618,2.618-6.862,0-9.48l-12.739-12.739
		C260.273,358.327,256.029,358.327,253.411,360.944z"/>
	<path style="fill:#596674;" d="M293.501,320.854l-12.739,12.739c-2.618,2.618-2.618,6.862,0,9.48l12.739,12.739
		c2.618,2.618,6.862,2.618,9.48,0l12.739-12.739c2.618-2.618,2.618-6.862,0-9.48l-12.739-12.739
		C300.363,318.235,296.119,318.236,293.501,320.854z"/>
	<path style="fill:#596674;" d="M333.592,280.762l-12.739,12.739c-2.618,2.618-2.618,6.862,0,9.48l12.739,12.739
		c2.618,2.618,6.862,2.618,9.48,0l12.739-12.739c2.618-2.618,2.618-6.862,0-9.48l-12.739-12.739
		C340.454,278.145,336.21,278.145,333.592,280.762z"/>
	<path style="fill:#596674;" d="M373.682,240.672l-12.739,12.739c-2.618,2.618-2.618,6.862,0,9.48l12.739,12.739
		c2.618,2.618,6.862,2.618,9.48,0l12.739-12.739c2.618-2.618,2.618-6.862,0-9.48l-12.739-12.739
		C380.544,238.054,376.3,238.054,373.682,240.672z"/>
	<path style="fill:#596674;" d="M413.773,200.581l-12.739,12.739c-2.618,2.618-2.618,6.862,0,9.48l12.739,12.739
		c2.618,2.618,6.862,2.618,9.48,0l12.739-12.739c2.618-2.618,2.618-6.862,0-9.48l-12.739-12.739
		C420.635,197.963,416.391,197.963,413.773,200.581z"/>
	<path style="fill:#596674;" d="M453.865,160.491l-12.739,12.739c-2.618,2.618-2.618,6.862,0,9.48l12.739,12.739
		c2.618,2.618,6.862,2.618,9.48,0l12.739-12.739c2.618-2.618,2.618-6.862,0-9.48l-12.739-12.739
		C460.726,157.873,456.481,157.873,453.865,160.491z"/>
</g>
<path style="fill:#FD6F71;" d="M327.102,13.438L13.438,327.102c-17.918,17.918-17.918,46.969,0,64.887l59.688,59.688
	c17.918,17.918,46.969,17.918,64.887,0l313.663-313.663c17.918-17.918,17.918-46.969,0-64.887l-59.688-59.688
	C374.071-4.479,345.02-4.479,327.102,13.438z"/>
<path style="fill:#F74F50;" d="M176.181,374.504l198.322-198.322c25.929-25.929,25.929-68.118,0-94.046l-58.049-58.05
	L24.085,316.454l58.05,58.05C108.064,400.432,150.253,400.432,176.181,374.504z"/>
<path style="fill:#FD6F71;" d="M244.261,45.939L45.939,244.262c-13.901,13.901-13.901,36.439,0,50.34l58.05,58.05
	c13.901,13.901,36.439,13.901,50.34,0L352.65,154.329c13.901-13.901,13.901-36.439,0-50.34l-58.05-58.051
	C280.7,32.038,258.162,32.038,244.261,45.939z"/>
<g>
	<path style="fill:#596674;" d="M160.679,252.721c-3.017,3.017-7.91,3.017-10.927,0l-8.329-8.329c-3.017-3.017-3.017-7.91,0-10.927
		c3.017-3.017,7.91-3.017,10.927,0l8.329,8.329C163.697,244.811,163.697,249.703,160.679,252.721z"/>
	<path style="fill:#596674;" d="M252.721,160.679c-3.017,3.017-7.91,3.017-10.927,0l-8.329-8.329c-3.017-3.017-3.017-7.91,0-10.927
		c3.017-3.017,7.91-3.017,10.927,0l8.329,8.329C255.737,152.769,255.737,157.662,252.721,160.679z"/>
	<path style="fill:#596674;" d="M211.146,211.146c-6.004,6.004-14.156,9.13-22.365,8.578c-4.258-0.286-7.477-3.969-7.191-8.227
		c0.285-4.257,3.968-7.477,8.227-7.191c3.76,0.252,7.552-1.237,10.403-4.088s4.34-6.642,4.088-10.403
		c-0.286-4.257,2.934-7.941,7.192-8.226c4.258-0.285,7.941,2.934,8.227,7.192C220.275,196.991,217.149,205.142,211.146,211.146z"/>
</g>
<g>
</g>
<g>
</g>
<g>
</g>
<g>
</g>
<g>
</g>
<g>
</g>
<g>
</g>
<g>
</g>
<g>
</g>
<g>
</g>
<g>
</g>
<g>
</g>
<g>
</g>
<g>
</g>
<g>
</g>
</svg>
