<?xml version="1.0" encoding="iso-8859-1"?>
<!-- Generator: Adobe Illustrator 19.0.0, SVG Export Plug-In . SVG Version: 6.00 Build 0)  -->
<svg version="1.1" id="Capa_1" xmlns="http://www.w3.org/2000/svg" xmlns:xlink="http://www.w3.org/1999/xlink" x="0px" y="0px"
	 viewBox="0 0 511.999 511.999" style="enable-background:new 0 0 511.999 511.999;" xml:space="preserve">
<path style="fill:#FA9F6A;" d="M425.312,256.036l-42.328-72.887l0,0v-14.582c0-10.317-8.364-18.681-18.681-18.681H317.01
	c-10.317,0-18.681,8.364-18.681,18.681l-42.329,87.47l42.328,87.47c0,10.317,8.364,18.681,18.681,18.681h47.293
	c10.317,0,18.681-8.364,18.681-18.681v-14.582l0,0L425.312,256.036z"/>
<path style="fill:#58B78C;" d="M213.671,153.984L213.671,153.984v-14.582c0-10.317-8.364-18.681-18.681-18.681h-47.294
	c-10.317,0-18.681,8.364-18.681,18.681L86.687,255.634l42.328,117.035c0,10.317,8.364,18.681,18.681,18.681h47.293
	c10.317,0,18.681-8.364,18.681-18.681v-14.582l42.328-102.052L213.671,153.984z"/>
<path style="fill:#85CDEA;" d="M110.334,105.738H63.041c-10.317,0-18.681,8.364-18.681,18.681V386.85
	c0,10.317,8.364,18.681,18.681,18.681h47.293c10.317,0,18.681-8.364,18.681-18.681V124.419
	C129.015,114.102,120.651,105.738,110.334,105.738z"/>
<path style="fill:#4FB6E0;" d="M64.964,386.85V124.419c0-10.317,8.364-18.681,18.681-18.681H63.041
	c-10.317,0-18.681,8.364-18.681,18.681V386.85c0,10.317,8.364,18.681,18.681,18.681h20.604
	C73.327,405.532,64.964,397.168,64.964,386.85z"/>
<path style="fill:#1C9C61;" d="M149.989,120.721h-2.291c-10.317,0-18.681,8.364-18.681,18.681l0,0v233.267
	c0,10.317,8.364,18.681,18.681,18.681h2.491c-0.357-1.444-0.569-2.945-0.569-4.501v-262.43
	C149.619,123.152,149.749,121.917,149.989,120.721z"/>
<path style="fill:#FAE076;" d="M279.646,135.303h-47.293c-10.317,0-18.681,8.364-18.681,18.681v204.104
	c0,10.317,8.364,18.681,18.681,18.681h47.293c10.317,0,18.681-8.364,18.681-18.681V153.984
	C298.328,143.667,289.964,135.303,279.646,135.303z"/>
<path style="fill:#EDBD4E;" d="M234.275,358.088V153.984c0-10.317,8.364-18.681,18.681-18.681h-20.604
	c-10.317,0-18.681,8.364-18.681,18.681v204.104c0,10.317,8.364,18.681,18.681,18.681h20.604
	C242.639,376.769,234.275,368.405,234.275,358.088z"/>
<path style="fill:#EA7F49;" d="M317.009,362.187h2.388c-0.296-1.321-0.466-2.69-0.466-4.099V153.984c0-1.41,0.169-2.778,0.466-4.099
	h-2.388c-10.317,0-18.681,8.364-18.681,18.681v174.939C298.328,353.823,306.692,362.187,317.009,362.187z"/>
<path style="fill:#FD6F71;" d="M448.958,164.466h-47.293c-10.317,0-18.681,8.364-18.681,18.681v145.775
	c0,10.317,8.364,18.681,18.681,18.681h47.293c10.317,0,18.681-8.364,18.681-18.681V183.149
	C467.64,172.83,459.276,164.466,448.958,164.466z"/>
<path style="fill:#F74F50;" d="M403.587,328.923V183.149c0-10.317,8.364-18.681,18.681-18.681h-20.604
	c-10.317,0-18.681,8.364-18.681,18.681v145.775c0,10.317,8.364,18.681,18.681,18.681h20.604
	C411.951,347.605,403.587,339.241,403.587,328.923z"/>
<g>
	<circle style="fill:#EFEDEE;" cx="86.689" cy="146.78" r="9.115"/>
	<circle style="fill:#EFEDEE;" cx="171.339" cy="159.019" r="9.115"/>
	<circle style="fill:#EFEDEE;" cx="255.999" cy="171.257" r="9.115"/>
	<circle style="fill:#EFEDEE;" cx="340.66" cy="183.496" r="9.115"/>
	<circle style="fill:#EFEDEE;" cx="425.31" cy="195.734" r="9.115"/>
	<circle style="fill:#EFEDEE;" cx="86.689" cy="365.292" r="9.115"/>
	<circle style="fill:#EFEDEE;" cx="171.339" cy="353.053" r="9.115"/>
	<circle style="fill:#EFEDEE;" cx="255.999" cy="340.815" r="9.115"/>
	<circle style="fill:#EFEDEE;" cx="340.66" cy="328.576" r="9.115"/>
	<circle style="fill:#EFEDEE;" cx="425.31" cy="316.327" r="9.115"/>
</g>
<g>
	<path style="fill:#FA9F6A;" d="M352.21,39.867H94.58c-10.293,0-18.636,8.343-18.636,18.636s8.343,18.636,18.636,18.636h257.631
		V39.867H352.21z"/>
	<path style="fill:#FA9F6A;" d="M352.21,472.133H94.58c-10.293,0-18.636-8.343-18.636-18.636c0-10.293,8.343-18.636,18.636-18.636
		h257.631v37.272H352.21z"/>
</g>
<path style="fill:#EA7F49;" d="M293.295,58.503c0,6.406,0.743,12.637,2.103,18.636h56.812V39.867h-56.812
	C294.037,45.866,293.295,52.097,293.295,58.503z"/>
<circle style="fill:#FAE076;" cx="377.551" cy="58.503" r="58.503"/>
<path style="fill:#EA7F49;" d="M293.295,453.497c0,6.406,0.743,12.637,2.103,18.636h56.812V434.86h-56.812
	C294.038,440.86,293.295,447.092,293.295,453.497z"/>
<circle style="fill:#FAE076;" cx="377.551" cy="453.496" r="58.503"/>
<g>
	<path style="fill:#596674;" d="M382.642,29.554h-6.636c-4.268,0-7.726-3.459-7.726-7.726s3.458-7.726,7.726-7.726h6.636
		c4.268,0,7.726,3.459,7.726,7.726S386.91,29.554,382.642,29.554z"/>
	<path style="fill:#596674;" d="M382.642,102.905h-6.636c-4.268,0-7.726-3.459-7.726-7.726c0-4.267,3.458-7.726,7.726-7.726h6.636
		c4.268,0,7.726,3.459,7.726,7.726C390.368,99.445,386.91,102.905,382.642,102.905z"/>
	<path style="fill:#596674;" d="M376.464,75.282c-1.805,0-3.617-0.628-5.082-1.909c-4.225-3.692-6.647-9.112-6.647-14.87
		s2.423-11.177,6.647-14.87c3.213-2.808,8.094-2.48,10.902,0.733c2.808,3.213,2.48,8.094-0.733,10.902
		c-0.866,0.757-1.363,1.936-1.363,3.235c0,1.298,0.497,2.478,1.363,3.235c3.213,2.808,3.542,7.689,0.733,10.902
		C380.756,74.387,378.616,75.282,376.464,75.282z"/>
	<path style="fill:#596674;" d="M382.642,497.899h-6.636c-4.268,0-7.726-3.459-7.726-7.726s3.458-7.726,7.726-7.726h6.636
		c4.268,0,7.726,3.459,7.726,7.726S386.91,497.899,382.642,497.899z"/>
	<path style="fill:#596674;" d="M382.642,424.548h-6.636c-4.268,0-7.726-3.459-7.726-7.726c0-4.267,3.458-7.726,7.726-7.726h6.636
		c4.268,0,7.726,3.459,7.726,7.726C390.368,421.089,386.91,424.548,382.642,424.548z"/>
	<path style="fill:#596674;" d="M376.464,470.276c-1.805,0-3.617-0.628-5.082-1.909c-4.225-3.692-6.647-9.112-6.647-14.87
		c0-5.758,2.423-11.177,6.647-14.87c3.213-2.808,8.094-2.48,10.902,0.733c2.808,3.213,2.48,8.094-0.733,10.902
		c-0.866,0.757-1.363,1.936-1.363,3.235s0.497,2.478,1.363,3.235c3.213,2.808,3.542,7.689,0.733,10.902
		C380.756,469.381,378.616,470.276,376.464,470.276z"/>
</g>
<g>
</g>
<g>
</g>
<g>
</g>
<g>
</g>
<g>
</g>
<g>
</g>
<g>
</g>
<g>
</g>
<g>
</g>
<g>
</g>
<g>
</g>
<g>
</g>
<g>
</g>
<g>
</g>
<g>
</g>
</svg>
