<?xml version="1.0" encoding="iso-8859-1"?>
<!-- Generator: Adobe Illustrator 19.0.0, SVG Export Plug-In . SVG Version: 6.00 Build 0)  -->
<svg version="1.1" id="Capa_1" xmlns="http://www.w3.org/2000/svg" xmlns:xlink="http://www.w3.org/1999/xlink" x="0px" y="0px"
	 viewBox="0 0 512.002 512.002" style="enable-background:new 0 0 512.002 512.002;" xml:space="preserve">
<g>
	<path style="fill:#FAE076;" d="M147.587,103.141c29.511,17.166,56.168,45.818,73.258,80.92l0.284,38.123l-20.464,41.982
		l-32.066,26.159l-37.604,18.195l-32.533-2.077c-35.101-17.091-63.754-43.748-80.92-73.258l5.281-36.739l24.893-51.897l44.952-40.7
		l29.941,2.093L147.587,103.141z"/>
	<path style="fill:#FAE076;" d="M364.415,103.141c-29.511,17.166-56.168,45.818-73.258,80.92l-0.284,38.123l20.464,41.982
		l32.066,26.159l37.604,18.195l32.533-2.077c35.101-17.091,63.754-43.748,80.92-73.258l-5.281-36.739l-24.893-51.897l-44.952-40.7
		l-29.941,2.093L364.415,103.141z"/>
</g>
<path style="fill:#EDBD4E;" d="M120.315,284.591c-35.101-17.091-63.754-43.748-80.92-73.258c-4.802-8.254-8.694-16.73-11.586-25.283
	l-4.987,10.397l-5.28,36.74l0,0c6.973,11.988,15.843,23.506,26.27,34.103c15.24,15.488,33.807,29.008,54.649,39.155l32.533,2.077
	l23.067-11.161C142.31,294.116,131.014,289.803,120.315,284.591z"/>
<path style="fill:#FD6F71;" d="M17.542,233.186c3.837-0.732,7.27-2.613,9.921-5.263c3.464-3.465,5.61-8.249,5.61-13.537
	s2.14-10.066,5.604-13.53c3.464-3.465,8.249-5.61,13.538-5.61s10.072-2.146,13.537-5.61c3.465-3.465,5.604-8.242,5.604-13.53
	c0-5.288,2.146-10.072,5.61-13.538c3.465-3.465,8.249-5.61,13.538-5.61c5.289,0,10.066-2.14,13.53-5.604
	c3.465-3.465,5.61-8.249,5.61-13.537s2.146-10.072,5.61-13.538c3.464-3.466,8.242-5.604,13.53-5.604
	c5.288,0,10.072-2.146,13.537-5.61c2.651-2.651,4.532-6.084,5.263-9.921c-41.016-23.862-87.54-25.54-121.562,8.483
	S-6.32,192.17,17.542,233.186z"/>
<g>
	<path style="fill:#596674;" d="M160.681,179.685c-1.978,0-3.955-0.754-5.464-2.263l-6.725-6.726
		c-3.017-3.017-3.017-7.91,0.001-10.927c3.016-3.017,7.909-3.016,10.926,0l6.725,6.726c3.017,3.017,3.017,7.91-0.001,10.927
		C164.636,178.93,162.658,179.685,160.681,179.685z"/>
	<path style="fill:#596674;" d="M86.359,254.008c-1.978,0-3.955-0.754-5.464-2.263l-6.725-6.726
		c-3.017-3.017-3.017-7.91,0.001-10.927c3.017-3.017,7.91-3.016,10.926,0l6.725,6.726c3.017,3.017,3.017,7.91-0.001,10.927
		C90.314,253.254,88.336,254.008,86.359,254.008z"/>
	<path style="fill:#596674;" d="M114.964,225.586c-0.534,0-1.066-0.018-1.602-0.054c-4.258-0.286-7.477-3.969-7.191-8.227
		c0.286-4.259,3.981-7.476,8.227-7.191c2.599,0.175,5.25-0.87,7.247-2.868c1.999-1.998,3.044-4.641,2.869-7.25
		c-0.284-4.258,2.936-7.941,7.193-8.226c4.228-0.284,7.94,2.934,8.225,7.193c0.473,7.058-2.211,14.06-7.361,19.21
		C127.812,222.935,121.471,225.586,114.964,225.586z"/>
</g>
<g>
	<path style="fill:#EDBD4E;" d="M200.559,262.045c72.423,59.795,163.943,129.431,134.63,158.744
		c-29.313,29.313-98.949-62.208-158.744-134.63L200.559,262.045z"/>
	<path style="fill:#EDBD4E;" d="M290.873,222.184l9.059,18.585c3.275-12.15,7.703-23.82,13.078-34.855
		c17.091-35.101,43.748-63.754,73.258-80.92c12.778-7.434,26.091-12.701,39.393-15.417l-6.327-5.729l-29.941,2.093l-24.978-2.801
		c-7.377,4.292-14.577,9.302-21.493,14.95c-9.763,7.972-18.67,16.969-26.65,26.721c-9.651,11.794-18.172,24.989-25.116,39.249
		L290.873,222.184z"/>
</g>
<path style="fill:#FD6F71;" d="M494.46,233.186c-3.837-0.732-7.27-2.613-9.921-5.263c-3.465-3.465-5.61-8.249-5.61-13.537
	s-2.14-10.066-5.604-13.53c-3.465-3.465-8.249-5.61-13.538-5.61c-5.289,0-10.072-2.146-13.537-5.61s-5.604-8.242-5.604-13.53
	c0-5.288-2.146-10.072-5.61-13.538c-3.465-3.465-8.249-5.61-13.538-5.61s-10.066-2.14-13.53-5.604s-5.61-8.249-5.61-13.537
	s-2.146-10.072-5.61-13.538c-3.465-3.465-8.242-5.604-13.53-5.604c-5.288,0-10.072-2.146-13.537-5.61
	c-2.651-2.651-4.532-6.084-5.263-9.921c41.016-23.862,87.54-25.54,121.562,8.483S518.322,192.17,494.46,233.186z"/>
<g>
	<path style="fill:#596674;" d="M351.319,179.685c-1.977,0-3.955-0.754-5.463-2.263c-3.018-3.017-3.018-7.91-0.001-10.927
		l6.725-6.726c3.018-3.017,7.911-3.017,10.926,0c3.018,3.017,3.018,7.91,0.001,10.927l-6.725,6.726
		C355.274,178.93,353.296,179.685,351.319,179.685z"/>
	<path style="fill:#596674;" d="M425.644,254.008c-1.977,0-3.955-0.754-5.463-2.263c-3.018-3.017-3.018-7.91-0.001-10.927
		l6.725-6.726c3.018-3.017,7.911-3.017,10.926,0c3.018,3.017,3.018,7.91,0.001,10.927l-6.725,6.726
		C429.599,253.254,427.621,254.008,425.644,254.008z"/>
	<path style="fill:#596674;" d="M397.038,225.586c-6.507,0-12.849-2.652-17.611-7.413c-5.151-5.151-7.833-12.154-7.36-19.212
		c0.286-4.259,4.005-7.476,8.227-7.191c4.258,0.286,7.477,3.969,7.191,8.227c-0.176,2.608,0.871,5.251,2.868,7.248
		c1.998,1.999,4.656,3.044,7.248,2.868c4.26-0.285,7.941,2.934,8.227,7.192c0.285,4.258-2.934,7.941-7.191,8.227
		C398.105,225.569,397.57,225.586,397.038,225.586z"/>
</g>
<path style="fill:#FAE076;" d="M311.443,262.045C239.02,321.84,147.5,391.476,176.813,420.789
	c29.313,29.313,98.949-62.208,158.744-134.63L311.443,262.045z"/>
<path style="fill:#58B78C;" d="M98.462,306.444c17.696,8.621,37.021,14.806,57.348,17.703c48.324,6.886,89.623-34.414,82.737-82.737
	c-2.897-20.328-9.081-39.652-17.703-57.348c-1.584,0.878-3.023,1.962-4.292,3.232c-3.465,3.465-5.604,8.255-5.61,13.538
	c0,5.289-2.14,10.066-5.604,13.53s-8.249,5.61-13.537,5.61c-5.283,0.006-10.072,2.146-13.538,5.61
	c-3.464,3.465-5.598,8.249-5.604,13.53c0,5.289-2.146,10.072-5.61,13.537c-3.464,3.465-8.249,5.61-13.537,5.61
	c-5.283,0.006-10.066,2.14-13.53,5.604s-5.604,8.255-5.61,13.538c0,5.289-2.146,10.072-5.61,13.537
	c-3.464,3.465-8.242,5.604-13.53,5.604c-5.283,0.006-10.072,2.146-13.538,5.61C100.424,303.421,99.339,304.86,98.462,306.444z"/>
<path style="fill:#1C9C61;" d="M155.817,324.147c11.8,1.681,24.002,0.478,35.216-3.576c4.669-1.688,9.155-3.864,13.382-6.466
	c9.307-5.733,17.286-13.544,23.223-22.722c-14.111,9.127-31.525,13.539-49.974,10.91c-16.556-2.359-32.446-6.9-47.333-13.162
	c-0.49,0.63-1.005,1.241-1.57,1.806c-3.464,3.465-8.242,5.604-13.53,5.604c-5.283,0.006-10.072,2.146-13.538,5.61
	c-1.268,1.268-2.354,2.707-3.231,4.292c11.06,5.388,22.756,9.824,34.935,13.101C140.705,321.512,148.186,323.06,155.817,324.147z"/>
<path style="fill:#F74F50;" d="M27.462,227.923c3.464-3.465,5.61-8.249,5.61-13.538c0-3.555,0.984-6.867,2.67-9.717
	c-17.893-34.69-19.803-72.539,2.098-103.081c-1.003,0.719-1.999,1.464-2.986,2.233c-0.059,0.046-0.117,0.094-0.177,0.14
	c-0.919,0.719-1.832,1.461-2.737,2.224c-0.288,0.245-0.573,0.502-0.86,0.751c-0.693,0.6-1.386,1.2-2.07,1.828
	c-1.005,0.925-2.004,1.874-2.989,2.859c-20.2,20.202-27.814,44.811-25.672,70.056c0.451,5.315,1.334,10.658,2.624,15.994
	c2.901,12.007,7.857,23.977,14.569,35.513C21.379,232.453,24.812,230.573,27.462,227.923z"/>
<path style="fill:#58B78C;" d="M413.54,306.444c-17.696,8.621-37.021,14.806-57.348,17.703
	c-48.324,6.886-89.623-34.414-82.737-82.737c2.897-20.328,9.081-39.652,17.703-57.348c1.584,0.878,3.023,1.962,4.292,3.232
	c3.465,3.465,5.604,8.255,5.61,13.538c0,5.289,2.14,10.066,5.604,13.53s8.249,5.61,13.537,5.61
	c5.283,0.006,10.072,2.146,13.538,5.61c3.465,3.465,5.598,8.249,5.604,13.53c0,5.289,2.146,10.072,5.61,13.537
	c3.465,3.465,8.249,5.61,13.537,5.61c5.283,0.006,10.066,2.14,13.53,5.604s5.604,8.255,5.61,13.538
	c0,5.289,2.146,10.072,5.61,13.537c3.465,3.465,8.242,5.604,13.53,5.604c5.283,0.006,10.072,2.146,13.538,5.61
	C411.578,303.421,412.663,304.86,413.54,306.444z"/>
<path style="fill:#1C9C61;" d="M273.453,241.422c-1.413,9.932-0.804,20.185,1.869,29.86c1.117,4.035,2.586,7.986,4.383,11.768
	c4.34,9.134,10.586,17.312,18.216,23.943c2.612,2.269,5.392,4.363,8.297,6.243c-9.127-14.111-13.539-31.525-10.91-49.974
	c2.359-16.556,6.9-32.446,13.161-47.333c-0.63-0.491-1.241-1.005-1.806-1.57c-3.465-3.464-5.604-8.242-5.604-13.53
	c-0.006-5.283-2.146-10.073-5.61-13.538c-1.268-1.268-2.707-2.354-4.292-3.232c-4.31,8.848-8.012,18.103-10.997,27.687
	C277.14,221.439,274.885,231.374,273.453,241.422z"/>
<path style="fill:#F74F50;" d="M369.678,113.063c3.465,3.465,8.249,5.61,13.538,5.61c3.554,0,6.867,0.984,9.716,2.669
	c34.69-17.893,72.539-19.803,103.079,2.096c-0.719-1.003-1.464-1.999-2.233-2.986c-0.043-0.056-0.089-0.11-0.132-0.166
	c-2.391-3.031-4.938-5.934-7.668-8.664c-17.011-17.011-37.148-25.097-58.159-25.948c-2.626-0.106-5.266-0.1-7.916,0.018
	c-18.545,0.816-37.544,7.009-55.488,17.448C365.148,106.978,367.028,110.412,369.678,113.063z"/>
<g>
</g>
<g>
</g>
<g>
</g>
<g>
</g>
<g>
</g>
<g>
</g>
<g>
</g>
<g>
</g>
<g>
</g>
<g>
</g>
<g>
</g>
<g>
</g>
<g>
</g>
<g>
</g>
<g>
</g>
</svg>
