<?xml version="1.0" encoding="iso-8859-1"?>
<!-- Generator: Adobe Illustrator 19.0.0, SVG Export Plug-In . SVG Version: 6.00 Build 0)  -->
<svg version="1.1" id="Capa_1" xmlns="http://www.w3.org/2000/svg" xmlns:xlink="http://www.w3.org/1999/xlink" x="0px" y="0px"
	 viewBox="0 0 512 512" style="enable-background:new 0 0 512 512;" xml:space="preserve">
<path style="fill:#D2D2D2;" d="M406.647,458.574l28.934-20.595V288.762c0-8.317,6.743-15.059,15.059-15.059
	s15.059,6.743,15.059,15.059v149.217l28.934,20.595c6.776,4.823,8.358,14.226,3.536,21.001c-4.823,6.777-14.226,8.358-21.001,3.537
	L450.64,464.23l-26.526,18.882c-2.649,1.885-5.699,2.791-8.72,2.791c-4.707,0-9.344-2.2-12.281-6.327
	C398.289,472.799,399.871,463.397,406.647,458.574z"/>
<path style="fill:#A1A1A1;" d="M450.638,273.703c8.317,0,15.059,6.743,15.059,15.059v64.297l-30.117,9.934v-74.23
	C435.58,280.446,442.322,273.703,450.638,273.703z"/>
<g>
	
		<rect x="399.693" y="63.2" transform="matrix(0.9502 -0.3117 0.3117 0.9502 -25.323 136.6248)" style="fill:#D2D2D2;" width="30.113" height="168.664"/>
	<path style="fill:#D2D2D2;" d="M105.354,458.574L76.42,437.979V288.762c0-8.317-6.743-15.059-15.059-15.059
		s-15.059,6.743-15.059,15.059v149.217l-28.933,20.595c-6.776,4.823-8.358,14.226-3.536,21.001
		c4.823,6.777,14.226,8.358,21.001,3.537l26.526-18.882l26.526,18.882c2.649,1.885,5.699,2.791,8.72,2.791
		c4.707,0,9.344-2.2,12.281-6.327C113.711,472.799,112.129,463.397,105.354,458.574z"/>
	
		<rect x="82.181" y="63.192" transform="matrix(-0.9502 -0.3117 0.3117 -0.9502 143.6485 318.007)" style="fill:#D2D2D2;" width="30.113" height="168.664"/>
</g>
<g>
	<path style="fill:#FAE076;" d="M136.829,26.851c-7.903-2.592-16.41,1.713-19.002,9.616l-8.605,26.233l28.617,9.387l8.605-26.233
		C149.036,37.95,144.731,29.443,136.829,26.851z"/>
	<path style="fill:#FAE076;" d="M375.171,26.851c7.903-2.592,16.41,1.713,19.002,9.616l8.605,26.233l-28.617,9.387l-8.605-26.233
		C362.964,37.95,367.269,29.443,375.171,26.851z"/>
</g>
<g>
	<path style="fill:#D2D2D2;" d="M165.445,408.291l-27.633,63.033c-3.013,6.873,2.022,14.579,9.527,14.579h18.036
		c4.13,0,7.869-2.444,9.527-6.225l13.339-30.426L165.445,408.291z"/>
	<path style="fill:#D2D2D2;" d="M346.555,408.291l27.633,63.033c3.013,6.873-2.022,14.579-9.527,14.579h-18.035
		c-4.13,0-7.869-2.444-9.527-6.225l-13.339-30.426L346.555,408.291z"/>
</g>
<path style="fill:#A1A1A1;" d="M61.362,273.703c-8.317,0-15.059,6.743-15.059,15.059v64.297l30.117,9.934v-74.23
	C76.42,280.446,69.678,273.703,61.362,273.703z"/>
<polygon style="fill:#FD6F71;" points="16.742,279.191 41.578,189.969 111.779,195.359 176.709,234.539 151.872,323.761 
	75.936,317.948 "/>
<path style="fill:#F74F50;" d="M70.555,314.425l5.382,3.523l75.936,5.811l24.837-89.221l-62.804-37.897
	C87.107,228.578,70.855,269.64,70.555,314.425z"/>
<path style="fill:#EFEDEE;" d="M176.709,234.539l-135.131-44.57c-4.379-1.444-6.758-6.165-5.314-10.544l5.776-17.512
	c1.444-4.379,6.165-6.758,10.544-5.314l135.13,44.57L176.709,234.539z"/>
<path style="fill:#596674;" d="M140.866,357.129l-135.13-44.57c-4.379-1.444-6.758-6.165-5.314-10.544l5.776-17.512
	c1.444-4.379,6.165-6.758,10.544-5.314l135.13,44.57L140.866,357.129z"/>
<polygon style="fill:#FD6F71;" points="495.259,279.191 470.422,189.969 400.221,195.359 335.291,234.539 360.128,323.761 
	436.064,317.948 "/>
<path style="fill:#F74F50;" d="M441.445,314.425l-5.382,3.523l-75.936,5.811l-24.837-89.221l62.804-37.897
	C424.893,228.578,441.145,269.64,441.445,314.425z"/>
<path style="fill:#EFEDEE;" d="M335.291,234.539l135.13-44.57c4.379-1.444,6.758-6.165,5.314-10.544l-5.776-17.512
	c-1.444-4.379-6.165-6.758-10.544-5.314l-135.13,44.57L335.291,234.539z"/>
<path style="fill:#596674;" d="M371.134,357.129l135.13-44.57c4.379-1.444,6.758-6.165,5.314-10.544l-5.776-17.512
	c-1.444-4.379-6.165-6.758-10.544-5.314l-135.13,44.57L371.134,357.129z"/>
<path style="fill:#364E66;" d="M70.539,315.683c0,6.262,0.316,12.451,0.925,18.556l69.402,22.891l11.005-33.369l-80.418-26.524
	C70.853,303.305,70.539,309.459,70.539,315.683z"/>
<path style="fill:#D2D2D2;" d="M103.43,210.37l73.279,24.169l11.005-33.369l-59.622-19.664
	C118.926,190.248,110.662,199.925,103.43,210.37z"/>
<path style="fill:#364E66;" d="M441.462,315.683c0,6.262-0.316,12.451-0.925,18.556l-69.402,22.891l-11.005-33.369l80.418-26.524
	C441.147,303.305,441.462,309.459,441.462,315.683z"/>
<path style="fill:#D2D2D2;" d="M408.57,210.37l-73.279,24.169l-11.005-33.369l59.622-19.664
	C393.074,190.248,401.338,199.925,408.57,210.37z"/>
<circle style="fill:#FD6F71;" cx="256" cy="315.688" r="154.558"/>
<circle style="fill:#EFEDEE;" cx="256" cy="315.688" r="122.592"/>
<path style="fill:#D2D2D2;" d="M154.012,315.683c0-64.235,49.406-116.923,112.29-122.157c-3.398-0.282-6.831-0.435-10.302-0.435
	c-67.706,0-122.592,54.886-122.592,122.592S188.294,438.274,256,438.274c3.471,0,6.904-0.151,10.302-0.435
	C203.419,432.606,154.012,379.919,154.012,315.683z"/>
<g>
	<path style="fill:#596674;" d="M182.484,326.511c-4.267,0-7.726-3.459-7.726-7.726V305.48c0-4.267,3.459-7.726,7.726-7.726
		c4.267,0,7.726,3.459,7.726,7.726v13.305C190.211,323.052,186.751,326.511,182.484,326.511z"/>
	<path style="fill:#596674;" d="M329.516,326.511c-4.267,0-7.726-3.459-7.726-7.726V305.48c0-4.267,3.459-7.726,7.726-7.726
		s7.726,3.459,7.726,7.726v13.305C337.242,323.052,333.783,326.511,329.516,326.511z"/>
	<path style="fill:#596674;" d="M256,333.613c-9.302,0-18.035-3.889-23.962-10.67c-2.808-3.213-2.481-8.094,0.732-10.902
		s8.093-2.481,10.902,0.732c2.992,3.423,7.485,5.387,12.327,5.387c4.842,0,9.336-1.964,12.328-5.387
		c2.807-3.213,7.689-3.541,10.902-0.732s3.541,7.689,0.731,10.902C274.034,329.724,265.302,333.613,256,333.613z"/>
</g>
<rect x="95.441" y="72.678" transform="matrix(0.3117 -0.9502 0.9502 0.3117 -2.9334 171.4192)" style="fill:#A1A1A1;" width="42.822" height="30.113"/>
<path style="fill:#EDBD4E;" d="M185.6,69.79L72.101,32.561c-17.913-5.875-37.196,3.883-43.072,21.795l0,0l178.365,58.506l0,0
	C213.269,94.949,203.511,75.665,185.6,69.79z"/>
<rect x="380.091" y="66.313" transform="matrix(-0.9502 0.3117 -0.3117 -0.9502 797.9531 47.9138)" style="fill:#A1A1A1;" width="30.113" height="42.822"/>
<path style="fill:#EDBD4E;" d="M326.401,69.79l113.498-37.229c17.913-5.875,37.196,3.883,43.072,21.795l0,0l-178.365,58.506l0,0
	C298.731,94.949,308.489,75.665,326.401,69.79z"/>
<g>
</g>
<g>
</g>
<g>
</g>
<g>
</g>
<g>
</g>
<g>
</g>
<g>
</g>
<g>
</g>
<g>
</g>
<g>
</g>
<g>
</g>
<g>
</g>
<g>
</g>
<g>
</g>
<g>
</g>
</svg>
