<?xml version="1.0" encoding="iso-8859-1"?>
<!-- Generator: Adobe Illustrator 19.0.0, SVG Export Plug-In . SVG Version: 6.00 Build 0)  -->
<svg version="1.1" id="Capa_1" xmlns="http://www.w3.org/2000/svg" xmlns:xlink="http://www.w3.org/1999/xlink" x="0px" y="0px"
	 viewBox="0 0 512 512" style="enable-background:new 0 0 512 512;" xml:space="preserve">
<polygon style="fill:#FA9F6A;" points="395.254,82.348 370.488,107.124 375.299,131.89 404.886,141.522 429.651,116.746 
	433.412,78.588 "/>
<path style="fill:#E8742E;" d="M332.385,214.02c53.844,53.844,24.305,124.137-50.638,142.668c-2.367,0.585-4.62,1.628-6.438,3.253
	c-12.857,11.495-7.259,34.654-9.936,49.872c-7.551,42.93-43.386,91.288-87.827,100.309c-46.778,9.494-93.55-18.507-125.356-50.313
	C20.385,428.004-7.616,381.232,1.878,334.453c9.02-44.442,57.379-80.276,100.309-87.827c15.219-2.676,38.378,2.921,49.872-9.936
	c1.626-1.817,2.668-4.07,3.253-6.438c18.531-74.943,88.823-104.482,142.668-50.638L332.385,214.02z"/>
<path style="fill:#EDBD4E;" d="M70.403,441.597c-15.464-15.464-27.71-32.587-35.412-49.518c-8.502-18.685-11.15-36.351-7.872-52.504
	c6.748-33.246,46.569-61.787,79.529-67.585c2.585-0.454,7.147-0.483,11.56-0.511c14.936-0.095,37.506-0.237,53.051-17.624
	c4.354-4.869,7.402-10.731,9.055-17.423c7.34-29.684,24.557-50.98,46.055-56.964c17.677-4.92,36.641,1.599,53.399,18.358
	l34.405,34.405c16.759,16.759,23.278,35.723,18.357,53.399c-5.984,21.498-27.279,38.715-56.966,46.056
	c-6.681,1.65-12.543,4.696-17.416,9.049c-17.392,15.551-17.535,38.121-17.628,53.055c-0.028,4.412-0.057,8.976-0.511,11.561
	c-5.797,32.961-34.337,72.781-67.585,79.53c-16.152,3.278-33.818,0.629-52.504-7.872C102.989,469.308,85.867,457.062,70.403,441.597
	z"/>
<polygon style="fill:#FA9F6A;" points="323.409,183.028 296.171,181.441 271.405,206.207 271.405,230.488 305.803,240.605 
	330.569,215.839 "/>
<polygon style="fill:#EA7F49;" points="305.803,240.605 256.251,290.146 221.854,255.748 271.405,206.207 "/>
<polygon style="fill:#FA9F6A;" points="370.488,140.036 345.712,131.89 320.947,156.666 323.409,183.028 355.344,191.063 
	380.11,166.287 "/>
<rect x="308.245" y="161.932" transform="matrix(-0.7071 0.7071 -0.7071 -0.7071 687.8141 87.607)" style="fill:#EA7F49;" width="35.036" height="48.645"/>
<circle style="fill:#596674;" cx="225.208" cy="286.792" r="34.999"/>
<path style="fill:#EA7F49;" d="M145.012,415.243l-48.256-48.256c-4.321-4.321-11.325-4.321-15.644,0l-9.357,9.357
	c-4.321,4.321-4.321,11.325,0,15.644l48.256,48.256c4.321,4.321,11.325,4.321,15.644,0l9.357-9.357
	C149.333,426.567,149.333,419.563,145.012,415.243z"/>
<g>
	<path style="fill:#596674;" d="M109.187,327.28c-1.977,0-3.955-0.754-5.464-2.263c-3.017-3.017-3.017-7.91,0-10.927l7.534-7.535
		c3.018-3.017,7.91-3.017,10.927,0c3.017,3.017,3.017,7.91,0,10.927l-7.534,7.535C113.142,326.525,111.164,327.28,109.187,327.28z"
		/>
	<path style="fill:#596674;" d="M192.446,410.539c-1.977,0-3.955-0.754-5.464-2.263c-3.017-3.017-3.017-7.91,0-10.927l7.534-7.535
		c3.018-3.017,7.91-3.017,10.927,0s3.017,7.91,0,10.927l-7.534,7.535C196.401,409.785,194.423,410.539,192.446,410.539z"/>
	<path style="fill:#596674;" d="M160.402,378.701c-7.043,0-13.912-2.874-19.071-8.032c-5.58-5.58-8.488-13.163-7.975-20.801
		c0.286-4.259,3.973-7.474,8.227-7.192c4.258,0.286,7.477,3.969,7.191,8.227c-0.214,3.189,1.055,6.412,3.483,8.839
		c2.428,2.428,5.646,3.697,8.84,3.483c4.271-0.286,7.941,2.934,8.227,7.192c0.285,4.258-2.934,7.941-7.191,8.227
		C161.556,378.681,160.978,378.701,160.402,378.701z"/>
</g>
<path style="fill:#E8742E;" d="M499.735,12.266c-14.118-14.118-34.744-16.381-46.07-5.055l-45.016,45.016l-13.398,30.118
	l34.405,34.405l30.118-13.398l45.016-45.016C516.115,47.01,513.852,26.384,499.735,12.266z"/>
<g>
	<path style="fill:#596674;" d="M432.687,69.422c-1.977,0-3.955-0.754-5.464-2.263c-3.017-3.017-3.017-7.91,0-10.927l30.447-30.447
		c3.018-3.017,7.91-3.017,10.927,0s3.017,7.91,0,10.927L438.15,67.158C436.642,68.668,434.664,69.422,432.687,69.422z"/>
	<path style="fill:#596674;" d="M450.304,87.039c-1.977,0-3.955-0.754-5.464-2.263c-3.017-3.017-3.017-7.91,0-10.927l30.447-30.447
		c3.018-3.017,7.91-3.017,10.927,0c3.017,3.017,3.017,7.91,0,10.927l-30.447,30.447C454.259,86.285,452.281,87.039,450.304,87.039z"
		/>
</g>
<polygon style="fill:#EA7F49;" points="404.886,141.522 380.11,166.287 345.712,131.89 370.488,107.124 "/>
<g>
</g>
<g>
</g>
<g>
</g>
<g>
</g>
<g>
</g>
<g>
</g>
<g>
</g>
<g>
</g>
<g>
</g>
<g>
</g>
<g>
</g>
<g>
</g>
<g>
</g>
<g>
</g>
<g>
</g>
</svg>
