<?xml version="1.0" encoding="iso-8859-1"?>
<!-- Generator: Adobe Illustrator 19.0.0, SVG Export Plug-In . SVG Version: 6.00 Build 0)  -->
<svg version="1.1" id="Capa_1" xmlns="http://www.w3.org/2000/svg" xmlns:xlink="http://www.w3.org/1999/xlink" x="0px" y="0px"
	 viewBox="0 0 512.001 512.001" style="enable-background:new 0 0 512.001 512.001;" xml:space="preserve">
<path style="fill:#85CDEA;" d="M69.06,295.297l-28.815,22.058c-3.926,3.001-5.479,8.193-3.85,12.868l60.811,174.101
	c2.727,7.81,12.587,10.236,18.633,4.581l291.663-272.89c3.084-2.888,4.327-7.229,3.24-11.306l-19.387-72.811
	c-1.066-4.004,0.112-8.265,3.082-11.159l78.343-76.219c2.613-2.536,3.854-6.162,3.36-9.754L470.02,9.915
	c-1.184-8.704-11.33-12.881-18.301-7.548L288.652,127.195l-81.076,123.807L69.06,295.297z"/>
<path style="fill:#4FB6E0;" d="M116.9,492.673l-64.488-184.63l-12.166,9.314c-3.926,3.001-5.479,8.193-3.85,12.868l60.811,174.101
	c2.727,7.81,12.587,10.236,18.633,4.581l8.983-8.405C121.305,499.314,118.278,496.622,116.9,492.673z"/>
<g>
	<polygon style="fill:#EFEDEE;" points="142.259,239.261 105.657,267.276 116.077,321.043 163.095,346.789 199.698,318.774 
		189.276,265.008 	"/>
	<polygon style="fill:#EFEDEE;" points="215.451,183.232 178.856,211.24 189.276,265.008 236.295,290.753 272.89,262.743 
		262.472,208.98 	"/>
	<polygon style="fill:#EFEDEE;" points="252.054,155.217 262.472,208.98 309.492,234.73 346.09,206.708 288.651,127.196 	"/>
</g>
<g>
	<polygon style="fill:#D2D2D2;" points="105.657,267.276 163.095,346.789 126.498,374.81 69.06,295.297 	"/>
	<polygon style="fill:#D2D2D2;" points="178.856,211.24 236.295,290.753 199.698,318.774 142.259,239.261 	"/>
	<polygon style="fill:#D2D2D2;" points="252.054,155.217 309.492,234.73 272.89,262.743 215.451,183.232 	"/>
</g>
<path style="fill:#FD6F71;" d="M394.585,99.581l-10.062-10.625c-2.3-2.43-6.136-2.534-8.566-0.234l-20.595,19.502
	c-2.43,2.3-2.534,6.136-0.234,8.566l10.062,10.625c2.3,2.43,6.136,2.534,8.566,0.234l20.595-19.502
	C396.782,105.846,396.886,102.011,394.585,99.581z"/>
<path style="fill:#EFEDEE;" d="M445.741,53.792L435.68,43.165c-2.3-2.43-6.136-2.534-8.566-0.234l-20.595,19.502
	c-2.43,2.3-2.534,6.136-0.234,8.566l10.062,10.625c2.3,2.43,6.136,2.534,8.566,0.234l20.595-19.502
	C447.937,60.056,448.042,56.221,445.741,53.792z"/>
<g>
	<polygon style="fill:#596674;" points="174.564,338.01 134.153,282.069 110.747,298.977 151.627,355.568 	"/>
	<polygon style="fill:#596674;" points="211.165,309.995 171.502,255.088 148.096,271.996 188.229,327.551 	"/>
	<polygon style="fill:#596674;" points="247.763,281.975 208.85,228.108 185.445,245.015 224.827,299.532 	"/>
	<polygon style="fill:#596674;" points="284.366,253.961 246.199,201.127 222.793,218.035 261.428,271.516 	"/>
	<polygon style="fill:#596674;" points="320.967,225.944 283.548,174.147 260.143,191.054 298.031,243.502 	"/>
	<path style="fill:#596674;" d="M214.398,374.131c-2.224,0-4.431-0.955-5.959-2.802l-7.812-9.445
		c-2.72-3.288-2.258-8.158,1.03-10.879c3.289-2.719,8.159-2.257,10.879,1.03l7.812,9.445c2.72,3.288,2.258,8.158-1.03,10.879
		C217.877,373.551,216.132,374.131,214.398,374.131z"/>
	<path style="fill:#596674;" d="M318.772,287.811c-2.223,0-4.431-0.955-5.958-2.802l-7.811-9.445
		c-2.72-3.288-2.258-8.159,1.03-10.879c3.286-2.719,8.159-2.258,10.878,1.03l7.811,9.445c2.72,3.288,2.258,8.159-1.03,10.879
		C322.251,287.231,320.507,287.811,318.772,287.811z"/>
	<path style="fill:#596674;" d="M256.525,341.238c-1.538,0-3.078-0.123-4.61-0.372c-4.212-0.686-7.069-4.657-6.383-8.868
		s4.654-7.069,8.868-6.383c3.958,0.645,8.125-0.551,11.427-3.281c3.303-2.731,5.259-6.598,5.369-10.609
		c0.116-4.266,3.617-7.625,7.934-7.512c4.266,0.116,7.629,3.67,7.512,7.934c-0.232,8.468-4.229,16.521-10.967,22.094
		C270.171,338.792,263.383,341.238,256.525,341.238z"/>
</g>
<circle style="fill:#FAE076;" cx="169.867" cy="401.555" r="16.817"/>
<circle style="fill:#FD6F71;" cx="129.906" cy="445.585" r="16.817"/>
<g>
</g>
<g>
</g>
<g>
</g>
<g>
</g>
<g>
</g>
<g>
</g>
<g>
</g>
<g>
</g>
<g>
</g>
<g>
</g>
<g>
</g>
<g>
</g>
<g>
</g>
<g>
</g>
<g>
</g>
</svg>
