<?xml version="1.0" encoding="iso-8859-1"?>
<!-- Generator: Adobe Illustrator 19.0.0, SVG Export Plug-In . SVG Version: 6.00 Build 0)  -->
<svg version="1.1" id="Capa_1" xmlns="http://www.w3.org/2000/svg" xmlns:xlink="http://www.w3.org/1999/xlink" x="0px" y="0px"
	 viewBox="0 0 512 512" style="enable-background:new 0 0 512 512;" xml:space="preserve">
<g>
	<polygon style="fill:#596674;" points="414.106,109.246 385.964,111.384 362.918,134.432 364.397,158.955 388.92,160.432 
		411.966,137.386 	"/>
	<polygon style="fill:#596674;" points="364.397,158.955 339.872,157.478 316.826,180.524 318.3,205.051 342.828,206.525 
		365.874,183.479 	"/>
	<polygon style="fill:#596674;" points="318.3,205.051 293.772,203.577 270.726,226.624 272.205,251.147 296.728,252.624 
		319.774,229.578 	"/>
</g>
<path style="fill:#FD6F71;" d="M271.466,238.896c0,0-47.299-10.999-31.892-59.085s-30.345-63.025-69.561,42.484
	c-18.18,40.689-78.902,1.912-167.282,114.382c-7.312,9.306,1.132,22.636,12.659,19.956c40.847-9.502,107.769-18.725,138.912,12.418
	c31.584,31.584,23.18,53.059-8.566,83.871c-31.746,30.813,21.752,27.507,60.457-5.369c55.789-47.385,36.181-92.203,95.472-110.411
	c63.025-14.472,86.835-37.348,81.233-56.022C377.295,262.445,280.95,320.39,271.466,238.896z"/>
<path style="fill:#F74F50;" d="M382.898,281.119c-1.668-5.56-11.379-4.328-24.447-2.007c-9.568,13.718-34.315,27.535-77.389,37.425
	c-59.29,18.207-39.683,63.025-95.472,110.411c-11.184,9.498-23.598,16.523-34.839,20.975c-1.601,1.64-3.271,3.304-5.015,4.997
	c-31.746,30.813,21.752,27.507,60.457-5.369c55.789-47.385,36.181-92.203,95.472-110.411
	C364.69,322.668,388.5,299.793,382.898,281.119z"/>
<polygon style="fill:#596674;" points="272.205,251.147 247.68,249.67 213.955,283.395 239.956,309.397 273.682,275.67 "/>
<g>
	<circle style="fill:#EFEDEE;" cx="129.236" cy="293.416" r="14.966"/>
	<circle style="fill:#EFEDEE;" cx="79.212" cy="307.602" r="12.679"/>
</g>
<g>
	
		<rect x="255.907" y="232.758" transform="matrix(-0.7071 0.7071 -0.7071 -0.7071 642.2639 236.253)" style="fill:#364E66;" width="32.592" height="36.771"/>
	
		<rect x="301.995" y="186.673" transform="matrix(-0.7071 0.7071 -0.7071 -0.7071 688.3641 124.9877)" style="fill:#364E66;" width="32.602" height="36.771"/>
	
		<rect x="348.094" y="140.571" transform="matrix(-0.7071 0.7071 -0.7071 -0.7071 734.4518 13.6924)" style="fill:#364E66;" width="32.592" height="36.771"/>
</g>
<g>
	<path style="fill:#EFEDEE;" d="M253.542,301.623l-31.813-31.813c-3.158-3.158-8.276-3.158-11.434,0l-9.925,9.925
		c-3.158,3.158-3.158,8.276,0,11.434l31.813,31.813c3.158,3.158,8.276,3.158,11.434,0l9.925-9.925
		C256.698,309.899,256.698,304.78,253.542,301.623z"/>
	<path style="fill:#EFEDEE;" d="M215.825,339.34l-31.813-31.813c-3.158-3.158-8.276-3.158-11.434,0l-9.925,9.925
		c-3.158,3.158-3.158,8.276,0,11.434l31.813,31.813c3.158,3.158,8.276,3.158,11.434,0l9.925-9.925
		C218.982,347.616,218.982,342.497,215.825,339.34z"/>
</g>
<path style="fill:#FD6F71;" d="M493.342,38.544l-73.378,24.95c-13.442,4.571-23.885,15.298-28.093,28.857l-5.907,19.034
	l26.003,26.003c0,0,30.02-0.793,41.924-19.7c11.905-18.907,47.619-30.813,47.619-30.813l9.799-30.697
	C514.829,45.153,504.298,34.819,493.342,38.544z"/>
<path style="fill:#F74F50;" d="M499.543,37.868c0.221,1.904,0.054,3.914-0.595,5.947l-9.799,30.697c0,0-35.714,11.905-47.619,30.813
	c-11.905,18.908-41.924,19.7-41.924,19.7l12.362,12.362c0,0,30.02-0.793,41.924-19.7c11.905-18.908,47.619-30.813,47.619-30.813
	l9.799-30.697C514.149,47.282,507.84,38.842,499.543,37.868z"/>
<g>
</g>
<g>
</g>
<g>
</g>
<g>
</g>
<g>
</g>
<g>
</g>
<g>
</g>
<g>
</g>
<g>
</g>
<g>
</g>
<g>
</g>
<g>
</g>
<g>
</g>
<g>
</g>
<g>
</g>
</svg>
