<?xml version="1.0" encoding="iso-8859-1"?>
<!-- Generator: Adobe Illustrator 19.0.0, SVG Export Plug-In . SVG Version: 6.00 Build 0)  -->
<svg version="1.1" id="Capa_1" xmlns="http://www.w3.org/2000/svg" xmlns:xlink="http://www.w3.org/1999/xlink" x="0px" y="0px"
	 viewBox="0 0 512 512" style="enable-background:new 0 0 512 512;" xml:space="preserve">
<path style="fill:#85CDEA;" d="M481.821,64.697H30.179C13.512,64.697,0,78.209,0,94.878v289.397
	c0,16.667,13.512,30.179,30.179,30.179h451.642c16.667,0,30.179-13.512,30.179-30.179V94.878
	C512,78.209,498.488,64.697,481.821,64.697z"/>
<path style="fill:#4FB6E0;" d="M26.785,384.275V94.878c0-16.667,13.512-30.179,30.179-30.179H30.179
	C13.512,64.698,0,78.209,0,94.878v289.397c0,16.667,13.512,30.179,30.179,30.179h26.785
	C40.297,414.454,26.785,400.942,26.785,384.275z"/>
<g>
	<polygon style="fill:#D2D2D2;" points="170.84,174.282 114.06,174.282 85.675,310.792 114.06,447.303 170.84,447.303 
		199.225,310.792 	"/>
	<polygon style="fill:#D2D2D2;" points="284.39,174.282 227.61,174.282 199.225,310.792 227.61,447.303 284.39,447.303 
		312.775,310.792 	"/>
	<polygon style="fill:#D2D2D2;" points="397.94,174.282 341.16,174.282 312.775,310.792 341.16,447.303 397.94,447.303 
		426.325,310.792 	"/>
</g>
<g>
	<path style="fill:#596674;" d="M172.005,130.758c-4.267,0-7.726-3.459-7.726-7.726V107.83c0-4.267,3.459-7.726,7.726-7.726
		c4.267,0,7.726,3.459,7.726,7.726v15.201C179.732,127.298,176.272,130.758,172.005,130.758z"/>
	<path style="fill:#596674;" d="M339.996,130.758c-4.267,0-7.726-3.459-7.726-7.726V107.83c0-4.267,3.459-7.726,7.726-7.726
		c4.267,0,7.726,3.459,7.726,7.726v15.201C347.722,127.298,344.263,130.758,339.996,130.758z"/>
	<path style="fill:#596674;" d="M256,138.873c-10.309,0-19.986-4.306-26.549-11.814c-2.808-3.213-2.481-8.094,0.732-10.902
		s8.094-2.481,10.902,0.732c3.627,4.151,9.064,6.53,14.914,6.53c5.85,0,11.287-2.381,14.914-6.53
		c2.809-3.213,7.689-3.54,10.902-0.732c3.213,2.808,3.541,7.689,0.732,10.902C275.986,134.566,266.309,138.873,256,138.873z"/>
	<circle style="fill:#596674;" cx="52.4" cy="121.973" r="17.728"/>
</g>
<circle style="fill:#FD6F71;" cx="111.074" cy="121.973" r="17.728"/>
<g>
	<path style="fill:#596674;" d="M466.333,129.7h-60c-4.267,0-7.726-3.459-7.726-7.726c0-4.267,3.459-7.726,7.726-7.726h60
		c4.267,0,7.726,3.459,7.726,7.726C474.059,126.24,470.6,129.7,466.333,129.7z"/>
	<path style="fill:#596674;" d="M466.333,105.159h-60c-4.267,0-7.726-3.459-7.726-7.726c0-4.267,3.459-7.726,7.726-7.726h60
		c4.267,0,7.726,3.459,7.726,7.726C474.059,101.699,470.6,105.159,466.333,105.159z"/>
	<path style="fill:#596674;" d="M466.333,154.242h-60c-4.267,0-7.726-3.459-7.726-7.726c0-4.267,3.459-7.726,7.726-7.726h60
		c4.267,0,7.726,3.459,7.726,7.726C474.059,150.782,470.6,154.242,466.333,154.242z"/>
</g>
<path style="fill:#EFEDEE;" d="M96.192,174.282H84.88c-15.241,0-27.59,12.35-27.59,27.59v217.84c0,15.239,12.35,27.59,27.59,27.59
	h29.18V319.932L96.192,174.282z"/>
<rect x="96.188" y="174.286" style="fill:#596674;" width="35.736" height="145.647"/>
<polygon style="fill:#EFEDEE;" points="284.39,319.932 284.39,447.303 341.16,447.303 341.16,319.932 323.312,174.282 
	302.267,174.282 "/>
<g>
	<rect x="323.312" y="174.286" style="fill:#596674;" width="35.736" height="145.647"/>
	<rect x="266.528" y="174.286" style="fill:#596674;" width="35.736" height="145.647"/>
</g>
<polygon style="fill:#EFEDEE;" points="170.84,319.932 170.84,447.303 227.61,447.303 227.61,174.282 188.708,174.282 "/>
<rect x="152.972" y="174.286" style="fill:#596674;" width="35.736" height="145.647"/>
<path style="fill:#EFEDEE;" d="M397.94,319.932v127.371h29.18c15.239,0,27.59-12.35,27.59-27.59v-217.84
	c0-15.239-12.35-27.59-27.59-27.59h-11.292L397.94,319.932z"/>
<rect x="380.096" y="174.286" style="fill:#596674;" width="35.736" height="145.647"/>
<g>
</g>
<g>
</g>
<g>
</g>
<g>
</g>
<g>
</g>
<g>
</g>
<g>
</g>
<g>
</g>
<g>
</g>
<g>
</g>
<g>
</g>
<g>
</g>
<g>
</g>
<g>
</g>
<g>
</g>
</svg>
