<?xml version="1.0" encoding="iso-8859-1"?>
<!-- Generator: Adobe Illustrator 19.0.0, SVG Export Plug-In . SVG Version: 6.00 Build 0)  -->
<svg version="1.1" id="Capa_1" xmlns="http://www.w3.org/2000/svg" xmlns:xlink="http://www.w3.org/1999/xlink" x="0px" y="0px"
	 viewBox="0 0 511.987 511.987" style="enable-background:new 0 0 511.987 511.987;" xml:space="preserve">
<g>
	<path style="fill:#596674;" d="M463.9,398.215v106.771c0,3.866-3.135,7.001-7.001,7.001h-22.115c-3.866,0-7.001-3.135-7.001-7.001
		V398.215H463.9z"/>
	<path style="fill:#596674;" d="M47.13,398.215v106.771c0,3.866,3.135,7.001,7.001,7.001h22.115c3.866,0,7.001-3.135,7.001-7.001
		V398.215H47.13z"/>
</g>
<g>
	<rect x="47.13" y="398.214" style="fill:#364E66;" width="36.118" height="58.978"/>
	<rect x="427.781" y="398.214" style="fill:#364E66;" width="36.118" height="58.978"/>
</g>
<path style="fill:#596674;" d="M18.675,370.143v43.175c0,7.163,5.807,12.97,12.97,12.97h447.742c7.163,0,12.97-5.807,12.97-12.97
	v-43.175H18.675z"/>
<g>
	<polygon style="fill:#D2D2D2;" points="113.408,323.061 66.038,323.061 42.359,346.6 66.038,370.14 113.408,370.14 137.093,346.6 	
		"/>
	<polygon style="fill:#D2D2D2;" points="208.146,323.061 160.777,323.061 137.093,346.6 160.777,370.14 208.146,370.14 
		231.83,346.6 	"/>
	<polygon style="fill:#D2D2D2;" points="302.885,323.061 255.515,323.061 231.83,346.6 255.515,370.14 302.885,370.14 
		325.932,346.6 	"/>
	<polygon style="fill:#D2D2D2;" points="397.624,323.061 350.254,323.061 325.932,346.6 350.254,370.14 397.624,370.14 
		421.307,346.6 	"/>
	<polygon style="fill:#D2D2D2;" points="444.992,323.061 421.307,346.6 444.992,370.14 492.352,370.14 492.352,323.061 	"/>
</g>
<path style="fill:#EFEDEE;" d="M424.379,58.021l55.097,158.213c2.832,8.134-1.465,17.024-9.599,19.857
	c-1.698,0.591-3.428,0.872-5.13,0.872c-6.451,0-12.486-4.034-14.727-10.471L394.922,68.279L424.379,58.021z"/>
<path style="fill:#D2D2D2;" d="M450.02,226.492c2.242,6.437,8.276,10.471,14.727,10.471c1.702,0,3.433-0.28,5.13-0.872
	c8.134-2.833,12.431-11.723,9.599-19.857l-16.753-48.106h-33.03L450.02,226.492z"/>
<rect x="249.574" y="-130.238" transform="matrix(-0.4158 -0.9095 0.9095 -0.4158 269.045 422.9509)" style="fill:#596674;" width="41.59" height="510.599"/>
<g>
	<polygon style="fill:#364E66;" points="126.136,168.128 29.554,212.286 46.846,250.109 226.155,168.128 	"/>
	<polygon style="fill:#364E66;" points="444.511,241.565 66.435,236.414 18.675,275.973 18.675,323.057 492.356,323.057 
		492.356,275.973 	"/>
</g>
<path style="fill:#596674;" d="M492.356,199.034H18.675c-9.879,0-17.888,8.009-17.888,17.888v41.162
	c0,9.879,8.009,17.888,17.888,17.888h473.682c9.879,0,17.888-8.009,17.888-17.888v-41.161
	C510.245,207.043,502.235,199.034,492.356,199.034z"/>
<g>
	<path style="fill:#EFEDEE;" d="M185.099,248.2c-4.268,0-7.726-3.459-7.726-7.726v-12.744c0-4.267,3.458-7.726,7.726-7.726
		s7.726,3.459,7.726,7.726v12.744C192.826,244.742,189.366,248.2,185.099,248.2z"/>
	<path style="fill:#EFEDEE;" d="M325.932,248.2c-4.268,0-7.726-3.459-7.726-7.726v-12.744c0-4.267,3.458-7.726,7.726-7.726
		c4.268,0,7.726,3.459,7.726,7.726v12.744C333.659,244.742,330.199,248.2,325.932,248.2z"/>
	<path style="fill:#EFEDEE;" d="M255.515,255.003c-9.003,0-17.458-3.765-23.198-10.331c-2.809-3.213-2.481-8.094,0.732-10.902
		c3.211-2.808,8.092-2.481,10.901,0.732c2.805,3.208,7.019,5.048,11.564,5.048c4.543,0,8.758-1.84,11.563-5.048
		c2.807-3.213,7.689-3.541,10.902-0.732c3.212,2.808,3.541,7.689,0.731,10.902C272.974,251.238,264.519,255.003,255.515,255.003z"/>
	<rect x="397.628" y="323.062" style="fill:#EFEDEE;" width="47.369" height="47.078"/>
	<rect x="302.882" y="323.062" style="fill:#EFEDEE;" width="47.369" height="47.078"/>
	<rect x="208.146" y="323.062" style="fill:#EFEDEE;" width="47.369" height="47.078"/>
	<rect x="113.411" y="323.062" style="fill:#EFEDEE;" width="47.369" height="47.078"/>
	<rect x="18.676" y="323.062" style="fill:#EFEDEE;" width="47.358" height="47.078"/>
</g>
<g>
</g>
<g>
</g>
<g>
</g>
<g>
</g>
<g>
</g>
<g>
</g>
<g>
</g>
<g>
</g>
<g>
</g>
<g>
</g>
<g>
</g>
<g>
</g>
<g>
</g>
<g>
</g>
<g>
</g>
</svg>
