<?xml version="1.0" encoding="iso-8859-1"?>
<!-- Generator: Adobe Illustrator 19.0.0, SVG Export Plug-In . SVG Version: 6.00 Build 0)  -->
<svg version="1.1" id="Capa_1" xmlns="http://www.w3.org/2000/svg" xmlns:xlink="http://www.w3.org/1999/xlink" x="0px" y="0px"
	 viewBox="0 0 512 512" style="enable-background:new 0 0 512 512;" xml:space="preserve">
<path style="fill:#596674;" d="M511.794,13.606L511.794,13.606c-0.122-7.505-6.206-13.531-13.712-13.599
	c-15.065-0.136-41.509,1.931-67.564,7.428l-31.913,27.717l35.788,19.729l14.689,0.343c9.791,0.229,18.978-4.721,24.172-13.025l0,0
	c3.836-6.133,9.915-10.524,16.942-12.241l11.054-2.699C507.523,25.728,511.899,20.06,511.794,13.606z"/>
<path style="fill:#EDBD4E;" d="M435.95,55.951l-5.432-48.517c0,0-67.417-0.002-123.711,96.021L153.729,364.569
	c-7.887,13.453-25.187,17.966-38.641,10.079l-0.04-0.024c-13.908-8.154-18.138-26.252-9.372-39.783
	c21.614-33.361,55.4-97.356,51.883-167.022l-69.824,10.235l-62.529,41.797c2.301,9.668,8.202,56.486,8.309,59.505
	c0.878,24.841-2.057,51.031-8.393,75.632c-7.915,30.734-18.715,65.266-8.205,96.696c12.831,38.373,55.977,62.45,95.201,60.167
	c46.594-2.711,81.114-39.164,102.084-77.935C297.256,280.35,353.592,46.028,435.95,55.951z"/>
<g>
	<path style="fill:#D99D2E;" d="M315.42,91.645c-6.932-4.064-9.47-12.914-5.648-20.063c3.917-7.326,13.03-10.09,20.356-6.173
		l56.229,30.063c7.307,3.919,10.09,13.03,6.173,20.356c-3.917,7.326-13.03,10.09-20.356,6.173l-56.229-30.063
		C315.768,91.844,315.592,91.746,315.42,91.645z"/>
	<path style="fill:#D99D2E;" d="M281.449,146.726c-6.991-4.098-9.497-13.04-5.579-20.195c3.99-7.287,13.131-9.96,20.416-5.971
		l60.411,33.073c7.28,3.997,9.961,13.131,5.971,20.417c-3.99,7.288-13.13,9.96-20.416,5.971l-60.411-33.073
		C281.708,146.876,281.577,146.801,281.449,146.726z"/>
	<path style="fill:#D99D2E;" d="M246.248,206.699c-7.06-4.139-9.526-13.188-5.498-20.349c4.074-7.24,13.245-9.807,20.485-5.734
		l67.033,37.714c0.079,0.045,0.159,0.091,0.236,0.136c7.06,4.139,9.526,13.188,5.498,20.349c-4.074,7.24-13.245,9.807-20.485,5.734
		l-67.033-37.714C246.405,206.789,246.327,206.744,246.248,206.699z"/>
</g>
<g>
	<circle style="fill:#FAE076;" cx="323.034" cy="78.675" r="21.597"/>
	<circle style="fill:#FAE076;" cx="289.058" cy="133.759" r="21.597"/>
	<circle style="fill:#FAE076;" cx="253.857" cy="193.726" r="21.597"/>
	<circle style="fill:#FAE076;" cx="104.172" cy="383.361" r="31.091"/>
	<circle style="fill:#FAE076;" cx="114.288" cy="294.364" r="31.091"/>
</g>
<path style="fill:#D99D2E;" d="M157.559,167.819l-69.824,10.236l-62.529,41.797c1.122,4.713,3.099,18.254,4.844,31.246
	c0.699-0.237,1.395-0.49,2.085-0.761l124.355-48.889C157.696,190.46,158.134,179.218,157.559,167.819z"/>
<path style="fill:#FAE076;" d="M173.553,148.712L173.553,148.712c-1.562-9.486-11.474-15.116-20.421-11.599L9.779,193.471
	c-6.624,2.604-10.529,9.481-9.374,16.504l0,0c1.562,9.486,11.474,15.116,20.421,11.598l143.352-56.357
	C170.803,162.612,174.708,155.736,173.553,148.712z"/>
<g>
</g>
<g>
</g>
<g>
</g>
<g>
</g>
<g>
</g>
<g>
</g>
<g>
</g>
<g>
</g>
<g>
</g>
<g>
</g>
<g>
</g>
<g>
</g>
<g>
</g>
<g>
</g>
<g>
</g>
</svg>
