<?xml version="1.0" encoding="iso-8859-1"?>
<!-- Generator: Adobe Illustrator 19.0.0, SVG Export Plug-In . SVG Version: 6.00 Build 0)  -->
<svg version="1.1" id="Capa_1" xmlns="http://www.w3.org/2000/svg" xmlns:xlink="http://www.w3.org/1999/xlink" x="0px" y="0px"
	 viewBox="0 0 512 512" style="enable-background:new 0 0 512 512;" xml:space="preserve">
<g>
	
		<rect x="255.796" y="330.841" transform="matrix(-0.7071 0.7071 -0.7071 -0.7071 755.2888 497.8554)" style="fill:#FAE076;" width="37.478" height="149.025"/>
	
		<rect x="313.847" y="272.794" transform="matrix(-0.7071 0.7071 -0.7071 -0.7071 813.3424 357.7155)" style="fill:#FAE076;" width="37.478" height="149.025"/>
	
		<rect x="371.88" y="214.751" transform="matrix(-0.7071 0.7071 -0.7071 -0.7071 871.3681 217.5933)" style="fill:#FAE076;" width="37.478" height="149.025"/>
</g>
<path style="fill:#EDBD4E;" d="M469.869,209.492c-36.535-36.535-95.983-36.535-132.518,0l-87.867,48.703l-54.719,93.883
	c-36.535,36.535-36.535,95.983,0,132.518c36.536,36.536,95.984,36.536,132.519,0.001L469.87,342.012
	C506.405,305.477,506.405,246.029,469.869,209.492z M443.776,315.918L301.189,458.504c-22.147,22.147-58.183,22.147-80.33-0.001
	c-22.147-22.147-22.147-58.183,0-80.33l142.586-142.586c22.147-22.147,58.183-22.147,80.33,0
	C465.923,257.735,465.923,293.772,443.776,315.918z"/>
<path style="fill:#FAE076;" d="M46.758,429.417c0,0-25.39-1.905-46.265,18.971l62.627,62.627
	c20.876-20.876,18.971-46.265,18.971-46.265l5.54-40.872L46.758,429.417z"/>
<g>
	<path style="fill:#EDBD4E;" d="M148.305,279.122c-7.317,7.317-7.317,19.181,0,26.498l26.876,26.876l26.498-26.498l-26.876-26.876
		C167.486,271.805,155.623,271.805,148.305,279.122z"/>
	<path style="fill:#EDBD4E;" d="M206.35,221.078c-7.317,7.317-7.317,19.181,0,26.497l26.876,26.876l26.497-26.498l-26.876-26.876
		C225.531,213.761,213.667,213.761,206.35,221.078z"/>
	<path style="fill:#EDBD4E;" d="M264.394,163.034c-7.317,7.317-7.317,19.181,0,26.498l26.876,26.876l26.497-26.497l-26.876-26.876
		C283.574,155.717,271.711,155.717,264.394,163.034z"/>
	<path style="fill:#EDBD4E;" d="M386.403,35.724c1.574-8.167,2.696-16.457,3.349-24.816L390.604,0c0,0,44.038,4.027,80.457,40.446
		s40.446,80.457,40.446,80.457l-10.908,0.852c-8.359,0.652-16.648,1.774-24.816,3.349L386.403,35.724z"/>
</g>
<path style="fill:#FAE076;" d="M386.403,35.724c-8.367,43.439-29.556,83.606-61.113,115.163L93.172,383.004l-5.54,40.872
	l40.872-5.54l232.117-232.117c31.556-31.557,71.724-52.745,115.163-61.113c-5.454-15.717-15.613-36.401-34.297-55.085
	C422.804,51.336,402.12,41.176,386.403,35.724z"/>
<rect x="54.814" y="398.894" transform="matrix(0.7071 -0.7071 0.7071 0.7071 -274.0585 186.1164)" style="fill:#EDBD4E;" width="65.637" height="49.963"/>
<g>
</g>
<g>
</g>
<g>
</g>
<g>
</g>
<g>
</g>
<g>
</g>
<g>
</g>
<g>
</g>
<g>
</g>
<g>
</g>
<g>
</g>
<g>
</g>
<g>
</g>
<g>
</g>
<g>
</g>
</svg>
