<?xml version="1.0" encoding="iso-8859-1"?>
<!-- Generator: Adobe Illustrator 19.0.0, SVG Export Plug-In . SVG Version: 6.00 Build 0)  -->
<svg version="1.1" id="Capa_1" xmlns="http://www.w3.org/2000/svg" xmlns:xlink="http://www.w3.org/1999/xlink" x="0px" y="0px"
	 viewBox="0 0 512.002 512.002" style="enable-background:new 0 0 512.002 512.002;" xml:space="preserve">
<path style="fill:#85CDEA;" d="M220.721,435.043c-12.89-11.949-25.833-33.791,2.78-62.403c28.612-28.612,43.813-22.312,55.762-9.422
	c7.119,7.679,18.958,8.508,26.908,1.693c27.359-23.455,81.499-71.425,40.984-143.815c-13.183-23.555-32.694-43.066-56.249-56.249
	c-72.391-40.515-120.36,13.625-143.815,40.984c-6.816,7.949-5.985,19.789,1.693,26.908c12.89,11.949,19.19,27.148-9.422,55.762
	c-28.612,28.612-50.454,15.669-62.403,2.78c-7.119-7.679-18.958-8.508-26.907-1.693c-31.336,26.866-89.094,94.606-10.755,183.12
	c88.514,78.34,156.254,20.581,183.12-10.755C229.229,454.002,228.4,442.162,220.721,435.043z"/>
<g>
	<path style="fill:#4FB6E0;" d="M347.154,221.095c-7.787-13.914-17.796-26.4-29.529-37.022c7.36,8.129,13.831,17.078,19.227,26.72
		c40.515,72.391-13.625,120.36-40.984,143.816c-4.285,3.673-9.698,8.113-14.894,10.229c7.195,6.126,17.852,6.369,25.196,0.073
		C333.529,341.456,387.669,293.486,347.154,221.095z"/>
	<path style="fill:#4FB6E0;" d="M212.112,451.649c-26.301,30.677-91.777,86.653-177.563,15.5c1.53,1.844,3.096,3.694,4.745,5.557
		c88.513,78.339,156.254,20.581,183.12-10.755c6.296-7.344,6.054-18.001-0.072-25.196
		C220.225,441.952,215.785,447.365,212.112,451.649z"/>
</g>
<g>
	<polygon style="fill:#596674;" points="391.698,95.829 223.851,257.421 254.58,288.149 416.171,120.302 422.088,89.912 	"/>
	<path style="fill:#596674;" d="M109.507,429.673c-6.421-1.442-12.522-4.661-17.52-9.659s-8.217-11.1-9.659-17.52
		c-1.048-4.667-7.156-5.832-9.922-1.931c-10.674,15.059-26.017,34.322-46.765,55.069l-0.814,16.227
		c-0.433,8.631,6.684,15.747,15.315,15.315l16.227-0.814c20.748-20.748,40.01-36.091,55.069-46.765
		C115.339,436.829,114.173,430.721,109.507,429.673z"/>
	<path style="fill:#596674;" d="M446.005,73.721c-1.977,0-3.955-0.754-5.464-2.263l-40.242-40.242c-3.017-3.017-3.017-7.91,0-10.926
		c3.018-3.017,7.91-3.017,10.927,0l40.242,40.242c3.017,3.017,3.017,7.91,0,10.926C449.96,72.967,447.982,73.721,446.005,73.721z"/>
</g>
<path style="fill:#4FB6E0;" d="M415.948,16.661L400.434,4.896c-2.883-2.187-6.939-1.91-9.499,0.65l-5.379,5.379
	c-2.559,2.559-2.837,6.615-0.65,9.499l11.765,15.515c2.779,3.665,8.156,4.033,11.409,0.781l8.647-8.647
	C419.981,24.817,419.614,19.441,415.948,16.661z"/>
<path style="fill:#596674;" d="M416,103.727c-1.978,0-3.955-0.754-5.464-2.263l-40.242-40.243c-3.017-3.017-3.017-7.91,0-10.926
	c3.019-3.017,7.911-3.017,10.927,0l40.242,40.243c3.017,3.017,3.017,7.91,0,10.926C419.955,102.972,417.977,103.727,416,103.727z"/>
<path style="fill:#4FB6E0;" d="M385.942,46.666l-15.515-11.765c-2.883-2.187-6.939-1.91-9.499,0.65l-5.379,5.379
	c-2.559,2.559-2.837,6.615-0.65,9.499l11.765,15.515c2.779,3.665,8.156,4.033,11.409,0.781l8.647-8.647
	C389.976,54.822,389.608,49.446,385.942,46.666z"/>
<path style="fill:#596674;" d="M486.249,113.964c-1.977,0-3.955-0.754-5.464-2.263l-40.243-40.243c-3.017-3.017-3.017-7.91,0-10.926
	c3.018-3.017,7.91-3.017,10.927,0l40.243,40.243c3.017,3.017,3.017,7.91,0,10.926C490.203,113.21,488.226,113.964,486.249,113.964z"
	/>
<path style="fill:#4FB6E0;" d="M495.339,96.052l11.765,15.515c2.187,2.883,1.91,6.939-0.65,9.499l-5.379,5.379
	c-2.559,2.559-6.615,2.837-9.499,0.65l-15.515-11.765c-3.665-2.779-4.033-8.156-0.781-11.409l8.647-8.647
	C487.183,92.019,492.56,92.387,495.339,96.052z"/>
<path style="fill:#596674;" d="M456.243,143.969c-1.977,0-3.955-0.754-5.464-2.263l-40.242-40.242c-3.017-3.017-3.017-7.91,0-10.926
	c3.018-3.017,7.91-3.017,10.927,0l40.242,40.242c3.017,3.017,3.017,7.91,0,10.926C460.198,143.215,458.22,143.969,456.243,143.969z"
	/>
<path style="fill:#4FB6E0;" d="M465.334,126.058l11.765,15.515c2.187,2.883,1.91,6.939-0.65,9.499l-5.379,5.379
	c-2.559,2.559-6.615,2.837-9.499,0.65l-15.515-11.765c-3.665-2.779-4.033-8.156-0.781-11.409l8.647-8.647
	C457.178,122.024,462.555,122.392,465.334,126.058z"/>
<g>
	<path style="fill:#596674;" d="M125.726,397.797c-1.978,0-3.955-0.754-5.464-2.263l-8.14-8.142
		c-3.017-3.017-3.017-7.91,0.001-10.926c3.017-3.017,7.91-3.017,10.926,0l8.14,8.142c3.017,3.017,3.017,7.91-0.001,10.927
		C129.68,397.042,127.702,397.797,125.726,397.797z"/>
	<path style="fill:#596674;" d="M215.692,307.829c-1.978,0-3.955-0.754-5.464-2.263l-8.14-8.142
		c-3.017-3.017-3.017-7.91,0.001-10.927c3.016-3.017,7.909-3.016,10.926,0l8.14,8.142c3.017,3.017,3.017,7.91-0.001,10.926
		C219.647,307.075,217.669,307.829,215.692,307.829z"/>
	<path style="fill:#596674;" d="M160.352,363.393c-0.609,0-1.22-0.021-1.83-0.062c-4.258-0.285-7.477-3.969-7.191-8.227
		c0.286-4.258,3.981-7.479,8.227-7.191c3.619,0.238,7.281-1.194,10.032-3.945c2.752-2.751,4.189-6.408,3.946-10.034
		c-0.285-4.258,2.934-7.941,7.191-8.226c4.263-0.291,7.941,2.933,8.227,7.191c0.542,8.075-2.533,16.091-8.436,21.995
		C175.061,360.353,167.798,363.393,160.352,363.393z"/>
</g>
<path style="fill:#364E66;" d="M369.441,117.257c0.137,0.14,0.265,0.287,0.404,0.426l24.472,24.472
	c0.139,0.139,0.285,0.269,0.427,0.406l21.429-22.258l5.917-30.391l-30.391,5.918L369.441,117.257z"/>
<path style="fill:#85CDEA;" d="M431.212,119.413l49.435-68.135l-19.926-19.926l-68.135,49.435
	c-4.742,3.735-5.157,10.774-0.889,15.042l24.473,24.473C420.439,124.572,427.476,124.155,431.212,119.413z"/>
<path style="fill:#4FB6E0;" d="M492.698,59.062l15.577-20.974c5.585-7.519,4.815-17.994-1.808-24.617l-7.939-7.939
	c-6.622-6.622-17.098-7.392-24.617-1.808l-20.974,15.577c-9.256,6.874-10.246,20.366-2.094,28.519l13.336,13.336
	C472.332,69.308,485.823,68.318,492.698,59.062z"/>
<g>
</g>
<g>
</g>
<g>
</g>
<g>
</g>
<g>
</g>
<g>
</g>
<g>
</g>
<g>
</g>
<g>
</g>
<g>
</g>
<g>
</g>
<g>
</g>
<g>
</g>
<g>
</g>
<g>
</g>
</svg>
